<?xml version="1.0" standalone="no"?>
<!DOCTYPE svg PUBLIC "-//W3C//DTD SVG 20010904//EN"
 "http://www.w3.org/TR/2001/REC-SVG-20010904/DTD/svg10.dtd">
<svg version="1.0" xmlns="http://www.w3.org/2000/svg"
 width="1000.000000pt" height="1000.000000pt" viewBox="0 0 1000.000000 1000.000000"
 preserveAspectRatio="xMidYMid meet">

<g transform="translate(0.000000,1000.000000) scale(0.100000,-0.100000)"
fill="#000000" stroke="none">
<path d="M0 5000 l0 -5000 5000 0 5000 0 0 5000 0 5000 -5000 0 -5000 0 0
-5000z m3657 3674 c-3 -3 -12 -4 -19 -1 -8 3 -5 6 6 6 11 1 17 -2 13 -5z m-92
-24 c-33 -11 -64 -18 -70 -16 -12 4 82 34 110 34 11 1 -7 -8 -40 -18z m-575
-275 c0 -3 -37 -23 -82 -46 -97 -48 -96 -41 0 13 65 36 82 43 82 33z m4291
-98 c46 -26 95 -57 109 -68 28 -23 -31 8 -140 74 -115 69 -95 65 31 -6z
m-4680 -75 c-13 -9 -42 -28 -64 -41 l-39 -23 12 22 c6 12 30 30 53 41 52 23
70 24 38 1z m5644 -643 l40 -43 -40 31 c-22 17 -62 55 -90 84 l-50 53 50 -41
c28 -23 68 -60 90 -84z m-3425 -116 c32 -22 47 -42 55 -72 4 -14 17 -34 29
-46 l23 -21 64 23 c48 17 73 33 101 65 20 24 39 41 41 38 3 -3 -8 -32 -24 -64
-16 -32 -28 -60 -27 -61 2 -1 51 -5 110 -9 103 -6 107 -6 122 16 9 13 21 40
27 61 5 21 14 35 19 32 16 -10 11 -58 -10 -92 l-20 -33 28 -6 c160 -37 398
-115 386 -127 -3 -3 2 -6 12 -6 11 0 40 -3 66 -7 104 -15 150 17 164 116 4 25
10 54 14 65 7 18 9 17 20 -10 26 -62 24 -121 -4 -178 -14 -30 -35 -58 -47 -63
-19 -9 -15 -13 42 -48 125 -76 366 -266 476 -375 142 -140 273 -304 324 -403
56 -111 23 -90 -76 48 -119 165 -328 399 -450 503 -84 72 -206 161 -220 161
-4 0 -57 27 -118 60 -72 39 -159 76 -242 102 -71 22 -132 44 -135 49 -12 18
-97 39 -258 65 -153 24 -182 26 -347 20 -383 -14 -563 -50 -807 -160 -32 -14
-58 -24 -58 -22 0 17 286 141 408 176 34 10 108 26 164 35 57 9 105 18 108 21
8 9 6 127 -4 147 -11 23 11 23 44 0z m3625 -63 c10 -11 14 -20 8 -20 -5 0 -18
9 -28 20 -10 11 -14 20 -8 20 5 0 18 -9 28 -20z m-4610 -322 c-9 -35 -29 -87
-46 -115 -16 -29 -26 -53 -23 -53 3 0 20 10 36 22 17 12 -41 -50 -128 -137
-87 -87 -162 -158 -166 -157 -4 1 -19 -13 -33 -30 -15 -18 -38 -38 -51 -44
-29 -15 -28 -15 30 66 39 54 192 197 206 193 12 -3 85 71 88 91 2 11 -1 15 -8
11 -6 -4 4 24 24 62 19 38 42 94 51 124 26 83 28 87 33 57 2 -15 -4 -56 -13
-90z m-2947 -215 c-139 -165 -231 -273 -235 -273 -17 0 84 129 176 223 61 63
92 89 59 50z m8324 -222 c107 -146 227 -321 201 -296 -24 24 -198 262 -201
275 -2 8 -11 24 -21 35 -25 29 -63 85 -57 85 2 0 38 -45 78 -99z m449 -568
c13 -16 12 -17 -3 -4 -10 7 -18 15 -18 17 0 8 8 3 21 -13z m64 -83 c25 -33 44
-60 41 -60 -3 0 -26 27 -51 60 -25 33 -44 60 -41 60 3 0 26 -27 51 -60z
m-5145 -40 c322 -24 556 -140 591 -294 24 -110 -28 -263 -117 -345 -52 -49
-140 -94 -223 -116 -73 -19 -267 -34 -436 -35 -182 0 -165 17 -165 -176 0
-101 4 -173 11 -188 10 -22 39 -41 89 -59 8 -3 -23 -6 -70 -6 -47 -1 -163 -4
-257 -8 -118 -4 -173 -3 -173 4 0 6 15 14 34 17 21 4 45 19 60 37 l26 31 0
529 0 530 -24 24 c-14 14 -42 27 -66 31 -22 4 -38 9 -35 13 7 6 264 16 495 19
74 1 191 -3 260 -8z m1285 -28 c-33 -11 -54 -26 -62 -42 -10 -19 -13 -161 -13
-603 l0 -579 29 -29 c16 -16 40 -29 53 -29 13 0 30 -5 38 -10 10 -6 -79 -9
-260 -9 -272 1 -274 1 -221 18 92 28 86 -17 86 648 0 578 0 583 -21 603 -11
12 -38 28 -60 35 -35 13 -13 14 221 14 258 0 260 0 210 -17z m-2350 -21 c3
-15 28 -56 55 -90 28 -33 48 -61 47 -61 -2 0 -66 20 -143 45 -181 59 -300 83
-454 90 -69 3 -167 8 -217 11 l-93 5 0 -290 0 -291 48 0 c89 0 287 21 440 45
l152 25 98 -52 c53 -28 99 -52 101 -54 2 -1 -42 -26 -98 -53 l-101 -51 -172
29 c-95 16 -229 32 -298 36 -69 3 -135 8 -147 11 l-23 4 0 -305 0 -305 43 5
c23 2 128 7 232 10 326 9 414 30 584 139 40 26 75 45 77 43 2 -2 -5 -29 -16
-61 -10 -31 -24 -84 -31 -117 l-12 -60 -611 3 c-502 2 -616 6 -638 17 -33 17
-36 31 -8 31 37 0 97 31 109 56 7 17 11 113 11 289 l0 265 -92 1 c-51 1 -120
5 -153 9 l-60 7 76 2 c42 0 111 4 153 8 l77 6 -3 269 -3 269 -25 19 c-14 11
-44 22 -68 26 -24 3 -40 9 -37 13 25 25 118 29 642 30 l551 1 7 -29z m2952 23
c-3 -3 -12 -4 -19 -1 -8 3 -5 6 6 6 11 1 17 -2 13 -5z m838 -23 c66 -11 150
-29 187 -41 l66 -20 6 -58 c3 -31 8 -93 11 -137 l5 -80 -29 55 c-65 123 -173
210 -315 256 -108 35 -301 44 -425 21 -226 -43 -394 -201 -446 -418 -19 -82
-19 -238 0 -328 39 -185 139 -333 283 -418 73 -42 141 -54 347 -60 178 -5 194
-4 255 17 138 46 245 136 301 253 l30 62 -6 -135 c-4 -74 -9 -138 -11 -141 -8
-14 -164 -49 -284 -65 -170 -22 -486 -15 -611 14 -190 45 -334 118 -445 227
-123 121 -170 247 -162 431 4 90 8 110 40 175 100 211 337 348 688 398 41 6
86 13 100 15 54 10 301 -4 415 -23z m-930 -4 c-130 -49 -263 -144 -398 -285
-42 -45 -79 -82 -82 -82 -3 0 -5 26 -5 58 0 55 2 60 43 99 71 68 144 121 221
158 79 40 191 73 246 74 32 0 30 -2 -25 -22z m-986 -963 c-12 -13 -59 -49
-104 -79 -203 -136 -426 -214 -700 -245 -98 -11 -477 -12 -620 -1 -88 6 -86 6
80 13 323 14 533 50 758 128 214 74 365 160 517 294 l85 75 3 -81 c3 -72 0
-83 -19 -104z m-2755 -670 c56 -57 21 -163 -60 -178 -83 -16 -142 37 -131 118
8 59 43 86 111 86 44 0 58 -5 80 -26z m235 -1 c-1 -17 -3 -21 -6 -10 -3 12
-15 17 -39 17 -32 0 -34 -2 -34 -35 0 -31 3 -35 25 -35 14 0 25 5 25 10 0 6 5
10 10 10 6 0 10 -13 10 -30 0 -16 -4 -30 -10 -30 -5 0 -10 5 -10 10 0 6 -11
10 -25 10 -22 0 -25 -4 -25 -35 0 -22 6 -38 18 -44 13 -8 4 -10 -38 -10 -42 0
-51 2 -37 10 14 8 17 24 17 89 0 65 -3 81 -17 89 -13 8 2 10 60 11 l77 0 -1
-27z m220 20 c0 -5 -4 -17 -9 -28 -7 -17 -9 -17 -9 -2 -1 13 -10 17 -36 17
-33 0 -35 -2 -35 -35 0 -30 3 -35 23 -35 13 0 28 5 35 12 9 9 12 4 12 -22 0
-26 -3 -31 -12 -22 -7 7 -22 12 -35 12 -19 0 -23 -5 -23 -29 0 -16 7 -37 16
-45 14 -15 11 -16 -33 -15 -26 0 -42 3 -35 6 16 6 17 164 0 181 -9 9 5 12 65
12 42 0 77 -3 76 -7z m143 -5 c-7 -7 -12 -43 -12 -90 0 -63 3 -78 15 -78 18 0
20 -16 2 -23 -7 -2 -30 -2 -52 2 -24 4 -34 9 -25 13 22 8 21 165 0 178 -11 7
0 10 35 10 38 0 46 -3 37 -12z m266 -23 l4 -30 -26 28 c-30 32 -54 34 -90 6
-21 -16 -26 -29 -26 -64 0 -65 25 -90 89 -89 59 1 55 -15 -5 -22 -47 -6 -103
20 -122 56 -20 38 -8 101 23 128 23 19 36 22 89 20 60 -3 61 -4 64 -33z m155
28 c-9 -3 -13 -32 -13 -93 0 -61 4 -90 13 -93 6 -3 -10 -5 -38 -5 -27 0 -44 2
-37 5 8 3 12 32 12 93 0 61 -4 90 -12 93 -7 3 10 5 37 5 28 0 44 -2 38 -5z
m228 -84 c21 -46 42 -90 49 -96 8 -10 1 -13 -37 -13 -31 0 -43 3 -34 9 8 5 11
16 6 30 -5 17 -14 21 -45 21 -31 0 -40 -4 -45 -21 -5 -14 -2 -25 6 -30 10 -6
3 -9 -19 -9 -31 0 -32 1 -18 23 8 12 29 57 46 100 18 43 37 76 43 74 6 -2 28
-41 48 -88z m201 79 c-7 -7 -12 -43 -12 -90 l0 -78 35 0 c22 0 38 6 44 18 9
14 10 13 11 -10 l0 -28 -77 0 c-60 0 -74 3 -65 12 7 7 12 43 12 90 0 63 -3 79
-17 87 -14 8 -7 10 32 11 38 0 46 -3 37 -12z m456 -20 c2 -16 -1 -28 -7 -28
-6 0 -11 7 -11 15 0 26 -44 40 -79 25 -42 -17 -57 -65 -37 -114 18 -42 55 -60
106 -51 29 5 33 4 22 -6 -7 -8 -36 -13 -68 -13 -51 0 -59 3 -85 32 -41 45 -40
102 1 143 27 28 34 30 92 27 60 -3 63 -4 66 -30z m249 17 c57 -40 47 -145 -17
-178 -47 -24 -107 -16 -137 19 -17 19 -23 37 -23 72 1 49 11 71 45 90 29 16
107 15 132 -3z m229 -57 l59 -73 3 60 c3 47 0 62 -14 72 -16 11 -13 13 22 12
21 0 33 -3 27 -6 -9 -3 -13 -33 -13 -99 0 -75 -3 -94 -14 -94 -8 0 -44 34 -80
75 l-66 76 0 -70 c0 -46 4 -71 13 -74 6 -3 -6 -6 -28 -6 -32 0 -36 2 -22 10
14 8 17 24 17 89 0 65 -3 81 -17 89 -15 8 -11 10 18 11 34 0 42 -6 95 -72z
m361 37 c2 -28 2 -29 -8 -8 -7 12 -25 25 -41 29 -89 19 -126 -124 -42 -163 28
-14 40 -15 65 -6 22 9 29 9 26 0 -5 -17 -55 -30 -92 -23 -73 14 -112 81 -85
147 18 42 54 59 120 56 53 -2 55 -3 57 -32z m223 15 c0 -11 -4 -20 -10 -20 -5
0 -10 5 -10 10 0 6 -16 10 -35 10 -33 0 -35 -2 -35 -35 0 -32 3 -35 29 -35 16
0 32 6 34 13 3 6 6 -3 6 -22 1 -31 0 -33 -12 -17 -22 31 -52 16 -55 -27 l-3
-37 40 0 c29 0 41 5 44 18 3 10 5 6 6 -10 1 -28 1 -28 -66 -28 l-68 0 3 87 c3
74 1 89 -14 100 -15 11 -5 13 64 13 75 0 82 -2 82 -20z m231 -4 c8 -17 8 -29
-1 -45 -13 -24 -56 -45 -73 -34 -6 4 -2 9 11 14 26 10 30 50 7 69 -26 22 -35
0 -35 -85 0 -71 3 -84 18 -88 9 -3 -8 -5 -38 -6 -38 0 -50 2 -40 9 23 14 27
151 5 173 -15 16 -11 17 60 17 70 0 76 -2 86 -24z m249 -3 c-1 -25 -2 -26 -14
-10 -7 9 -23 17 -35 17 -20 0 -21 -5 -21 -84 0 -58 4 -86 13 -89 6 -3 -10 -5
-38 -5 -27 0 -44 2 -37 5 8 3 12 31 12 89 0 83 0 84 -25 84 -14 0 -25 -4 -25
-10 0 -5 -4 -10 -10 -10 -5 0 -10 9 -10 20 0 19 7 20 95 20 l95 0 0 -27z m301
15 c0 -7 19 -52 42 -100 l43 -88 -46 0 c-29 0 -40 3 -31 9 8 5 11 16 6 30 -5
17 -14 21 -45 21 -30 0 -39 -4 -43 -22 -4 -13 -1 -26 6 -30 7 -4 -2 -8 -22 -8
-32 0 -33 1 -19 18 8 9 30 54 48 100 19 47 38 82 46 82 8 0 14 -6 15 -12z
m237 1 c-15 -8 -18 -24 -18 -89 l0 -80 39 0 c29 0 41 5 44 18 3 10 5 6 6 -10
1 -28 1 -28 -66 -28 l-68 0 3 87 c3 74 1 89 -14 100 -15 11 -10 13 37 13 41
-1 50 -3 37 -11z m300 -1 c18 -18 15 -45 -7 -60 -20 -14 -20 -14 0 -26 27 -17
25 -67 -3 -86 -13 -10 -43 -16 -73 -16 l-50 0 3 87 c3 74 1 89 -14 100 -15 11
-7 13 57 13 45 0 80 -5 87 -12z m164 0 c-7 -7 -12 -40 -12 -78 0 -75 10 -90
57 -90 42 0 53 21 53 99 0 47 -4 62 -17 70 -14 8 -10 10 22 10 22 0 34 -3 28
-6 -8 -3 -13 -26 -13 -62 0 -32 -5 -72 -10 -88 -17 -46 -76 -66 -123 -42 -33
18 -37 28 -37 106 0 58 -3 74 -17 82 -14 8 -7 10 32 11 38 0 46 -3 37 -12z
m307 -61 l33 -72 35 73 c34 70 36 72 72 72 29 -1 33 -3 19 -11 -25 -14 -26
-150 -2 -173 14 -15 11 -16 -33 -15 -26 0 -42 3 -35 6 8 3 12 28 12 76 l0 72
-37 -77 c-20 -43 -40 -78 -44 -78 -5 0 -24 34 -43 75 -19 41 -37 75 -39 75
-11 0 4 -135 16 -142 7 -4 -5 -8 -28 -8 -32 1 -36 3 -22 11 14 8 17 24 17 89
0 65 -3 81 -17 89 -15 8 -10 10 22 11 40 0 40 0 74 -73z m-4148 -206 c-1 -7 2
-10 8 -7 5 4 13 1 17 -5 5 -8 3 -9 -6 -4 -8 5 -11 3 -9 -4 3 -7 8 -12 12 -11
10 1 67 -69 67 -81 0 -12 -17 -11 -41 2 -26 14 -69 105 -68 144 l0 30 11 -25
c6 -14 10 -31 9 -39z m150 -86 c70 -75 165 -205 190 -259 19 -43 25 -111 11
-134 -9 -14 -42 -6 -42 10 0 5 -4 6 -10 3 -5 -3 -10 2 -10 11 0 15 -2 16 -17
2 -27 -23 -92 -50 -103 -43 -6 3 -10 36 -10 73 -1 106 -19 157 -71 202 -60 53
-30 53 74 1 42 -21 77 -36 77 -32 0 16 -71 122 -133 199 -37 45 -67 86 -67 90
0 4 12 -9 27 -28 15 -19 53 -62 84 -95z m3532 -88 c18 -8 39 -22 47 -32 14
-17 12 -18 -45 -11 -60 7 -77 18 -68 43 7 17 25 17 66 0z m-6168 -407 c115
-118 174 -180 129 -137 -44 43 -82 75 -85 72 -3 -2 -46 37 -95 88 -94 97 -185
203 -169 196 6 -2 104 -101 220 -219z m260 -181 c22 -24 -15 8 -83 70 -67 63
-125 119 -129 125 -10 16 165 -144 212 -195z m4572 135 c-3 -3 -12 -4 -19 -1
-8 3 -5 6 6 6 11 1 17 -2 13 -5z m-40 -10 c-3 -3 -12 -4 -19 -1 -8 3 -5 6 6 6
11 1 17 -2 13 -5z m-772 -54 c66 -12 121 -23 124 -26 11 -10 -120 -3 -171 11
-64 16 -141 48 -98 41 14 -3 79 -14 145 -26z m645 8 c-25 -12 -76 -25 -115
-29 -76 -9 -191 -12 -184 -5 3 3 52 10 109 16 58 6 128 17 155 24 72 20 87 18
35 -6z m543 -8 c7 0 -11 -15 -40 -33 -54 -34 -115 -108 -251 -307 -92 -134
-118 -167 -128 -157 -9 8 5 52 44 140 19 44 22 61 13 66 -6 4 -9 15 -5 24 4
12 -2 20 -22 27 -34 13 -57 5 -107 -39 -34 -30 -35 -34 -42 -126 -9 -130 -35
-129 -35 1 0 78 -8 80 -82 22 -66 -52 -64 -49 -82 -126 -15 -68 -35 -106 -65
-121 -18 -10 -18 -8 0 58 10 37 22 79 28 93 5 15 6 30 0 39 -5 8 -9 42 -9 77
0 61 -1 62 -27 64 -56 3 -79 -4 -115 -32 -20 -16 -57 -34 -82 -40 -25 -5 -82
-23 -127 -40 -46 -16 -85 -30 -88 -30 -3 1 20 15 53 31 32 17 81 48 108 69 60
48 52 54 -73 64 -109 8 -150 16 -143 28 4 6 -2 8 -15 3 -12 -4 -21 -2 -21 4 0
6 -7 11 -16 11 -22 0 -114 41 -114 51 0 5 8 6 18 3 9 -2 -20 13 -65 35 -46 22
-83 45 -83 51 0 6 8 9 18 6 90 -26 223 -58 297 -71 123 -23 456 -31 624 -16
228 20 318 44 506 136 50 24 96 41 103 39 8 -2 19 -4 25 -4z m-2161 -32 c5
-30 -10 -89 -26 -106 -10 -10 -12 -2 -9 45 3 32 6 64 8 71 7 20 23 14 27 -10z
m1295 -4 c-3 -3 -12 -4 -19 -1 -8 3 -5 6 6 6 11 1 17 -2 13 -5z m970 -207 l2
-82 -24 53 c-13 28 -29 52 -34 52 -16 0 -13 26 5 44 8 9 23 16 32 16 14 0 17
-13 19 -83z m-2102 41 c14 -12 25 -26 25 -31 0 -6 12 -34 26 -63 14 -29 24
-59 22 -65 -5 -15 -52 33 -74 74 l-15 28 -40 -51 c-23 -29 -43 -49 -46 -47 -2
3 7 27 20 54 13 26 30 65 36 86 7 20 14 37 17 37 2 0 15 -10 29 -22z m5175 12
c0 -5 -5 -10 -11 -10 -5 0 -7 5 -4 10 3 6 8 10 11 10 2 0 4 -4 4 -10z m-85
-57 c-15 -13 -30 -22 -33 -18 -9 9 40 55 51 48 6 -4 -2 -16 -18 -30z m-7685
-194 c19 -17 26 -26 15 -20 -30 15 -71 51 -60 51 6 -1 26 -14 45 -31z m393
-224 c26 -15 46 -30 43 -32 -7 -7 -96 43 -131 73 l-30 26 35 -20 c19 -11 57
-32 83 -47z m1810 -704 c42 -14 77 -29 77 -32 0 -12 -76 12 -136 42 -33 17
-50 27 -39 23 11 -4 55 -18 98 -33z m3647 -107 l-35 -14 38 6 c24 3 37 2 33
-4 -3 -6 -77 -27 -164 -47 -86 -21 -193 -49 -237 -62 -44 -14 -93 -26 -110
-28 -28 -4 -28 -3 5 7 19 7 134 45 255 85 199 66 306 94 215 57z m-4457 -25
c26 -11 78 -21 115 -23 l67 -4 -40 14 c-48 18 -74 39 -30 25 17 -5 109 -32
205 -60 96 -28 213 -65 260 -82 47 -17 100 -35 118 -39 18 -4 38 -12 45 -18 7
-5 32 -17 57 -26 25 -9 56 -26 70 -36 23 -18 23 -20 5 -20 -40 0 -325 81 -525
149 -112 38 -206 68 -208 67 -1 -2 39 -20 90 -41 118 -49 321 -147 288 -139
-53 12 -68 17 -165 51 -95 33 -349 134 -388 155 -42 22 -5 17 54 -7 35 -14 59
-21 54 -16 -6 5 -39 21 -75 36 -36 15 -69 32 -75 37 -7 8 -4 9 10 3 11 -4 42
-16 68 -26z m4302 -69 c-11 -5 -29 -8 -40 -8 -16 0 -15 2 5 8 34 11 60 11 35
0z m-916 -224 c-7 -7 -260 -45 -399 -60 -165 -18 -530 -40 -538 -32 -3 3 10 6
28 6 19 0 75 7 124 15 50 8 195 21 321 30 127 9 273 22 325 30 102 14 146 17
139 11z m-1741 -61 c302 -25 415 -44 261 -45 -129 0 -584 50 -631 70 -18 8
-14 9 22 5 25 -3 181 -16 348 -30z m792 -663 c36 -27 47 -79 26 -124 -20 -41
-62 -63 -118 -62 -51 2 -85 27 -99 73 -10 33 -9 45 7 78 31 62 123 80 184 35z
m449 22 c24 -5 31 -12 31 -30 0 -13 -4 -24 -10 -24 -5 0 -10 6 -10 14 0 27
-50 34 -74 11 -22 -23 -9 -44 32 -51 63 -11 73 -21 70 -62 -3 -31 -9 -40 -40
-55 -30 -15 -44 -16 -76 -8 -36 10 -39 14 -34 38 5 27 6 27 15 6 19 -44 102
-36 95 10 -2 15 -14 24 -43 32 -55 14 -65 22 -65 53 0 35 10 49 40 61 31 12
31 12 69 5z m355 -3 c18 -8 23 -15 19 -31 l-6 -21 -14 21 c-18 25 -61 24 -77
-3 -9 -15 -7 -21 8 -33 11 -8 31 -14 45 -14 13 0 33 -7 43 -17 45 -41 -1 -106
-75 -106 -24 0 -49 3 -55 7 -15 9 -16 43 -2 51 6 3 10 -1 10 -10 0 -24 45 -41
75 -27 42 19 33 50 -19 63 -25 6 -52 19 -62 30 -24 27 -11 67 29 84 39 17 48
18 81 6z m600 -11 c6 -6 5 -18 -2 -32 -8 -18 -11 -19 -11 -6 -2 34 -58 48
-105 27 -91 -42 -25 -199 68 -163 24 9 19 43 -6 54 -19 7 -15 9 22 9 l46 1 -4
-35 c-4 -34 -7 -37 -62 -49 -39 -8 -101 10 -129 38 -52 53 -23 142 53 166 34
10 116 3 130 -10z m-3314 -15 c0 -14 -4 -25 -10 -25 -5 0 -10 7 -10 15 0 10
-10 15 -30 15 l-30 0 0 -80 c0 -65 3 -81 18 -89 13 -8 4 -10 -38 -10 -42 0
-51 2 -37 10 14 8 17 24 17 89 l0 80 -30 0 c-20 0 -30 -5 -30 -15 0 -8 -4 -15
-10 -15 -5 0 -10 11 -10 25 l0 25 100 0 100 0 0 -25z m137 11 c-12 -10 -17
-24 -15 -43 3 -26 7 -28 51 -31 l47 -3 0 33 c0 19 -5 39 -12 46 -9 9 -2 12 35
12 26 0 47 -4 47 -10 0 -5 -4 -10 -10 -10 -15 0 -13 -167 3 -173 6 -3 -10 -5
-38 -5 -27 0 -44 2 -37 5 7 3 12 23 12 49 l0 45 -47 -3 c-47 -3 -48 -4 -51
-38 -3 -24 2 -38 14 -47 15 -11 10 -13 -37 -13 -41 1 -50 3 -36 11 14 8 17 24
17 86 0 60 -4 78 -17 89 -16 12 -11 13 37 13 49 0 53 -1 37 -13z m382 7 c0 -5
-4 -17 -9 -28 -7 -17 -9 -17 -9 -2 -1 13 -10 17 -36 17 -33 0 -35 -2 -35 -35
0 -31 3 -35 25 -35 14 0 25 5 25 10 0 6 5 10 10 10 6 0 10 -13 10 -30 0 -16
-4 -30 -10 -30 -5 0 -10 5 -10 10 0 6 -12 10 -28 10 -26 0 -27 -2 -24 -39 4
-37 5 -39 35 -34 18 2 38 12 45 21 10 14 12 12 12 -11 l0 -27 -82 1 c-46 0
-77 3 -70 6 8 3 12 30 12 85 0 65 -3 83 -17 94 -15 11 -5 13 70 14 48 0 87 -3
86 -7z m374 1 c9 -3 12 -14 9 -30 -4 -25 -5 -25 -19 -4 -14 20 -75 28 -99 12
-39 -25 -43 -90 -10 -129 21 -24 31 -28 76 -27 46 0 50 -1 34 -13 -44 -32
-142 -5 -169 47 -28 54 -1 122 55 143 20 7 105 8 123 1z m155 -39 c30 -49 38
-54 46 -27 9 26 53 78 61 70 3 -3 -10 -28 -29 -56 -41 -57 -51 -127 -18 -135
9 -3 -8 -5 -38 -5 -30 0 -49 2 -42 5 24 9 14 82 -18 129 -17 24 -36 44 -41 44
-6 0 -7 5 -4 10 3 6 17 10 31 10 19 0 31 -11 52 -45z m356 39 c17 -7 22 -39 7
-48 -5 -3 -11 3 -14 14 -4 16 -14 20 -50 20 -53 0 -79 -24 -79 -73 0 -71 42
-104 117 -92 33 6 38 5 27 -6 -8 -9 -36 -14 -73 -14 -56 0 -63 3 -90 33 -47
52 -38 126 19 156 27 15 107 21 136 10z m164 -5 c-15 -8 -18 -24 -18 -89 l0
-80 40 0 c29 0 40 4 40 15 0 8 5 15 10 15 11 0 13 -11 4 -34 -5 -13 -22 -16
-79 -16 l-73 0 10 43 c12 53 5 136 -13 148 -9 6 6 9 41 9 42 -1 51 -3 38 -11z
m600 -1 c17 -17 15 -53 -5 -70 -23 -19 -61 -29 -69 -17 -3 5 2 9 10 9 13 0 36
28 36 44 0 10 -32 36 -46 36 -11 0 -14 -18 -14 -85 0 -69 3 -86 18 -94 13 -8
4 -10 -37 -11 -43 0 -52 3 -43 12 17 17 16 175 0 181 -7 3 21 6 63 6 46 1 80
-4 87 -11z m807 -70 c20 -46 44 -91 53 -100 14 -17 12 -18 -39 -18 -42 1 -50
3 -36 11 13 8 15 14 7 30 -16 28 -86 27 -95 -2 -5 -14 -2 -25 6 -30 9 -6 0 -9
-25 -9 -33 0 -37 2 -25 13 9 6 33 51 54 100 21 48 44 87 50 87 7 0 29 -37 50
-82z m585 -5 c23 -49 48 -94 57 -100 14 -11 8 -13 -38 -13 -30 0 -49 4 -42 8
7 4 10 17 6 30 -4 18 -12 22 -48 22 -49 0 -69 -25 -39 -47 16 -11 12 -13 -24
-13 -40 0 -41 1 -24 18 10 10 33 55 52 100 18 45 40 82 47 82 7 0 31 -39 53
-87z m-3932 -40 c-3 -19 -47 -29 -75 -19 -26 10 5 36 44 36 27 0 34 -4 31 -17z
m4250 5 c-3 -7 -23 -14 -46 -16 -33 -2 -42 0 -42 12 0 12 11 16 46 16 32 0 44
-4 42 -12z"/>
<path d="M6595 6490 c10 -11 20 -20 23 -20 3 0 -3 9 -13 20 -10 11 -20 20 -23
20 -3 0 3 -9 13 -20z"/>
<path d="M6635 6440 c10 -11 20 -20 23 -20 3 0 -3 9 -13 20 -10 11 -20 20 -23
20 -3 0 3 -9 13 -20z"/>
<path d="M4220 5545 l0 -378 143 6 c232 9 370 58 467 164 90 99 109 230 50
349 -73 148 -234 220 -522 231 l-138 6 0 -378z"/>
<path d="M2510 4240 c-14 -14 -20 -33 -20 -68 0 -59 21 -92 59 -92 52 0 82 61
61 125 -18 55 -64 71 -100 35z"/>
<path d="M3801 4180 c-10 -29 -9 -30 19 -30 27 0 28 1 17 30 -6 17 -14 30 -18
30 -4 0 -12 -13 -18 -30z"/>
<path d="M4675 4235 c-51 -50 -20 -155 45 -155 60 0 84 106 35 155 -13 14 -31
25 -40 25 -9 0 -27 -11 -40 -25z"/>
<path d="M6333 4180 c-11 -29 -10 -30 17 -30 28 0 29 1 19 30 -6 17 -14 30
-18 30 -4 0 -12 -13 -18 -30z"/>
<path d="M6837 4253 c-4 -3 -7 -19 -7 -35 0 -25 4 -29 23 -26 14 2 23 11 25
27 4 29 -24 52 -41 34z"/>
<path d="M6830 4131 c0 -43 9 -55 34 -45 39 15 26 84 -15 84 -15 0 -19 -8 -19
-39z"/>
<path d="M775 3370 c10 -11 20 -20 23 -20 3 0 -3 9 -13 20 -10 11 -20 20 -23
20 -3 0 3 -9 13 -20z"/>
<path d="M5545 3100 c-3 -5 -1 -10 4 -10 6 0 11 5 11 10 0 6 -2 10 -4 10 -3 0
-8 -4 -11 -10z"/>
<path d="M5073 764 c-22 -22 -25 -32 -20 -72 9 -78 65 -105 114 -56 22 22 25
32 20 72 -9 78 -65 105 -114 56z"/>
<path d="M6181 710 c-10 -29 -9 -30 20 -30 33 0 33 0 17 35 -15 33 -24 32 -37
-5z"/>
<path d="M6771 722 c-17 -32 -13 -42 15 -42 22 0 24 3 19 23 -11 35 -22 41
-34 19z"/>
</g>
</svg>
