<?xml version="1.0" standalone="no"?>
<!DOCTYPE svg PUBLIC "-//W3C//DTD SVG 20010904//EN"
 "http://www.w3.org/TR/2001/REC-SVG-20010904/DTD/svg10.dtd">
<svg version="1.0" xmlns="http://www.w3.org/2000/svg"
 width="1000.000000pt" height="1000.000000pt" viewBox="0 0 1000.000000 1000.000000"
 preserveAspectRatio="xMidYMid meet">

<g transform="translate(0.000000,1000.000000) scale(0.100000,-0.100000)"
fill="#000000" stroke="none">
<path d="M0 5000 l0 -5000 5000 0 5000 0 0 5000 0 5000 -5000 0 -5000 0 0
-5000z m4220 4610 c0 -5 -6 -10 -14 -10 -15 0 -53 -46 -73 -90 -6 -14 -12 -18
-12 -10 -1 8 6 28 14 44 23 43 12 42 -28 -3 -25 -28 -38 -53 -42 -85 -7 -44
-25 -65 -25 -28 0 70 97 192 152 192 15 0 28 -4 28 -10z m160 -19 c0 -4 -6
-16 -14 -26 -12 -17 -13 -17 -18 6 -3 19 0 25 14 26 10 1 18 -2 18 -6z m-297
-366 c19 -102 22 -164 5 -105 -5 19 -13 37 -18 40 -4 3 -10 43 -14 90 -9 108
5 95 27 -25z m45 -55 c1 -47 -2 -59 -8 -43 -14 34 -23 140 -14 155 12 18 21
-30 22 -112z m-37 -181 c5 -20 23 -53 39 -74 20 -25 30 -49 30 -72 0 -19 5
-44 12 -56 16 -29 38 -90 34 -95 -7 -6 -46 70 -65 126 -10 31 -30 83 -45 116
-14 32 -25 75 -25 95 1 20 3 27 6 16 2 -11 9 -36 14 -56z m113 -132 c24 -33
56 -91 56 -103 0 -16 -73 86 -100 140 -36 72 -40 109 -5 42 14 -27 36 -62 49
-79z m-75 -57 c0 -9 -4 -8 -9 5 -5 11 -9 27 -9 35 0 9 4 8 9 -5 5 -11 9 -27 9
-35z m181 -135 c13 -14 19 -25 13 -25 -6 0 -18 11 -27 25 -9 14 -15 25 -13 25
2 0 14 -11 27 -25z m-5 -45 c17 -15 45 -32 64 -39 36 -12 71 -38 71 -53 0 -16
-125 61 -175 108 -35 32 -41 41 -20 28 17 -10 44 -30 60 -44z m125 7 c0 -6 -9
-2 -20 8 -11 10 -20 23 -20 28 0 6 9 2 20 -8 11 -10 20 -23 20 -28z m-231 -25
c17 -27 31 -55 30 -63 0 -8 -5 -4 -11 9 -6 12 -15 22 -19 22 -9 0 -39 53 -39
70 0 18 7 11 39 -38z m31 -5 c0 -5 -4 -5 -10 -2 -5 3 -10 14 -10 23 0 15 2 15
10 2 5 -8 10 -19 10 -23z m245 -7 c3 -6 -1 -7 -9 -4 -18 7 -21 14 -7 14 6 0
13 -4 16 -10z m-105 -89 c0 -5 11 -26 25 -48 14 -21 25 -42 24 -47 0 -5 5 -12
12 -17 20 -12 8 -17 -28 -12 -20 3 -35 12 -38 24 -4 10 -15 19 -26 19 -16 0
-19 5 -14 20 10 31 -3 24 -21 -12 -16 -30 -16 -32 -1 -19 22 18 21 9 -3 -31
-11 -18 -20 -46 -20 -63 l-1 -30 -24 30 c-33 40 -32 20 1 -28 27 -41 28 -59 1
-30 -31 35 -46 75 -36 95 7 13 6 27 -4 47 -21 42 5 68 98 97 50 16 55 16 55 5z
m97 -41 c80 -51 109 -84 116 -128 3 -23 4 -42 2 -42 -2 0 -18 25 -35 55 -19
34 -54 72 -91 101 -32 26 -59 49 -59 51 0 5 4 2 67 -37z m64 -12 c19 -24 26
-37 16 -29 -20 16 -61 71 -54 71 3 0 20 -19 38 -42z m-172 -191 c1 -5 -3 -5
-9 -2 -5 3 -10 16 -9 28 0 21 1 21 9 2 5 -11 9 -24 9 -28z m153 -62 c11 -22
18 -37 14 -34 -10 10 -86 129 -86 136 0 12 51 -60 72 -102z m-305 63 c-3 -8
-6 -5 -6 6 -1 11 2 17 5 13 3 -3 4 -12 1 -19z m383 -13 c0 -5 -5 -3 -10 5 -5
8 -10 20 -10 25 0 6 5 3 10 -5 5 -8 10 -19 10 -25z m-174 -50 c38 -105 115
-228 188 -297 43 -42 62 -65 49 -62 -12 3 -35 23 -52 45 -18 21 -41 44 -52 50
-19 10 -20 8 -14 -13 4 -12 30 -68 57 -123 l50 -100 -43 40 c-89 82 -145 155
-119 155 5 0 10 -3 10 -7 0 -5 10 -19 21 -33 11 -14 18 -20 16 -15 -3 6 -6 35
-8 65 -2 42 -12 72 -43 130 -69 128 -86 164 -92 200 -9 48 8 29 32 -35z m-197
-7 c-1 -55 -5 -50 -11 15 -2 20 0 37 4 37 4 0 7 -24 7 -52z m136 -15 c3 -21
22 -76 41 -121 20 -46 33 -86 30 -89 -2 -3 -18 22 -35 55 -31 61 -65 192 -50
192 5 0 11 -17 14 -37z m-128 -145 c-2 -18 -4 -4 -4 32 0 36 2 50 4 33 2 -18
2 -48 0 -65z m10 -120 c-3 -7 -5 -2 -5 12 0 14 2 19 5 13 2 -7 2 -19 0 -25z
m550 -158 c6 0 18 -10 29 -21 27 -30 -83 34 -116 68 -18 18 -10 15 26 -11 28
-20 56 -36 61 -36z m-197 -63 c0 -10 -4 -15 -10 -12 -5 3 -10 18 -10 33 0 21
2 24 10 12 5 -8 10 -23 10 -33z m136 -123 c20 -30 51 -66 68 -80 29 -24 30
-24 4 -13 -14 6 -41 32 -59 58 -18 25 -46 58 -63 73 -26 22 -28 26 -10 22 12
-3 39 -30 60 -60z m69 -229 c24 -42 25 -47 7 -31 -23 20 -92 131 -92 149 0 14
47 -52 85 -118z m147 -53 c12 -15 37 -38 53 -51 17 -14 22 -21 11 -17 -18 6
-18 5 -2 -20 17 -24 17 -25 -1 -16 -10 6 -25 23 -33 39 -8 15 -27 43 -44 61
-16 17 -25 32 -19 32 6 0 22 -12 35 -28z m128 3 c7 -8 8 -15 2 -15 -5 0 -15 7
-22 15 -7 8 -8 15 -2 15 5 0 15 -7 22 -15z m-265 -31 c11 -17 13 -25 4 -22
-16 5 -44 48 -31 48 5 0 17 -12 27 -26z m80 -48 c11 -8 16 -16 12 -16 -16 0
-67 31 -67 41 0 11 21 1 55 -25z m2062 -2 c-3 -3 -12 -4 -19 -1 -8 3 -5 6 6 6
11 1 17 -2 13 -5z m-2072 -51 c50 -46 47 -48 -10 -9 -23 16 -19 8 19 -34 51
-58 80 -80 163 -125 29 -15 61 -37 70 -48 15 -16 11 -15 -22 5 -58 36 -168 91
-163 81 24 -52 49 -75 106 -99 85 -37 102 -59 23 -33 -33 11 -72 33 -86 47
-72 74 -135 157 -135 178 0 12 -4 25 -9 28 -10 7 -21 56 -12 56 3 -1 29 -22
56 -47z m-566 -182 c2 -91 -6 -52 -12 59 -4 74 -3 89 3 50 4 -30 8 -79 9 -109z
m726 78 c11 -9 46 -27 77 -39 54 -20 83 -40 58 -40 -30 0 -210 106 -210 124 0
9 44 -17 75 -45z m355 -146 c0 -2 -18 10 -40 27 -22 17 -40 34 -40 37 0 2 18
-10 40 -27 22 -17 40 -34 40 -37z m-1073 -90 c-2 -21 -4 -6 -4 32 0 39 2 55 4
38 2 -18 2 -50 0 -70z m712 66 c58 -37 70 -62 14 -28 -39 23 -82 59 -71 59 4
0 29 -14 57 -31z m141 -40 c0 -6 -4 -7 -10 -4 -5 3 -10 11 -10 16 0 6 5 7 10
4 6 -3 10 -11 10 -16z m-252 -33 c20 -14 60 -31 87 -38 48 -12 49 -12 20 -18
-16 -4 -39 -2 -50 3 -16 9 -15 4 8 -26 15 -20 24 -37 18 -37 -5 0 -24 20 -42
45 -18 25 -37 45 -43 45 -6 0 -5 -5 2 -12 7 -7 12 -16 12 -21 0 -8 -18 12 -59
66 -20 25 2 22 47 -7z m252 -130 c0 -6 -12 2 -27 16 -16 14 -41 33 -58 42 -26
15 -27 16 -5 10 23 -6 22 -3 -12 33 -21 21 -38 43 -38 48 1 12 140 -137 140
-149z m-843 12 c-2 -18 -4 -6 -4 27 0 33 2 48 4 33 2 -15 2 -42 0 -60z m704
35 c13 -15 12 -15 -8 -4 -24 12 -29 21 -14 21 5 0 15 -7 22 -17z m-694 -175
c-2 -18 -4 -4 -4 32 0 36 2 50 4 33 2 -18 2 -48 0 -65z m1153 50 c19 -24 26
-37 17 -29 -19 15 -61 71 -54 71 2 0 19 -19 37 -42z m-240 -13 c0 -5 -5 -3
-10 5 -5 8 -10 20 -10 25 0 6 5 3 10 -5 5 -8 10 -19 10 -25z m-903 -162 c-2
-16 -4 -5 -4 22 0 28 2 40 4 28 2 -13 2 -35 0 -50z m763 45 c0 -13 -23 -5 -28
10 -2 7 2 10 12 6 9 -3 16 -11 16 -16z m335 -5 l18 -28 -21 19 c-12 11 -22 23
-22 28 0 14 7 9 25 -19z m-178 -4 c19 -12 32 -24 29 -26 -5 -5 -76 35 -76 43
0 8 14 3 47 -17z m123 -69 c60 -35 92 -60 77 -60 -6 0 -104 59 -137 83 -44 31
-10 18 60 -23z m-195 20 c3 -5 2 -10 -4 -10 -5 0 -13 5 -16 10 -3 6 -2 10 4
10 5 0 13 -4 16 -10z m-838 -117 c-2 -16 -4 -3 -4 27 0 30 2 43 4 28 2 -16 2
-40 0 -55z m951 13 c38 -56 36 -72 -3 -18 -21 28 -42 52 -46 52 -5 0 -9 5 -9
10 0 17 34 -9 58 -44z m-67 -67 c41 -83 32 -84 -14 -1 -20 37 -37 59 -37 50 0
-10 -5 -18 -11 -18 -6 0 -8 7 -5 16 3 9 6 25 6 37 l0 21 15 -21 c9 -13 29 -50
46 -84z m221 14 c-13 -3 -32 -18 -42 -35 l-19 -31 31 -54 c17 -30 28 -56 26
-59 -8 -7 -78 99 -78 118 0 23 57 68 83 67 21 -2 21 -2 -1 -6z m-1095 -45 c-3
-8 -6 -5 -6 6 -1 11 2 17 5 13 3 -3 4 -12 1 -19z m823 3 c0 -10 23 -49 52 -87
47 -63 32 -62 -24 1 -29 33 -21 -2 12 -51 16 -24 26 -44 23 -44 -12 0 -43 33
-43 47 0 7 -4 13 -10 13 -15 0 -12 -21 7 -42 18 -20 4 -25 -15 -6 -9 9 -12 8
-12 -5 0 -16 8 -26 55 -62 20 -16 20 -16 -2 -10 -30 8 -29 -6 5 -46 l27 -33
-26 19 c-38 29 -73 109 -64 149 13 55 15 98 6 138 -5 22 -5 38 0 38 5 0 9 -8
9 -19z m159 -31 c0 -23 -1 -23 -9 -5 -5 11 -9 29 -9 40 -1 17 1 17 9 5 5 -8 9
-26 9 -40z m71 -172 c12 -35 27 -69 32 -75 8 -10 69 -13 242 -14 208 0 226 -2
183 -13 -89 -24 -82 30 -82 -641 0 -590 0 -595 21 -615 11 -12 43 -27 70 -35
44 -12 21 -13 -236 -13 -157 0 -280 1 -275 3 6 2 29 9 53 15 88 23 82 -14 82
536 l0 485 -38 57 c-52 77 -59 94 -23 53 16 -19 37 -48 45 -65 l16 -31 0 48
c0 33 -6 54 -19 68 -10 11 -25 39 -34 62 -16 43 -13 40 29 -28 l24 -40 -2 49
c-3 40 -8 53 -31 70 -22 16 -30 18 -36 7 -7 -10 -9 -9 -14 3 -4 9 -14 16 -24
16 -13 0 -14 3 -5 12 8 8 8 17 1 30 -6 11 -9 22 -6 24 2 3 10 -9 17 -26 7 -16
16 -30 21 -30 13 0 11 7 -16 50 -21 33 -35 100 -21 100 2 0 13 -28 26 -62z
m-828 -78 c350 -27 588 -167 588 -346 0 -130 -68 -260 -175 -334 -103 -71
-221 -96 -485 -105 -102 -3 -209 -8 -237 -11 l-53 -5 0 -169 c0 -166 0 -169
26 -199 15 -18 39 -33 60 -37 19 -3 34 -9 34 -13 0 -3 -123 -7 -273 -8 -200
-2 -265 0 -247 8 70 30 96 46 107 69 10 19 13 147 13 545 0 583 4 555 -73 576
-23 6 -49 14 -57 18 -34 14 610 24 772 11z m-1073 -56 c7 -19 33 -60 57 -90
24 -30 41 -54 36 -54 -4 0 -61 18 -125 40 -213 73 -352 95 -654 103 l-123 3 0
-288 0 -288 39 0 c86 0 305 22 447 45 l150 24 85 -41 c138 -67 136 -59 20
-117 l-101 -51 -142 24 c-165 28 -332 46 -430 46 l-68 0 0 -297 0 -298 97 3
c211 5 461 24 528 39 78 17 115 34 229 105 43 27 81 47 83 44 3 -3 -4 -29 -15
-58 -11 -30 -26 -82 -32 -116 l-13 -63 -611 3 c-582 3 -613 4 -646 22 l-35 20
40 8 c64 13 92 28 104 54 7 17 11 114 11 289 l0 265 -87 1 c-49 1 -117 5 -153
9 l-65 7 70 2 c39 0 107 4 153 8 l83 6 -3 269 -3 269 -25 19 c-14 11 -44 22
-68 26 -24 3 -40 9 -37 13 25 25 118 29 640 30 l551 1 13 -36z m2885 12 c-141
-45 -285 -145 -426 -294 -42 -45 -78 -82 -81 -82 -2 0 -5 26 -6 58 -1 55 0 59
41 98 138 133 293 209 478 237 62 10 60 4 -6 -17z m906 -5 c63 -11 145 -29
182 -41 l66 -20 6 -63 c3 -34 8 -98 11 -142 l5 -80 -28 60 c-36 75 -118 165
-185 204 -103 59 -199 83 -343 89 -229 8 -387 -43 -510 -163 -206 -202 -222
-587 -36 -857 38 -55 101 -112 174 -155 70 -42 199 -63 396 -63 118 0 153 4
205 21 134 45 242 136 298 252 l30 62 -7 -135 c-3 -74 -9 -138 -13 -142 -4 -4
-42 -17 -86 -28 -283 -72 -699 -66 -933 14 -242 83 -417 247 -468 440 -21 80
-18 234 7 309 53 160 199 295 399 371 73 27 259 71 365 85 100 14 331 5 465
-18z m-1900 -865 l0 -84 -47 -40 c-65 -56 -234 -155 -323 -191 -103 -41 -237
-79 -345 -97 -114 -20 -451 -29 -672 -18 l-168 8 175 7 c602 24 1036 171 1315
448 28 27 53 50 58 50 4 1 7 -37 7 -83z m216 -638 c-9 -12 -16 -19 -16 -15 0
11 24 47 28 42 2 -2 -3 -14 -12 -27z m-30 -70 c-11 -20 -13 -34 -6 -36 13 -5
13 -42 0 -42 -5 0 -10 5 -10 10 0 19 -17 10 -29 -16 -6 -15 -14 -24 -17 -21
-3 3 -1 15 6 26 9 18 8 21 -10 21 -16 0 -20 -6 -20 -35 0 -32 2 -35 30 -35 17
0 30 5 31 13 0 6 4 2 9 -11 5 -12 6 -29 3 -39 -5 -14 -8 -13 -15 6 -5 16 -15
21 -30 19 -18 -2 -24 -10 -26 -39 -2 -30 1 -37 17 -42 13 -3 25 1 31 11 5 10
10 12 10 5 0 -19 18 -16 24 5 2 9 4 4 3 -13 -2 -24 -6 -29 -24 -28 -13 0 -46
1 -74 2 -39 1 -49 4 -42 14 5 6 11 47 12 89 2 68 0 79 -16 85 -12 5 4 10 47
13 63 5 66 6 85 42 24 45 33 42 11 -4z m44 -36 c0 -5 -7 -17 -15 -28 -14 -18
-14 -17 -4 9 12 27 19 34 19 19z m-3006 -28 c60 -60 18 -169 -70 -181 -79 -10
-133 45 -121 125 9 55 45 82 111 82 44 0 58 -5 80 -26z m236 -1 c-1 -24 -2
-25 -11 -10 -6 10 -22 17 -39 17 -28 0 -30 -3 -30 -35 0 -31 3 -35 25 -35 14
0 25 5 25 10 0 6 5 10 10 10 6 0 10 -13 10 -30 0 -28 -14 -42 -22 -21 -1 5
-12 11 -23 13 -16 2 -21 -3 -23 -32 -3 -24 2 -38 14 -47 15 -11 10 -13 -37
-13 -41 1 -50 3 -36 11 14 8 17 24 17 89 0 65 -3 81 -17 89 -13 8 2 10 60 11
l77 0 0 -27z m212 0 c-4 -20 -7 -23 -10 -10 -2 12 -13 17 -38 17 -32 0 -34 -2
-34 -35 0 -30 3 -35 23 -35 13 0 28 5 35 12 9 9 12 5 12 -19 0 -31 0 -32 -27
-18 -15 8 -30 12 -35 9 -16 -10 -9 -73 10 -83 13 -8 6 -10 -33 -10 -27 0 -44
3 -37 6 8 3 12 32 12 93 0 61 -4 90 -12 93 -7 3 21 6 63 6 l76 1 -5 -27z m156
20 c-16 -4 -18 -17 -18 -93 0 -61 4 -90 13 -93 6 -3 -10 -6 -38 -6 -39 0 -46
2 -32 10 14 8 17 24 17 89 0 65 -3 81 -17 89 -14 8 -5 10 37 10 30 -1 47 -3
38 -6z m260 -28 l4 -30 -26 28 c-30 32 -54 34 -90 6 -21 -16 -26 -29 -26 -63
0 -23 7 -51 15 -63 19 -27 75 -39 104 -24 14 8 21 8 21 1 0 -17 -52 -32 -94
-27 -60 8 -91 45 -91 108 0 43 4 54 29 75 24 22 36 25 90 22 60 -3 61 -4 64
-33z m155 28 c-9 -3 -13 -32 -13 -93 0 -61 4 -90 13 -93 6 -3 -10 -5 -38 -5
-27 0 -44 2 -37 5 8 3 12 32 12 93 0 61 -4 90 -12 93 -7 3 10 5 37 5 28 0 44
-2 38 -5z m228 -81 c19 -44 41 -88 48 -96 12 -14 8 -16 -35 -16 -31 0 -44 3
-35 9 8 5 11 16 6 30 -5 17 -14 21 -45 21 -31 0 -40 -4 -45 -21 -5 -14 -2 -25
6 -30 9 -6 0 -9 -25 -9 -34 0 -37 2 -23 13 14 10 55 98 81 170 11 33 30 12 67
-71z m201 76 c-7 -7 -12 -43 -12 -90 l0 -78 39 0 c29 0 41 5 44 18 3 10 5 6 6
-10 l1 -28 -77 0 c-60 0 -74 3 -65 12 7 7 12 43 12 90 0 63 -3 79 -17 87 -14
8 -7 10 32 11 38 0 46 -3 37 -12z m456 -20 c2 -16 -1 -28 -7 -28 -6 0 -11 7
-11 15 0 16 -30 35 -54 35 -8 0 -27 -10 -41 -23 -20 -17 -27 -32 -27 -60 0
-72 52 -113 114 -89 22 8 28 8 25 -1 -5 -17 -57 -28 -99 -21 -84 13 -118 116
-58 175 27 28 34 30 92 27 60 -3 63 -4 66 -30z m258 9 c22 -20 27 -32 27 -70
0 -57 -22 -92 -68 -107 -65 -21 -128 6 -149 64 -11 31 4 84 31 111 36 35 119
36 159 2z m219 -49 l60 -71 3 59 c3 46 0 61 -14 71 -16 11 -13 13 22 12 21 0
33 -3 27 -6 -9 -3 -13 -33 -13 -100 0 -117 -7 -118 -97 -16 l-63 73 0 -69 c0
-46 4 -71 13 -74 6 -3 -6 -6 -28 -6 -32 0 -36 2 -22 10 14 8 17 25 17 94 0 71
-3 84 -17 88 -10 3 -2 5 17 6 33 1 41 -5 95 -71z m362 37 c2 -28 2 -29 -8 -8
-17 32 -65 40 -98 16 -32 -25 -41 -91 -17 -128 19 -29 75 -42 106 -25 18 10
21 9 18 -1 -6 -19 -54 -32 -93 -25 -73 14 -112 81 -85 147 20 47 47 60 115 57
59 -3 60 -4 62 -33z m455 10 c10 -22 8 -30 -9 -53 -11 -15 -32 -28 -46 -30
-31 -4 -37 13 -7 21 35 9 20 77 -17 77 -10 0 -13 -23 -13 -89 0 -77 2 -90 18
-94 9 -3 -8 -5 -38 -6 -35 0 -50 2 -41 8 9 6 16 35 19 83 4 61 1 77 -13 91
-15 16 -12 17 60 17 71 0 76 -1 87 -25z m248 -2 c-1 -25 -2 -26 -14 -10 -7 9
-23 17 -35 17 -20 0 -21 -5 -21 -84 0 -58 4 -86 13 -89 6 -3 -10 -5 -38 -5
-27 0 -44 2 -37 5 8 3 12 31 12 89 0 83 0 84 -25 84 -16 0 -25 -6 -25 -15 0
-8 -4 -15 -10 -15 -5 0 -10 11 -10 25 0 25 0 25 95 25 l95 0 0 -27z m324 -40
c16 -38 37 -83 47 -100 l18 -33 -47 0 c-30 0 -42 3 -34 9 8 5 12 17 10 27 -2
14 -13 20 -44 22 -36 3 -42 0 -47 -20 -4 -13 -1 -26 6 -30 7 -4 -2 -8 -22 -8
-32 0 -33 1 -19 18 8 9 30 54 48 100 18 45 37 82 44 82 6 0 24 -30 40 -67z
m214 56 c-15 -8 -18 -24 -18 -89 l0 -80 40 0 c29 0 40 4 40 15 0 8 4 15 9 15
4 0 6 -11 3 -25 -4 -24 -8 -25 -71 -25 l-66 0 3 94 c3 84 1 95 -15 99 -10 3 7
5 37 6 42 0 51 -2 38 -10z m300 -1 c18 -18 15 -46 -6 -59 -18 -11 -17 -13 5
-35 28 -28 28 -34 2 -68 -18 -23 -28 -26 -77 -26 l-57 0 3 87 c3 74 1 89 -14
100 -15 11 -7 13 57 13 45 0 80 -5 87 -12z m170 1 c-14 -8 -18 -24 -18 -77 0
-77 9 -92 57 -92 42 0 53 21 53 99 0 47 -4 62 -17 70 -14 8 -10 10 22 11 22 0
35 -4 29 -8 -6 -4 -14 -43 -17 -86 -7 -97 -18 -111 -88 -111 -67 0 -79 17 -79
111 0 59 -3 75 -17 83 -14 8 -5 10 37 10 42 0 51 -2 38 -10z m301 -62 l34 -72
34 73 c33 71 34 72 71 72 23 0 32 -3 24 -9 -19 -12 -20 -170 -1 -182 9 -6 -3
-8 -36 -8 -27 0 -44 3 -37 6 8 3 12 28 11 76 l-1 72 -36 -77 c-19 -43 -39 -78
-43 -78 -4 0 -24 35 -45 78 l-39 77 -3 -65 c-2 -52 0 -67 14 -77 16 -11 13
-13 -22 -13 -31 1 -36 3 -21 11 14 8 17 24 17 89 0 65 -3 81 -17 89 -14 8 -10
10 22 10 40 0 40 0 74 -72z m-2007 -150 c-12 -13 -22 -31 -22 -40 0 -23 -29
-91 -36 -85 -8 8 27 110 44 131 8 9 20 17 25 17 6 0 1 -10 -11 -23z m185 -79
c-3 -7 -5 -2 -5 12 0 14 2 19 5 13 2 -7 2 -19 0 -25z m-187 -88 c0 -16 5 -30
11 -30 5 0 7 -5 3 -11 -3 -6 -1 -14 5 -18 8 -5 7 -13 -4 -27 -15 -19 -16 -19
-14 1 3 38 -1 55 -11 53 -6 -2 -17 12 -25 30 -14 31 -13 32 10 32 21 0 25 -5
25 -30z m209 -34 c-11 -26 -23 -46 -25 -43 -3 3 5 25 17 51 29 59 35 53 8 -8z
m-66 -76 c-7 -28 -13 -25 -13 6 0 14 4 23 9 20 5 -3 7 -15 4 -26z m-49 -132
c-17 -29 -87 -108 -91 -104 -3 3 16 30 42 61 45 52 65 70 49 43z m50 -20 c-50
-37 -60 -41 -24 -9 19 17 38 31 43 31 6 0 -3 -10 -19 -22z m106 19 c0 -2 -10
-12 -22 -23 l-23 -19 19 23 c18 21 26 27 26 19z m-101 -90 c-49 -41 -131 -98
-136 -94 -4 5 6 13 97 82 49 38 81 48 39 12z m-169 -46 c0 -5 -7 -11 -15 -15
-8 -3 -20 -17 -27 -31 -14 -31 -32 -33 -23 -2 10 34 65 75 65 48z m300 -85 c0
-2 -8 -10 -17 -17 -16 -13 -17 -12 -4 4 13 16 21 21 21 13z m-320 -116 c-6
-11 -13 -20 -16 -20 -2 0 0 9 6 20 6 11 13 20 16 20 2 0 0 -9 -6 -20z m51 -43
l-24 -22 19 27 c10 14 21 24 23 22 3 -3 -6 -15 -18 -27z m-137 -48 l-16 -32
26 5 c35 7 33 1 -7 -16 -19 -7 -50 -28 -71 -46 -20 -18 -39 -30 -43 -27 -3 4
13 23 36 43 22 21 41 41 41 46 0 13 33 57 43 58 4 0 0 -14 -9 -31z m126 -6
c-1 -13 -110 -129 -110 -116 0 9 99 123 108 123 1 0 2 -3 2 -7z m-20 -97 c0
-2 -7 -9 -15 -16 -12 -10 -15 -10 -15 4 0 9 7 16 15 16 8 0 15 -2 15 -4z m310
-19 c0 -2 -17 -19 -37 -38 l-38 -34 34 38 c33 34 41 42 41 34z m-380 -42 c-13
-14 -26 -23 -28 -20 -3 3 5 16 18 30 13 14 26 23 28 20 3 -3 -5 -16 -18 -30z
m119 -21 c-18 -20 -59 -56 -90 -80 -49 -37 -139 -149 -139 -171 0 -4 15 6 32
23 26 23 29 24 12 4 -59 -71 -74 -85 -74 -68 0 45 24 121 50 157 16 22 36 55
43 73 8 18 25 42 38 53 l23 20 -22 -32 c-12 -17 -22 -37 -22 -45 0 -8 -5 -19
-12 -26 -6 -6 -9 -14 -6 -17 6 -7 136 85 167 119 14 14 27 26 30 26 3 0 -11
-16 -30 -36z m66 -34 c-3 -5 -27 -24 -53 -41 -54 -37 -46 -25 13 20 43 33 49
36 40 21z m-156 -116 c-13 -14 -33 -30 -44 -36 -12 -6 -6 4 14 26 19 20 39 36
45 36 5 0 -1 -12 -15 -26z m-20 -199 c-18 -25 -34 -43 -37 -41 -2 3 5 18 17
34 11 16 26 42 32 58 9 22 13 25 16 12 3 -10 -10 -38 -28 -63z m-94 35 c-10
-11 -23 -20 -28 -20 -6 0 -2 9 8 20 10 11 23 20 28 20 6 0 2 -9 -8 -20z m-55
-51 c-7 -11 -14 -18 -17 -15 -8 8 5 36 17 36 7 0 7 -6 0 -21z m-35 -101 c-6
-22 -6 -22 14 2 29 35 26 21 -10 -55 -34 -71 -52 -82 -25 -15 9 23 14 46 10
51 -6 11 2 39 11 39 4 0 4 -10 0 -22z m36 -151 c-13 -12 -20 -15 -16 -7 14 26
28 41 33 35 3 -3 -5 -16 -17 -28z m-80 -4 c-12 -20 -14 -14 -5 12 4 9 9 14 11
11 3 -2 0 -13 -6 -23z m-34 -95 c-3 -8 -6 -5 -6 6 -1 11 2 17 5 13 3 -3 4 -12
1 -19z m-37 -123 c0 -14 -4 -25 -10 -25 -11 0 -14 33 -3 43 11 11 13 8 13 -18z
m75 -145 c-3 -5 -11 -10 -16 -10 -6 0 -7 5 -4 10 3 6 11 10 16 10 6 0 7 -4 4
-10z m-85 -129 c-25 -36 -36 -41 -19 -8 16 31 31 48 37 43 2 -3 -6 -19 -18
-35z m-149 -132 c-5 -13 -10 -19 -10 -12 -1 15 10 45 15 40 3 -2 0 -15 -5 -28z
m-27 -140 c-3 -6 -12 -34 -20 -61 -10 -40 -10 -56 -1 -72 6 -12 12 -32 12 -45
1 -23 1 -23 -21 4 l-22 28 -5 -29 c-2 -16 -3 5 -2 47 2 76 5 89 33 122 16 19
37 24 26 6z m-77 -121 c-3 -8 -6 -5 -6 6 -1 11 2 17 5 13 3 -3 4 -12 1 -19z
m23 -113 c14 -19 14 -19 -2 -6 -10 7 -18 18 -18 24 0 6 1 8 3 6 1 -2 9 -13 17
-24z m157 0 c-4 -8 -11 -15 -17 -15 -6 0 -6 7 2 20 14 22 24 19 15 -5z m394
-614 c3 -3 3 -17 -2 -31 -4 -16 -7 -19 -8 -8 -1 20 -30 38 -63 38 -60 0 -94
-69 -64 -129 19 -35 49 -46 107 -38 32 4 38 3 29 -8 -15 -18 -74 -25 -111 -15
-118 34 -114 176 6 204 24 5 98 -3 106 -13z m224 -76 c24 -52 49 -95 54 -95 6
0 11 -4 11 -10 0 -5 -22 -10 -50 -10 -27 0 -50 5 -50 10 0 6 7 10 15 10 12 0
13 4 3 25 -9 20 -18 25 -49 25 -30 0 -39 -4 -45 -22 -4 -13 -2 -24 5 -26 24
-8 9 -22 -24 -22 -34 0 -47 13 -22 23 7 2 23 31 36 63 14 33 31 74 38 92 7 17
18 32 23 32 6 0 30 -43 55 -95z m399 89 c9 -3 16 -17 16 -30 0 -29 -16 -32
-23 -4 -6 24 -58 28 -77 5 -18 -21 3 -43 49 -51 48 -9 61 -21 61 -55 0 -46
-35 -70 -95 -67 -47 3 -50 5 -53 33 l-3 30 16 -23 c13 -18 25 -22 53 -20 32 3
37 6 37 28 0 19 -7 27 -30 33 -74 23 -76 25 -73 64 2 28 9 41 28 50 27 14 69
17 94 7z m256 -89 c24 -52 47 -95 51 -95 5 0 9 -4 9 -10 0 -5 -20 -10 -45 -10
-41 0 -61 13 -34 22 9 3 9 9 1 24 -16 30 -77 32 -93 2 -9 -16 -9 -23 0 -26 25
-8 9 -22 -26 -22 -33 1 -36 2 -21 14 10 7 33 50 53 95 41 96 43 101 54 101 5
0 27 -43 51 -95z m318 89 c15 -4 22 -14 22 -30 0 -13 -4 -24 -10 -24 -5 0 -10
6 -10 14 0 32 -86 36 -118 6 -16 -15 -22 -32 -22 -62 0 -56 30 -88 82 -88 34
0 38 3 38 25 0 16 -6 25 -15 25 -8 0 -15 4 -15 8 0 5 19 9 43 9 l43 1 -4 -35
c-5 -40 -28 -53 -98 -53 -51 0 -98 21 -114 49 -20 39 -12 95 18 123 15 14 34
28 42 31 21 8 90 8 118 1z m273 -95 c21 -46 43 -85 49 -87 28 -10 4 -22 -42
-22 -44 1 -50 3 -37 13 10 8 14 19 9 32 -10 28 -77 29 -92 1 -8 -15 -8 -21 1
-24 24 -8 9 -22 -24 -22 -35 0 -47 13 -22 23 7 3 29 40 47 84 39 92 50 107 62
95 6 -6 27 -47 49 -93z m-3401 72 c0 -11 -4 -23 -10 -26 -5 -3 -10 1 -10 9 0
11 -9 16 -30 16 l-30 0 0 -80 c0 -65 3 -81 18 -89 13 -8 4 -10 -38 -10 -42 0
-51 2 -37 10 14 8 17 24 17 89 0 80 0 80 -26 80 -15 0 -33 -8 -40 -17 -12 -16
-13 -15 -14 10 l0 27 100 0 c92 0 100 -1 100 -19z m143 12 c-7 -2 -13 -20 -13
-39 l0 -34 50 0 c46 0 50 2 50 24 0 14 -7 32 -16 40 -14 15 -11 16 38 16 41
-1 49 -3 36 -11 -15 -8 -18 -24 -18 -89 0 -65 3 -81 18 -89 13 -8 5 -10 -36
-11 -49 0 -52 1 -38 16 9 8 16 31 16 50 l0 34 -50 0 -50 0 0 -44 c0 -26 5 -46
13 -49 6 -3 -13 -6 -43 -6 -42 0 -51 2 -37 10 14 8 17 25 17 94 0 71 -3 84
-17 88 -10 3 7 5 37 5 30 0 49 -2 43 -5z m377 3 c0 -2 -3 -11 -6 -20 -5 -14
-8 -14 -21 -1 -8 8 -25 15 -39 15 -21 0 -24 -4 -24 -40 0 -34 3 -40 21 -40 12
0 28 8 35 18 12 15 13 13 14 -20 0 -21 -4 -38 -10 -38 -5 0 -10 7 -10 15 0 9
-9 15 -25 15 -20 0 -25 -5 -25 -24 0 -13 -3 -31 -6 -40 -9 -24 71 -22 85 2 9
14 10 13 11 -10 l0 -28 -82 0 c-64 0 -79 3 -70 12 7 7 12 43 12 90 0 63 -3 79
-17 87 -13 8 5 10 70 11 48 0 87 -2 87 -4z m308 -7 c-15 -8 -18 -24 -18 -89 0
-65 3 -81 18 -89 13 -8 4 -10 -38 -11 -36 0 -50 3 -41 9 9 6 16 36 19 87 4 67
2 79 -13 91 -17 11 -12 13 36 13 41 -1 50 -3 37 -11z m262 -8 c0 -11 -4 -23
-10 -26 -5 -3 -10 1 -10 9 0 11 -9 16 -30 16 l-30 0 0 -80 c0 -65 3 -81 18
-89 13 -8 4 -10 -38 -10 -42 0 -51 2 -37 10 14 8 17 24 17 89 0 80 0 80 -26
80 -15 0 -33 -8 -40 -17 -12 -16 -13 -15 -14 10 l0 27 100 0 c92 0 100 -1 100
-19z m144 11 c-6 -4 -13 -22 -16 -39 l-5 -33 54 0 c52 0 53 1 53 30 0 17 -7
33 -17 39 -14 8 -5 10 37 10 42 0 51 -2 38 -10 -15 -8 -18 -24 -18 -89 0 -65
3 -81 18 -89 13 -8 4 -10 -38 -10 -42 0 -51 2 -37 10 12 7 17 22 17 50 l0 40
-52 -3 -53 -3 3 -40 c2 -22 9 -43 15 -47 7 -4 -13 -8 -43 -8 -42 1 -51 3 -37
11 14 8 17 25 17 94 0 71 -3 84 -17 88 -10 3 7 5 37 6 30 0 50 -3 44 -7z m370
-74 c21 -46 45 -91 53 -100 15 -17 13 -18 -38 -17 -30 1 -46 3 -36 6 20 5 21
13 4 37 -18 25 -90 19 -95 -8 -2 -10 2 -22 10 -27 8 -6 -1 -9 -26 -9 -33 0
-37 2 -25 13 9 6 33 51 54 100 21 48 44 87 50 87 7 0 29 -37 49 -82z m-2004
-43 c0 -11 -12 -15 -45 -15 -35 0 -43 3 -39 15 4 10 20 15 45 15 28 0 39 -4
39 -15z m4140 0 c0 -11 -11 -15 -40 -15 -29 0 -40 4 -40 15 0 11 11 15 40 15
29 0 40 -4 40 -15z"/>
<path d="M4283 8469 c-18 -5 -33 -14 -33 -19 0 -5 7 -7 15 -4 11 5 14 2 9 -12
-4 -11 -5 -17 -3 -14 2 3 15 17 28 33 14 15 23 27 20 26 -2 0 -19 -5 -36 -10z"/>
<path d="M4220 5545 l0 -378 143 6 c233 10 370 58 467 164 89 97 108 231 51
348 -72 146 -237 220 -518 232 l-143 6 0 -378z"/>
<path d="M2510 4240 c-14 -14 -20 -33 -20 -68 0 -59 21 -92 59 -92 52 0 82 61
61 125 -18 55 -64 71 -100 35z"/>
<path d="M3801 4180 c-10 -29 -9 -30 19 -30 27 0 28 1 17 30 -6 17 -14 30 -18
30 -4 0 -12 -13 -18 -30z"/>
<path d="M4673 4234 c-22 -22 -25 -32 -20 -70 6 -54 30 -84 68 -84 59 0 83
107 34 155 -31 32 -50 31 -82 -1z"/>
<path d="M6333 4180 c-11 -29 -10 -30 17 -30 28 0 29 1 19 30 -6 17 -14 30
-18 30 -4 0 -12 -13 -18 -30z"/>
<path d="M6837 4253 c-4 -3 -7 -19 -7 -35 0 -25 4 -29 23 -26 14 2 23 11 25
27 4 29 -24 52 -41 34z"/>
<path d="M6830 4125 c0 -46 7 -53 41 -35 36 20 18 80 -23 80 -15 0 -18 -8 -18
-45z"/>
<path d="M5451 719 c-6 -17 -11 -34 -11 -35 0 -2 13 -4 30 -4 28 0 29 1 18 28
-19 44 -25 45 -37 11z"/>
<path d="M6107 715 l-17 -35 30 0 c33 0 37 12 17 48 -13 22 -13 22 -30 -13z"/>
<path d="M6697 733 c-2 -10 -8 -26 -12 -35 -6 -15 -2 -18 24 -18 36 0 36 1 16
40 -18 35 -21 36 -28 13z"/>
<path d="M4903 710 c-11 -29 -10 -30 18 -30 33 0 33 0 17 35 -15 32 -21 32
-35 -5z"/>
</g>
</svg>
