<?xml version="1.0" standalone="no"?>
<!DOCTYPE svg PUBLIC "-//W3C//DTD SVG 20010904//EN"
 "http://www.w3.org/TR/2001/REC-SVG-20010904/DTD/svg10.dtd">
<svg version="1.0" xmlns="http://www.w3.org/2000/svg"
 width="300.000000pt" height="300.000000pt" viewBox="0 0 300.000000 300.000000"
 preserveAspectRatio="xMidYMid meet">

<g transform="translate(0.000000,300.000000) scale(0.100000,-0.100000)"
fill="#000000" stroke="none">
<path d="M0 2844 l0 -157 110 6 c120 6 137 11 119 33 -6 8 -10 16 -8 19 8 8
144 22 149 15 3 -3 14 -10 25 -14 17 -7 15 -11 -22 -27 -49 -21 -55 -36 -18
-45 28 -7 123 1 175 14 41 10 144 -13 120 -28 -7 -4 -9 -13 -6 -19 4 -6 2 -11
-3 -11 -20 0 -11 -18 12 -24 16 -4 18 -8 9 -14 -9 -6 -5 -12 15 -22 15 -7 33
-13 40 -11 18 3 25 -17 13 -39 -8 -15 -21 -20 -50 -20 -22 0 -40 -5 -40 -11 0
-5 -13 -15 -29 -20 -26 -9 -29 -13 -20 -33 14 -30 64 -50 123 -48 42 1 47 0
27 -8 -15 -7 -21 -16 -17 -25 4 -12 -4 -15 -37 -15 -39 -1 -41 -2 -23 -15 11
-8 28 -15 38 -15 33 0 117 -42 111 -56 -3 -8 1 -14 11 -14 10 0 13 -6 10 -15
-7 -18 15 -19 69 -4 26 7 42 7 50 0 7 -5 43 -17 80 -27 56 -14 67 -20 62 -34
-4 -13 1 -19 21 -24 19 -5 24 -10 16 -18 -8 -8 0 -19 29 -40 48 -34 52 -47 5
-19 -33 21 -66 28 -66 14 0 -5 12 -19 25 -32 17 -16 24 -30 19 -43 -3 -12 1
-27 12 -39 14 -16 15 -22 5 -28 -10 -7 -10 -12 -1 -28 9 -14 10 -25 3 -38 -10
-17 -11 -17 -23 6 -44 85 -142 159 -181 138 -10 -5 -24 -6 -32 -4 -7 3 -20 -1
-27 -10 -7 -8 -29 -15 -49 -15 -33 -1 -75 -8 -141 -25 -15 -4 -12 0 10 10 19
9 63 23 97 32 35 8 63 20 63 25 0 5 17 16 38 24 58 24 102 45 102 49 0 2 -7
11 -16 19 -24 24 -114 21 -142 -4 -22 -21 -47 -25 -78 -13 -16 6 -16 7 2 14
19 7 19 7 -1 14 -11 4 -30 12 -42 18 -13 6 -78 11 -146 11 -101 1 -128 -2
-150 -16 -34 -23 -183 -27 -152 -4 10 7 16 19 13 27 -5 12 27 14 192 12 168
-2 197 0 197 12 0 8 -4 15 -9 15 -4 0 -8 4 -8 9 0 6 18 11 40 13 60 4 49 22
-17 29 l-58 6 47 1 c26 1 50 7 53 12 8 13 -6 17 -80 24 -55 4 -58 4 -35 -9 24
-14 24 -14 -12 -8 -27 4 -38 2 -38 -7 0 -9 -5 -8 -18 3 -14 13 -48 18 -135 23
-65 4 -120 10 -122 14 -8 12 44 21 63 12 23 -12 174 0 179 14 5 15 -92 35
-138 28 -21 -4 -44 -2 -51 4 -19 14 -234 -2 -280 -21 -38 -16 -51 -48 -27 -63
8 -5 8 -9 -1 -14 -7 -4 -9 -13 -6 -19 10 -15 79 -14 94 1 7 7 12 8 12 2 0 -5
-9 -15 -20 -22 -29 -18 -16 -32 30 -32 21 0 41 -4 44 -9 9 -14 -35 -21 -55 -8
-21 13 -68 -7 -121 -51 l-28 -24 0 -458 0 -458 36 -7 c32 -6 34 -8 19 -19 -17
-12 -17 -14 0 -39 9 -15 20 -27 24 -27 3 0 20 -11 36 -25 29 -23 29 -24 7 -25
-13 0 -20 4 -17 10 3 6 0 10 -7 10 -8 0 -31 16 -52 35 -21 19 -40 35 -42 35
-2 0 -4 -94 -4 -210 l0 -209 31 -16 c30 -16 31 -16 24 5 -7 21 -6 21 19 5 29
-19 34 -27 12 -19 -11 4 -13 0 -9 -15 7 -27 -22 -29 -36 -2 -6 10 -17 21 -26
25 -13 5 -15 -35 -15 -349 l0 -355 1500 0 1500 0 0 971 c0 972 0 972 -21 1006
-24 38 -52 41 -57 6 -3 -18 -6 -20 -17 -10 -7 6 -10 16 -7 21 3 5 -2 7 -11 3
-10 -3 -17 -2 -17 2 0 5 5 11 11 13 19 6 1 42 -53 104 -30 35 -46 60 -38 62 6
2 17 -1 23 -7 6 -6 17 -11 24 -11 7 0 33 -16 59 -35 48 -37 74 -44 74 -20 0
17 -40 56 -92 92 -48 33 -50 49 -3 21 20 -11 39 -18 42 -15 3 4 14 2 24 -4 13
-7 19 -6 19 1 0 6 -7 13 -15 16 -8 4 -12 11 -8 17 3 6 18 -4 34 -24 l28 -34 1
72 c0 68 -2 74 -32 106 -39 40 -55 47 -85 36 -31 -11 -29 -38 7 -79 34 -40 38
-55 11 -39 -14 10 -23 9 -42 -4 -30 -21 -73 -22 -89 -2 -7 9 -20 13 -28 10 -8
-3 -39 16 -74 45 -61 51 -96 67 -124 56 -9 -3 -33 6 -57 22 -71 48 -114 64
-137 52 -35 -19 -30 -30 78 -161 37 -44 43 -58 38 -83 -4 -17 -15 -40 -26 -51
-11 -12 -17 -25 -13 -30 5 -4 1 -6 -9 -2 -39 14 -23 -74 18 -90 8 -3 14 -9 14
-14 0 -6 -9 -5 -21 1 -35 19 -33 4 9 -52 34 -45 90 -168 77 -168 -2 0 -13 20
-24 44 -31 71 -217 236 -273 242 -13 1 -43 6 -67 10 -50 8 -51 -10 -1 -21 16
-4 32 -11 36 -16 3 -6 -5 -7 -23 -2 -15 4 -37 6 -48 5 -11 -1 -37 -3 -57 -3
-21 -1 -38 -5 -38 -10 0 -5 4 -9 8 -9 5 0 19 -9 31 -19 20 -18 21 -20 4 -23
-14 -3 -12 -7 11 -18 16 -8 44 -35 61 -59 22 -32 42 -48 73 -59 44 -14 92 -62
92 -90 0 -14 -2 -14 -9 -3 -7 10 -10 10 -13 1 -3 -9 -9 -8 -21 4 -12 13 -17
14 -17 4 0 -11 -2 -11 -9 0 -4 8 -12 14 -17 15 -5 1 -8 6 -6 10 1 5 -2 6 -7 3
-5 -4 -12 -2 -16 4 -4 6 -10 8 -14 5 -5 -2 -17 5 -27 16 -24 27 -72 52 -84 44
-6 -3 -18 -1 -27 5 -15 9 -14 10 6 4 17 -4 22 -2 19 7 -8 23 -52 43 -81 35
-30 -7 -36 -26 -9 -27 9 0 4 -5 -13 -10 -16 -5 -35 -7 -42 -4 -7 2 -10 -2 -6
-11 3 -7 9 -14 14 -14 5 0 9 -7 9 -15 0 -8 -7 -15 -15 -15 -8 0 -15 4 -15 9 0
7 -73 31 -94 31 -14 0 -5 -30 12 -40 14 -8 12 -9 -9 -4 -26 5 -55 -16 -32 -23
6 -2 19 -11 29 -19 10 -9 14 -13 8 -10 -13 7 -26 -31 -14 -39 4 -3 28 4 51 15
59 26 84 25 34 -2 -59 -32 -22 -34 70 -3 42 14 79 24 82 22 2 -3 -11 -10 -30
-16 -19 -7 -42 -20 -52 -30 -19 -22 -16 -24 59 -37 30 -5 35 -9 22 -16 -12 -7
-14 -13 -6 -29 8 -14 7 -19 -3 -19 -30 0 -78 23 -88 42 -14 25 -20 19 -30 -34
-12 -66 7 -134 50 -181 32 -34 45 -40 96 -47 59 -7 59 -7 14 -9 -96 -2 -198
49 -235 120 -23 45 -18 118 11 162 l26 37 -23 0 c-12 0 -35 -12 -50 -27 -28
-26 -28 -26 -28 -5 0 13 7 25 15 28 25 10 17 24 -15 24 l-30 0 0 -169 c0 -126
3 -171 13 -174 6 -3 -22 -5 -63 -5 -41 0 -67 2 -57 5 15 4 17 22 17 188 l0
184 -41 12 c-38 12 -41 11 -64 -14 -23 -24 -23 -26 -6 -32 10 -3 28 -17 41
-30 l23 -25 -25 0 c-20 0 -27 -6 -31 -28 -13 -66 -90 -102 -217 -102 l-60 0 0
-53 c0 -29 5 -58 12 -65 9 -9 -3 -12 -57 -12 -54 0 -66 3 -57 12 15 15 17 334
2 343 -21 13 0 20 49 17 l51 -4 0 -114 0 -114 33 0 c85 0 167 49 167 100 0 27
-2 27 -32 20 -45 -12 -76 -18 -60 -13 6 3 12 11 12 19 0 8 5 14 10 14 6 0 10
9 10 20 0 11 5 20 10 20 6 0 10 4 10 10 0 9 -52 27 -105 34 -16 3 4 3 45 1 41
-1 83 -6 93 -10 10 -4 17 -3 17 3 0 6 -8 13 -17 15 -17 4 -17 5 0 6 10 1 17 9
17 21 0 13 7 20 20 20 11 0 20 6 20 13 0 11 17 13 71 12 57 -2 75 -7 94 -25
22 -21 52 -20 40 1 -4 5 1 9 9 9 8 0 19 8 24 17 8 13 24 17 69 17 51 1 59 3
55 18 -2 9 -13 18 -25 20 -12 2 -29 17 -40 35 l-18 32 33 -11 c18 -6 52 -12
74 -13 36 -2 43 1 53 22 10 21 9 29 -4 43 -8 9 -15 23 -15 32 0 8 -11 20 -25
26 -38 17 -34 55 8 67 17 6 30 14 29 19 -2 5 2 12 10 17 7 4 13 14 14 21 0 7
2 23 2 36 2 17 8 22 31 22 18 0 37 -9 48 -22 24 -29 57 -48 83 -48 25 0 25 14
0 50 l-20 29 20 6 c12 4 17 11 13 18 -4 7 1 6 10 -2 23 -19 29 -10 31 42 l1
45 -32 -5 c-41 -7 -44 13 -9 53 22 26 25 27 54 15 30 -13 34 -11 67 18 41 36
50 37 116 14 47 -17 49 -17 76 3 21 15 39 19 70 16 24 -2 40 -8 38 -13 -10
-15 26 -57 58 -69 28 -9 34 -8 49 10 23 28 38 25 38 -7 l0 -28 20 25 c25 31
25 42 1 81 -11 17 -17 38 -14 46 3 8 0 19 -8 23 -11 7 -10 13 5 29 47 51 -56
69 -123 22 -17 -12 -43 -23 -58 -24 -25 -2 -28 2 -31 30 -3 33 29 107 66 153
l20 25 27 -28 c31 -30 89 -38 98 -13 9 22 -28 80 -54 86 -13 3 -25 13 -27 21
-3 19 32 65 61 81 21 11 21 11 4 -15 -21 -32 -22 -47 -2 -47 8 0 15 -5 15 -11
0 -8 14 -10 39 -6 22 3 44 0 50 -6 7 -7 18 -7 35 1 35 16 54 -8 39 -49 l-12
-30 40 35 c21 20 45 36 51 36 7 0 -2 -13 -20 -29 -17 -17 -32 -34 -32 -39 0
-20 30 -34 57 -28 l28 7 -30 -21 c-37 -25 -41 -25 -48 0 -8 29 -37 26 -37 -5
0 -16 -11 -32 -30 -47 -49 -36 -39 -47 36 -45 62 2 67 0 90 -28 l24 -30 0 208
0 207 -1500 0 -1500 0 0 -156z m353 -501 c-7 -2 -19 -2 -25 0 -7 3 -2 5 12 5
14 0 19 -2 13 -5z m2235 -128 c-14 -14 -39 -5 -65 25 l-31 35 21 20 22 20 28
-48 c16 -27 27 -50 25 -52z m-1955 38 c-7 -2 -19 -2 -25 0 -7 3 -2 5 12 5 14
0 19 -2 13 -5z m2287 -25 c0 -12 -6 -9 -26 13 -19 22 -19 22 4 8 12 -8 22 -17
22 -21z m-200 -48 c0 -3 -4 -11 -9 -19 -6 -9 -11 -10 -15 -2 -4 6 -16 11 -27
11 -15 0 -19 -7 -19 -31 0 -17 -4 -28 -10 -24 -13 8 -13 48 1 62 10 10 79 13
79 3z m-2057 -77 c-7 -2 -21 -2 -30 0 -10 3 -4 5 12 5 17 0 24 -2 18 -5z
m1857 -25 c0 -18 32 -48 50 -48 10 0 20 -6 23 -12 3 -9 -7 -13 -35 -12 -28 1
-47 9 -69 30 l-30 28 23 17 c23 18 38 16 38 -3z m-1992 -78 c-47 -16 -110 -41
-138 -55 -61 -31 -78 -29 -22 3 42 23 208 82 232 81 8 0 -24 -13 -72 -29z
m482 -15 c17 -9 30 -18 30 -21 0 -4 -59 23 -69 32 -10 9 13 3 39 -11z m-370
-43 c0 -5 -26 -15 -57 -22 -32 -7 -89 -23 -126 -35 -38 -13 -67 -19 -65 -13 5
14 62 35 163 58 44 10 81 19 83 19 1 1 2 -3 2 -7z m-320 -27 c0 -2 -9 -9 -19
-15 -14 -7 -22 -7 -27 2 -4 6 -3 8 2 5 6 -3 16 -2 24 4 17 10 20 11 20 4z
m391 -13 c-5 -10 -9 -25 -8 -34 1 -9 -14 -27 -33 -40 -34 -23 -90 -110 -85
-132 6 -31 25 -64 39 -69 9 -4 16 -11 16 -16 0 -16 -44 -7 -75 15 l-29 22 17
61 c22 80 22 101 -2 101 -12 0 -24 -12 -32 -29 -13 -28 -50 -48 -68 -36 -5 3
-12 -2 -15 -11 -3 -8 -11 -12 -16 -9 -8 5 -8 11 -1 19 6 7 9 15 6 18 -3 2 8 3
23 0 25 -3 33 3 65 52 24 36 44 56 56 56 11 0 41 11 68 25 59 30 88 33 74 7z
m246 2 c-3 -3 -12 -4 -19 -1 -8 3 -5 6 6 6 11 1 17 -2 13 -5z m185 -107 c3
-16 0 -23 -12 -24 -15 -1 -16 2 -6 23 13 29 13 29 18 1z m-836 -35 c-17 -16
-18 -16 -5 5 7 12 15 20 18 17 3 -2 -3 -12 -13 -22z m2151 -19 c-3 -10 -5 -4
-5 12 0 17 2 24 5 18 2 -7 2 -21 0 -30z m-1389 2 c6 -14 11 -25 9 -25 -1 0
-31 9 -65 20 -38 12 -92 20 -133 20 l-69 0 0 -85 0 -85 28 0 c15 0 58 5 97 10
50 8 77 7 97 -1 36 -15 35 -24 -1 -39 -22 -9 -46 -9 -100 -1 -128 20 -120 25
-119 -80 l1 -92 95 6 c67 5 107 13 135 27 22 12 41 20 42 18 2 -2 1 -15 -2
-30 l-5 -28 -192 0 c-161 1 -188 3 -173 14 14 11 17 29 17 95 0 70 -2 81 -17
82 -17 1 -17 2 0 6 14 4 17 17 17 88 0 69 -3 86 -17 94 -13 7 35 10 163 11
l181 0 11 -25z m1165 14 c29 -8 37 -15 37 -34 0 -13 3 -31 7 -41 3 -10 -12 1
-34 23 -24 24 -57 45 -79 51 l-39 10 35 1 c19 0 52 -4 73 -10z m204 -119 c-4
-32 -13 -74 -22 -92 -12 -26 -14 -27 -10 -8 2 14 5 43 5 65 0 30 3 36 10 25 7
-11 10 -4 10 28 0 23 3 42 6 42 4 0 4 -27 1 -60z m-24 30 c3 -11 1 -18 -4 -14
-5 3 -9 12 -9 20 0 20 7 17 13 -6z m-1036 4 c-3 -3 -12 -4 -19 -1 -8 3 -5 6 6
6 11 1 17 -2 13 -5z m-872 -91 c62 -77 66 -86 11 -30 -31 33 -56 61 -56 63 0
13 19 -1 45 -33z m173 -8 c12 -12 -36 -4 -54 10 -17 13 -16 14 15 5 18 -5 36
-12 39 -15z m32 -25 c8 -5 11 -10 5 -10 -5 0 -17 5 -25 10 -8 5 -10 10 -5 10
6 0 17 -5 25 -10z m2061 -27 c-11 -16 -11 -15 -5 6 5 21 4 22 -8 10 -8 -7 -14
-23 -12 -36 1 -13 -3 -21 -9 -20 -7 1 -11 -4 -9 -10 1 -7 -4 -13 -12 -13 -8 0
-17 -8 -21 -17 -6 -16 -7 -17 -15 -2 -11 19 17 112 30 104 4 -3 19 -1 32 4 29
11 44 -1 29 -26z m-1151 -22 c0 -24 -9 -34 -47 -59 -67 -42 -141 -61 -258 -67
-105 -5 -100 -2 54 25 71 13 182 65 217 101 15 16 29 29 31 29 2 0 3 -13 3
-29z m650 -55 c0 -38 -10 -45 -75 -51 l-40 -5 31 15 c18 8 42 28 55 44 13 16
25 30 27 30 1 1 2 -14 2 -33z m370 -17 c0 -5 -4 -9 -10 -9 -5 0 -10 -7 -10
-16 0 -8 -4 -13 -9 -9 -5 3 -16 -1 -24 -9 -17 -18 -27 -11 -27 20 0 27 -27 40
-33 16 -3 -9 -5 -2 -6 16 0 17 4 32 9 32 6 0 10 -7 10 -15 0 -21 24 -18 46 6
l19 21 17 -22 c10 -12 18 -26 18 -31z m-1993 -85 c-3 -3 -12 -4 -19 -1 -8 3
-5 6 6 6 11 1 17 -2 13 -5z m126 -36 c-13 -15 -20 -35 -19 -56 0 -17 -3 -30
-9 -29 -5 2 -10 27 -10 55 0 51 0 52 29 52 l29 0 -20 -22z m137 -33 c-7 -8
-10 -24 -7 -35 5 -19 -8 -26 -36 -21 -5 1 -27 2 -50 3 -39 2 -42 4 -42 30 0
32 14 37 22 8 3 -11 9 -20 14 -20 5 0 9 9 9 20 0 11 5 20 10 20 6 0 10 -7 10
-16 0 -8 5 -12 10 -9 6 3 10 1 10 -4 0 -6 7 -11 16 -11 11 0 15 6 11 19 -3 13
1 21 12 24 9 3 18 5 20 6 2 0 -2 -6 -9 -14z m528 3 c30 -30 -4 -77 -41 -57
-29 17 -15 69 18 69 6 0 16 -5 23 -12z m231 -9 c-10 -6 -11 -9 -1 -9 6 0 12
-5 12 -11 0 -5 -4 -7 -10 -4 -5 3 -10 2 -10 -4 0 -5 6 -12 13 -14 6 -3 2 -6
-10 -6 -19 -1 -23 4 -23 28 0 16 6 31 13 34 18 7 31 -4 16 -14z m-1009 1 c0
-5 16 -28 36 -50 31 -34 43 -40 73 -39 20 0 52 -4 71 -9 l35 -10 -51 -1 c-27
-1 -55 -6 -61 -12 -7 -7 -16 -3 -31 15 -22 29 -37 33 -49 12 -13 -23 -47 -24
-48 -1 0 10 -11 25 -25 32 -18 9 -20 13 -7 13 9 0 17 4 17 9 0 5 3 16 6 24 4
11 -2 17 -18 20 -15 3 -10 5 15 6 20 0 37 -3 37 -9z m310 -20 c0 -16 -4 -30
-10 -30 -5 0 -10 14 -10 30 0 17 5 30 10 30 6 0 10 -13 10 -30z m63 23 c-14
-3 -23 -12 -23 -23 0 -11 9 -20 23 -23 19 -4 19 -4 -5 -6 -19 -1 -29 5 -33 19
-9 28 2 40 33 39 24 -2 24 -2 5 -6z m62 -23 c0 -16 -4 -30 -10 -30 -5 0 -10
14 -10 30 0 17 5 30 10 30 6 0 10 -13 10 -30z m73 5 c15 -33 15 -35 -3 -35 -8
0 -15 6 -15 13 0 8 -3 7 -10 -3 -5 -8 -12 -12 -15 -9 -9 9 6 40 16 33 5 -3 6
2 3 10 -10 27 12 18 24 -9z m54 -2 c-4 -21 -2 -25 12 -20 9 4 16 2 16 -3 0 -6
-8 -10 -19 -10 -13 0 -20 9 -23 30 -3 19 0 30 7 30 8 0 10 -10 7 -27z m121 20
c-13 -2 -23 -11 -23 -19 0 -8 10 -19 23 -24 22 -9 22 -9 1 -9 -12 -1 -27 5
-33 13 -18 21 -2 46 28 45 23 -2 24 -2 4 -6z m159 -10 c17 -15 18 -15 18 0 0
10 4 17 8 17 5 0 7 -13 4 -30 -5 -37 -11 -37 -40 1 -26 32 -20 39 10 12z m99
8 c-33 -9 -38 -29 -10 -39 14 -6 18 -11 11 -16 -6 -4 -21 3 -32 14 -26 26 -12
51 29 49 l26 -1 -24 -7z m121 -21 c3 -17 0 -30 -6 -30 -6 0 -11 14 -11 30 0
17 3 30 6 30 4 0 9 -13 11 -30z m28 15 c0 -8 -4 -15 -8 -15 -5 0 -9 7 -9 15 0
8 4 15 9 15 4 0 8 -7 8 -15z m61 6 c-8 -5 -12 -18 -8 -30 3 -12 1 -21 -4 -21
-5 0 -9 14 -9 30 0 22 5 30 18 30 13 0 14 -2 3 -9z m118 -21 c12 -36 -1 -40
-17 -5 -14 31 -15 35 -3 35 5 0 14 -13 20 -30z m69 -23 c10 -3 7 -5 -9 -6 -23
-1 -25 2 -20 32 5 31 6 31 9 5 2 -15 11 -29 20 -31z m53 41 c0 -10 2 -10 6 0
9 22 22 12 20 -15 -2 -19 -9 -29 -22 -31 -16 -2 -20 3 -20 28 0 28 14 44 16
18z m69 -13 c0 -34 27 -32 33 3 5 26 5 26 3 -3 -1 -22 -6 -31 -22 -33 -17 -2
-22 3 -26 27 -3 17 -1 31 4 31 4 0 8 -11 8 -25z m96 8 c7 -10 13 -25 13 -33 0
-11 -3 -10 -14 4 -13 17 -15 18 -15 3 0 -9 -5 -17 -10 -17 -7 0 -7 6 -2 18 5
9 7 23 5 30 -7 18 8 15 23 -5z m44 -15 c0 -36 -4 -35 -14 5 -4 16 -2 27 4 27
5 0 10 -14 10 -32z m-770 -19 c0 -5 -4 -9 -10 -9 -5 0 -10 7 -10 16 0 8 5 12
10 9 6 -3 10 -10 10 -16z m402 -1 c-7 -7 -12 -8 -12 -2 0 14 12 26 19 19 2 -3
-1 -11 -7 -17z m-1616 -278 c31 -30 64 -52 83 -56 26 -5 32 -11 28 -26 -4 -13
1 -22 17 -28 19 -7 22 -14 18 -39 -2 -17 -7 -31 -11 -32 -50 -6 -85 -24 -76
-39 3 -5 -4 -11 -15 -15 -12 -4 -20 -15 -20 -30 0 -12 -7 -25 -15 -29 -9 -3
-15 0 -15 9 0 16 -15 21 -84 30 -47 6 -86 20 -86 31 0 3 4 2 10 -1 5 -3 23 1
39 9 20 11 43 14 74 10 36 -5 51 -2 85 20 57 36 50 78 -18 106 -28 12 -42 40
-20 40 21 0 9 18 -17 25 -34 8 -63 33 -63 53 0 9 -10 27 -22 40 l-23 24 40
-26 c22 -14 63 -48 91 -76z m1391 -274 c3 -3 -2 -8 -11 -12 -15 -6 -15 -7 1
-20 24 -18 34 -17 27 1 -4 8 -2 15 4 15 17 0 23 -30 7 -36 -8 -4 -15 -13 -15
-21 0 -8 5 -11 10 -8 14 8 13 2 -5 -31 -8 -16 -15 -40 -15 -52 0 -23 2 -24 51
-17 39 5 54 4 60 -6 7 -11 16 -10 48 9 22 12 45 22 52 22 7 0 -9 -11 -35 -25
-48 -25 -86 -32 -86 -16 0 13 -40 1 -82 -26 -48 -29 -57 -29 -29 0 13 15 19
30 15 40 -8 22 -20 21 -56 -5 -30 -21 -30 -21 -19 0 13 24 15 45 4 39 -5 -3
-9 13 -10 34 -2 69 -12 79 -32 34 l-19 -40 2 35 c1 31 -2 35 -26 38 -17 2 -34
-4 -46 -16 -14 -14 -23 -17 -31 -9 -12 12 3 37 24 37 7 0 15 10 18 21 3 12 11
19 19 17 7 -3 22 -2 33 2 21 9 133 5 142 -4z m-1602 -34 c16 -13 21 -23 15
-32 -5 -8 -6 -19 -3 -24 4 -5 -8 0 -25 12 -40 29 -48 42 -31 53 18 11 17 12
44 -9z m1995 -47 c0 -2 -10 -10 -22 -16 -21 -11 -22 -11 -9 4 13 16 31 23 31
12z m-489 -48 c-10 -9 -11 -8 -5 6 3 10 9 15 12 12 3 -3 0 -11 -7 -18z m-129
-7 c-34 -32 -26 -42 18 -24 23 9 43 15 45 12 3 -2 -23 -14 -56 -26 -59 -21
-60 -21 -54 -2 4 11 4 20 2 20 -3 0 -35 -18 -72 -41 -37 -22 -69 -39 -71 -37
-7 8 169 118 189 118 21 0 21 0 -1 -20z m124 -57 c-31 -56 -36 -60 -36 -28 0
19 3 25 8 17 6 -9 12 -6 20 13 6 14 14 25 17 25 3 0 -1 -12 -9 -27z m-336 -58
c-7 -8 -20 -15 -29 -15 -11 1 -8 5 9 15 32 18 35 18 20 0z m-820 -50 c-7 -8
-17 -15 -23 -15 -6 0 -2 7 9 15 25 19 30 19 14 0z m437 -21 c-3 -3 -12 -4 -19
-1 -8 3 -5 6 6 6 11 1 17 -2 13 -5z m213 -144 c0 -16 -4 -30 -10 -30 -5 0 -10
11 -10 24 0 13 -6 27 -12 29 -7 3 -3 6 10 6 18 1 22 -4 22 -29z m54 3 c-7 -39
-14 -42 -14 -5 0 18 4 32 9 32 5 0 7 -12 5 -27z m41 -3 c0 -16 -3 -30 -7 -30
-5 0 -8 14 -8 30 0 17 3 30 8 30 4 0 7 -13 7 -30z m45 0 c0 -16 -4 -30 -10
-30 -5 0 -10 14 -10 30 0 17 5 30 10 30 6 0 10 -13 10 -30z m95 0 c0 -32 -12
-40 -21 -15 -7 17 1 45 13 45 4 0 8 -13 8 -30z m40 0 c0 -13 -4 -25 -10 -27
-5 -1 -10 11 -10 27 0 17 5 29 10 27 6 -2 10 -14 10 -27z m39 15 c-4 -8 -1
-22 6 -30 9 -11 9 -15 1 -15 -6 0 -14 7 -17 15 -6 15 1 45 10 45 3 0 3 -7 0
-15z m89 8 c-7 -2 -13 -16 -13 -29 0 -13 -3 -24 -7 -24 -5 0 -8 14 -8 30 0 24
4 30 20 29 11 0 14 -3 8 -6z m82 -30 c4 -14 2 -23 -4 -23 -6 0 -11 6 -11 14 0
8 -3 23 -6 33 -5 12 -4 15 3 8 6 -5 14 -20 18 -32z m73 7 c27 -36 14 -40 -16
-5 -24 27 -27 35 -14 35 5 0 18 -13 30 -30z m88 21 c-3 -5 1 -11 9 -15 17 -6
21 -36 4 -36 -5 0 -7 5 -4 10 3 6 -1 13 -9 16 -18 7 -22 34 -5 34 5 0 8 -4 5
-9z m99 -49 c-3 -4 -10 0 -16 8 -8 13 -10 13 -19 0 -8 -13 -10 -12 -10 3 0 9
5 17 10 17 6 0 9 3 9 8 -4 24 4 23 17 -1 9 -16 13 -32 9 -35z m50 28 c0 -25
-2 -27 -14 -15 -12 11 -12 17 -1 29 16 20 15 21 15 -14z m110 0 c9 -16 12 -30
7 -30 -8 0 -32 42 -32 55 0 13 11 2 25 -25z m-452 -15 c-3 -9 -8 -14 -10 -11
-3 3 -2 9 2 15 9 16 15 13 8 -4z m74 -7 c-3 -8 -6 -5 -6 6 -1 11 2 17 5 13 3
-3 4 -12 1 -19z m460 16 c-3 -3 -12 -4 -19 -1 -8 3 -5 6 6 6 11 1 17 -2 13 -5z
m-147 -8 c0 -3 -4 -8 -10 -11 -5 -3 -10 -1 -10 4 0 6 5 11 10 11 6 0 10 -2 10
-4z"/>
<path d="M580 1630 c0 -5 5 -10 11 -10 5 0 7 5 4 10 -3 6 -8 10 -11 10 -2 0
-4 -4 -4 -10z"/>
<path d="M2580 1446 c-6 -8 -10 -25 -8 -36 l3 -22 28 22 c22 17 25 25 16 36
-15 18 -24 18 -39 0z"/>
<path d="M1400 1250 c0 -11 7 -20 15 -20 8 0 15 9 15 20 0 11 -7 20 -15 20 -8
0 -15 -9 -15 -20z"/>
<path d="M1571 656 c2 -2 14 -9 26 -15 18 -9 22 -9 18 2 -3 7 -15 13 -26 14
-12 1 -20 1 -18 -1z"/>
<path d="M1617 563 c-4 -3 -7 -11 -7 -17 0 -6 5 -5 12 2 6 6 9 14 7 17 -3 3
-9 2 -12 -2z"/>
<path d="M530 2671 c-24 -7 -24 -7 9 -14 34 -7 51 -3 51 14 0 10 -23 10 -60 0z"/>
<path d="M205 2650 c-22 -5 -57 -16 -77 -24 -21 -9 -58 -16 -83 -16 l-45 0 0
-106 0 -106 87 7 c49 4 151 7 228 6 112 -1 144 1 160 14 20 15 20 15 -3 33
l-24 18 44 13 c24 7 49 15 56 17 24 7 7 28 -29 35 -19 4 -43 19 -55 35 -20 25
-28 27 -120 32 -95 5 -98 6 -66 19 64 26 16 41 -73 23z"/>
<path d="M2907 2553 c-7 -36 4 -54 53 -93 l40 -32 0 61 c0 51 -3 62 -22 75
-36 25 -65 20 -71 -11z"/>
<path d="M395 2390 c-16 -7 -11 -9 21 -9 23 -1 63 -4 90 -7 47 -5 48 -5 24 10
-27 17 -103 20 -135 6z"/>
<path d="M2010 2233 c0 -12 8 -23 20 -26 11 -3 20 -2 20 2 0 5 -9 16 -20 26
-19 18 -20 17 -20 -2z"/>
<path d="M2220 2200 c0 -13 71 -60 92 -60 27 0 22 12 -16 43 -34 26 -76 36
-76 17z"/>
<path d="M958 2178 c-20 -13 10 -28 55 -28 27 0 37 4 35 12 -6 16 -72 28 -90
16z"/>
<path d="M1550 1826 c0 -7 10 -16 23 -20 58 -15 80 4 26 23 -41 14 -49 14 -49
-3z"/>
</g>
</svg>
