<?xml version="1.0" standalone="no"?>
<!DOCTYPE svg PUBLIC "-//W3C//DTD SVG 20010904//EN"
 "http://www.w3.org/TR/2001/REC-SVG-20010904/DTD/svg10.dtd">
<svg version="1.0" xmlns="http://www.w3.org/2000/svg"
 width="1000.000000pt" height="1000.000000pt" viewBox="0 0 1000.000000 1000.000000"
 preserveAspectRatio="xMidYMid meet">

<g transform="translate(0.000000,1000.000000) scale(0.100000,-0.100000)"
fill="#000000" stroke="none">
<path d="M0 5000 l0 -5000 5000 0 5000 0 0 5000 0 5000 -5000 0 -5000 0 0
-5000z m6116 4802 c1 -71 0 -74 -8 -33 -8 35 -4 111 5 111 1 0 2 -35 3 -78z
m-1936 18 c-32 -24 -37 -18 -15 16 13 20 20 23 28 15 9 -9 6 -17 -13 -31z
m1930 -125 c-7 -8 -17 -15 -23 -15 -6 0 -2 8 9 19 22 21 33 19 14 -4z m-1940
-233 c28 -56 50 -107 50 -112 0 -28 -31 10 -70 86 -24 46 -58 101 -75 122 -37
43 -65 94 -65 117 0 36 112 -113 160 -213z m1822 143 c-12 -9 -39 -22 -59 -29
-31 -10 -43 -22 -65 -67 -15 -30 -32 -77 -38 -104 -15 -63 -17 -59 188 -348
67 -94 129 -175 164 -216 36 -42 49 -83 29 -96 -6 -3 -36 -10 -68 -16 -32 -6
-102 -31 -156 -56 -54 -25 -101 -43 -103 -40 -6 6 158 114 206 136 29 13 34
21 31 41 -1 14 -6 27 -11 30 -4 3 -54 72 -110 154 -102 147 -104 148 -121 127
-12 -14 -19 -17 -22 -9 -9 27 -21 -5 -25 -68 -3 -41 0 -70 7 -77 6 -6 11 -19
11 -29 0 -22 -39 -102 -46 -95 -3 3 -24 -13 -47 -34 -23 -21 -50 -39 -59 -39
-10 0 -19 -12 -23 -32 -4 -18 -11 -37 -14 -43 -4 -5 -13 -29 -20 -52 -14 -49
0 -119 26 -139 9 -6 21 -26 27 -45 6 -18 23 -40 38 -49 25 -14 28 -13 42 5 8
11 18 20 23 20 5 0 26 9 45 19 37 20 46 44 49 126 l1 35 8 -30 c5 -16 10 -48
12 -70 3 -26 9 -41 19 -43 27 -5 125 37 161 69 40 36 129 88 159 94 13 3 27 9
33 15 5 5 18 10 27 10 21 0 30 12 33 45 2 13 19 45 39 72 19 27 37 55 39 63 7
34 48 54 48 24 0 -12 6 -15 25 -10 45 11 25 -42 -43 -116 -40 -43 -18 -51 48
-18 65 33 70 34 70 21 0 -6 -17 -23 -39 -38 -21 -15 -74 -55 -117 -87 -44 -33
-137 -103 -209 -157 -71 -53 -158 -124 -192 -158 -35 -34 -69 -61 -77 -61 -24
0 -63 -39 -69 -67 -11 -62 -36 -105 -95 -169 -34 -37 -62 -71 -62 -77 0 -15
52 3 76 26 12 12 33 32 48 44 15 12 26 32 26 46 0 24 22 45 63 60 15 6 17 3
12 -13 -11 -36 -22 -120 -15 -120 4 0 4 -20 0 -45 -5 -34 -4 -45 7 -45 7 0 13
-12 14 -27 0 -16 2 -48 4 -73 4 -51 -10 -77 -31 -59 -8 6 -14 17 -14 25 0 7
-6 16 -12 20 -7 4 -10 4 -6 -1 12 -12 -10 -44 -42 -60 -29 -15 -30 -16 -14
-40 17 -26 12 -76 -9 -93 -16 -12 -117 -23 -117 -12 0 4 -18 6 -40 3 -24 -4
-46 -1 -55 7 -22 18 -59 5 -94 -35 -52 -59 -32 -90 26 -41 43 36 73 49 86 38
7 -6 35 -13 62 -16 28 -3 58 -7 67 -8 55 -7 5 -72 -63 -82 -94 -15 -129 -29
-149 -63 -11 -18 -26 -33 -35 -33 -9 0 -13 -5 -10 -10 9 -15 -3 -47 -20 -54
-29 -11 -15 32 31 101 25 37 48 72 51 76 3 5 -4 4 -16 -2 -14 -8 -32 -9 -54
-3 -60 17 -90 -11 -83 -75 5 -37 2 -44 -22 -61 -15 -10 -35 -22 -44 -25 -10
-4 -18 -13 -18 -22 0 -10 -10 -15 -30 -15 -16 0 -30 -3 -30 -7 0 -5 -21 -21
-48 -38 -55 -35 -116 -88 -144 -128 l-20 -28 42 3 c36 2 53 12 124 74 97 84
113 94 160 94 34 0 35 0 24 -32 -21 -68 -18 -96 10 -116 15 -11 33 -17 40 -15
19 7 14 -13 -18 -70 -38 -68 -38 -77 3 -77 26 0 42 9 69 38 20 20 59 55 87 77
28 22 51 43 51 47 0 5 7 8 15 8 8 0 15 5 15 10 0 17 82 90 125 112 22 11 58
35 81 53 48 40 144 97 144 87 0 -4 -10 -22 -23 -41 -12 -19 -26 -42 -32 -50
-5 -9 -19 -30 -31 -46 -12 -17 -29 -46 -38 -67 -14 -29 -24 -37 -54 -42 -76
-14 -122 -40 -122 -70 0 -19 20 -22 21 -3 0 9 2 9 6 -1 4 -10 9 -8 20 7 21 30
50 27 56 -6 3 -16 1 -31 -5 -34 -5 -3 -9 -10 -8 -15 1 -5 -7 -33 -17 -63 -14
-42 -15 -55 -5 -58 18 -7 15 -81 -6 -111 -10 -15 -26 -44 -37 -64 -10 -20 -23
-35 -27 -32 -4 3 -8 -3 -9 -13 0 -10 -22 -36 -49 -58 -27 -22 -52 -50 -56 -62
-3 -13 -10 -23 -15 -23 -5 0 -9 -7 -9 -15 0 -8 4 -15 10 -15 5 0 7 -8 3 -17
-6 -18 32 22 128 137 31 36 64 67 75 68 15 3 17 1 7 -9 -7 -7 -13 -20 -13 -29
0 -10 -15 -32 -33 -51 -18 -19 -46 -56 -62 -82 -24 -42 -26 -53 -19 -89 l9
-41 45 47 c25 26 55 49 67 52 12 3 25 14 28 25 3 10 29 40 56 66 27 26 54 56
59 65 13 22 2 48 -19 48 -35 0 -93 93 -80 127 11 29 49 51 49 28 0 -10 5 -13
11 -9 7 4 1 -7 -11 -24 -19 -26 -21 -34 -11 -46 17 -20 71 -47 82 -41 4 3 11
0 14 -6 5 -7 18 0 36 20 32 36 48 40 46 11 -1 -11 -5 -20 -9 -20 -14 0 -29
-51 -19 -64 5 -6 12 -25 15 -43 6 -25 3 -34 -12 -42 -29 -16 -71 -75 -77 -111
-6 -31 -5 -32 25 -28 24 4 30 1 25 -9 -3 -8 -5 -22 -5 -32 0 -10 -33 -54 -74
-99 -40 -45 -89 -111 -107 -146 l-33 -64 -53 -4 c-46 -3 -53 -1 -53 15 0 10
-7 25 -15 33 -12 13 -18 10 -47 -21 -120 -132 -121 -135 -45 -134 28 0 46 3
40 6 -7 2 -13 9 -13 14 0 6 5 7 11 4 6 -4 19 2 30 14 11 12 27 21 35 21 8 0
13 4 10 9 -3 4 6 6 19 3 14 -2 33 2 42 9 15 12 16 12 9 -6 -5 -11 -11 -30 -13
-42 -3 -12 -13 -24 -22 -26 -9 -3 38 -4 104 -4 99 2 120 5 120 17 0 10 -12 16
-32 18 -39 4 -42 22 -10 50 254 228 377 335 424 369 104 75 193 162 193 189 0
15 -7 27 -17 30 -10 3 -26 10 -36 15 -13 7 -23 6 -35 -3 -14 -11 -15 -10 -8
12 22 72 36 139 36 172 0 48 -62 126 -144 183 -57 40 -59 40 -152 40 -71 0
-93 3 -89 13 7 19 -1 15 -40 -19 l-35 -31 6 49 c4 26 12 55 19 63 20 26 26 50
9 43 -7 -3 -14 -9 -14 -13 0 -4 -7 -11 -16 -14 -13 -5 -15 -1 -9 21 10 42 52
80 101 92 24 6 60 26 81 44 20 17 33 25 28 17 -5 -8 6 -2 25 14 19 16 53 37
75 48 22 10 56 28 75 40 l35 21 -34 -36 c-19 -20 -53 -49 -75 -64 -57 -39 -82
-66 -68 -71 9 -3 9 -9 2 -23 -6 -10 -8 -19 -5 -19 3 0 0 -10 -6 -22 -7 -13
-13 -38 -14 -56 -1 -30 4 -36 45 -57 25 -13 73 -49 108 -80 37 -34 68 -55 77
-51 21 8 56 -41 49 -70 -6 -25 45 -132 55 -116 3 5 27 16 54 25 35 12 47 13
47 3 0 -6 -5 -17 -12 -24 -23 -23 1 -24 45 -2 37 18 46 29 52 57 7 40 60 103
85 103 11 0 22 5 26 11 11 19 87 49 125 49 19 0 44 -7 55 -15 32 -24 51 -17
89 36 44 62 55 88 45 114 -5 13 1 33 19 62 32 51 37 126 8 131 -9 2 -39 -12
-66 -31 -68 -49 -110 -69 -129 -62 -11 4 -13 8 -5 13 6 4 20 28 32 53 44 94
141 179 141 123 0 -19 8 -18 52 6 32 17 38 17 49 4 6 -8 12 -31 13 -52 1 -33
4 -37 29 -40 16 -2 47 4 69 12 21 9 37 12 33 6 -10 -17 24 -11 43 8 10 9 38
33 62 52 71 58 90 77 90 91 1 31 60 79 97 79 20 0 55 29 110 92 13 14 42 68
67 119 29 64 55 103 78 121 19 15 46 38 60 51 15 14 53 32 85 42 83 24 104 35
143 77 32 34 40 37 105 41 l70 5 -45 -13 c-25 -7 -38 -13 -30 -14 9 -1 3 -9
-15 -20 -16 -10 -41 -30 -54 -44 -13 -15 -52 -36 -87 -47 -76 -26 -130 -68
-193 -153 -26 -34 -86 -111 -134 -170 -80 -99 -87 -110 -71 -121 10 -8 15 -20
11 -30 -5 -11 -1 -16 12 -16 45 0 52 -10 26 -38 -14 -15 -32 -41 -40 -59 -9
-17 -26 -40 -39 -50 -12 -10 -27 -27 -33 -38 -14 -26 -5 -85 11 -79 18 7 151
-13 211 -31 l50 -15 -60 4 c-33 2 -80 9 -105 15 -35 10 -53 10 -85 0 -68 -22
-193 -109 -155 -109 6 0 24 8 38 19 48 34 106 46 153 32 27 -8 43 -20 47 -33
3 -14 7 -16 13 -7 6 10 13 10 31 2 13 -6 61 -14 108 -16 81 -5 140 -21 140
-38 0 -5 14 -6 30 -2 25 5 29 3 24 -11 -3 -9 -14 -16 -23 -17 -9 0 -77 -1
-151 -2 -108 -2 -140 -5 -159 -19 l-23 -17 39 -10 c49 -13 88 -43 109 -82 27
-53 19 -169 -12 -169 -8 0 -20 -11 -26 -25 -13 -29 -37 -33 -39 -7 -3 42 -7
59 -21 92 -23 53 -52 78 -82 73 -20 -4 -24 -9 -17 -22 14 -26 2 -41 -34 -41
-18 0 -38 -6 -44 -13 -6 -8 -35 -19 -65 -26 -42 -9 -66 -23 -115 -68 -67 -60
-109 -136 -133 -240 -10 -43 -18 -57 -37 -64 -12 -5 -32 -19 -43 -32 l-19 -22
5 28 c6 24 3 27 -18 27 -14 0 -31 7 -40 15 -8 8 -19 15 -25 15 -23 0 -60 -24
-64 -42 -3 -11 -10 -17 -15 -14 -6 3 -12 -1 -16 -9 -3 -8 -15 -15 -26 -15 -12
0 -18 -4 -15 -10 3 -5 15 -10 25 -10 14 0 22 -11 30 -42 34 -132 92 -265 136
-311 24 -26 27 -27 43 -13 10 9 21 13 26 9 4 -5 5 -3 2 3 -4 6 1 20 9 30 14
18 15 17 10 -18 -6 -44 0 -49 14 -13 8 21 14 24 35 19 22 -5 35 3 87 55 34 33
69 63 79 66 10 3 31 29 47 58 33 59 74 109 70 87 -2 -8 -12 -24 -23 -37 -18
-20 -41 -71 -75 -166 -9 -25 -14 -28 -38 -22 -25 5 -31 1 -58 -42 -17 -26 -35
-60 -41 -74 -11 -25 -9 -26 45 -43 75 -23 82 -30 82 -86 0 -26 3 -81 6 -122 6
-62 10 -75 23 -73 9 1 10 0 4 -2 -7 -3 -13 -11 -13 -19 0 -22 -18 -17 -25 7
-5 15 -10 18 -15 10 -10 -17 -48 -6 -129 36 -61 32 -71 35 -127 29 -37 -4 -73
-2 -90 5 -16 6 -85 13 -154 15 -69 2 -185 11 -258 20 -103 13 -140 14 -159 5
-13 -6 -28 -9 -33 -6 -4 2 -30 -2 -57 -10 -73 -22 -147 -97 -169 -172 -25 -81
-25 -294 -1 -383 23 -88 87 -215 137 -272 43 -50 154 -128 207 -146 60 -20
230 -34 370 -30 l138 3 88 42 c108 52 193 131 238 225 l30 63 -6 -135 c-4 -74
-10 -138 -14 -143 -15 -16 -201 -56 -315 -67 -166 -17 -464 -8 -576 18 -334
79 -540 248 -605 497 -8 32 -15 68 -15 80 0 12 -3 16 -8 8 -4 -6 -21 -14 -37
-18 -33 -7 -65 -19 -108 -41 -16 -8 -35 -14 -43 -14 -8 0 -14 -4 -14 -9 0 -5
-9 -11 -19 -14 -16 -4 -20 -18 -26 -108 -4 -57 -5 -163 -3 -236 4 -152 6 -158
91 -185 51 -16 47 -16 -228 -16 l-280 -1 55 19 c30 10 60 26 67 36 10 13 13
67 12 203 0 102 -2 182 -5 176 -2 -5 -24 -10 -49 -9 l-45 1 0 -52 c0 -49 -2
-52 -47 -87 -70 -53 -179 -121 -250 -157 -35 -17 -63 -35 -63 -39 0 -4 -28
-37 -63 -75 l-62 -67 -57 16 c-32 9 -58 21 -58 26 0 13 -51 0 -70 -17 -54 -49
-160 -59 -224 -21 -40 24 -48 24 -266 26 -124 1 -259 5 -300 8 -70 7 -64 8 85
15 160 7 397 31 429 43 22 8 12 42 -22 70 l-25 20 29 30 c16 17 23 23 17 14
-19 -25 -16 -46 11 -64 14 -8 27 -25 31 -36 4 -12 15 -20 29 -20 37 0 127 30
121 40 -4 6 -2 10 4 10 5 0 13 10 17 23 3 12 14 33 23 47 31 45 42 102 28 141
-6 19 -14 36 -17 39 -4 3 -12 24 -18 48 -9 29 -18 42 -31 42 -15 0 -18 8 -16
45 l1 46 -110 -1 c-152 -2 -168 -6 -215 -52 -23 -22 -41 -43 -41 -47 0 -4 -11
-14 -25 -21 -24 -13 -25 -17 -25 -111 0 -54 4 -109 10 -123 11 -30 65 -66 97
-66 12 0 24 -4 27 -9 3 -5 -117 -9 -274 -10 -154 -1 -280 0 -280 3 0 2 22 12
49 21 81 26 85 37 89 191 3 110 1 139 -12 159 -11 17 -12 25 -3 28 17 5 24
707 7 748 -12 28 -70 59 -112 59 -14 0 -18 4 -12 9 5 6 151 13 324 17 207 4
320 10 329 18 11 8 15 8 18 -1 3 -8 22 -13 49 -13 l44 0 0 48 c0 60 -29 121
-87 186 -50 56 -130 111 -136 93 -6 -19 -87 13 -105 42 -24 37 -30 40 -89 37
-29 -2 -50 1 -47 5 3 5 -2 9 -10 9 -9 0 -16 -8 -16 -19 0 -20 -34 -31 -98 -31
-49 0 -106 -54 -89 -85 6 -11 12 -35 12 -52 1 -27 -2 -33 -19 -34 -13 -1 -6
-5 15 -11 21 -5 47 -20 59 -33 l21 -23 -63 15 c-35 8 -78 13 -95 11 -18 -2
-33 0 -33 4 0 4 -11 8 -25 8 -15 0 -25 -6 -25 -15 0 -18 -41 -29 -76 -21 -42
11 -77 37 -65 49 26 26 7 30 -119 24 -84 -4 -129 -3 -125 3 3 6 14 10 24 10
10 0 26 8 35 19 9 10 29 21 44 24 15 3 50 28 79 56 39 38 61 52 92 57 23 4 41
10 41 15 0 8 40 24 53 21 4 -1 14 13 22 31 8 21 25 39 42 45 44 18 146 31 163
21 10 -6 3 -8 -23 -9 -45 0 -117 -38 -117 -62 0 -9 -6 -18 -12 -21 -9 -3 -7
-7 4 -12 12 -5 28 1 48 18 22 19 37 24 60 20 19 -2 41 2 55 11 35 23 50 20 79
-15 14 -17 26 -26 26 -20 0 6 8 11 18 11 11 0 23 13 30 34 10 27 20 36 49 43
50 12 61 32 39 77 -21 45 -11 85 25 103 13 7 33 23 44 37 58 71 145 112 183
87 19 -11 89 11 119 37 14 12 28 22 31 22 4 0 19 11 34 25 15 14 32 25 39 25
15 0 4 61 -13 72 -7 4 -31 10 -53 14 -22 3 -43 11 -47 17 -4 7 -28 3 -72 -11
-37 -12 -75 -22 -86 -22 -11 0 -35 -16 -54 -35 -36 -36 -62 -49 -33 -17 10 10
17 22 17 26 0 4 15 26 34 49 18 23 31 48 28 56 -2 8 3 20 12 27 14 10 15 17 7
33 -6 11 -11 45 -11 75 0 49 2 56 20 56 30 0 24 18 -12 40 -39 24 -30 27 13 5
53 -28 83 12 76 99 -3 37 -107 136 -142 136 -13 0 -27 5 -30 10 -3 6 -19 10
-34 10 -24 0 -28 4 -28 30 0 16 6 31 14 34 26 10 2 109 -32 132 -27 18 -107 8
-137 -16 -19 -15 -19 -17 -4 -33 16 -16 16 -18 -9 -41 -40 -37 -77 -42 -125
-15 -35 20 -44 21 -73 11 -19 -7 -40 -12 -49 -12 -9 0 -23 -11 -31 -24 -9 -13
-29 -26 -46 -29 -17 -4 -47 -22 -68 -40 -21 -19 -53 -42 -71 -51 -18 -9 -30
-20 -28 -25 5 -8 -20 -23 -56 -35 -13 -4 -20 2 -24 19 -16 65 33 130 105 141
58 8 88 23 47 24 -32 0 -95 35 -97 53 -5 51 17 100 32 75 7 -10 9 -9 9 5 0 9
8 17 18 17 14 0 15 2 2 10 -8 5 -11 10 -6 10 5 0 0 10 -11 23 -15 16 -22 38
-25 82 -1 33 -6 63 -11 66 -4 3 -1 20 6 38 10 24 16 29 20 18 8 -21 44 -10 59
17 6 11 11 23 10 26 0 3 7 10 16 15 9 6 18 18 20 29 2 10 12 27 22 38 29 31
12 61 -39 71 -22 4 -41 13 -41 18 0 6 -18 8 -42 6 l-42 -4 25 19 c67 53 67 53
36 56 -15 2 -41 -4 -59 -12 -29 -15 -33 -15 -50 0 -24 23 -108 29 -176 14 -90
-19 -90 -19 -68 -35 18 -14 18 -14 0 -14 -94 0 -144 -3 -144 -10 0 -13 -132
-23 -144 -11 -5 5 -25 10 -43 10 -29 0 -33 3 -33 26 0 17 6 28 20 31 11 3 20
9 20 14 0 5 21 9 48 9 l47 1 -27 20 c-16 11 -28 28 -28 36 0 14 2 14 18 0 48
-44 195 -55 262 -20 33 17 85 16 135 -2 48 -17 115 -19 115 -4 0 8 37 10 128
6 l127 -5 36 37 c20 20 51 49 68 64 17 16 31 35 31 44 0 8 16 33 35 56 30 34
34 46 29 74 -5 27 -1 37 22 61 44 44 109 133 124 170 7 17 17 32 22 32 12 0
98 87 98 100 0 6 4 10 9 10 5 0 14 14 21 30 7 17 16 30 21 30 5 0 9 9 9 20 0
11 9 34 20 52 11 18 20 37 20 42 0 5 -25 32 -55 61 -30 29 -55 61 -55 71 0 22
111 -80 125 -116 5 -14 13 -27 17 -30 4 -3 -1 -21 -11 -40 -23 -45 -48 -169
-35 -178 5 -4 14 -17 21 -29 11 -20 8 -25 -53 -69 -36 -25 -90 -70 -119 -100
-50 -52 -53 -56 -59 -123 -6 -59 -4 -76 13 -110 12 -22 21 -50 21 -62 0 -45
25 -104 61 -141 43 -45 65 -45 136 4 23 15 46 28 51 28 5 0 21 11 36 25 35 32
47 38 139 69 83 28 107 32 107 16 0 -27 -26 -57 -63 -74 -56 -25 -109 -65
-102 -77 4 -5 15 -3 28 6 12 8 31 15 44 15 12 0 28 6 35 13 20 19 67 41 74 35
10 -11 -140 -126 -171 -132 -36 -7 -87 -56 -92 -87 -2 -11 3 -27 11 -35 13
-12 15 -11 21 6 8 24 60 28 68 6 5 -11 19 -13 64 -9 73 6 132 28 158 57 92
104 129 135 173 140 15 1 37 8 48 14 12 6 24 8 28 5 3 -3 6 -1 6 5 0 7 7 12
15 12 10 0 12 -6 8 -17 -6 -16 -5 -16 10 -4 9 7 14 17 11 22 -3 5 2 9 11 9 8
0 18 7 21 15 4 8 13 15 20 15 11 0 12 -4 4 -19 -14 -27 -13 -36 4 -22 11 9 20
9 35 2 11 -6 34 -11 52 -11 l32 0 -7 51 c-11 83 -32 90 -96 35 -23 -20 -80
-50 -80 -42 0 8 39 44 72 66 20 14 40 36 44 50 8 28 9 29 16 50 29 78 31 100
14 119 -10 11 -16 30 -14 43 2 19 8 23 35 20 83 -8 134 99 79 165 l-25 29 25
32 c30 37 37 39 64 12 11 -11 28 -20 39 -20 27 0 93 29 118 52 27 26 48 83 37
106 -4 9 -8 21 -8 27 -2 24 -36 15 -51 -15 -13 -24 -48 -50 -69 -50 -12 0 4
104 20 127 10 15 26 42 35 58 21 39 37 41 74 11 30 -24 30 -24 11 -45 -26 -29
-14 -37 23 -15 35 21 51 58 40 94 -12 43 -10 49 24 63 17 8 39 23 48 33 30 34
79 136 79 163 0 35 17 51 55 51 17 0 50 11 75 25 51 27 88 34 52 10z m1098
-152 c0 -16 -35 -43 -57 -43 -29 0 -30 24 0 38 25 12 57 15 57 5z m-180 -207
c0 -2 -7 -7 -16 -10 -8 -3 -12 -2 -9 4 6 10 25 14 25 6z m34 -52 c19 -7 21
-30 4 -40 -6 -4 -8 -3 -5 3 8 13 -15 23 -49 23 -14 0 -22 4 -19 10 7 11 45 13
69 4z m406 -42 c0 -25 -13 -37 -116 -103 -110 -70 -119 -74 -176 -75 -44 -1
-67 -7 -88 -23 -16 -11 -32 -21 -36 -21 -3 0 -17 -9 -30 -19 -13 -10 -48 -24
-77 -31 -28 -6 -65 -18 -82 -25 -16 -7 -48 -20 -69 -29 -21 -9 -45 -24 -52
-34 -7 -9 -15 -14 -19 -10 -8 8 8 21 80 65 93 56 131 73 163 73 16 0 51 9 77
21 49 22 51 27 34 89 -2 9 4 16 17 18 12 2 32 14 45 28 12 13 28 24 35 24 6 0
15 7 18 16 4 9 9 14 12 11 9 -9 -15 -47 -30 -47 -8 0 -16 -7 -20 -15 -3 -9 0
-15 9 -15 8 0 29 -9 48 -20 27 -16 40 -18 61 -10 14 5 26 14 26 19 0 5 10 13
23 16 38 12 87 55 102 91 17 42 45 46 45 6z m-230 14 c0 -3 -4 -8 -10 -11 -5
-3 -10 -1 -10 4 0 6 5 11 10 11 6 0 10 -2 10 -4z m229 -285 c30 -23 59 -40 65
-38 6 3 17 -1 23 -9 16 -17 -9 -44 -40 -44 -100 1 -162 58 -137 125 7 19 14
24 23 18 6 -6 36 -29 66 -52z m-5009 45 c0 -2 -12 -11 -26 -21 -25 -16 -25
-16 -14 4 9 17 40 30 40 17z m-74 -132 c18 -14 18 -14 -6 -3 -31 14 -36 19
-24 19 6 0 19 -7 30 -16z m5028 -2 c-6 -4 -17 -20 -25 -36 -9 -20 -40 -45 -94
-75 -74 -43 -119 -90 -103 -107 4 -3 24 7 45 23 64 50 145 95 197 110 28 8 56
20 63 25 17 14 83 28 83 18 0 -5 -10 -16 -22 -24 -29 -21 -19 -28 22 -16 64
18 15 -9 -99 -55 -176 -71 -291 -134 -291 -158 0 -17 -98 -143 -144 -185 -50
-47 -75 -60 -98 -57 -16 3 -105 -87 -184 -187 l-31 -39 28 -81 c18 -53 24 -89
20 -106 -6 -21 -11 -12 -36 61 -16 48 -31 87 -33 87 -5 0 -16 -13 -53 -62
l-20 -27 29 -15 c26 -13 72 -74 72 -94 0 -4 -16 10 -35 31 -25 27 -41 37 -54
32 -14 -4 -20 1 -24 22 -3 17 0 34 8 43 22 24 45 86 45 119 0 37 66 128 175
241 83 85 115 130 95 130 -5 0 -10 -4 -10 -9 0 -5 -13 -11 -29 -13 -17 -2 -28
-1 -25 3 2 4 44 38 92 75 48 37 110 90 137 118 28 28 84 71 125 95 41 24 95
62 119 83 24 21 49 38 55 38 8 0 8 -2 0 -8z m-4009 -122 c-3 -5 0 -10 7 -10 7
-1 -3 -9 -22 -19 -19 -11 -40 -31 -46 -46 -6 -15 -14 -23 -17 -18 -4 6 12 31
34 57 38 42 59 60 44 36z m-459 -45 c18 -15 18 -15 -5 -13 -14 2 -26 9 -29 16
-5 17 10 15 34 -3z m103 -11 c2 -2 2 -7 -2 -10 -8 -9 -47 6 -47 17 0 9 37 3
49 -7z m1900 -133 c-10 -29 -45 -59 -56 -48 -2 3 1 16 8 29 9 16 14 19 17 9 3
-8 10 -1 18 19 18 41 28 34 13 -9z m-1314 -30 c3 -5 1 -12 -5 -16 -5 -3 -10 1
-10 9 0 18 6 21 15 7z m-75 -361 c0 -5 -4 -10 -10 -10 -5 0 -10 5 -10 10 0 6
5 10 10 10 6 0 10 -4 10 -10z m227 -66 c-3 -3 -12 -4 -19 -1 -8 3 -5 6 6 6 11
1 17 -2 13 -5z m-133 -273 c9 -15 -12 -61 -28 -61 -9 0 -17 -15 -21 -42 -8
-48 -29 -72 -67 -82 -27 -6 -27 -5 -17 21 5 15 15 34 22 41 14 17 37 81 37
104 0 24 61 40 74 19z m2433 -148 c-5 -5 -47 83 -47 96 1 3 12 -16 26 -42 14
-27 23 -51 21 -54z m-2715 -32 c15 -18 10 -22 -88 -87 -63 -42 -105 -76 -108
-89 -3 -12 -21 -30 -40 -40 -19 -10 -32 -24 -29 -31 10 -25 -127 -72 -170 -58
l-21 7 22 17 c12 10 26 37 31 60 6 26 22 56 40 74 l31 31 0 -27 c0 -18 6 -27
22 -31 17 -5 34 6 79 53 52 54 60 59 83 51 21 -9 29 -6 53 22 22 25 71 67 78
67 0 0 8 -8 17 -19z m2792 -38 c-4 -16 -11 -32 -18 -38 -6 -5 -17 -22 -24 -36
-21 -41 -92 -109 -130 -125 -46 -19 -65 -17 -27 3 42 22 97 83 119 131 11 23
25 42 33 42 7 0 17 8 20 18 6 14 22 31 31 32 1 0 0 -12 -4 -27z m-2384 -103
c0 -5 -5 -10 -11 -10 -5 0 -7 5 -4 10 3 6 8 10 11 10 2 0 4 -4 4 -10z m395
-45 c28 -4 64 -9 80 -12 l30 -6 -25 -9 c-18 -5 -13 -7 19 -4 25 3 39 1 32 -3
-8 -5 5 -10 33 -14 42 -6 133 -44 124 -52 -1 -2 -23 1 -48 5 -25 5 -81 9 -126
10 -44 0 -104 7 -132 15 -51 15 -122 18 -122 4 0 -4 -8 -9 -19 -12 -12 -3 -18
1 -17 12 1 13 -9 16 -61 13 -64 -3 -87 12 -38 24 14 3 22 10 19 15 -3 5 12 9
33 10 21 0 56 4 78 9 22 4 51 6 65 4 14 -2 48 -6 75 -9z m-715 -390 c0 -14 -5
-25 -11 -25 -5 0 -8 -4 -5 -9 3 -5 -2 -12 -12 -16 -16 -6 -16 -7 2 -17 11 -6
32 -11 48 -10 37 1 36 -16 -4 -32 -27 -12 -38 -12 -71 0 -49 17 -48 17 -41 -1
10 -24 -36 -19 -58 7 -10 12 -17 25 -16 30 3 8 146 95 161 97 4 1 7 -10 7 -24z
m730 -161 c0 -7 -8 -14 -18 -16 -10 -3 -18 -14 -19 -25 -1 -11 -15 -40 -31
-64 -16 -24 -34 -59 -42 -76 -9 -24 -19 -33 -36 -33 -26 0 -30 10 -12 28 22
22 -10 59 -77 86 -125 50 -209 65 -335 59 -103 -4 -113 -3 -95 10 14 10 58 16
145 19 116 5 130 3 210 -22 47 -15 93 -31 103 -35 12 -5 17 -3 17 9 0 22 30
33 40 16 7 -11 11 -11 24 -1 9 8 16 19 16 25 0 7 5 17 10 22 15 15 100 12 100
-2z m-283 -740 c-3 -3 -12 -4 -19 -1 -8 3 -5 6 6 6 11 1 17 -2 13 -5z m615
-66 c-7 -7 -12 -8 -12 -2 0 14 12 26 19 19 2 -3 -1 -11 -7 -17z m2988 12 c0
-5 -5 -10 -11 -10 -5 0 -7 5 -4 10 3 6 8 10 11 10 2 0 4 -4 4 -10z m-3874
-156 c4 -15 29 -55 55 -90 27 -35 46 -64 43 -64 -4 0 -76 23 -163 50 -182 59
-283 77 -465 85 -72 3 -164 8 -203 11 l-73 5 0 -291 0 -290 34 0 c79 0 303 22
449 45 l158 25 100 -50 c54 -28 99 -52 99 -55 0 -3 -46 -28 -101 -56 l-102
-51 -146 26 c-151 26 -333 46 -433 46 l-58 0 0 -295 0 -295 113 0 c165 0 419
18 505 36 85 17 142 44 251 115 41 27 75 49 76 49 2 0 -8 -33 -22 -72 -14 -40
-28 -95 -32 -123 l-6 -50 -615 0 c-587 0 -617 1 -650 19 l-35 19 54 12 c98 23
96 14 99 330 l3 275 -108 1 c-59 0 -128 4 -153 8 l-45 8 55 2 c30 1 99 4 153
8 l98 6 -3 269 c-3 268 -3 270 -26 288 -13 11 -43 22 -68 26 -25 3 -42 9 -39
13 25 25 118 29 642 30 l553 1 6 -26z m2868 -548 c-3 -9 -10 -16 -15 -16 -6 0
-5 9 1 21 13 24 24 20 14 -5z m-1756 -321 c-6 -14 -13 -23 -15 -21 -5 5 15 46
22 46 3 0 -1 -11 -7 -25z m-718 -43 c0 -10 -18 -36 -41 -57 -23 -22 -44 -48
-48 -59 -6 -16 -101 -62 -101 -49 0 5 74 95 100 122 21 22 73 60 83 61 4 0 7
-8 7 -18z m-501 -494 c-2 -2 -19 -16 -38 -33 -19 -16 -30 -23 -26 -15 15 29
38 50 53 50 9 0 13 -1 11 -2z m1169 -119 c58 -10 63 -13 57 -33 -4 -11 -10
-38 -15 -59 l-8 -38 23 21 c28 26 95 37 133 21 64 -27 82 -117 33 -173 l-28
-33 23 -24 c20 -21 28 -23 70 -17 57 7 97 36 51 36 -30 0 -35 14 -12 36 23 23
21 150 -2 163 -15 8 -11 10 18 11 32 0 43 -7 77 -47 34 -41 41 -45 54 -33 24
24 29 60 10 68 -12 4 -4 9 23 13 22 4 42 3 43 -2 2 -5 7 -7 10 -5 4 2 6 -47 4
-110 -3 -109 -2 -114 17 -114 19 0 19 -2 5 -35 -18 -45 -18 -65 3 -65 14 0 15
-2 1 -17 -9 -10 -22 -32 -31 -48 -18 -35 -9 -60 33 -93 25 -19 28 -19 72 -4
36 13 59 33 107 90 33 41 71 82 83 93 21 17 21 18 3 13 -11 -3 -6 3 11 14 18
11 35 25 38 31 4 6 12 11 17 11 12 0 -23 -69 -72 -141 -21 -31 -36 -59 -33
-61 2 -3 -24 -73 -60 -155 -59 -139 -63 -154 -55 -194 13 -70 12 -73 -31 -87
-59 -18 -77 -15 -141 24 -32 19 -63 33 -69 29 -5 -3 -10 -2 -10 3 0 6 -16 13
-36 17 l-36 6 26 28 c34 36 32 58 -8 104 -28 31 -43 39 -85 46 -32 5 -61 17
-77 32 -41 38 -47 55 -29 89 9 16 11 30 6 30 -5 0 -12 8 -16 18 -6 21 -46 43
-85 48 -42 5 -131 -26 -205 -71 -38 -23 -80 -46 -92 -49 -12 -4 -36 -20 -54
-37 -17 -16 -34 -29 -38 -29 -3 0 -24 -14 -45 -30 -23 -17 -52 -30 -68 -30
-18 0 -39 -10 -54 -25 -32 -32 -50 -23 -28 14 14 25 22 28 65 27 27 -1 49 2
49 7 0 13 27 37 41 37 9 0 10 3 3 10 -5 5 -29 11 -52 12 -33 1 -49 -4 -70 -24
-39 -37 -106 -43 -176 -17 -49 19 -54 23 -43 40 7 11 17 19 23 19 13 0 168
160 172 179 1 7 21 40 43 73 49 72 44 87 -13 46 -24 -17 -34 -2 -12 19 17 17
16 18 -22 25 -21 4 -55 7 -73 7 -27 1 -32 4 -23 13 7 7 12 42 12 86 0 60 -4
78 -17 88 -16 12 -11 13 37 13 42 0 51 -2 38 -10 -15 -8 -18 -24 -18 -89 l0
-80 34 0 c21 0 36 6 40 15 8 23 29 18 23 -5 -3 -11 -2 -20 1 -19 4 0 39 37 77
81 111 129 132 148 163 148 22 0 30 7 39 30 13 35 28 37 131 19z m-1398 -63
c0 -3 -4 -8 -10 -11 -5 -3 -10 -1 -10 4 0 6 5 11 10 11 6 0 10 -2 10 -4z
m-588 -26 c47 -14 68 -43 68 -97 0 -109 -157 -156 -205 -62 -32 62 -11 129 49
155 38 16 42 16 88 4z m908 -5 c9 -6 0 -55 -10 -55 -4 0 -10 9 -13 20 -8 30
-80 28 -101 -2 -50 -70 22 -167 101 -137 29 11 31 -6 2 -22 -13 -6 -42 -9 -68
-6 -118 13 -140 172 -28 206 29 9 100 6 117 -4z m-628 -21 c-4 -22 -6 -24 -14
-10 -5 9 -22 16 -38 16 -28 0 -30 -3 -30 -35 0 -31 3 -35 25 -35 14 0 25 5 25
10 0 6 5 10 10 10 6 0 10 -13 10 -30 0 -16 -4 -30 -10 -30 -5 0 -10 5 -10 10
0 6 -11 10 -25 10 -22 0 -25 -4 -25 -35 0 -22 6 -38 18 -44 13 -8 4 -10 -38
-10 -42 0 -51 2 -37 10 14 8 17 24 17 89 0 65 -3 81 -17 89 -13 8 3 10 63 11
l81 0 -5 -26z m218 7 c0 -11 -4 -23 -10 -26 -5 -3 -10 1 -10 9 0 11 -9 16 -30
16 -28 0 -30 -3 -30 -35 0 -28 4 -35 20 -35 11 0 20 5 20 10 0 6 5 10 10 10 6
0 10 -13 10 -30 0 -16 -4 -30 -10 -30 -5 0 -10 5 -10 10 0 6 -9 10 -20 10 -17
0 -20 -7 -20 -39 0 -29 5 -41 18 -44 9 -3 -8 -5 -38 -5 -30 0 -49 2 -42 5 8 3
12 31 12 88 0 69 -3 86 -17 94 -13 8 4 10 65 11 75 0 82 -2 82 -19z m148 8
c-15 -8 -18 -24 -18 -89 0 -65 3 -81 18 -89 13 -8 5 -10 -36 -11 -49 0 -52 1
-38 16 13 12 15 29 10 87 -4 40 -11 78 -17 85 -7 9 3 12 44 12 42 -1 50 -3 37
-11z m414 -1 c-17 -17 -16 -175 1 -181 6 -3 -10 -5 -38 -5 -27 0 -44 2 -37 5
8 3 12 32 12 93 0 61 -4 90 -12 93 -7 3 9 6 37 6 38 1 46 -2 37 -11z m217 -45
c13 -32 34 -77 47 -100 l23 -43 -47 0 c-26 0 -42 4 -35 8 7 4 10 17 6 30 -4
18 -13 22 -43 22 -30 0 -39 -4 -43 -22 -4 -13 -1 -26 6 -30 7 -4 -5 -8 -27 -8
-34 0 -37 2 -23 13 9 6 25 35 36 62 40 103 52 125 64 125 7 0 24 -26 36 -57z
m1509 22 l4 -30 -27 29 c-21 22 -31 27 -53 22 -59 -14 -82 -88 -42 -139 24
-30 60 -40 94 -27 16 6 26 6 26 0 0 -19 -44 -32 -89 -27 -94 11 -136 114 -71
178 27 28 34 30 92 27 62 -3 63 -4 66 -33z m222 15 c0 -11 -4 -20 -10 -20 -5
0 -10 5 -10 10 0 6 -16 10 -35 10 -33 0 -35 -2 -35 -35 0 -30 3 -35 25 -35 13
0 29 8 34 18 8 13 10 9 10 -23 0 -22 -3 -34 -6 -27 -2 6 -18 12 -34 12 -28 0
-29 -2 -27 -35 2 -33 4 -35 40 -35 27 0 38 4 38 15 0 8 5 15 10 15 13 0 13
-37 -1 -45 -6 -4 -34 -7 -62 -7 -92 1 -92 1 -79 14 7 7 12 43 12 90 0 63 -3
79 -17 87 -13 8 4 10 65 11 75 0 82 -2 82 -20z m230 1 c5 -11 10 -25 10 -31 0
-19 -48 -60 -70 -60 -26 0 -26 16 1 23 30 8 23 61 -8 65 -22 3 -23 1 -23 -82
0 -72 3 -85 18 -89 9 -3 -8 -5 -38 -5 -30 0 -49 2 -42 5 8 3 12 32 12 93 0 61
-4 90 -12 93 -7 3 22 6 64 6 67 1 79 -2 88 -18z m250 -6 c0 -14 -4 -25 -10
-25 -5 0 -10 7 -10 15 0 9 -9 15 -25 15 -25 0 -25 -1 -25 -84 0 -58 4 -86 13
-89 6 -3 -10 -5 -38 -5 -27 0 -44 2 -37 5 8 3 12 31 12 89 0 83 0 84 -25 84
-16 0 -25 -6 -25 -15 0 -8 -4 -15 -10 -15 -5 0 -10 11 -10 25 0 25 0 25 95 25
95 0 95 0 95 -25z m330 -57 c19 -45 42 -90 52 -100 17 -17 16 -18 -34 -18 -34
0 -48 3 -39 9 8 5 11 16 6 30 -5 17 -14 21 -45 21 -30 0 -39 -4 -43 -22 -4
-13 -1 -26 6 -30 7 -5 -2 -8 -21 -8 -31 0 -32 1 -18 23 8 12 29 57 47 100 17
42 37 77 44 77 6 0 27 -37 45 -82z m208 71 c-15 -8 -18 -24 -18 -89 l0 -80 40
0 c29 0 40 4 40 15 0 8 4 15 9 15 4 0 6 -11 3 -25 -4 -24 -7 -25 -81 -24 -42
0 -70 3 -63 6 8 3 12 31 12 88 0 69 -3 86 -17 94 -14 8 -5 10 37 10 42 0 51
-2 38 -10z m300 -1 c18 -18 15 -46 -6 -59 -18 -11 -17 -13 5 -35 28 -28 28
-34 2 -68 -18 -23 -28 -26 -77 -26 l-57 0 3 87 c3 74 1 89 -14 100 -15 11 -7
13 57 13 45 0 80 -5 87 -12z m170 1 c-14 -8 -18 -24 -18 -77 0 -75 10 -92 51
-92 45 0 59 23 59 95 0 50 -4 66 -17 74 -14 8 -10 10 22 11 22 0 35 -4 29 -8
-6 -4 -13 -42 -16 -85 -6 -96 -19 -112 -87 -112 -71 0 -81 13 -81 106 0 64 -3
80 -17 88 -14 8 -5 10 37 10 42 0 51 -2 38 -10z m301 -61 l33 -73 33 73 c33
71 34 72 72 72 26 0 34 -3 24 -9 -21 -13 -22 -168 -1 -181 11 -7 0 -10 -35 -9
-27 0 -44 3 -37 6 8 3 12 27 11 71 l0 67 -37 -72 c-20 -40 -40 -73 -45 -73 -4
0 -22 32 -40 70 -17 39 -34 70 -37 70 -10 0 2 -125 14 -132 6 -4 -6 -8 -27 -8
-35 0 -37 1 -23 16 24 23 23 159 -1 173 -14 8 -10 10 23 11 l40 0 33 -72z
m-2549 -128 c0 -5 -4 -10 -10 -10 -5 0 -10 5 -10 10 0 6 5 10 10 10 6 0 10 -4
10 -10z m770 -368 c0 -4 -23 -30 -52 -57 -33 -32 -42 -38 -25 -17 15 19 27 40
27 47 0 8 8 19 18 24 21 13 32 14 32 3z m-1727 -143 c-11 -12 -29 -19 -39 -17
-16 3 -14 7 11 21 41 23 53 21 28 -4z m61 -41 c-2 -7 -27 -23 -54 -35 -47 -20
-50 -21 -50 -4 0 11 14 25 33 35 39 19 78 21 71 4z m-29 -88 c-33 -33 -64 -60
-70 -60 -36 0 -118 -35 -144 -61 -17 -17 -31 -25 -31 -19 0 27 60 70 120 87
51 14 69 25 103 64 23 27 51 48 62 49 15 0 5 -14 -40 -60z m1458 -2 c-3 -16
-11 -28 -19 -28 -14 0 -10 24 9 48 14 17 16 12 10 -20z m-126 -221 c-3 -19
-18 -64 -34 -100 -22 -53 -32 -67 -50 -67 -12 0 -32 -4 -45 -9 -42 -17 -63
-24 -81 -28 -41 -8 -117 -75 -117 -103 0 -9 -8 -24 -19 -34 -20 -18 -18 -58 5
-77 8 -6 14 -20 14 -30 0 -10 9 -20 19 -24 10 -3 22 -17 26 -32 4 -18 9 -23
17 -15 14 14 38 4 37 -17 0 -10 -2 -11 -6 -3 -11 28 -23 9 -23 -38 l0 -50
-137 -1 c-76 -1 -129 -3 -118 -6 11 -3 30 -14 43 -26 12 -11 22 -15 22 -9 0 7
-4 12 -10 12 -5 0 -10 5 -10 10 0 12 60 6 87 -8 22 -12 70 -62 59 -62 -5 0 -3
-7 4 -15 8 -9 9 -15 2 -15 -6 0 -14 4 -17 10 -3 5 -16 15 -28 21 -21 11 -21
11 -5 -8 17 -18 16 -19 -6 -18 -13 0 -30 6 -39 14 -10 7 -17 10 -17 5 0 -4
-14 5 -32 22 -19 18 -29 23 -25 12 4 -12 2 -15 -9 -11 -7 3 -14 8 -14 12 0 4
-7 16 -15 27 -13 17 -13 14 0 -26 13 -40 13 -43 0 -26 -8 11 -15 26 -15 34 0
30 -19 -2 -29 -49 -13 -60 -2 -143 29 -215 l20 -45 92 3 93 3 28 53 c16 29 31
51 34 48 3 -2 -12 -37 -33 -76 -41 -79 -82 -118 -166 -158 -62 -29 -66 -39
-40 -91 l17 -35 -56 -53 c-54 -52 -85 -71 -58 -35 10 12 8 12 -10 -3 -22 -19
-37 -20 -440 -20 -229 1 -513 5 -631 10 -193 8 -211 10 -175 21 22 7 81 13
130 14 50 1 117 5 150 9 57 6 54 7 -55 14 -63 3 -128 11 -145 15 -56 17 123
22 560 18 385 -3 575 -13 592 -30 3 -3 -2 -6 -12 -6 -25 0 -14 -9 23 -20 28
-7 36 -4 74 30 l43 39 -60 2 c-33 0 -85 4 -115 9 -48 6 -42 7 52 9 92 1 107 3
102 16 -6 14 -55 15 -403 13 -645 -4 -1226 7 -1386 25 -77 9 -158 18 -180 20
-22 2 43 3 145 1 115 -1 162 1 125 5 l-60 8 75 2 c47 2 68 5 55 10 -28 11 54
21 171 21 87 0 94 1 94 20 0 11 -6 20 -12 20 -7 1 5 7 27 15 22 8 74 15 116
15 42 0 79 3 83 8 4 4 35 14 69 23 34 9 61 21 60 27 -4 16 53 32 111 32 53 -1
164 -21 185 -34 7 -4 70 -12 142 -16 95 -7 134 -13 145 -25 18 -18 17 -18 48
-4 32 15 41 38 18 45 -9 3 -33 14 -52 24 -21 11 -55 18 -85 17 -30 0 -60 6
-75 15 -14 9 -42 20 -63 23 -28 6 -47 19 -73 51 -34 41 -36 47 -29 90 3 25 12
47 18 50 8 3 11 19 9 44 -3 32 -1 40 13 40 12 0 15 -6 10 -22 -6 -22 -5 -22 6
-3 16 27 29 35 57 35 27 0 28 20 3 77 -24 53 -47 65 -120 62 -45 -2 -68 -8
-99 -30 -57 -39 -134 -53 -197 -37 -31 8 -51 19 -53 29 -3 17 2 18 115 31 12
2 25 7 30 12 5 5 2 6 -6 1 -9 -5 -12 -4 -8 2 4 6 15 13 26 16 15 3 18 1 14
-12 -3 -9 11 7 31 36 19 28 40 54 46 58 19 12 133 24 278 30 137 5 142 4 142
-15 0 -21 64 -60 98 -60 10 0 43 -13 73 -30 35 -19 68 -30 96 -30 23 0 63 -9
89 -20 90 -39 120 -41 175 -12 l50 25 -23 24 c-13 13 -34 25 -47 28 -34 6 -35
11 -12 43 12 17 21 34 21 39 0 4 9 19 20 33 11 14 19 36 19 50 l0 25 -24 -30
c-23 -28 -25 -28 -25 -8 0 35 51 122 89 152 20 16 56 34 81 41 25 6 61 22 80
36 35 23 161 73 189 74 10 0 12 -9 8 -33z m-1697 -11 c0 -3 -13 -14 -30 -26
-35 -25 -40 -20 -8 10 20 18 38 26 38 16z m2150 -327 c0 -11 -48 -59 -59 -59
-6 0 -18 -11 -27 -25 -15 -23 -15 -26 5 -51 12 -15 21 -23 21 -18 0 5 9 -10
19 -32 25 -54 65 -69 170 -61 114 9 169 22 194 44 12 11 33 23 47 26 14 3 35
9 48 12 16 5 22 3 22 -8 0 -13 27 -22 92 -29 10 -1 20 -15 25 -33 4 -16 8 -33
9 -37 1 -5 2 -12 3 -17 0 -5 15 -14 31 -21 36 -15 38 -33 8 -48 -22 -10 -21
-11 9 -11 23 -1 33 -7 38 -21 5 -15 12 -19 26 -15 14 5 19 2 19 -12 0 -15 2
-16 10 -3 6 10 10 11 10 3 0 -7 5 -13 10 -13 6 0 10 7 10 15 0 8 5 15 10 15 6
0 10 -6 10 -12 0 -9 3 -9 9 1 12 19 165 9 189 -12 9 -8 26 -17 37 -20 69 -19
207 -74 208 -82 2 -11 -77 -35 -140 -42 -24 -3 -40 -9 -37 -14 3 -6 -10 -7
-33 -3 -29 4 -43 1 -60 -14 -13 -11 -23 -22 -23 -26 0 -11 36 -6 56 9 10 8 28
14 39 14 16 -1 15 -2 -5 -9 -17 -5 4 -8 63 -9 51 -1 86 -5 83 -10 -4 -5 -1
-11 5 -13 7 -2 -28 -4 -77 -3 -53 0 -94 -4 -101 -11 -6 -6 -36 -19 -65 -28
-29 -9 -78 -30 -109 -46 -48 -26 -68 -30 -165 -34 -98 -4 -243 -22 -252 -30
-2 -2 34 -7 80 -12 l83 -8 -90 -8 c-49 -4 -121 -15 -160 -25 -68 -17 -309 -24
-535 -15 -159 6 -178 4 -190 -18 -10 -18 -8 -20 27 -21 l38 -2 -35 -6 c-47 -9
-53 -1 -35 42 8 20 15 40 15 46 0 5 -25 21 -55 35 -73 36 -137 100 -175 176
-17 34 -29 64 -26 67 2 3 16 -18 31 -46 14 -29 33 -55 41 -58 8 -3 52 -2 97 3
l82 9 17 65 c17 69 24 185 9 162 -6 -10 -10 -7 -15 13 -10 38 -36 75 -53 75
-9 0 -13 -6 -10 -15 7 -17 -9 -30 -18 -15 -4 6 -18 16 -32 21 -14 5 -23 12
-20 16 4 3 19 -2 34 -12 l28 -18 -19 21 -19 22 39 0 c22 0 46 -6 53 -12 10
-11 11 -10 6 5 -6 15 -22 17 -136 17 -116 0 -129 2 -129 18 0 29 13 37 65 40
28 2 68 12 91 23 22 10 49 19 59 19 10 0 39 20 65 44 29 27 65 49 91 57 24 6
63 18 87 25 23 8 52 14 62 14 11 0 31 10 46 23 14 12 37 25 52 28 33 8 72 7
72 -2z m-689 -336 c35 -37 23 -37 -20 1 l-24 21 13 -25 c7 -14 24 -40 38 -57
13 -18 22 -33 19 -33 -9 0 -87 107 -87 120 0 21 27 9 61 -27z m92 5 c36 -49
42 -67 11 -33 -15 17 -28 28 -28 27 -2 -8 -56 22 -56 30 0 4 11 8 24 8 17 0
33 -11 49 -32z m-100 -185 c-7 -2 -21 -2 -30 0 -10 3 -4 5 12 5 17 0 24 -2 18
-5z m-2166 -85 c6 -13 7 -32 3 -43 -7 -18 -8 -19 -15 -2 -6 14 -20 17 -79 18
-68 1 -70 1 -41 14 25 12 26 14 10 16 -11 1 0 5 25 9 78 12 86 11 97 -12z
m413 -61 l35 -16 -65 4 c-36 2 -72 5 -80 6 -50 7 -71 -2 -81 -31 -6 -16 -18
-30 -27 -31 -10 0 -30 -2 -47 -5 -16 -2 -63 -2 -103 2 -64 5 -71 8 -55 19 10
7 42 18 72 24 29 6 65 18 80 26 59 34 200 35 271 2z m15 -56 l60 -19 -45 -3
c-46 -4 -118 20 -104 34 11 10 23 9 89 -12z m1595 -54 c0 -2 -10 -12 -22 -23
l-23 -19 19 23 c18 21 26 27 26 19z m-2015 -67 c44 -6 39 -7 -45 -9 -52 0
-102 4 -110 9 -18 12 80 12 155 0z m2410 -90 c3 -5 -1 -10 -9 -10 -22 0 -20
-9 7 -39 l22 -26 -27 24 c-16 14 -32 20 -39 15 -7 -4 -4 5 7 19 21 29 29 32
39 17z m1065 -7 c158 -7 162 -8 95 -16 -38 -5 -235 -10 -437 -11 -202 -1 -370
-4 -373 -8 -3 -3 106 -9 242 -12 511 -13 668 -18 672 -22 2 -2 -22 -4 -55 -5
-32 0 -79 -4 -104 -7 -48 -8 81 -20 455 -42 263 -16 265 -18 10 -15 l-230 4
240 -14 c422 -24 393 -30 -135 -29 -282 1 -515 6 -528 11 -16 6 27 8 130 7
l153 -2 -164 10 c-116 7 -159 13 -147 20 10 6 29 8 42 5 13 -2 24 0 24 4 0 12
7 11 -170 14 -115 2 -168 7 -204 19 -38 13 -67 16 -125 11 -42 -4 -112 -2
-156 4 -44 6 -109 11 -145 12 -60 2 -67 5 -105 41 l-40 39 445 -6 c245 -3 519
-9 610 -12z m-1532 -17 c-2 0 -19 -14 -38 -31 l-34 -30 29 36 c17 20 34 34 38
32 5 -3 7 -6 5 -7z m-2268 -36 c75 -10 -149 -11 -275 -1 -83 7 -79 8 65 8 85
1 180 -2 210 -7z m3070 -40 c33 -11 -103 -11 -145 0 -22 6 -9 8 45 8 41 0 86
-4 100 -8z m-2700 -10 c58 -4 10 -5 -125 -2 -121 2 -222 6 -224 8 -7 7 249 2
349 -6z m1647 4 c-3 -3 -12 -4 -19 -1 -8 3 -5 6 6 6 11 1 17 -2 13 -5z m2601
-41 c-10 -2 -28 -2 -40 0 -13 2 -5 4 17 4 22 1 32 -1 23 -4z m-2665 -42 c17
-6 103 -11 208 -11 105 0 179 -4 179 -9 0 -6 19 -12 43 -14 35 -3 38 -5 20
-11 -37 -13 -17 -24 58 -31 39 -4 83 -11 97 -15 24 -6 21 -8 -23 -14 -27 -4
-57 -8 -65 -10 -51 -9 178 -15 290 -8 74 5 162 8 195 6 33 -1 141 -5 240 -9
243 -9 297 -19 150 -28 -60 -4 -180 -12 -265 -18 -157 -11 -239 -6 -337 23
-35 10 -64 9 -170 -6 -104 -15 -161 -17 -308 -11 -235 9 -477 11 -590 6 -109
-6 -267 5 -395 25 -166 27 -167 30 -12 39 78 4 144 11 147 15 3 4 -125 9 -283
12 -171 2 -294 8 -305 14 -26 15 121 24 378 24 110 0 231 3 269 7 61 5 67 8
45 17 -51 23 375 29 434 7z m1375 -66 c-9 -10 -418 -27 -435 -19 -12 6 18 11
87 14 146 8 354 11 348 5z m790 -20 c3 -3 -109 -5 -249 -5 -150 0 -248 4 -240
9 14 9 480 5 489 -4z m-253 -55 l40 -8 -40 -1 c-22 -1 -63 -10 -92 -20 -47
-16 -62 -16 -165 -5 -62 7 -122 14 -133 15 -11 1 14 7 55 14 87 14 277 17 335
5z m127 -12 c-8 -8 -17 -8 -34 0 -22 10 -21 11 12 11 26 1 31 -2 22 -11z
m-807 -48 l20 -9 -20 -2 c-48 -5 124 -17 285 -19 l175 -3 -135 -8 c-193 -11
-441 -46 -420 -59 25 -16 -26 -33 -118 -41 -102 -9 -208 -26 -254 -40 -16 -4
-28 -4 -28 1 0 15 40 33 100 46 l55 12 -75 1 c-69 0 -144 -11 -245 -38 -55
-15 -397 -24 -470 -14 l-60 9 100 7 c55 4 134 14 175 22 42 8 85 15 96 15 11
0 31 11 43 24 14 15 39 26 67 31 25 3 61 13 80 21 28 12 42 12 74 3 39 -12 52
-32 28 -43 -7 -3 28 -4 77 -2 61 2 116 11 170 28 l80 26 -40 11 c-22 6 -50 11
-63 11 -13 0 -20 4 -17 10 8 12 291 12 320 0z m-1422 -17 c-13 -2 -33 -2 -45
0 -13 2 -3 4 22 4 25 0 35 -2 23 -4z m211 -44 c238 0 275 -11 81 -23 -206 -13
-443 -10 -460 4 -9 8 -49 17 -88 21 -47 5 -18 6 82 3 85 -2 258 -4 385 -5z
m121 -49 l-60 -6 45 -6 c25 -3 -164 -6 -420 -5 -256 0 -568 -3 -695 -6 -176
-4 -216 -3 -170 5 33 6 290 13 570 17 689 9 803 9 730 1z m-320 -49 c25 -10
-324 -18 -485 -11 l-115 5 125 5 c201 9 453 9 475 1z m781 -61 c-15 -5 -53
-11 -85 -14 l-56 -5 60 13 c33 7 71 14 85 14 24 0 24 0 -4 -8z m-66 -44 c80
-8 158 -19 174 -25 20 -8 99 -11 245 -10 209 3 268 -2 256 -22 -4 -5 6 -9 22
-9 27 -1 27 -1 9 -15 -11 -8 -17 -17 -14 -20 15 -15 158 -36 273 -41 150 -5
303 -23 311 -35 3 -5 -49 -9 -116 -9 -96 0 -125 -3 -137 -15 -21 -21 -15 -25
48 -31 73 -6 161 -25 177 -37 31 -24 5 -28 -156 -21 -133 5 -173 4 -193 -7
-18 -10 -71 -13 -220 -12 -108 1 -209 -2 -225 -7 -24 -7 -25 -8 -7 -9 12 -1
25 -5 28 -11 3 -5 40 -10 81 -10 43 0 74 -4 74 -10 0 -5 -1 -10 -2 -11 -16 -3
-372 -20 -503 -24 -110 -3 -163 -2 -150 4 15 7 7 10 -35 10 -37 1 -50 4 -41
10 9 6 -42 10 -134 10 -140 1 -234 10 -315 30 -33 8 -34 8 -10 14 14 3 106 9
205 12 174 7 342 21 280 24 -234 11 -729 51 -885 71 -41 5 -104 10 -140 11
l-65 1 60 10 c33 5 78 7 100 5 22 -3 63 1 90 8 49 12 49 12 23 23 -51 21 -36
41 33 42 14 0 31 6 37 12 12 12 79 17 216 18 22 0 37 2 34 5 -3 3 -90 10 -194
15 -104 5 -202 14 -219 19 l-30 9 28 1 c16 1 26 5 22 11 -6 10 42 11 497 14
113 0 210 4 214 9 10 10 87 8 254 -7z m-1707 -36 c5 -4 -74 -10 -175 -14 -101
-3 -213 -9 -250 -12 -43 -4 -68 -3 -68 4 0 10 74 20 210 28 47 3 90 6 95 8 16
7 179 -6 188 -14z m361 -185 c3 -8 20 -21 38 -29 53 -23 -1 -20 -69 4 -32 11
-73 20 -93 20 -24 0 -31 3 -21 9 25 16 138 12 145 -4z m2983 -52 c15 -6 13 -9
-12 -14 l-30 -7 28 -1 c15 0 27 -6 27 -12 0 -11 -59 -9 -250 8 l-75 7 60 7
c33 4 88 5 121 2 40 -4 64 -2 68 6 8 13 36 14 63 4z m-559 -209 c15 -4 22 -14
22 -30 0 -29 -16 -32 -23 -4 -3 13 -13 20 -29 20 -63 -1 -65 -50 -2 -65 76
-19 93 -52 51 -101 -19 -22 -32 -27 -69 -27 -24 0 -50 3 -56 7 -15 9 -16 56
-2 56 6 0 10 -7 10 -15 0 -35 81 -44 93 -10 8 20 -19 45 -49 45 -52 0 -84 70
-46 102 30 26 59 33 100 22z m603 -12 c3 -4 3 -18 -2 -32 -4 -14 -7 -20 -8
-13 -2 23 -33 43 -67 43 -79 0 -113 -93 -55 -151 30 -29 46 -34 75 -23 22 8
21 51 -1 57 -10 3 2 5 27 6 l46 1 -4 -34 c-3 -29 -9 -36 -35 -42 -118 -26
-200 28 -183 119 11 61 65 90 151 81 28 -3 53 -8 56 -12z m-3491 -19 c-1 -24
-2 -25 -11 -10 -5 9 -21 17 -34 17 -25 0 -25 -2 -25 -84 0 -58 4 -86 13 -89 6
-3 -13 -5 -43 -5 -30 0 -47 2 -37 5 14 4 17 17 17 89 l0 84 -30 0 c-22 0 -30
-5 -31 -17 0 -15 -2 -15 -9 2 -5 11 -9 23 -9 28 -1 4 44 7 99 7 l100 0 0 -27z
m142 15 c-7 -7 -12 -27 -12 -46 l0 -33 48 3 c44 3 47 5 50 33 3 19 -2 33 -14
42 -15 11 -10 13 37 13 41 -1 50 -3 37 -11 -15 -8 -18 -24 -18 -89 0 -65 3
-81 18 -89 13 -8 4 -10 -37 -11 -47 0 -52 2 -37 13 12 9 17 23 14 47 -3 34 -4
35 -50 38 l-48 3 0 -45 c0 -26 5 -46 13 -49 6 -3 -13 -5 -43 -5 -30 0 -47 2
-37 5 14 4 17 17 17 88 0 69 -3 86 -17 94 -14 8 -5 10 37 11 42 0 51 -3 42
-12z m378 -8 c0 -11 -4 -20 -10 -20 -5 0 -10 5 -10 10 0 6 -16 10 -35 10 -33
0 -35 -2 -35 -35 0 -32 3 -35 29 -35 16 0 32 6 34 13 3 6 5 -4 5 -23 0 -19 -2
-29 -5 -22 -2 6 -18 12 -34 12 -26 0 -29 -3 -29 -35 0 -34 1 -35 40 -35 29 0
40 4 40 15 0 8 5 15 11 15 6 0 8 -7 5 -16 -3 -9 -6 -20 -6 -25 0 -5 -33 -9
-72 -9 l-73 0 3 86 c2 56 -1 90 -8 100 -11 12 -1 14 69 14 74 0 81 -2 81 -20z
m380 -7 c-1 -25 -2 -26 -14 -10 -7 9 -23 17 -35 17 -20 0 -21 -5 -21 -84 0
-58 4 -86 13 -89 6 -3 -13 -5 -43 -5 -30 0 -47 2 -37 5 14 4 17 17 17 89 l0
84 -30 0 c-21 0 -30 -5 -30 -16 0 -8 -4 -12 -10 -9 -5 3 -10 15 -10 26 0 18 8
19 100 19 l100 0 0 -27z m148 16 c-12 -6 -18 -22 -18 -44 l0 -35 50 0 50 0 0
35 c0 22 -6 38 -17 44 -14 8 -5 10 37 11 42 0 51 -3 42 -12 -17 -17 -16 -175
1 -181 6 -3 -13 -5 -43 -5 -30 0 -47 2 -37 5 13 3 17 15 17 49 l0 44 -50 0
-50 0 0 -44 c0 -34 4 -46 18 -49 9 -3 -8 -5 -38 -5 -30 0 -49 2 -42 5 16 6 17
164 0 181 -9 9 0 12 43 12 41 -1 50 -3 37 -11z m294 -1 c-16 -16 -16 -140 0
-156 16 -16 70 -16 86 0 7 7 12 40 12 80 0 53 -4 69 -17 77 -15 8 -10 10 22
11 30 0 36 -3 27 -12 -7 -7 -12 -40 -12 -79 0 -90 -18 -114 -88 -114 -76 0
-92 20 -92 111 0 59 -3 75 -17 83 -14 8 -5 10 37 11 42 0 51 -3 42 -12z m330
-60 l67 -73 1 62 c0 49 -4 64 -17 72 -15 8 -10 10 22 11 30 0 36 -3 27 -12 -8
-8 -12 -45 -12 -99 0 -53 -4 -91 -11 -95 -6 -3 -43 28 -85 72 l-74 79 0 -67
c0 -55 3 -67 18 -71 9 -3 -3 -5 -28 -6 -35 0 -41 2 -27 10 14 8 17 24 17 89 0
65 -3 81 -17 89 -15 9 -12 10 17 11 31 0 43 -8 102 -72z m375 57 c30 -21 38
-73 20 -117 -20 -47 -67 -68 -152 -68 -59 0 -66 2 -55 15 18 21 10 163 -10
175 -10 7 17 10 80 10 70 0 101 -4 117 -15z m253 -6 c0 -16 -3 -19 -12 -11 -7
5 -26 12 -43 14 -28 3 -30 1 -30 -32 0 -26 5 -36 19 -38 11 -2 25 3 32 13 14
19 20 12 22 -27 1 -16 -3 -28 -8 -28 -6 0 -10 7 -10 15 0 10 -10 15 -30 15
-28 0 -30 -2 -30 -40 l0 -40 40 0 c29 0 40 4 40 15 0 8 5 15 10 15 6 0 10 -11
10 -25 0 -25 -1 -25 -79 -25 l-80 0 10 32 c5 18 9 59 9 90 0 44 -4 59 -17 67
-13 8 4 10 65 11 77 0 82 -1 82 -21z m248 4 c12 -22 -1 -58 -23 -70 -14 -8
-11 -17 25 -61 l40 -52 -29 0 c-24 0 -36 10 -66 51 -20 28 -35 52 -33 52 48
24 61 53 32 74 -38 28 -44 17 -44 -72 0 -50 4 -85 10 -85 6 0 10 -4 10 -10 0
-5 -24 -10 -52 -10 -46 1 -51 2 -35 14 14 11 17 29 17 94 0 55 -4 82 -12 85
-7 3 24 6 69 6 69 1 84 -2 91 -16z m607 -71 c22 -48 46 -92 55 -99 12 -10 5
-12 -40 -13 -34 0 -50 4 -41 9 8 5 11 16 6 30 -6 19 -13 22 -48 19 -32 -2 -43
-8 -45 -22 -2 -10 2 -22 10 -27 8 -6 -1 -9 -26 -9 -36 0 -38 1 -24 18 8 9 30
54 49 99 21 51 40 83 49 83 9 0 30 -34 55 -88z m580 6 c20 -46 44 -91 53 -100
14 -17 12 -18 -39 -18 -42 1 -50 3 -36 11 13 8 15 14 7 30 -16 28 -86 27 -95
-2 -5 -14 -2 -25 6 -30 9 -6 1 -9 -25 -9 -37 0 -38 1 -23 18 14 16 53 95 78
160 15 40 36 24 74 -60z m-4105 -32 c0 -24 -17 -36 -51 -36 -37 0 -51 15 -32
33 7 8 83 10 83 3z m4428 -8 c-5 -15 -88 -24 -88 -10 0 16 13 22 53 22 26 0
37 -4 35 -12z"/>
<path d="M5785 9320 c-3 -5 -1 -10 4 -10 6 0 11 5 11 10 0 6 -2 10 -4 10 -3 0
-8 -4 -11 -10z"/>
<path d="M5715 8819 c-4 -6 -5 -12 -2 -15 2 -3 7 2 10 11 7 17 1 20 -8 4z"/>
<path d="M4060 7985 c-7 -9 -8 -15 -2 -15 5 0 12 7 16 15 3 8 4 15 2 15 -2 0
-9 -7 -16 -15z"/>
<path d="M6201 7221 c-7 -5 -9 -11 -5 -14 5 -3 15 1 22 9 14 16 5 18 -17 5z"/>
<path d="M5844 7153 c-4 -12 -16 -24 -28 -26 -17 -4 -16 -5 6 -6 19 -1 29 5
33 20 4 11 4 23 1 27 -4 3 -9 -4 -12 -15z"/>
<path d="M4996 7053 c-20 -20 -39 -48 -43 -61 -3 -13 -17 -28 -30 -33 -31 -12
-46 -12 -38 0 19 31 -63 11 -103 -25 -20 -18 -22 -27 -17 -58 4 -20 15 -44 24
-53 9 -9 17 -20 17 -25 1 -4 2 -12 3 -18 2 -21 20 -8 39 30 10 22 23 36 27 32
5 -4 5 -2 1 5 -3 6 8 26 25 45 33 36 89 115 89 126 0 4 12 20 26 35 39 43 23
42 -20 0z"/>
<path d="M4608 7019 c-7 -4 -4 -9 8 -12 26 -7 194 -4 194 3 0 8 1 8 -108 12
-45 2 -87 1 -94 -3z"/>
<path d="M4957 6903 c-4 -3 -7 -11 -7 -17 0 -6 5 -5 12 2 6 6 9 14 7 17 -3 3
-9 2 -12 -2z"/>
<path d="M7190 6891 c0 -5 -8 -7 -17 -5 -17 4 -61 -42 -50 -52 10 -10 78 8 74
20 -2 6 0 19 5 29 5 11 5 17 -2 17 -5 0 -10 -4 -10 -9z"/>
<path d="M6486 6760 c7 -28 12 -35 18 -29 2 2 -2 15 -10 29 l-15 25 7 -25z"/>
<path d="M6921 6691 c-23 -33 -18 -45 13 -29 31 17 47 41 33 50 -19 12 -24 10
-46 -21z"/>
<path d="M6871 6442 c38 -29 95 -66 87 -57 -4 4 4 16 17 27 32 25 34 52 3 42
-36 -11 -97 -13 -103 -3 -4 5 -11 9 -17 9 -6 0 0 -8 13 -18z"/>
<path d="M6757 6411 c-21 -11 -55 -39 -77 -63 -24 -27 -54 -49 -79 -58 -23 -7
-41 -17 -41 -22 0 -4 -7 -8 -16 -8 -8 0 -12 -5 -9 -10 3 -6 -1 -13 -9 -16 -9
-3 -26 -29 -40 -57 -13 -29 -38 -67 -55 -86 -17 -19 -31 -38 -31 -43 0 -4 -7
-8 -16 -8 -11 0 -15 -8 -12 -27 2 -18 -2 -27 -10 -25 -13 2 -14 -3 -17 -56
l-1 -32 81 5 80 5 -67 -18 c-37 -10 -70 -21 -73 -24 -12 -12 9 -40 39 -52 27
-11 40 -9 100 11 39 13 126 36 195 51 114 24 146 26 339 26 116 0 212 1 212 3
0 1 -13 9 -29 17 -16 9 -31 26 -34 38 -6 22 -5 22 8 4 31 -41 23 -5 -14 70
-22 43 -51 117 -64 164 -22 75 -28 85 -49 88 l-25 3 13 -52 c7 -28 18 -56 23
-63 5 -6 19 -36 31 -66 12 -30 33 -71 48 -90 24 -32 24 -34 2 -15 -12 11 -35
46 -50 77 -15 32 -39 73 -54 92 -14 19 -26 44 -26 55 0 11 -5 23 -12 27 -6 4
-9 3 -6 -2 3 -5 -5 -17 -18 -27 -19 -14 -23 -15 -18 -2 3 8 2 15 -4 15 -5 0
-9 8 -8 17 0 12 -7 19 -21 21 -13 2 -23 -1 -23 -7 0 -6 -11 -11 -25 -11 -22 0
-25 4 -25 33 0 31 24 67 44 67 4 0 22 -9 39 -21 26 -17 24 -14 -8 15 -39 35
-101 74 -90 56 3 -5 -7 -3 -22 5 -35 19 -32 19 -76 -4z m191 -241 c-7 -10 -14
-17 -17 -15 -4 4 18 35 25 35 2 0 -1 -9 -8 -20z m-94 -137 c-64 -92 -74 -100
-34 -28 35 65 58 95 72 95 6 0 -12 -30 -38 -67z"/>
<path d="M5800 6370 c0 -5 -3 -9 -7 -9 -31 5 -51 -4 -56 -23 -3 -13 -8 -33
-12 -45 -5 -16 -2 -23 14 -28 14 -4 21 -15 21 -33 0 -37 14 -57 31 -46 9 6 14
28 14 64 0 30 3 72 7 93 4 21 3 37 -3 37 -5 0 -9 -4 -9 -10z"/>
<path d="M5250 6050 c0 -5 -11 -10 -25 -10 -14 0 -33 -8 -44 -19 -26 -26 -128
-74 -145 -68 -8 3 -17 -1 -20 -9 -3 -8 -26 -24 -50 -35 -25 -11 -48 -25 -52
-31 -4 -6 -3 -8 4 -4 5 3 12 2 14 -3 1 -5 32 -23 67 -41 82 -41 158 -117 173
-175 11 -39 13 -42 26 -27 7 9 11 12 7 5 -3 -7 -14 -52 -25 -102 -32 -151 -90
-237 -208 -306 -29 -16 -52 -36 -52 -42 0 -7 -4 -13 -8 -13 -5 0 -14 -10 -20
-22 -8 -18 -11 -19 -11 -5 -1 9 -7 17 -13 18 -7 0 -4 4 7 9 32 14 -4 11 -55
-4 -24 -7 -38 -15 -30 -18 9 -3 -2 -12 -28 -23 -23 -10 -42 -24 -42 -31 0 -7
-5 -14 -12 -16 -22 -8 1 -56 39 -79 21 -13 43 -24 48 -24 6 0 15 -16 20 -35 9
-30 15 -35 45 -36 40 -2 60 10 60 37 0 11 4 19 8 19 9 0 81 92 99 128 7 13 13
32 13 42 0 10 10 31 23 47 24 31 34 47 82 138 65 121 79 145 87 145 4 0 8 7 8
15 0 14 18 53 30 65 3 3 13 22 22 43 10 20 22 37 27 37 5 0 23 12 40 26 19 15
38 23 48 20 14 -4 29 9 61 57 23 34 42 73 42 87 -1 24 -29 86 -30 64 0 -6 -14
-31 -30 -56 -34 -52 -76 -73 -115 -58 -33 13 -49 44 -30 60 8 7 15 18 15 24
-1 16 -90 -86 -90 -104 0 -13 -1 -13 -10 0 -11 18 -2 94 18 140 9 19 17 44 19
55 2 11 8 24 13 29 6 6 10 29 10 53 0 32 -4 43 -15 43 -8 0 -15 -4 -15 -10z
m-9 -53 c-13 -13 -26 -3 -16 12 3 6 11 8 17 5 6 -4 6 -10 -1 -17z"/>
<path d="M4788 6042 c-9 -4 -30 -32 -47 -63 l-30 -56 82 -19 c45 -10 86 -19
91 -19 12 0 40 51 50 88 5 20 3 27 -6 25 -7 -1 -29 7 -48 18 -44 27 -70 34
-92 26z"/>
<path d="M4954 5934 c-18 -14 -18 -15 4 -4 12 6 22 13 22 15 0 8 -5 6 -26 -11z"/>
<path d="M6175 5908 c-11 -11 -33 -27 -50 -35 -16 -9 -48 -31 -71 -49 -41 -34
-61 -43 -49 -24 19 30 -80 -26 -152 -87 l-53 -45 0 -191 0 -192 48 51 c60 64
112 130 112 143 0 5 10 11 23 13 14 2 21 9 21 20 -1 10 2 16 6 13 5 -3 43 22
85 55 42 34 81 58 87 54 7 -4 8 -3 4 5 -4 6 -3 18 4 26 6 7 13 31 16 51 3 21
10 42 17 46 9 6 9 8 -2 8 -11 0 -11 3 0 17 20 25 -43 -20 -131 -93 -41 -35
-100 -92 -130 -128 -30 -36 -58 -65 -62 -65 -5 -1 -8 30 -8 67 l0 68 52 45
c28 24 81 72 117 106 36 35 69 63 74 63 13 0 69 59 65 68 -1 5 -12 0 -23 -10z"/>
<path d="M4230 5670 c0 -137 2 -250 5 -250 3 0 21 6 40 14 28 12 36 23 49 67
9 29 16 61 16 70 0 10 5 21 10 24 16 10 12 -90 -6 -135 -10 -25 -23 -40 -33
-40 -19 0 -61 -35 -61 -51 0 -6 -4 -7 -10 -4 -6 4 -10 -12 -10 -40 0 -36 5
-51 22 -64 11 -10 22 -29 24 -42 1 -13 3 -27 3 -31 1 -4 17 -7 36 -6 19 1 32
5 29 9 -7 12 33 49 69 64 49 20 92 72 131 157 20 42 36 83 36 89 0 7 3 10 6 7
3 -4 1 -23 -5 -44 -12 -43 -13 -44 69 59 63 81 82 94 54 39 -8 -18 -13 -36 -9
-41 3 -6 -1 -27 -10 -47 -23 -56 -18 -73 10 -32 14 20 25 43 25 51 0 17 32 47
50 47 10 0 11 13 7 55 -4 45 -14 66 -49 112 -24 31 -47 56 -53 55 -5 -1 -8
-21 -7 -45 1 -37 0 -39 -8 -18 -6 14 -9 42 -7 63 3 23 0 37 -6 35 -9 -3 -40
-53 -50 -82 -3 -5 -7 -8 -10 -5 -3 3 1 22 8 42 7 21 10 39 8 42 -3 3 -33 -17
-67 -43 -33 -26 -77 -56 -96 -67 -19 -10 -47 -30 -62 -43 -15 -14 -30 -22 -34
-19 -15 15 12 52 62 84 74 47 125 94 117 107 -3 5 -1 7 4 4 14 -9 29 11 35 45
4 22 1 28 -21 33 -23 6 -233 24 -288 25 l-23 0 0 -250z m191 150 c30 -16 24
-56 -13 -90 -18 -16 -38 -30 -44 -30 -14 0 -10 79 5 108 13 25 23 27 52 12z
m173 -145 c-4 -8 -10 -15 -15 -15 -4 0 -6 7 -3 15 4 8 10 15 15 15 4 0 6 -7 3
-15z m52 -73 c-9 -17 -21 -34 -27 -37 -6 -4 -1 12 11 35 12 23 24 40 26 37 3
-3 -2 -19 -10 -35z"/>
<path d="M5866 5900 c-42 -13 -66 -39 -66 -72 0 -17 4 -27 10 -23 6 4 8 11 4
16 -3 5 -2 9 3 8 21 -4 32 4 62 41 34 42 33 43 -13 30z"/>
<path d="M6805 5873 c-126 -27 -245 -101 -147 -91 22 2 40 -1 39 -6 -6 -29
234 -30 332 0 25 7 59 14 74 14 16 0 34 6 40 13 18 19 39 58 34 63 -2 2 -27 8
-57 14 -75 14 -233 11 -315 -7z"/>
<path d="M4726 5821 c-9 -13 11 -24 27 -15 8 6 8 3 -1 -9 -12 -14 -12 -19 2
-32 9 -9 21 -13 27 -9 8 4 9 3 5 -4 -4 -6 6 -26 23 -44 16 -18 43 -49 60 -68
23 -26 30 -30 31 -17 0 9 -5 17 -11 17 -5 0 -7 4 -4 10 13 21 -58 125 -78 113
-6 -3 -7 -1 -3 5 3 6 -6 19 -21 30 -44 30 -51 33 -57 23z"/>
<path d="M7382 5733 c-7 -21 -15 -45 -18 -53 -4 -11 16 -25 68 -50 84 -40 118
-52 118 -40 0 29 -127 180 -152 180 -2 0 -9 -17 -16 -37z"/>
<path d="M6983 5714 c3 -4 53 -9 157 -18 l65 -6 -50 14 c-42 12 -182 20 -172
10z"/>
<path d="M4896 5532 c-4 -13 -5 -26 -2 -29 10 -11 18 4 14 29 l-4 23 -8 -23z"/>
<path d="M4601 5408 c-14 -23 -14 -23 8 -4 22 20 25 26 13 26 -4 0 -13 -10
-21 -22z"/>
<path d="M4570 5370 c-20 -12 -5 -24 16 -12 9 5 12 12 7 15 -5 3 -15 2 -23 -3z"/>
<path d="M5480 5301 c-5 -11 -16 -25 -23 -33 -59 -61 -71 -100 -35 -119 18
-10 20 -9 15 5 -5 11 2 25 21 41 36 32 40 31 45 -7 2 -18 5 4 5 50 2 81 -7
101 -28 63z"/>
<path d="M4459 5239 l-64 -60 70 5 c39 3 90 13 115 21 25 8 35 13 22 11 -17
-3 -22 -1 -18 10 3 8 0 14 -7 14 -7 0 1 12 16 25 24 22 26 26 11 32 -9 3 -25
1 -36 -6 -14 -9 -23 -9 -32 -1 -10 8 -29 -4 -77 -51z"/>
<path d="M4785 4920 c3 -5 10 -10 16 -10 5 0 9 5 9 10 0 6 -7 10 -16 10 -8 0
-12 -4 -9 -10z"/>
<path d="M4533 4563 c16 -16 18 -16 34 0 16 16 15 17 -17 17 -32 0 -33 -1 -17
-17z"/>
<path d="M6759 8262 c-108 -110 -162 -177 -157 -193 3 -9 71 65 227 243 67 77
22 46 -70 -50z"/>
<path d="M6831 8277 c-8 -10 -7 -14 2 -14 8 0 14 6 14 14 0 7 -1 13 -2 13 -2
0 -8 -6 -14 -13z"/>
<path d="M3959 6788 c-23 -26 -39 -59 -32 -70 2 -5 14 -8 26 -8 15 0 29 13 45
40 12 21 22 44 22 49 0 19 -39 12 -61 -11z"/>
<path d="M4530 4280 c0 -5 5 -10 10 -10 6 0 10 5 10 10 0 6 -4 10 -10 10 -5 0
-10 -4 -10 -10z"/>
<path d="M4395 4270 c-3 -6 1 -7 9 -4 18 7 21 14 7 14 -6 0 -13 -4 -16 -10z"/>
<path d="M4670 4231 c-5 -11 -9 -32 -9 -48 2 -26 2 -25 9 7 4 19 8 27 9 18 0
-10 4 -19 9 -19 44 -8 54 -5 63 19 11 30 -1 42 -43 42 -17 0 -31 -7 -38 -19z"/>
<path d="M4506 4203 c-4 -24 -13 -43 -19 -43 -7 0 -4 -5 6 -11 23 -13 77 -2
77 16 0 8 -6 20 -13 27 -8 7 -12 19 -11 26 1 7 0 8 -3 2 -7 -16 -21 -12 -25 8
-3 9 -8 -2 -12 -25z"/>
<path d="M4940 4153 c0 -68 15 -83 43 -43 8 11 17 17 20 13 4 -3 7 -2 7 3 0 5
-16 27 -35 49 l-34 40 -1 -62z"/>
<path d="M4591 4164 c0 -11 3 -14 6 -6 3 7 2 16 -1 19 -3 4 -6 -2 -5 -13z"/>
<path d="M4758 4140 c-4 -45 8 -40 18 8 4 19 2 32 -4 32 -5 0 -12 -18 -14 -40z"/>
<path d="M4795 3757 c-6 -14 0 -25 21 -43 33 -26 60 -33 29 -6 -11 9 -25 28
-32 42 -10 23 -12 23 -18 7z"/>
<path d="M2500 4231 c-21 -40 -8 -122 24 -143 20 -14 53 -8 71 12 21 24 25 93
6 128 -16 30 -85 32 -101 3z"/>
<path d="M3803 4180 c-11 -28 -10 -30 13 -30 26 0 31 17 11 43 -11 16 -13 15
-24 -13z"/>
<path d="M6333 4180 c-11 -29 -10 -30 17 -30 27 0 28 1 17 30 -6 17 -14 30
-17 30 -3 0 -11 -13 -17 -30z"/>
<path d="M6830 4219 c0 -26 3 -30 23 -27 16 2 23 11 25 31 3 23 0 27 -22 27
-22 0 -26 -4 -26 -31z"/>
<path d="M6830 4131 c0 -43 9 -55 34 -45 39 15 26 84 -15 84 -15 0 -19 -8 -19
-39z"/>
<path d="M4855 2535 c17 -14 39 -31 50 -36 11 -6 7 1 -10 15 -16 15 -39 31
-50 37 -11 5 -6 -2 10 -16z"/>
<path d="M4840 2495 c13 -14 26 -25 28 -25 3 0 -5 11 -18 25 -13 14 -26 25
-28 25 -3 0 5 -11 18 -25z"/>
<path d="M5291 2494 c0 -11 3 -14 6 -6 3 7 2 16 -1 19 -3 4 -6 -2 -5 -13z"/>
<path d="M5310 1920 c0 -20 43 -30 134 -30 52 0 98 4 101 10 3 6 32 10 63 11
31 1 68 5 82 9 14 5 -60 8 -177 9 -125 1 -203 -3 -203 -9z"/>
<path d="M3503 1703 c15 -2 39 -2 55 0 15 2 2 4 -28 4 -30 0 -43 -2 -27 -4z"/>
<path d="M5138 1463 c7 -3 16 -2 19 1 4 3 -2 6 -13 5 -11 0 -14 -3 -6 -6z"/>
<path d="M5117 784 c-4 -4 -7 -43 -7 -86 l0 -78 39 0 c31 0 44 6 60 26 26 33
27 85 4 112 -19 22 -83 39 -96 26z"/>
<path d="M6272 718 c-14 -37 -12 -41 21 -36 25 3 25 3 8 36 l-17 32 -12 -32z"/>
<path d="M6851 710 c-10 -29 -9 -30 20 -30 33 0 33 0 17 35 -15 33 -24 32 -37
-5z"/>
</g>
</svg>
