<?xml version="1.0" standalone="no"?>
<!DOCTYPE svg PUBLIC "-//W3C//DTD SVG 20010904//EN"
 "http://www.w3.org/TR/2001/REC-SVG-20010904/DTD/svg10.dtd">
<svg version="1.0" xmlns="http://www.w3.org/2000/svg"
 width="1000.000000pt" height="1000.000000pt" viewBox="0 0 1000.000000 1000.000000"
 preserveAspectRatio="xMidYMid meet">

<g transform="translate(0.000000,1000.000000) scale(0.100000,-0.100000)"
fill="#000000" stroke="none">
<path d="M0 5000 l0 -5000 5000 0 5000 0 0 1114 c0 882 -3 1115 -12 1119 -10
4 -10 6 0 6 7 1 12 16 12 42 l0 41 -82 -7 c-47 -4 -107 -2 -138 3 -72 14 -180
4 -180 -15 0 -12 -3 -12 -20 0 -17 12 -30 12 -88 0 -37 -7 -89 -20 -117 -27
-49 -14 -50 -15 -14 -15 34 -1 69 -24 56 -37 -3 -3 -33 -6 -68 -7 -53 -2 -64
1 -67 16 -2 12 3 17 20 19 13 1 -42 4 -122 8 -104 5 -166 14 -220 30 -58 17
-115 24 -255 30 -99 5 -189 12 -199 16 -13 5 -17 4 -12 -4 4 -7 -2 -14 -16
-17 -52 -12 -266 -32 -295 -28 -18 3 -79 -7 -136 -21 -58 -14 -117 -26 -131
-26 -51 0 -16 -18 47 -25 52 -6 195 3 287 18 14 2 17 2 8 0 -10 -2 -18 -8 -18
-13 0 -17 -83 -32 -151 -26 -37 2 -96 0 -131 -6 -35 -5 -81 -11 -103 -13 -22
-1 -49 -6 -60 -9 -15 -5 -29 0 -48 18 -16 14 -39 26 -53 26 -19 0 -28 8 -39
33 -7 18 -23 41 -34 51 l-22 20 13 -30 c8 -16 21 -44 31 -62 10 -17 13 -32 8
-32 -5 0 -11 -7 -13 -15 -2 -13 -13 -9 -48 17 -24 18 -63 50 -85 70 -46 44
-60 47 -51 14 4 -16 -2 -34 -22 -58 l-27 -36 -78 40 c-43 21 -91 40 -106 41
-26 2 -28 4 -20 26 5 13 19 37 30 53 12 16 19 31 17 34 -3 2 -19 -18 -36 -45
l-31 -50 -62 25 c-35 13 -66 27 -69 32 -4 4 -21 26 -39 50 -18 23 -38 42 -44
42 -7 0 -30 -21 -52 -46 -22 -26 -54 -57 -71 -70 -29 -23 -33 -23 -65 -10 -28
12 -37 12 -64 -1 -31 -15 -34 -14 -128 35 -100 52 -147 69 -147 53 0 -9 31
-36 66 -57 36 -21 -3 -22 -48 -1 -62 29 -135 99 -153 145 -21 54 -39 125 -36
141 1 7 -4 79 -13 160 -17 162 -24 433 -13 526 12 109 20 229 18 277 -1 33 3
49 14 55 12 7 13 14 3 41 -8 19 -18 30 -25 27 -24 -8 -144 -27 -149 -23 -2 3
40 17 93 32 158 44 159 46 135 137 -11 41 -7 51 26 68 l22 12 -36 35 -37 34
29 31 c35 36 22 51 -34 38 -20 -4 -38 -6 -40 -5 -1 2 6 19 17 37 12 22 19 53
19 89 0 81 31 387 43 416 5 14 7 29 4 34 -3 4 -2 23 2 41 22 111 17 -193 -6
-346 -10 -66 -6 -82 15 -64 12 9 20 -2 50 -67 20 -44 40 -89 45 -101 5 -13 13
-23 19 -23 5 0 10 -4 10 -10 0 -5 -18 -10 -40 -10 -40 0 -47 -7 -41 -50 1 -8
4 -57 6 -107 3 -76 8 -97 25 -115 l20 -22 0 22 c0 48 18 18 24 -40 3 -34 10
-66 14 -70 5 -5 5 24 0 64 -9 86 -8 232 2 248 8 13 20 -47 50 -250 12 -80 23
-160 26 -178 3 -21 9 -30 16 -26 8 5 9 1 5 -10 -6 -14 -3 -17 9 -12 8 3 18 6
20 6 3 0 2 5 -1 10 -3 5 3 10 14 10 13 0 21 7 21 17 0 9 3 14 6 10 6 -6 12
-50 13 -101 1 -42 14 -23 26 37 8 42 14 52 30 52 13 0 21 -8 23 -22 2 -13 8
-23 13 -23 5 0 9 -8 9 -19 0 -35 41 -98 79 -119 26 -15 39 -9 24 10 -6 7 -13
27 -17 43 -17 80 139 -214 239 -448 35 -82 94 -199 95 -186 0 18 -43 126 -84
207 -25 50 -59 125 -75 165 -36 88 -96 222 -117 260 -8 15 -12 32 -8 39 4 6 3
8 -4 4 -11 -7 -28 29 -24 52 2 6 -2 12 -7 12 -6 0 -8 7 -4 16 4 11 8 12 13 4
4 -6 13 -10 21 -9 19 4 59 -23 59 -39 0 -21 34 -59 48 -54 8 2 10 8 3 15 -5 7
-14 31 -20 55 -8 27 -16 40 -23 36 -7 -4 -8 -3 -4 5 4 6 -6 39 -22 74 -49 101
-143 330 -139 340 3 9 17 -20 110 -223 19 -41 58 -123 86 -182 28 -59 51 -110
51 -112 0 -3 10 -21 21 -41 37 -62 44 -25 9 45 -17 34 -29 64 -26 68 3 3 -2
11 -12 18 -15 12 -15 13 8 14 22 0 30 -9 53 -61 15 -33 27 -71 27 -84 0 -25
26 -42 34 -22 3 9 8 8 15 -3 9 -13 15 -10 37 17 18 23 34 33 53 33 47 0 88
-20 100 -48 7 -15 38 -49 71 -77 33 -27 60 -56 60 -62 0 -7 5 -13 12 -13 15 0
82 23 88 31 3 3 17 9 33 13 17 4 27 13 26 24 0 10 -3 12 -6 5 -7 -18 -31 7
-26 27 2 8 -11 31 -28 50 -37 41 -142 210 -136 217 3 2 43 -46 90 -109 90
-119 137 -176 252 -306 39 -43 87 -99 108 -123 35 -40 34 -38 -10 26 -26 39
-74 103 -106 143 -58 71 -73 107 -56 134 7 10 9 10 9 1 0 -7 5 -13 11 -13 5 0
8 4 5 8 -2 4 16 14 42 22 26 7 49 17 52 21 3 4 39 9 80 10 71 3 100 14 100 38
0 16 45 13 87 -4 19 -8 50 -15 68 -15 19 0 54 -9 79 -20 25 -10 46 -15 46 -9
0 5 12 15 26 21 20 9 25 18 24 42 -3 50 -1 56 19 56 11 0 22 -10 26 -22 6 -19
8 -20 12 -6 4 16 69 48 98 48 8 0 15 6 15 14 0 10 16 17 48 22 26 4 50 11 53
16 3 5 13 10 21 12 9 1 22 7 29 13 8 6 40 23 72 38 31 14 57 31 57 36 0 5 9 9
20 9 11 0 20 4 20 8 0 12 79 32 130 34 27 0 53 8 65 18 11 10 37 21 57 24 38
7 120 45 126 59 2 4 10 7 17 7 7 0 20 12 30 26 14 21 22 25 46 20 27 -5 29 -3
29 25 0 75 108 196 200 223 68 20 86 21 71 3 -6 -8 -8 -17 -5 -20 3 -3 -3 -19
-15 -36 -33 -46 -71 -133 -71 -164 0 -23 5 -29 30 -34 17 -3 33 -10 36 -14 3
-5 24 -9 48 -9 56 0 86 -30 86 -86 0 -29 9 -52 31 -82 l31 -43 24 26 c12 14
30 25 39 25 17 0 17 -5 6 -35 -5 -11 -4 -28 1 -39 7 -12 7 -16 0 -12 -6 3 -13
2 -16 -3 -3 -5 0 -11 8 -14 19 -7 96 4 96 14 0 4 9 11 20 14 20 6 20 15 20
3181 l0 3174 -5000 0 -5000 0 0 -5000z m6377 4068 c-3 -8 -6 -5 -6 6 -1 11 2
17 5 13 3 -3 4 -12 1 -19z m510 7 c1 -5 -8 -11 -21 -11 -18 -1 -23 2 -19 13 6
15 34 14 40 -2z m116 -76 c5 -4 -6 -4 -24 0 -18 4 -34 12 -37 19 -3 10 2 10
25 0 15 -6 32 -15 36 -19z m-606 -11 c-3 -7 -5 -2 -5 12 0 14 2 19 5 13 2 -7
2 -19 0 -25z m-457 -47 c0 -5 2 -15 5 -23 4 -9 -3 -14 -20 -16 -27 -2 -33 16
-13 36 14 14 28 16 28 3z m1130 -5 c0 -8 5 -16 12 -18 8 -3 9 -6 1 -11 -5 -3
-15 5 -21 18 -7 15 -8 25 -2 25 6 0 10 -6 10 -14z m58 -83 c23 -9 25 -11 10
-18 -30 -12 -48 2 -47 37 1 20 3 25 6 12 2 -11 16 -25 31 -31z m112 -28 c9
-11 10 -19 3 -26 -7 -7 -16 -2 -27 15 -13 21 -14 26 -2 26 7 0 19 -7 26 -15z
m-156 -175 c3 -17 2 -95 -2 -173 l-7 -142 -6 105 c-10 161 -10 240 0 240 5 0
11 -14 15 -30z m-1814 -325 c51 26 60 21 60 -36 0 -30 11 -81 25 -121 27 -75
30 -88 16 -88 -13 0 -61 125 -61 160 0 32 -27 54 -54 44 -9 -3 -23 -4 -31 -1
-12 5 -12 12 -2 39 10 29 12 30 15 11 3 -22 5 -22 32 -8z m13 -146 c-10 -10
-34 -21 -53 -24 -19 -3 -28 -2 -20 1 8 4 28 18 43 31 33 27 59 20 30 -8z
m-109 -21 c-29 -49 -88 -120 -92 -110 -5 15 19 55 56 95 26 27 49 37 36 15z
m-6 -231 c18 -56 32 -106 32 -112 -2 -20 -59 101 -65 137 -4 20 -13 42 -21 49
-19 16 -18 29 4 29 13 0 25 -24 50 -103z m2049 -39 c-2 -18 -4 -6 -4 27 0 33
2 48 4 33 2 -15 2 -42 0 -60z m-2191 -51 c-11 -7 -30 -23 -43 -36 -13 -13 -23
-20 -23 -16 0 16 53 65 69 64 13 0 12 -3 -3 -12z m49 -37 c3 -5 13 -6 22 -3
12 5 15 2 10 -10 -3 -8 -1 -18 6 -21 7 -2 4 -5 -5 -5 -10 -1 -18 4 -18 10 0 5
-4 8 -9 4 -6 -3 -15 4 -21 15 -11 20 3 30 15 10z m-65 -189 c0 -5 3 -17 7 -27
4 -11 3 -15 -4 -11 -14 9 -24 47 -12 47 5 0 9 -4 9 -9z m3090 -112 c0 -5 -4
-9 -10 -9 -5 0 -10 7 -10 16 0 8 5 12 10 9 6 -3 10 -10 10 -16z m-2300 -11 c0
-5 3 -7 8 -5 4 3 16 1 27 -4 18 -7 17 -8 -6 -8 -14 -1 -34 8 -44 19 -17 18
-17 20 -2 14 9 -3 17 -10 17 -16z m-850 8 c0 -2 -8 -10 -17 -17 -16 -13 -17
-12 -4 4 13 16 21 21 21 13z m-197 -51 c-3 -9 -8 -14 -10 -11 -3 3 -2 9 2 15
9 16 15 13 8 -4z m1322 -117 c30 -16 68 -50 95 -84 65 -81 180 -201 180 -187
0 6 -16 27 -35 46 -65 65 -36 49 43 -23 45 -41 94 -99 118 -138 37 -62 44 -67
81 -73 40 -5 79 -26 68 -37 -2 -3 -11 0 -18 6 -8 7 -34 14 -58 17 -31 4 -48
12 -59 28 -20 31 -102 107 -116 107 -6 0 -43 33 -82 72 -39 40 -73 70 -76 67
-8 -7 71 -128 118 -180 61 -68 71 -81 88 -124 16 -40 38 -58 38 -31 0 8 -4 26
-10 40 -18 48 1 26 27 -30 20 -45 29 -55 45 -51 18 5 58 -26 58 -45 0 -4 11
-8 23 -8 26 0 83 -38 136 -91 28 -30 39 -34 72 -31 21 2 39 8 39 13 0 5 -4 9
-10 9 -12 0 -44 60 -36 68 3 3 6 0 6 -6 0 -13 60 -76 104 -110 20 -14 37 -20
50 -16 29 9 29 7 10 53 -24 61 -10 62 20 2 15 -28 31 -51 36 -51 6 0 10 -4 10
-10 0 -6 -32 -10 -76 -10 -61 0 -81 4 -101 20 -19 15 -35 19 -59 14 -42 -8
-74 3 -74 25 0 22 -100 91 -131 91 -12 0 -33 -12 -46 -26 -13 -14 -27 -23 -30
-20 -4 3 6 19 21 35 36 37 27 55 -24 46 -33 -6 -39 -4 -45 15 -6 19 -52 58
-58 49 -2 -2 -11 -23 -22 -46 -26 -62 -35 -53 -13 13 16 48 17 62 7 88 -17 43
-46 73 -69 71 -36 -2 -42 -19 -26 -61 20 -51 26 -122 14 -154 -6 -14 -10 -39
-10 -55 1 -17 -3 -37 -8 -45 -8 -13 -10 -13 -10 2 0 9 -5 18 -11 20 -7 2 -4
23 9 61 l20 57 -20 0 c-11 0 -18 3 -16 8 2 4 10 19 17 34 8 15 11 35 7 44 -6
15 -13 12 -48 -22 -32 -31 -38 -34 -28 -14 7 14 21 37 31 52 19 26 26 93 11
102 -4 2 -18 -15 -31 -40 -31 -58 -37 -50 -11 17 11 30 20 56 20 59 0 3 -16
23 -35 45 -19 22 -35 50 -35 63 0 12 -9 60 -21 105 -19 77 -24 85 -77 135 -62
58 -61 60 13 20z m-160 -49 c4 -11 4 -23 1 -26 -8 -8 -76 46 -76 60 0 7 5 4
11 -5 5 -10 19 -22 29 -28 16 -8 18 -8 14 5 -4 8 -9 15 -13 15 -3 0 -12 10
-20 21 l-13 22 30 -22 c17 -12 34 -31 37 -42z m-1070 21 c3 -5 1 -10 -4 -10
-6 0 -11 5 -11 10 0 6 2 10 4 10 3 0 8 -4 11 -10z m-90 -30 c3 -5 1 -10 -4
-10 -6 0 -11 5 -11 10 0 6 2 10 4 10 3 0 8 -4 11 -10z m56 -13 c-10 -9 -11 -8
-5 6 3 10 9 15 12 12 3 -3 0 -11 -7 -18z m1818 -164 c17 -34 31 -73 30 -85 0
-17 -7 -9 -24 27 -13 28 -24 48 -24 45 -1 -3 12 -51 28 -108 32 -111 49 -208
32 -182 -16 25 -99 315 -105 365 -5 46 -5 46 13 23 10 -13 32 -51 50 -85z
m-503 -70 c-2 -3 -14 -2 -26 2 -22 7 -44 36 -55 75 -6 21 1 16 40 -23 25 -27
44 -51 41 -54z m-256 28 c-12 -24 -30 -28 -30 -7 0 19 33 52 38 38 2 -6 -2
-20 -8 -31z m-1185 10 c-3 -6 -11 -11 -17 -11 -6 0 -6 6 2 15 14 17 26 13 15
-4z m37 -53 c-8 -8 -9 -15 0 -25 9 -11 7 -12 -8 -7 -10 4 -23 10 -29 13 -5 3
-21 5 -35 4 -15 -1 -18 0 -7 3 9 3 15 10 12 15 -4 5 13 9 36 9 33 0 40 -3 31
-12z m-842 -48 c0 -5 -12 -10 -26 -10 -14 0 -23 4 -19 10 3 6 15 10 26 10 10
0 19 -4 19 -10z m763 3 c-7 -2 -19 -2 -25 0 -7 3 -2 5 12 5 14 0 19 -2 13 -5z
m2251 -73 c5 -20 3 -19 -8 5 -7 17 -16 41 -20 55 -5 20 -3 19 8 -5 7 -16 16
-41 20 -55z m-2289 50 c-3 -5 7 -16 22 -24 28 -14 72 -56 59 -56 -4 0 -2 -9 4
-21 11 -19 10 -20 -12 -8 -13 7 -39 22 -59 35 -25 16 -40 19 -52 12 -25 -13
-21 -31 11 -50 15 -9 41 -31 57 -48 l30 -31 -29 11 c-15 6 -39 19 -53 30 -17
13 -33 17 -54 13 -16 -3 -29 -3 -29 1 0 11 52 89 79 119 25 27 38 36 26 17z
m-2722 -137 c12 -7 8 -33 -7 -33 -23 0 -86 30 -86 41 0 10 73 4 93 -8z m4671
-29 c5 -14 4 -15 -9 -4 -17 14 -19 20 -6 20 5 0 12 -7 15 -16z m-2036 -38 c20
-13 48 -36 62 -51 l25 -28 -27 7 c-31 7 -37 -7 -10 -24 15 -10 15 -11 -3 -4
-40 16 -91 6 -167 -31 -43 -21 -78 -41 -78 -45 0 -4 30 -10 68 -13 60 -5 249
-63 239 -73 -2 -3 -44 7 -93 22 -60 17 -115 27 -170 28 -77 1 -82 0 -135 -37
-76 -52 -184 -180 -174 -205 3 -8 -15 -53 -40 -99 -47 -89 -55 -114 -30 -93 8
7 26 10 40 8 13 -3 26 -1 27 3 2 5 19 11 38 14 l35 5 -32 -10 c-18 -6 -33 -17
-33 -25 0 -10 -10 -14 -30 -12 -16 1 -30 7 -30 12 0 6 -4 4 -9 -4 -8 -12 -12
-12 -25 -2 -13 11 -13 17 -1 52 37 103 111 236 160 284 69 68 187 165 222 183
39 20 89 79 104 124 7 21 16 38 21 38 5 0 25 -11 46 -24z m-2882 -48 c-10 -6
-20 -7 -24 -3 -9 8 20 25 31 18 5 -3 2 -10 -7 -15z m5469 -127 c-9 -28 -21
-51 -26 -51 -13 0 -11 13 11 66 26 61 37 50 15 -15z m-643 18 c-36 -32 -56
-33 -26 -1 17 17 38 29 54 31 3 0 -10 -13 -28 -30z m-129 -43 c4 -10 1 -13 -9
-9 -7 3 -14 9 -14 14 0 14 17 10 23 -5z m67 4 c-20 -13 -33 -13 -25 0 3 6 14
10 23 10 15 0 15 -2 2 -10z m-82 -45 c-3 -14 -1 -28 3 -31 5 -3 9 -14 9 -25 0
-19 1 -19 16 -5 19 19 54 21 76 4 19 -16 31 -131 15 -147 -6 -6 -21 -52 -34
-103 -13 -50 -25 -94 -28 -96 -14 -14 -11 11 11 93 13 50 25 121 26 160 3 83
-11 93 -70 49 -20 -15 -34 -24 -30 -20 4 5 0 15 -8 23 -10 11 -13 30 -10 66 5
62 3 57 17 57 7 0 9 -10 7 -25z m-1978 -5 c19 -6 10 -8 -35 -9 -42 0 -56 2
-45 9 17 11 45 11 80 0z m3303 -137 c-7 -2 -19 -2 -25 0 -7 3 -2 5 12 5 14 0
19 -2 13 -5z m-3067 -22 c-7 -10 -66 -33 -66 -25 0 4 57 32 68 34 2 0 1 -4 -2
-9z m3574 -62 c-57 -45 -76 -46 -44 -1 9 14 25 22 42 22 l27 0 -25 -21z
m-1694 -79 c-3 -22 -9 -59 -12 -81 -4 -24 -2 -44 4 -48 10 -6 43 -93 37 -99
-6 -7 -45 33 -45 45 0 7 -4 13 -9 13 -18 0 -24 91 -11 144 15 60 18 66 32 66
6 0 8 -15 4 -40z m-2556 -129 c0 -4 -18 -35 -40 -67 -22 -32 -36 -61 -32 -64
4 -3 131 -2 282 3 327 11 562 0 690 -33 130 -33 258 -99 313 -160 66 -73 79
-132 56 -242 -35 -162 -153 -275 -338 -323 -70 -18 -265 -34 -421 -35 -58 0
-122 -3 -142 -6 l-38 -7 0 -168 c0 -162 1 -169 24 -195 13 -16 39 -33 57 -40
28 -9 -9 -12 -224 -19 -239 -7 -299 -4 -251 10 46 14 90 42 101 65 10 19 12
141 10 553 l-2 529 -23 19 c-31 24 -90 35 -114 20 -15 -9 -18 -8 -18 6 0 33
47 119 76 141 33 25 34 25 34 13z m-379 -187 c11 -26 38 -69 60 -95 40 -48 39
-60 -3 -38 -18 10 -24 8 -41 -15 -10 -14 -26 -26 -35 -26 -12 0 -11 5 8 25 13
14 22 27 19 29 -6 5 -152 51 -219 69 -99 27 -192 37 -397 44 l-203 6 0 -288 0
-288 113 7 c123 8 292 28 434 52 l91 15 59 -29 c32 -17 78 -41 102 -55 l44
-25 -102 -52 -102 -51 -122 21 c-189 33 -228 38 -378 46 l-139 7 0 -277 c0
-152 2 -276 4 -276 2 0 16 19 31 42 45 67 115 150 115 135 0 -8 -11 -30 -24
-49 -13 -19 -40 -65 -60 -101 l-38 -67 114 0 c165 0 401 18 482 37 79 17 116
34 230 105 43 27 80 47 82 45 2 -2 -7 -39 -20 -83 -13 -43 -27 -96 -30 -116
l-7 -38 -449 0 -449 0 -21 -30 c-12 -16 -28 -58 -37 -92 -22 -88 -37 -99 -30
-21 5 42 15 73 33 100 l26 38 -149 5 c-119 5 -155 9 -183 24 l-35 19 54 12
c98 23 96 14 99 330 l3 275 -108 1 c-59 0 -128 4 -153 8 l-45 8 55 2 c30 1 99
4 153 8 l97 6 0 248 c0 147 -4 259 -10 275 -14 37 -36 52 -87 60 -47 7 -49 17
-6 30 16 4 280 10 588 13 308 4 561 7 563 9 1 1 12 -19 23 -44z m2344 28 c-33
-11 -54 -26 -62 -42 -9 -18 -13 -105 -13 -326 l0 -300 33 -17 32 -16 -33 6
-32 6 2 -271 c3 -309 -1 -295 91 -324 51 -16 47 -16 -228 -16 l-280 -1 55 19
c30 10 60 26 67 36 10 14 13 142 13 609 0 665 7 609 -76 639 -36 13 -17 15
221 15 258 0 260 0 210 -17z m-2090 -2 c-3 -5 -11 -10 -16 -10 -6 0 -7 5 -4
10 3 6 11 10 16 10 6 0 7 -4 4 -10z m2735 1 c0 -5 -9 -7 -20 -4 -31 8 -137
-24 -209 -64 -100 -54 -201 -135 -301 -240 l-90 -95 0 65 0 65 58 54 c113 104
237 172 372 203 41 9 80 18 85 20 23 8 105 4 105 -4z m707 -6 c135 -18 252
-41 305 -62 41 -16 42 -20 53 -203 l6 -95 -32 65 c-62 125 -190 223 -345 265
-92 25 -282 31 -384 11 -290 -54 -470 -276 -470 -577 l0 -82 28 24 27 24 -22
-26 c-27 -30 -29 -68 -8 -151 17 -62 61 -164 76 -174 5 -3 6 2 3 10 -3 8 -1
23 5 33 11 19 10 21 16 -59 3 -49 104 -147 205 -198 59 -30 207 -50 377 -50
114 0 141 3 197 24 142 51 236 130 297 249 l31 62 -6 -135 c-5 -106 -10 -138
-23 -147 -21 -16 -132 -41 -267 -60 -166 -23 -498 -15 -626 16 -52 12 -103 26
-112 31 -10 6 -24 10 -31 10 -7 0 -37 11 -65 25 -29 14 -54 25 -57 25 -4 0
-39 24 -79 54 -83 62 -155 139 -194 210 -23 42 -35 52 -80 68 -61 23 -67 34
-7 13 22 -7 42 -12 43 -10 2 2 -1 27 -7 55 -16 73 -14 216 4 285 33 124 146
256 288 335 92 51 253 103 382 124 55 8 111 17 125 19 62 10 239 6 347 -8z
m-3507 -45 c-28 -22 -40 -25 -40 -10 0 11 53 41 60 33 3 -2 -6 -13 -20 -23z
m1520 0 c-19 -13 -30 -13 -30 0 0 6 10 10 23 10 18 0 19 -2 7 -10z m100 -100
c0 -5 -12 -10 -26 -10 -14 0 -23 4 -19 10 3 6 15 10 26 10 10 0 19 -4 19 -10z
m-4514 -74 c-8 -20 -22 -36 -30 -36 -9 0 -16 3 -16 6 0 10 22 48 39 67 21 25
25 6 7 -37z m1604 -17 c0 -10 -4 -19 -9 -19 -12 0 -23 29 -15 41 8 14 24 0 24
-22z m4160 -200 c0 -14 -82 -111 -88 -104 -3 3 -17 -5 -31 -17 -15 -14 -10 -3
14 27 74 95 105 123 105 94z m3110 -51 c0 -7 -11 -26 -25 -43 -23 -29 -24 -29
-25 -7 0 13 5 32 10 43 12 21 40 26 40 7z m-307 -75 c-7 -2 -19 -2 -25 0 -7 3
-2 5 12 5 14 0 19 -2 13 -5z m50 -10 c-7 -2 -19 -2 -25 0 -7 3 -2 5 12 5 14 0
19 -2 13 -5z m-2993 -17 c0 -2 -8 -10 -17 -17 -16 -13 -17 -12 -4 4 13 16 21
21 21 13z m-6030 -135 c6 -16 21 -39 32 -51 11 -12 17 -24 13 -28 -8 -8 -85
78 -85 96 0 23 28 12 40 -17z m4978 -258 c-39 -42 -196 -143 -286 -185 -220
-103 -399 -138 -725 -145 -125 -3 -289 -2 -365 3 l-137 8 155 8 c443 21 721
84 995 223 130 65 193 109 307 210 l73 65 3 -82 c3 -72 0 -83 -20 -105z m3917
137 c-25 -11 -180 -11 -255 0 -40 5 -9 7 110 8 100 0 157 -3 145 -8z m-7518
-218 c-10 -10 -17 -22 -17 -25 0 -13 78 -7 115 9 50 21 55 11 15 -31 -37 -38
-50 -43 -50 -20 0 19 -19 19 -45 1 -12 -8 -45 -13 -85 -13 -41 0 -77 -5 -98
-15 -37 -19 -53 -6 -26 23 12 13 30 19 60 19 34 0 44 4 49 20 7 22 50 49 79
50 18 0 18 -1 3 -18z m50 -88 c-3 -3 -12 -4 -19 -1 -8 3 -5 6 6 6 11 1 17 -2
13 -5z m153 -4 c0 -5 -7 -10 -15 -10 -8 0 -15 5 -15 10 0 6 7 10 15 10 8 0 15
-4 15 -10z m4770 -30 c6 -11 8 -20 6 -20 -3 0 -10 9 -16 20 -6 11 -8 20 -6 20
3 0 10 -9 16 -20z m-5585 -50 c3 -5 -3 -10 -14 -10 -12 0 -21 5 -21 10 0 6 6
10 14 10 8 0 18 -4 21 -10z m702 -122 c-3 -8 -6 -5 -6 6 -1 11 2 17 5 13 3 -3
4 -12 1 -19z m4713 -49 c12 -22 20 -45 18 -50 -2 -6 -13 12 -25 40 -26 61 -21
67 7 10z m-6315 -9 c3 -5 -1 -10 -9 -10 -8 0 -18 5 -21 10 -3 6 1 10 9 10 8 0
18 -4 21 -10z m5435 5 c0 -3 -52 -44 -115 -91 -106 -80 -134 -104 -102 -91
100 44 232 95 235 92 2 -2 -46 -27 -107 -56 -61 -28 -111 -56 -111 -60 0 -5
20 -9 45 -9 38 0 45 -3 45 -20 0 -11 -4 -20 -10 -20 -5 0 -10 5 -10 10 0 6
-16 10 -35 10 -33 0 -35 -2 -35 -35 0 -32 3 -35 29 -35 16 0 32 6 34 13 3 6 6
-3 6 -22 1 -31 0 -33 -12 -17 -22 31 -52 16 -55 -27 l-3 -37 40 0 c29 0 41 5
44 18 3 10 5 6 6 -10 l1 -28 -77 1 c-43 0 -72 3 -65 6 14 5 18 163 3 163 -16
0 -33 -29 -27 -47 3 -10 6 -62 8 -115 1 -86 4 -98 19 -98 27 0 33 -18 7 -22
-17 -2 -23 -10 -24 -34 -1 -17 -7 -41 -13 -53 -10 -18 -9 -27 3 -46 13 -20 13
-24 1 -29 -8 -3 -15 -15 -15 -27 0 -12 -8 -27 -17 -34 -16 -12 -16 -15 2 -50
19 -35 19 -37 3 -49 -28 -21 -21 -34 22 -46 l41 -11 -2 -62 c-1 -71 16 -131
31 -107 6 8 10 29 11 45 2 39 15 -138 34 -490 9 -154 20 -302 25 -330 5 -27 9
-85 9 -127 1 -77 1 -78 27 -78 19 0 25 4 20 15 -9 24 19 29 55 11 18 -9 41
-16 51 -16 28 0 58 -18 58 -36 0 -11 -8 -15 -30 -12 -37 4 -47 -10 -42 -55 3
-24 12 -39 32 -50 34 -20 40 -21 40 -4 0 7 7 22 15 33 15 19 16 18 38 -7 28
-32 71 -59 94 -59 18 0 47 -13 91 -41 19 -12 24 -12 31 -1 7 12 14 11 41 -3
18 -9 41 -15 51 -12 11 3 19 1 19 -4 0 -15 25 -10 46 9 16 14 57 38 108 61 5
2 6 -1 2 -7 -3 -5 19 -20 51 -33 31 -12 77 -42 101 -66 25 -23 49 -40 54 -37
4 3 11 -1 14 -9 2 -7 11 -14 19 -14 20 0 145 -53 178 -75 15 -11 27 -15 27 -9
0 5 -8 12 -19 16 -10 3 -26 14 -36 25 -16 18 -16 20 -2 20 10 0 14 5 11 15 -4
8 -14 15 -23 15 -9 0 -21 8 -28 19 -7 12 -30 21 -65 26 l-53 8 48 11 c27 6 45
15 40 20 -5 5 -2 6 5 2 22 -13 62 -14 69 -2 8 11 9 17 11 50 2 17 4 17 27 2
27 -18 49 -21 40 -6 -11 17 16 11 53 -12 l36 -22 -28 37 -28 37 26 0 c19 0 30
-8 38 -26 7 -14 28 -32 47 -41 79 -34 181 -70 175 -62 -7 12 -142 79 -160 79
-7 0 -14 5 -14 11 0 22 101 -19 228 -92 29 -17 65 -32 80 -34 15 -2 77 -15
137 -29 61 -13 137 -28 170 -31 33 -4 65 -11 70 -15 6 -4 60 -7 120 -7 61 0
130 -3 154 -8 l45 -7 -27 -15 c-23 -11 -58 -12 -210 -4 -100 5 -206 16 -235
22 -41 10 -55 10 -64 1 -22 -22 10 -32 107 -33 50 0 113 -4 140 -9 40 -6 26
-8 -72 -9 -117 -1 -159 -11 -111 -27 13 -4 93 -7 178 -6 85 1 149 -1 143 -4
-46 -20 28 -38 95 -23 29 6 62 6 87 1 l40 -9 -29 -12 c-16 -6 -70 -14 -120
-16 -93 -5 -176 -22 -176 -35 0 -8 59 -20 101 -20 14 0 34 -6 44 -14 18 -13
14 -14 -30 -9 -28 2 -97 14 -155 25 -106 20 -147 20 -375 1 -65 -5 -68 -4 -55
12 8 9 26 22 40 28 25 10 25 10 -12 17 -59 11 -85 43 -55 68 15 13 32 3 32
-18 0 -10 12 -16 40 -17 l40 -3 -30 14 -30 14 43 1 c28 1 60 -8 92 -25 31 -16
57 -23 68 -19 13 5 6 11 -31 25 -27 10 -54 23 -62 30 -7 6 -38 15 -69 20 -31
5 -69 18 -85 29 -42 31 -315 119 -391 127 -32 4 -33 3 -10 -7 13 -5 33 -17 42
-26 19 -17 24 -53 8 -53 -5 0 -10 -8 -10 -17 -1 -10 -21 -35 -46 -57 -40 -34
-48 -37 -72 -28 -60 24 -117 15 -117 -18 0 -21 -75 -18 -87 4 -6 11 -20 15
-42 13 -29 -2 -33 -5 -25 -20 6 -9 32 -32 59 -50 74 -48 75 -69 2 -48 -20 6
-32 6 -32 0 0 -5 3 -9 8 -9 4 0 21 -11 37 -25 l30 -24 -41 3 c-23 2 -50 8 -60
14 -40 20 -85 22 -117 5 -30 -16 -73 -23 -247 -42 -41 -4 -100 -18 -130 -30
-61 -25 -222 -37 -267 -20 -17 6 -45 6 -81 -1 -39 -7 -59 -7 -66 0 -13 13 0
22 56 41 33 11 45 10 71 -1 18 -8 57 -13 87 -13 30 1 70 2 88 2 40 0 136 29
175 52 36 21 21 34 -58 49 -108 20 -115 22 -126 41 -10 20 -79 59 -103 59 -9
0 -35 9 -58 19 -24 10 -92 27 -153 36 -60 9 -118 21 -127 26 -19 10 -53 69
-41 69 5 1 -10 10 -32 22 -22 11 -48 27 -57 35 -16 14 -17 13 -15 -13 1 -21
-4 -31 -20 -39 -13 -5 -23 -13 -23 -17 0 -25 -120 11 -148 44 -10 13 -20 14
-50 6 -49 -13 -273 -19 -287 -8 -5 4 -26 10 -45 12 -65 6 -33 46 54 69 17 4
50 15 74 23 40 15 45 15 85 -5 23 -12 50 -28 59 -36 15 -13 21 -11 58 24 l42
38 -7 160 c-4 88 -10 178 -15 199 -5 22 -6 44 -4 48 3 5 6 102 6 216 0 215 4
234 13 72 8 -154 16 -218 25 -195 5 14 9 0 13 -45 4 -36 11 -114 16 -175 12
-131 30 -225 42 -225 5 0 9 14 9 30 0 17 3 30 8 30 4 0 7 134 7 297 0 164 4
354 8 423 4 68 5 121 1 118 -3 -4 -14 -66 -24 -138 -11 -73 -22 -135 -25 -138
-7 -7 2 187 16 332 5 54 9 128 10 165 0 40 3 59 8 47 5 -14 14 11 30 85 13 57
29 131 37 164 7 33 13 74 14 92 0 17 5 35 10 38 6 3 10 17 10 30 0 13 5 27 10
30 8 5 7 11 -1 21 -10 12 -9 85 3 146 2 10 -11 26 -32 40 -59 40 -65 116 -13
164 22 20 36 24 94 24 61 0 69 3 91 28 15 17 31 26 45 24 15 -2 58 24 135 82
118 89 118 89 118 81z m3604 -91 c12 -31 7 -56 -11 -52 -23 4 -32 68 -10 68 8
0 18 -7 21 -16z m-8424 -33 c15 -29 12 -41 -9 -41 -20 0 -37 32 -26 50 10 16
23 12 35 -9z m3005 -110 c79 -58 78 -58 67 -65 -5 -3 -30 10 -56 30 -25 19
-46 31 -46 25 0 -17 53 -135 68 -153 14 -17 12 -18 -34 -18 -35 0 -45 3 -34
10 25 15 -1 44 -43 48 -29 3 -37 -1 -42 -19 -5 -14 -2 -25 6 -30 10 -6 4 -9
-18 -9 l-31 0 18 38 c24 48 55 121 65 150 5 18 2 27 -14 38 -12 9 -21 19 -21
25 0 11 32 -8 115 -70z m2586 53 c5 -15 8 -29 5 -31 -2 -2 -8 10 -14 26 -13
38 -5 41 9 5z m3229 6 c0 -5 -4 -10 -9 -10 -6 0 -13 5 -16 10 -3 6 1 10 9 10
9 0 16 -4 16 -10z m-7075 -66 l25 -23 6 25 c13 52 26 17 49 -129 11 -67 30
-38 33 49 2 65 0 81 -14 91 -15 11 -6 13 59 13 l77 0 -1 -27 c-1 -17 -3 -21
-6 -10 -3 12 -15 17 -39 17 -32 0 -34 -2 -34 -35 0 -31 3 -35 25 -35 14 0 25
5 25 10 0 6 5 10 10 10 6 0 10 -13 10 -30 0 -16 -4 -30 -10 -30 -5 0 -10 5
-10 10 0 6 -11 10 -25 10 -22 0 -25 -4 -25 -35 0 -22 6 -38 18 -44 13 -8 5
-10 -37 -11 -53 0 -53 0 -48 -27 19 -97 19 -149 -3 -205 -37 -99 -43 -86 -38
78 3 94 1 165 -7 194 l-11 44 -14 -33 c-31 -75 -159 -81 -196 -10 -36 70 -2
146 72 158 53 9 79 3 109 -25z m1018 19 c-9 -3 -13 -31 -13 -93 0 -61 4 -90
13 -93 6 -3 -10 -5 -38 -5 -27 0 -44 2 -37 5 15 6 17 169 2 178 -22 14 -8 20
38 16 26 -2 41 -6 35 -8z m-564 0 c0 -5 -4 -17 -9 -28 -7 -17 -9 -17 -9 -2 -1
13 -10 17 -36 17 -33 0 -35 -2 -35 -35 0 -30 3 -35 23 -35 13 0 28 5 35 12 9
9 12 4 12 -22 0 -26 -3 -31 -12 -22 -7 7 -22 12 -35 12 -20 0 -23 -5 -23 -35
0 -22 6 -38 18 -44 13 -8 6 -10 -33 -10 -27 0 -44 3 -37 6 16 6 17 164 0 181
-9 9 5 12 65 12 42 0 77 -3 76 -7z m143 -5 c-17 -17 -16 -175 1 -181 6 -3 -10
-6 -38 -6 -39 0 -46 2 -32 10 13 8 17 24 17 77 0 37 -5 74 -10 82 -6 10 -10
11 -10 3 0 -7 -7 -13 -15 -13 -13 0 -13 3 -3 20 10 15 24 20 57 20 35 0 42 -3
33 -12z m266 -23 l4 -30 -26 28 c-30 32 -54 34 -90 6 -21 -17 -26 -29 -26 -65
0 -69 59 -111 117 -85 19 9 24 9 21 -1 -13 -37 -110 -33 -155 7 -24 20 -28 31
-28 75 0 45 4 55 29 76 24 22 36 25 90 22 60 -3 61 -4 64 -33z m584 23 c-17
-17 -16 -138 1 -139 10 0 10 -2 0 -6 -25 -10 -12 -23 22 -23 22 0 38 6 44 18
9 14 10 13 11 -10 l0 -28 -77 0 c-60 0 -74 3 -65 12 18 18 14 45 -10 69 l-23
21 22 -6 c20 -6 21 -3 21 39 0 31 -5 48 -16 55 -13 7 -4 9 33 10 38 0 46 -3
37 -12z m456 -20 c4 -32 -13 -38 -21 -8 -8 29 -53 37 -85 13 -37 -28 -46 -63
-28 -107 18 -42 55 -60 106 -51 29 5 33 4 22 -7 -8 -8 -35 -13 -69 -12 -50 0
-59 4 -84 32 -41 45 -40 102 1 143 27 28 34 30 92 27 60 -3 63 -4 66 -30z
m258 9 c22 -20 27 -32 27 -70 0 -57 -22 -92 -68 -107 -83 -27 -145 16 -145
100 0 69 33 100 106 100 41 0 59 -5 80 -23z m220 -49 l59 -73 3 60 c3 47 0 62
-14 72 -16 11 -13 13 22 12 21 0 33 -3 27 -6 -9 -3 -13 -33 -13 -100 0 -117
-7 -118 -97 -16 l-63 73 0 -69 c0 -46 4 -71 13 -74 6 -3 -6 -6 -28 -6 -32 0
-36 2 -22 10 14 8 17 24 17 89 0 65 -3 81 -17 89 -15 8 -11 10 18 11 34 0 42
-6 95 -72z m815 48 c18 -38 -22 -86 -72 -86 -17 0 -9 18 11 23 26 7 27 53 1
66 -10 6 -21 7 -25 4 -3 -3 -6 -44 -6 -89 0 -70 3 -83 18 -87 9 -3 -8 -5 -38
-6 -38 0 -50 2 -40 9 21 13 24 154 3 175 -13 13 -5 15 62 15 70 0 76 -2 86
-24z m249 -3 c-1 -25 -2 -26 -14 -10 -7 9 -23 17 -35 17 -20 0 -21 -5 -21 -84
0 -58 4 -86 13 -89 6 -3 -10 -5 -38 -5 -27 0 -44 2 -37 5 8 3 12 31 12 89 0
79 -1 84 -21 84 -12 0 -28 -8 -35 -17 -12 -16 -13 -15 -14 10 l0 27 95 0 95 0
0 -27z m534 0 c-9 -18 -14 -52 -13 -90 l2 -63 33 0 c21 0 37 6 43 17 12 23 22
13 15 -14 -5 -19 -14 -22 -76 -25 -66 -3 -91 3 -68 17 5 3 10 40 10 82 0 60
-4 78 -17 89 -16 12 -11 13 34 14 l52 0 -15 -27z m304 15 c17 -17 15 -43 -3
-58 -14 -12 -13 -15 5 -32 25 -24 25 -48 0 -75 -26 -29 -54 -36 -107 -28 -34
5 -42 10 -34 18 6 6 11 45 11 89 0 63 -3 79 -17 87 -14 8 1 10 58 11 45 0 80
-5 87 -12z m170 1 c-36 -20 -21 -71 47 -167 1 -1 10 0 19 4 13 5 16 21 16 84
0 53 -4 80 -12 83 -7 3 5 6 27 6 22 0 35 -3 29 -7 -7 -4 -13 -42 -16 -86 -3
-67 -7 -81 -27 -97 -29 -24 -92 -25 -120 -1 -17 14 -22 30 -24 91 -2 47 -7 76
-15 79 -30 10 -7 22 41 22 40 -1 48 -3 35 -11z m301 -56 l33 -68 34 68 c33 64
36 67 71 67 29 0 34 -3 25 -12 -17 -17 -16 -175 1 -181 6 -2 -9 -6 -35 -8 -27
-2 -48 -1 -48 3 0 5 5 8 10 8 6 0 10 29 9 68 l0 67 -33 -65 c-46 -94 -43 -91
-70 -67 -14 12 -21 24 -16 27 4 3 -3 25 -16 50 l-23 45 -1 -62 c0 -40 4 -63
13 -66 6 -3 -6 -5 -28 -5 -22 0 -34 2 -27 5 8 3 12 32 12 93 0 61 -4 90 -12
93 -7 3 5 6 27 6 40 1 41 1 74 -66z m-879 22 c0 -5 -5 -3 -10 5 -5 8 -10 20
-10 25 0 6 5 3 10 -5 5 -8 10 -19 10 -25z m-6170 -44 c-5 -11 -15 -23 -20 -26
-14 -9 -12 19 2 33 19 19 30 14 18 -7z m2841 -151 c-13 -11 -28 -20 -35 -20
-6 0 0 9 14 20 33 26 52 25 21 0z m-1976 -20 c-3 -5 -10 -10 -16 -10 -5 0 -9
5 -9 10 0 6 7 10 16 10 8 0 12 -4 9 -10z m-184 -27 c-12 -20 -14 -14 -5 12 4
9 9 14 11 11 3 -2 0 -13 -6 -23z m2799 -16 c0 -19 2 -70 5 -113 5 -64 3 -74
-6 -54 l-11 25 -8 -28 c-5 -15 -6 -51 -3 -80 l5 -52 40 3 c22 3 45 -1 51 -7 8
-8 7 -11 -6 -11 -9 0 -21 -9 -27 -21 -7 -11 -14 -18 -17 -15 -10 10 -43 -14
-44 -32 -1 -9 -5 -1 -9 18 -5 26 -7 13 -7 -45 0 -44 2 -61 4 -37 4 38 7 43 26
41 12 -2 32 1 45 5 13 4 42 4 65 0 34 -5 38 -8 22 -15 -11 -4 -41 -11 -67 -14
-38 -5 -48 -10 -48 -25 0 -19 52 -51 103 -64 24 -6 27 -9 17 -21 -7 -8 -21
-15 -32 -15 -18 0 -20 -5 -15 -42 4 -24 13 -128 22 -233 8 -104 20 -242 25
-305 13 -149 17 -396 6 -437 -6 -27 -5 -33 8 -33 10 0 16 9 16 23 1 51 18 49
21 -3 4 -48 2 -54 -21 -63 -14 -6 -26 -12 -28 -13 -2 -1 1 -12 8 -23 13 -25 7
-26 -31 -4 -27 16 -29 16 -52 -5 -25 -24 -52 -29 -62 -11 -4 6 -13 8 -20 5
-18 -7 -57 23 -51 40 3 7 -6 22 -19 33 -14 10 -25 24 -25 30 0 19 16 12 29
-11 9 -17 21 -23 45 -23 19 0 38 3 42 8 4 4 16 7 26 7 11 0 17 4 14 9 -9 14
-87 52 -96 46 -4 -3 -10 2 -14 10 -3 8 -12 15 -21 15 -8 0 -15 5 -15 12 0 6
-8 20 -17 31 -22 23 -29 141 -38 632 l-6 330 29 31 c16 17 36 33 45 37 12 5
15 14 11 36 -5 21 0 41 15 67 18 29 19 39 9 45 -7 5 -16 9 -21 9 -4 0 -2 8 4
18 8 12 9 30 4 48 -5 16 -9 32 -9 36 -1 3 -4 9 -7 12 -7 7 10 126 22 148 5 10
9 31 9 48 0 27 3 30 30 30 27 0 30 -3 30 -33z m480 -15 c-15 -5 -40 17 -40 36
0 12 6 10 26 -9 14 -13 20 -25 14 -27z m528 21 c-10 -2 -28 -2 -40 0 -13 2 -5
4 17 4 22 1 32 -1 23 -4z m3536 -55 c-21 -69 -35 -88 -60 -88 -23 0 -25 3 -22
41 3 37 7 43 38 54 50 18 52 18 44 -7z m-5573 -50 c-25 -49 -28 -61 -21 -100
5 -25 20 -70 33 -100 14 -32 23 -66 20 -81 -3 -13 1 -35 8 -48 7 -13 14 -42
15 -64 4 -90 25 -317 39 -425 15 -115 20 -334 9 -364 -3 -9 -11 -13 -16 -10
-6 4 -9 -18 -8 -57 5 -134 7 -129 -48 -129 -39 0 -53 -5 -72 -25 -13 -14 -33
-25 -45 -25 -11 0 -45 -6 -74 -14 -50 -13 -55 -12 -98 10 -26 14 -65 25 -93
27 -45 2 -50 5 -55 29 -4 15 -2 35 4 45 14 27 -1 49 -19 28 -10 -12 -10 -24
-1 -58 9 -36 31 -181 31 -208 0 -5 -4 -9 -10 -9 -5 0 -10 9 -10 19 0 37 -12
51 -41 51 -16 0 -31 6 -33 13 -3 6 -10 33 -17 58 -11 42 -14 44 -29 30 -13
-12 -14 -21 -7 -36 8 -16 7 -18 -4 -7 -19 18 -29 15 -29 -10 -1 -23 -1 -23
-14 2 -8 14 -13 27 -11 31 3 3 -11 6 -29 7 -23 1 -47 -8 -75 -28 -23 -17 -41
-26 -41 -21 0 5 6 12 13 14 6 3 2 6 -10 6 -20 1 -28 -9 -24 -31 0 -4 -8 -12
-19 -18 -11 -6 -35 -33 -54 -61 -19 -28 -37 -46 -40 -41 -3 5 1 15 9 22 8 7
15 16 15 21 0 5 20 42 44 82 24 39 63 108 87 152 24 44 56 98 71 119 16 22 26
41 24 44 -9 9 -27 -10 -48 -51 -11 -23 -31 -55 -43 -72 -13 -16 -39 -62 -59
-102 -93 -182 -131 -225 -197 -215 -30 4 -31 6 -14 18 10 8 28 14 39 14 19 0
56 26 56 40 0 9 -74 23 -119 22 -19 -1 -41 -8 -50 -18 -15 -15 -13 -16 26 -10
23 3 44 2 47 -2 6 -9 -96 -62 -119 -62 -26 0 -15 34 25 78 22 24 37 48 34 53
-3 5 -2 8 3 7 4 -1 18 3 29 10 12 6 24 9 27 6 3 -3 30 -3 59 2 l53 7 -35 9
c-19 4 -89 5 -155 1 -130 -8 -209 -8 -232 1 -12 5 -10 10 8 26 l24 20 -82 -5
c-46 -2 -83 0 -83 4 0 10 27 46 109 141 87 103 87 102 49 37 -18 -32 -46 -71
-62 -88 -16 -16 -27 -31 -25 -33 9 -8 114 -26 154 -26 58 0 74 7 68 31 -4 14
0 19 15 19 12 0 24 5 28 11 4 6 20 9 39 6 37 -6 55 7 55 40 0 15 8 27 24 33
13 4 32 20 44 34 11 14 25 26 32 26 8 0 9 10 5 30 -6 26 -4 30 14 30 26 0 29
-41 4 -61 -9 -8 -22 -29 -30 -46 -7 -18 -20 -33 -28 -33 -9 0 -20 -12 -25 -26
-13 -33 -13 -34 4 -28 8 3 28 -2 45 -10 41 -22 43 -21 35 22 -5 30 -4 35 7 25
18 -17 49 -16 49 1 0 7 11 21 25 30 14 9 25 23 25 31 0 23 72 75 104 75 l30 0
-36 38 c-20 20 -40 49 -43 64 -4 15 -22 39 -41 53 -19 14 -34 32 -34 39 0 8
-7 19 -15 26 -32 27 -8 72 47 85 30 8 40 33 53 133 10 73 24 55 41 -51 8 -47
19 -98 25 -113 11 -29 11 -29 20 -6 5 12 15 25 23 28 8 3 20 21 26 40 7 19 18
34 27 34 12 0 14 -9 8 -52 -6 -43 -5 -50 8 -45 26 10 9 -107 -25 -177 -16 -32
-28 -60 -25 -62 8 -9 77 105 106 176 17 41 24 66 16 55 -14 -18 -15 -17 -9 15
4 19 18 46 31 60 l25 25 -7 -25 c-4 -16 5 -8 24 23 43 66 48 59 10 -13 l-32
-61 21 -15 c37 -26 44 -49 26 -87 -11 -23 -14 -46 -10 -68 12 -62 17 -64 83
-30 55 27 98 70 98 97 0 6 14 22 30 37 l30 25 -38 7 c-36 7 -55 21 -44 32 3 3
22 0 42 -7 20 -7 38 -10 41 -7 3 2 14 42 25 87 17 74 18 93 8 197 -6 63 -9
117 -6 119 3 3 12 -7 21 -23 15 -28 15 -28 15 32 -1 33 -4 85 -7 115 l-7 55
-44 -77 c-25 -43 -46 -76 -48 -75 -1 2 19 53 46 113 26 60 58 136 70 169 26
71 82 187 88 182 2 -2 -10 -29 -26 -59z m1503 36 c9 -8 17 -21 17 -27 1 -7 3
-23 4 -37 3 -29 -23 -100 -36 -100 -13 0 -11 17 7 51 14 29 14 32 -15 71 -17
23 -28 45 -25 50 8 13 31 9 48 -8z m3470 -36 c-3 -4 -9 -8 -15 -8 -5 0 -9 4
-9 8 0 5 7 9 15 9 8 0 12 -4 9 -9z m-5408 -45 c-8 -16 -29 -41 -46 -58 -28
-25 -26 -21 11 27 24 32 45 58 47 58 1 0 -4 -12 -12 -27z m-1530 -9 c-10 -14
-18 -42 -20 -62 -2 -34 -6 -38 -36 -33 -26 3 -4 71 34 103 31 25 41 22 22 -8z
m3972 19 c-10 -2 -28 -2 -40 0 -13 2 -5 4 17 4 22 1 32 -1 23 -4z m2937 -3
c-3 -5 -11 -10 -16 -10 -6 0 -7 5 -4 10 3 6 11 10 16 10 6 0 7 -4 4 -10z
m-6430 -60 c-3 -5 -11 -10 -16 -10 -6 0 -7 5 -4 10 3 6 11 10 16 10 6 0 7 -4
4 -10z m3458 -40 c-6 -22 -23 -38 -23 -21 0 17 12 41 20 41 5 0 6 -9 3 -20z
m-453 -35 c0 -18 7 -28 24 -34 30 -12 34 -24 40 -118 l6 -78 -15 69 c-14 68
-30 101 -65 136 -11 11 -17 26 -14 35 9 24 24 18 24 -10z m4285 5 c0 -7 -6
-15 -12 -17 -8 -3 -13 4 -13 17 0 13 5 20 13 18 6 -3 12 -11 12 -18z m-1814
-104 c39 -80 48 -113 29 -101 -14 9 -90 173 -90 194 0 14 2 14 11 1 6 -8 28
-51 50 -94z m1144 67 c-5 -10 -10 -32 -13 -50 -4 -33 -21 -46 -47 -37 -22 9
-18 25 16 67 32 39 57 50 44 20z m-7415 -138 c0 -25 -23 -35 -35 -15 -10 16 2
40 20 40 9 0 15 -9 15 -25z m7270 5 c0 -5 -7 -10 -15 -10 -8 0 -15 5 -15 10 0
6 7 10 15 10 8 0 15 -4 15 -10z m-7152 -31 c-17 -13 -28 -30 -28 -45 0 -31
-16 -31 -22 0 -6 31 1 42 32 55 40 16 47 12 18 -10z m6726 5 c19 -19 12 -34
-15 -34 -19 0 -27 29 -12 43 9 9 9 9 27 -9z m-5734 -27 c0 -25 -26 -67 -41
-67 -14 0 -11 29 8 61 21 35 33 37 33 6z m1057 -9 c-3 -7 -5 -2 -5 12 0 14 2
19 5 13 2 -7 2 -19 0 -25z m943 12 c0 -6 -38 -9 -97 -8 -95 1 -96 2 -33 8 105
11 130 11 130 0z m2250 -32 c0 -5 -4 -8 -10 -8 -5 0 -10 10 -10 23 0 18 2 19
10 7 5 -8 10 -18 10 -22z m-5548 -63 c-5 -32 -7 -66 -5 -75 5 -18 53 -35 53
-19 0 5 10 13 21 20 30 16 40 -5 21 -43 -19 -39 -27 -111 -15 -133 8 -14 12
-8 22 30 17 69 37 104 89 158 54 55 69 60 46 15 -21 -40 -44 -133 -42 -173 0
-16 2 -22 5 -12 2 9 8 17 13 17 5 0 7 -7 4 -15 -11 -28 4 -15 39 33 19 27 63
68 97 90 59 39 99 54 85 32 -3 -5 1 -10 10 -10 13 0 10 -9 -13 -42 -17 -25
-31 -60 -33 -85 l-4 -41 25 17 c60 42 61 40 3 -44 -18 -26 -17 -32 8 -38 16
-4 19 -10 14 -28 -7 -22 -6 -22 26 5 28 24 108 66 125 66 3 0 -11 -16 -30 -35
-53 -53 -60 -70 -32 -83 18 -8 22 -16 19 -36 -4 -19 -1 -26 10 -26 9 0 20 7
24 15 11 19 95 33 88 14 -5 -13 35 -15 136 -9 14 0 18 32 6 51 -10 16 -9 21 2
29 19 11 3 31 -42 55 -18 9 -43 23 -57 31 -14 7 -35 14 -47 14 -12 0 -25 5
-28 10 -3 6 -14 10 -24 10 -28 0 -39 69 -15 87 23 17 41 2 54 -46 9 -34 14
-39 55 -48 25 -6 45 -6 45 -2 0 5 11 9 25 9 20 0 25 5 25 26 0 14 -7 38 -16
54 -15 24 -15 31 -3 59 15 33 29 41 29 16 0 -8 5 -15 10 -15 6 0 10 -12 10
-27 0 -17 16 -49 41 -82 50 -66 79 -131 79 -177 0 -44 36 -115 61 -121 10 -3
19 -9 19 -13 0 -5 -15 -4 -32 2 -18 5 -41 12 -50 15 -10 3 -18 1 -18 -5 0 -6
-20 -20 -45 -32 -25 -12 -45 -26 -45 -32 0 -5 -7 -16 -15 -24 -17 -17 -21 -39
-5 -29 6 3 10 -3 10 -14 0 -15 6 -21 22 -21 21 0 21 0 2 15 -18 14 -18 14 7
15 21 0 25 -4 24 -22 -1 -13 -4 -21 -8 -18 -8 6 -36 -31 -37 -47 0 -19 33 -33
97 -40 122 -13 135 -11 158 24 27 43 37 41 19 -4 -24 -57 -87 -146 -112 -159
-12 -6 -41 -40 -63 -75 -23 -35 -61 -90 -85 -122 -24 -31 -44 -62 -44 -67 0
-6 -3 -10 -7 -10 -5 0 -19 -3 -32 -7 -18 -4 -22 -2 -19 8 3 9 -6 18 -25 24
-51 17 -42 30 18 27 38 -3 55 0 55 8 0 7 27 43 60 80 33 37 60 70 60 74 0 3
-20 6 -44 6 -25 0 -48 5 -52 11 -4 8 5 9 32 5 25 -3 50 0 69 9 17 8 21 13 10
10 -11 -2 -49 -5 -85 -6 -71 -2 -92 -7 -85 -19 8 -14 -49 -16 -176 -9 -111 7
-179 3 -344 -17 -27 -4 -48 -4 -45 -1 8 8 129 37 156 37 14 0 27 7 30 15 5 12
9 13 21 4 11 -10 57 -9 203 1 105 7 190 17 190 21 0 5 16 9 35 9 19 0 35 4 35
10 0 15 -46 23 -77 14 -16 -4 -35 -9 -43 -9 -8 -1 -17 -3 -20 -4 -3 -1 -47 -4
-99 -7 -96 -4 -136 1 -126 16 3 5 13 6 22 3 11 -4 14 -3 9 5 -9 15 -50 15 -79
1 -20 -9 -20 -9 -4 4 15 13 10 15 -46 21 -35 3 -77 3 -94 0 -17 -3 -63 -1
-102 6 -64 11 -76 10 -109 -6 -35 -16 -219 -40 -230 -30 -7 8 39 23 110 37 35
7 68 17 73 22 13 12 -114 1 -151 -14 -15 -5 -35 -7 -46 -3 -27 8 -5 33 30 33
15 -1 65 4 112 11 47 6 95 8 108 5 12 -3 37 2 55 12 l32 17 -135 23 c-74 12
-153 26 -174 29 -28 5 -37 4 -32 -4 4 -7 16 -12 26 -12 10 0 21 -4 25 -9 9
-16 -30 -31 -97 -37 l-63 -6 24 20 c26 21 20 47 -9 39 -23 -6 -50 10 -50 30 0
16 78 103 93 103 4 0 5 -15 2 -33 -9 -48 11 -60 93 -59 37 1 88 4 115 7 40 6
47 10 47 29 0 27 29 66 36 49 3 -7 12 -9 20 -6 11 4 6 15 -21 44 -19 22 -35
46 -35 54 0 8 -7 15 -15 15 -8 0 -15 5 -15 11 0 5 -4 7 -10 4 -5 -3 -7 0 -4 9
3 8 -1 27 -9 43 -9 18 -11 39 -7 60 9 39 2 83 -14 88 -6 2 -23 6 -38 9 -38 8
-72 66 -63 108 11 50 99 197 111 185 3 -2 1 -30 -4 -62z m716 32 c7 -7 18 -49
27 -92 8 -43 23 -94 33 -114 l19 -36 -40 2 c-30 1 -49 10 -73 34 -40 39 -46
60 -27 96 8 15 14 50 13 78 -1 27 -1 54 -1 58 1 10 34 -7 49 -26z m-389 -1
c-2 -2 -31 -13 -64 -25 l-60 -20 28 24 c19 17 40 25 64 25 20 0 34 -2 32 -4z
m618 -91 c-2 -29 -6 -35 -22 -33 -37 5 -26 68 11 68 10 0 13 -11 11 -35z
m3392 12 c6 -8 8 -17 4 -20 -7 -8 -33 11 -33 24 0 13 16 11 29 -4z m1196 3 c4
-6 4 -18 1 -27 -6 -14 -9 -14 -26 2 -11 10 -20 22 -20 27 0 12 38 10 45 -2z
m-1685 -111 c0 -5 -7 -9 -15 -9 -15 0 -20 12 -9 23 8 8 24 -1 24 -14z m-1760
-57 c0 -8 -1 -13 -3 -11 -1 2 -9 12 -16 22 -12 15 -12 17 3 11 9 -3 16 -13 16
-22z m-65 -2 c3 -5 -1 -10 -9 -10 -9 0 -16 5 -16 10 0 6 4 10 9 10 6 0 13 -4
16 -10z m3645 -35 c0 -13 -4 -27 -10 -30 -6 -4 -10 8 -10 30 0 22 4 34 10 30
6 -3 10 -17 10 -30z m-2539 -42 c1 -35 -1 -66 -4 -70 -4 -3 -7 27 -7 67 0 88
7 90 11 3z m-961 37 c-20 -13 -33 -13 -25 0 3 6 14 10 23 10 15 0 15 -2 2 -10z
m2255 -50 c3 -5 -1 -10 -9 -10 -9 0 -16 5 -16 10 0 6 4 10 9 10 6 0 13 -4 16
-10z m-3365 -57 c0 -5 -4 -15 -10 -23 -11 -18 -25 -7 -17 15 6 15 27 21 27 8z
m2020 -8 c-14 -7 -27 -11 -30 -9 -6 7 22 24 40 23 9 0 5 -6 -10 -14z m1529 -9
c-2 -2 -18 -7 -34 -10 l-30 -6 30 14 c26 12 46 14 34 2z m-3059 -6 c0 -13 -11
-13 -30 0 -12 8 -11 10 8 10 12 0 22 -4 22 -10z m-236 -11 c28 -13 43 -39 21
-39 -17 0 -75 49 -58 50 7 0 23 -5 37 -11z m1656 -20 c0 -3 -11 -4 -25 -1 -14
2 -25 10 -25 17 0 10 5 11 25 2 14 -7 25 -15 25 -18z m-205 11 c7 -11 -42 -26
-53 -16 -7 8 17 26 35 26 6 0 15 -4 18 -10z m455 -48 c0 -69 30 -327 45 -385
8 -32 15 -68 15 -80 -1 -22 -1 -22 -15 -3 -14 18 -15 13 -15 -56 0 -84 -16
-114 -24 -46 -27 219 -43 451 -35 513 4 39 8 78 8 88 1 35 21 5 21 -31z m2220
38 c0 -5 -2 -10 -4 -10 -3 0 -8 5 -11 10 -3 6 -1 10 4 10 6 0 11 -4 11 -10z
m-1329 -102 c11 -100 13 -522 3 -574 -5 -29 -4 -36 7 -32 8 3 27 1 43 -3 20
-6 44 -4 73 6 62 21 72 19 38 -9 -41 -34 -70 -39 -105 -21 -26 13 -34 14 -62
1 -18 -7 -44 -25 -57 -40 -29 -31 -40 -32 -74 -6 -14 11 -27 20 -30 20 -3 0
-8 -19 -12 -42 -4 -24 -13 -50 -21 -58 -8 -10 -14 -46 -16 -94 l-3 -79 -54
-14 c-30 -7 -70 -23 -88 -34 -24 -15 -43 -19 -64 -15 -32 6 -94 -19 -118 -48
-21 -25 -27 -19 -41 42 -7 31 -14 62 -17 68 -6 16 20 24 90 30 62 5 108 28
127 64 7 12 17 16 31 13 17 -5 20 -2 18 18 -5 38 18 67 62 80 55 17 68 43 37
76 l-23 25 25 -7 25 -7 -24 26 c-19 20 -21 26 -9 26 9 0 21 -7 28 -14 6 -8 26
-24 45 -34 l33 -20 12 61 c6 34 12 108 12 166 0 130 12 101 29 -67 18 -176 37
-132 55 133 1 11 2 119 3 239 0 121 4 217 7 213 4 -3 10 -43 15 -89z m1190 11
c49 -21 69 -47 27 -33 -51 15 -88 34 -88 43 0 15 4 14 61 -10z m-2372 -41 c0
-37 -3 -47 -8 -33 -8 19 -4 85 5 85 2 0 4 -24 3 -52z m111 30 c0 -6 -7 -7 -16
-4 -9 3 -18 6 -20 6 -3 0 -3 4 1 10 7 11 35 2 35 -12z m-1520 -3 c0 -8 -7 -15
-15 -15 -8 0 -15 7 -15 15 0 8 7 15 15 15 8 0 15 -7 15 -15z m1267 -47 c-2
-13 -4 -5 -4 17 -1 22 1 32 4 23 2 -10 2 -28 0 -40z m-1743 -3 c3 -8 1 -15 -3
-15 -5 0 -11 7 -15 15 -3 8 -1 15 3 15 5 0 11 -7 15 -15z m236 -15 c-6 -11
-13 -20 -16 -20 -2 0 0 9 6 20 6 11 13 20 16 20 2 0 0 -9 -6 -20z m1500 -115
l-7 -80 -1 95 c-1 55 2 89 7 80 4 -8 5 -51 1 -95z m-1500 -5 c0 -12 -3 -12
-16 2 -9 9 -13 21 -9 28 9 14 25 -5 25 -30z m1611 -35 c6 -39 11 -105 10 -147
-1 -43 1 -78 6 -78 4 0 23 14 41 31 17 16 32 24 32 17 0 -17 -56 -115 -71
-124 -7 -4 -25 7 -43 27 -16 19 -36 33 -44 31 -11 -3 -12 4 -7 27 5 23 2 32
-12 40 -49 28 -49 29 -20 53 24 21 26 27 17 58 -11 39 5 74 40 85 11 3 23 17
26 31 9 34 11 29 25 -51z m-1483 42 c2 -11 -3 -17 -17 -17 -25 0 -38 19 -20
31 19 12 33 6 37 -14z m4242 -27 c0 -5 -4 -10 -10 -10 -5 0 -10 5 -10 10 0 6
5 10 10 10 6 0 10 -4 10 -10z m-5745 -29 c-37 -15 -105 -23 -105 -13 0 12 29
19 85 20 30 1 35 -1 20 -7z m5683 -27 c-10 -10 -23 -14 -34 -10 -16 6 -16 8
-4 16 8 6 24 10 35 10 18 0 18 -1 3 -16z m-2600 -89 c0 -16 -2 -15 -8 5 -4 14
-8 34 -8 45 0 16 2 15 8 -5 4 -14 8 -34 8 -45z m2617 55 c3 -5 1 -10 -4 -10
-6 0 -11 5 -11 10 0 6 2 10 4 10 3 0 8 -4 11 -10z m-5267 -31 c9 -1 4 -5 -13
-9 l-30 -8 30 -1 c44 -2 76 -12 69 -22 -3 -5 -40 -6 -82 -3 -60 4 -74 3 -62
-6 13 -10 12 -11 -3 -6 -10 3 -58 6 -105 6 -77 0 -84 2 -62 13 58 29 181 51
228 40 8 -2 21 -4 30 -4z m5542 -10 c0 -15 -5 -20 -22 -17 -34 5 -37 38 -4 38
20 0 26 -5 26 -21z m-2742 -97 c-2 -34 -7 -47 -18 -47 -8 0 -14 6 -12 14 1 7
-2 19 -9 27 -8 10 -7 17 5 29 9 9 16 26 16 38 1 20 2 20 11 4 5 -9 9 -39 7
-65z m-3239 43 c-15 -8 -53 -18 -85 -21 -53 -7 -58 -6 -46 9 13 15 47 22 122
25 l35 1 -26 -14z m5722 -7 c43 -12 51 -33 18 -43 -14 -5 -29 0 -47 16 -15 13
-31 27 -36 31 -15 12 21 10 65 -4z m-4493 -4 c43 -12 21 -22 -53 -26 -41 -2
-75 -1 -75 3 0 25 71 38 128 23z m2710 -19 c10 -21 9 -25 -6 -25 -22 0 -74 34
-65 43 3 4 18 7 33 7 19 0 30 -7 38 -25z m-1154 -51 c-7 -38 33 -164 51 -164
11 0 12 7 4 32 -11 39 -12 84 -1 74 4 -4 14 -27 22 -52 19 -54 33 -57 42 -7 5
21 11 49 14 63 6 23 7 24 14 5 5 -11 9 -37 9 -58 1 -32 4 -38 21 -35 33 5 27
-16 -7 -27 -18 -5 -33 -13 -33 -17 0 -8 68 -23 89 -19 7 1 11 -1 8 -6 -3 -5
15 -17 39 -27 24 -10 44 -21 44 -25 0 -16 -13 -19 -26 -6 -10 9 -42 13 -111
13 -96 0 -97 0 -76 -18 12 -9 19 -20 16 -24 -10 -10 -103 -7 -103 4 0 19 -28
10 -43 -13 -14 -22 -13 -24 14 -43 16 -10 29 -24 29 -31 0 -6 10 -19 22 -27
32 -23 20 -26 -42 -10 -64 17 -96 18 -105 4 -3 -5 -2 -10 3 -10 5 0 19 -22 31
-50 15 -35 31 -55 54 -66 17 -9 39 -22 47 -29 8 -7 31 -15 50 -18 19 -3 58
-13 85 -21 l50 -16 -48 6 c-45 5 -243 -14 -234 -23 3 -2 38 -8 78 -12 77 -9
189 -46 189 -62 0 -5 -30 -9 -67 -9 -38 -1 -86 -8 -108 -17 -22 -8 -66 -20
-97 -26 -54 -10 -58 -9 -75 12 -17 21 -21 22 -67 10 -45 -11 -47 -13 -25 -21
l24 -9 -33 -21 c-37 -23 -88 -25 -247 -8 -114 13 -148 20 -157 33 -4 7 -12 6
-22 -3 -13 -10 -39 -11 -114 -6 -53 4 -113 11 -132 15 l-35 9 31 1 c62 2 124
14 124 24 0 6 -32 7 -87 3 -49 -3 -133 -8 -188 -11 l-100 -6 50 21 c33 14 70
21 111 21 33 -1 82 6 110 14 27 8 75 17 107 21 38 4 57 11 57 20 0 8 -2 14 -4
14 -2 0 -39 9 -82 19 -44 11 -88 19 -99 18 -11 0 -54 0 -95 2 l-75 2 45 16
c30 10 61 13 97 9 54 -6 109 7 98 24 -13 22 108 44 250 45 77 1 165 6 196 12
32 7 71 8 91 4 18 -4 44 -4 56 0 29 11 52 1 52 -23 0 -13 14 -25 42 -38 53
-24 64 -15 52 42 l-9 43 -85 2 c-47 1 -119 6 -161 10 -81 9 -103 7 -93 -8 9
-15 -23 -10 -36 6 -9 11 -33 15 -84 15 -39 0 -78 4 -86 10 -9 5 46 8 150 8
170 -2 262 10 296 38 17 14 14 14 -36 8 -30 -4 -131 -7 -224 -7 -151 1 -167
-1 -145 -14 22 -12 17 -13 -53 -8 -43 4 -100 13 -128 20 -33 9 -69 11 -105 6
-90 -12 -75 -21 36 -21 79 -1 100 -3 86 -11 -11 -7 -108 -12 -240 -14 -128 -2
-207 0 -187 4 19 5 75 18 123 29 55 13 98 28 112 42 19 18 30 20 61 14 22 -3
46 -10 55 -15 24 -12 177 -20 184 -9 4 6 22 10 41 10 36 0 73 16 87 38 6 9 27
10 75 6 69 -6 124 8 130 34 3 17 -66 15 -98 -3 -14 -8 -34 -14 -45 -14 l-20 0
20 9 c17 8 15 9 -10 8 -16 -1 -47 -1 -67 0 -36 2 -37 3 -35 40 2 30 7 38 26
40 13 2 32 -5 45 -17 17 -16 35 -21 67 -20 24 1 63 -3 86 -9 33 -7 45 -6 54 4
17 20 3 44 -25 44 -40 0 -39 17 2 23 20 4 74 25 119 47 51 25 96 40 120 40 37
1 39 2 72 72 28 57 36 67 42 52 4 -10 5 -33 3 -50z m1971 57 c15 -6 11 -9 -20
-13 -22 -3 -48 -9 -58 -13 -13 -5 -16 -3 -11 8 9 24 52 32 89 18z m-195 -10
c0 -18 -32 -41 -56 -41 -30 0 -31 23 -1 38 28 13 57 15 57 3z m-2356 -43 c6
-4 34 -8 61 -8 28 0 57 -5 65 -10 13 -8 13 -11 -2 -26 -16 -16 -18 -16 -24 -1
-3 9 -15 17 -25 17 -16 0 -19 -7 -19 -42 0 -24 4 -50 10 -58 5 -9 5 -19 -2
-27 -7 -9 -7 -13 1 -13 6 0 11 -4 11 -8 0 -9 -47 -8 -57 1 -3 4 1 7 10 7 10 0
17 8 17 19 0 32 -11 51 -30 51 -10 0 -21 8 -23 18 -8 28 -17 118 -10 102 3 -8
11 -18 17 -22z m-694 13 c0 -5 -8 -18 -17 -30 -15 -17 -33 -21 -113 -26 -93
-5 -94 -5 -47 8 74 22 68 28 -21 26 -102 -2 -117 7 -25 16 37 3 77 7 88 9 46
7 135 5 135 -3z m-1247 -8 c-7 -2 -19 -2 -25 0 -7 3 -2 5 12 5 14 0 19 -2 13
-5z m1812 -53 c14 -27 25 -51 25 -54 0 -2 -17 12 -37 30 -26 24 -46 34 -70 34
-18 0 -33 5 -33 10 0 6 18 10 40 10 22 0 40 5 40 10 0 20 10 9 35 -40z m-2053
21 c-73 -25 -74 -31 -7 -31 32 0 56 -2 54 -4 -7 -7 -163 -25 -169 -20 -2 3 1
9 9 13 8 5 -3 11 -30 15 -53 8 -36 25 26 26 22 1 58 5 80 9 73 15 93 11 37 -8z
m1161 2 c-7 -2 -19 -2 -25 0 -7 3 -2 5 12 5 14 0 19 -2 13 -5z m4347 -19 c0
-8 -4 -14 -10 -14 -5 0 -10 9 -10 21 0 11 5 17 10 14 6 -3 10 -13 10 -21z
m-3651 0 c-12 -15 -10 -16 21 -9 31 7 33 6 21 -9 -7 -9 -20 -16 -29 -16 -8 0
-22 -7 -31 -15 -74 -70 -102 -85 -161 -85 -33 0 -62 5 -65 10 -4 6 6 10 23 10
32 0 124 41 105 47 -17 6 48 71 77 76 52 9 54 8 39 -9z m-623 0 c16 -4 19 -11
16 -35 -5 -35 -15 -42 -54 -41 -25 1 -27 -2 -17 -14 10 -12 9 -13 -5 -8 -24 9
-22 64 3 64 14 0 18 5 14 20 -6 21 5 24 43 14z m-393 -11 c-7 -2 -19 -2 -25 0
-7 3 -2 5 12 5 14 0 19 -2 13 -5z m2387 -13 c10 -5 32 -35 48 -65 29 -52 29
-56 12 -65 -31 -17 -49 -11 -65 19 -8 17 -27 36 -42 43 -55 27 -57 78 -3 78
17 0 40 -4 50 -10z m-2892 -15 c1 -1 -15 -14 -36 -29 -49 -34 -112 -37 -112
-5 0 19 -4 20 -47 15 -235 -27 -321 -31 -302 -11 3 2 63 13 134 24 99 15 157
19 245 14 63 -3 116 -6 118 -8z m277 5 c3 -5 -2 -10 -13 -10 -10 0 -27 -9 -37
-20 -17 -19 -17 -20 25 -26 l42 -7 -38 -13 c-29 -10 -49 -11 -80 -3 l-42 11
31 27 c56 49 98 64 112 41z m131 -1 c3 -6 0 -17 -8 -25 -13 -13 -16 -13 -28 1
-12 14 -11 18 1 26 19 12 26 11 35 -2z m255 -50 c-9 -9 -18 -15 -20 -13 -2 2
-13 -3 -23 -13 -25 -23 -23 -8 8 45 26 44 26 44 38 21 10 -20 10 -27 -3 -40z
m419 50 c0 -5 -56 -49 -63 -49 -8 0 -47 38 -47 46 0 5 25 9 55 9 30 0 55 -3
55 -6z m4370 -19 c0 -5 -9 -10 -19 -10 -11 0 -23 5 -26 10 -4 6 5 10 19 10 14
0 26 -4 26 -10z m-4660 -4 c0 -3 -4 -8 -10 -11 -5 -3 -10 -1 -10 4 0 6 5 11
10 11 6 0 10 -2 10 -4z m4957 -2 c-3 -3 -12 -4 -19 -1 -8 3 -5 6 6 6 11 1 17
-2 13 -5z m-5387 -24 c14 -27 -9 -27 -41 0 l-24 19 27 1 c17 0 31 -7 38 -20z
m5454 13 c3 -4 12 -8 19 -9 7 -1 39 -9 72 -18 l60 -15 -65 3 c-59 3 -140 26
-140 40 0 8 45 7 54 -1z m2374 0 c-10 -2 -26 -2 -35 0 -10 3 -2 5 17 5 19 0
27 -2 18 -5z m95 0 c-7 -2 -21 -2 -30 0 -10 3 -4 5 12 5 17 0 24 -2 18 -5z
m-5473 -11 c0 -5 -23 -14 -52 -22 l-52 -13 34 -28 c19 -16 28 -29 21 -29 -17
0 -52 19 -78 43 -22 19 -22 22 -6 39 12 13 31 18 75 18 32 0 58 -4 58 -8z
m6245 -3 c17 -1 16 -2 -5 -9 -36 -11 -136 -12 -124 -1 11 11 62 20 89 15 11
-2 29 -4 40 -5z m-5874 -20 c63 -16 96 -19 148 -14 59 6 69 4 94 -15 15 -12
27 -26 27 -31 0 -14 -26 -11 -39 5 -21 25 -67 29 -97 10 -15 -10 -22 -20 -15
-22 28 -9 7 -19 -28 -12 -21 4 -52 5 -68 3 -24 -4 -35 2 -61 31 -17 20 -41 36
-52 36 -12 0 -18 -4 -15 -10 7 -11 -9 -13 -43 -4 l-23 7 28 18 c37 23 48 23
144 -2z m-3346 -9 c-16 -4 -46 -8 -65 -8 l-35 0 30 8 c17 4 46 8 65 8 l35 0
-30 -8z m83 3 c-10 -2 -26 -2 -35 0 -10 3 -2 5 17 5 19 0 27 -2 18 -5z m8217
-3 c-3 -5 -13 -10 -21 -10 -8 0 -12 5 -9 10 3 6 13 10 21 10 8 0 12 -4 9 -10z
m-7406 -18 c9 -16 3 -22 -43 -41 -50 -20 -72 -21 -124 -5 -27 8 16 34 57 34
23 0 46 6 53 15 18 20 45 19 57 -3z m7637 -3 c38 -12 112 -28 164 -35 92 -12
89 -13 -90 -6 -102 4 -228 6 -280 5 -85 -1 -90 -1 -43 8 29 5 67 18 85 29 42
26 79 25 164 -1z m-8262 -8 c-5 -6 -29 -11 -54 -14 -25 -2 18 -1 95 1 196 6
169 -14 -65 -48 -30 -5 -109 -9 -175 -9 -96 0 -117 2 -104 12 9 7 14 17 12 24
-3 7 9 13 29 16 18 2 6 4 -27 4 -130 -1 -195 3 -195 13 0 6 89 10 247 10 154
0 243 -4 237 -9z m756 -1 c0 -5 -13 -10 -29 -10 -17 0 -33 5 -36 10 -4 6 8 10
29 10 20 0 36 -4 36 -10z m795 -10 c-68 -30 -89 -35 -82 -17 4 10 -1 17 -11
20 -9 3 -1 3 18 2 19 -1 44 1 55 6 42 16 60 7 20 -11z m-294 -10 c39 0 36 -13
-6 -36 -20 -10 -33 -24 -31 -30 2 -6 1 -15 -2 -20 -9 -12 -71 -44 -85 -44 -12
0 -57 40 -57 50 0 7 45 28 105 49 26 10 22 11 -31 7 -64 -4 -101 6 -68 18 9 3
25 4 35 1 10 -4 27 -1 36 4 10 6 31 9 47 6 16 -3 41 -5 57 -5z m2089 -30 c24
-8 24 -8 -5 -9 -16 0 -37 4 -45 9 -12 8 -11 10 5 9 11 -1 31 -5 45 -9z m4085
1 c-12 -10 -167 -48 -240 -58 l-50 -7 40 -4 c75 -6 62 -22 -18 -22 -62 0 -77
3 -77 15 0 8 9 15 20 15 11 0 20 4 20 9 0 13 55 30 147 45 93 16 171 20 158 7z
m1385 -1 c-8 -5 -33 -10 -55 -10 -22 0 -69 -7 -105 -16 -38 -9 -81 -12 -103
-8 l-39 6 26 13 c33 17 67 21 191 23 68 1 95 -1 85 -8z m-7765 -10 c-11 -5
-42 -8 -70 -8 -39 0 -45 2 -25 8 36 11 122 11 95 0z m7404 -6 c13 -12 -25 -17
-186 -25 -255 -14 -308 -20 -293 -29 11 -7 11 -11 0 -24 -20 -25 -222 -12
-367 22 -190 44 -135 54 292 53 176 -1 336 -4 355 -8 31 -5 34 -4 22 10 -12
14 -5 15 80 10 51 -3 95 -7 97 -9z m-1386 -11 c-7 -2 -19 -2 -25 0 -7 3 -2 5
12 5 14 0 19 -2 13 -5z m-6532 -12 c-7 -5 -10 -14 -7 -20 4 -6 4 -11 -1 -12
-4 0 -28 -2 -53 -4 -38 -4 -42 -3 -25 7 11 6 26 18 33 25 7 7 25 13 40 13 19
0 23 -3 13 -9z m-446 -11 c4 -6 -16 -10 -52 -10 -41 0 -54 3 -43 10 20 13 87
13 95 0z m168 3 c7 -7 -39 -53 -54 -53 -5 0 -9 5 -9 10 0 6 -10 15 -22 19
l-23 9 25 10 c29 12 74 15 83 5z m2870 -18 c59 -4 113 -28 102 -45 -4 -6 -13
-7 -23 -1 -9 4 -52 16 -94 25 -43 10 -78 22 -78 28 0 6 7 7 18 3 9 -4 43 -9
75 -10z m-2083 -10 c10 -12 9 -16 -3 -21 -26 -10 -62 0 -65 19 -3 13 3 17 26
17 16 0 35 -7 42 -15z m2035 -70 c12 -33 34 -88 49 -122 37 -90 35 -121 -9
-90 -13 10 -16 22 -13 41 4 22 1 30 -19 39 -13 6 -22 16 -19 23 3 7 -2 15 -10
18 -32 12 -62 5 -109 -26 l-48 -32 -38 22 c-21 12 -50 22 -64 22 -37 0 -90 29
-77 42 11 11 75 -5 100 -25 7 -5 14 -8 15 -6 1 2 9 12 16 21 11 15 10 21 -8
44 -37 47 -13 54 74 20 38 -14 145 -22 145 -11 0 3 -7 22 -15 42 -18 43 -18
46 -4 41 6 -2 22 -31 34 -63z m5835 55 c0 -5 -24 -10 -54 -10 -30 0 -89 -5
-131 -11 -42 -6 -118 -12 -168 -14 -51 -3 -113 -7 -139 -11 -32 -4 -48 -2 -48
5 0 13 -57 15 -62 2 -1 -5 -28 -12 -58 -16 -55 -7 -55 -7 -37 13 29 32 180 46
525 50 109 1 172 -2 172 -8z m180 -5 c0 -15 -34 -69 -37 -59 -5 16 15 64 27
64 5 0 10 -2 10 -5z m-5990 -24 c0 -11 3 -28 6 -38 5 -12 4 -15 -4 -8 -16 15
-26 65 -13 65 6 0 11 -9 11 -19z m1277 -10 c103 -29 218 -71 333 -120 36 -16
83 -34 105 -41 98 -31 105 -41 36 -54 -27 -5 -32 -3 -27 9 3 9 0 15 -9 15 -8
0 -15 -4 -15 -10 0 -5 -13 -10 -30 -10 -16 0 -30 5 -30 10 0 11 -30 13 -54 4
-9 -3 -16 -12 -16 -20 0 -8 -5 -14 -11 -14 -23 0 4 -20 42 -32 26 -7 43 -8 47
-2 4 6 19 4 40 -6 32 -16 30 -16 -85 -17 -122 0 -259 -16 -393 -44 -3 -1 6 -5
20 -10 17 -6 0 -7 -49 -4 -73 5 -151 31 -166 55 -5 8 -2 10 11 7 81 -24 104
-26 154 -17 57 11 76 20 42 20 -12 0 -45 9 -74 19 -29 11 -62 21 -72 23 -12 2
-20 12 -21 26 -1 16 2 21 13 17 56 -21 103 -26 137 -15 l37 12 -49 44 c-38 34
-45 45 -34 53 8 5 20 7 27 4 6 -2 15 0 19 6 3 6 15 11 26 11 28 0 23 25 -7 39
-15 6 -24 15 -20 18 8 8 -25 32 -46 33 -9 0 -20 5 -23 10 -11 18 39 11 142
-19z m4580 23 c-3 -3 -12 -4 -19 -1 -8 3 -5 6 6 6 11 1 17 -2 13 -5z m-2627
-24 c91 -18 110 -62 33 -73 -12 -2 -26 -6 -29 -10 -12 -12 -34 -8 -34 6 0 6
-14 20 -30 29 -22 12 -30 25 -30 44 0 24 3 25 28 19 15 -4 43 -11 62 -15z
m1524 -10 c-15 -15 -66 -28 -84 -22 -9 4 0 11 25 18 52 16 72 17 59 4z m-3890
-32 c8 -13 6 -21 -7 -36 -23 -25 -21 -30 8 -24 13 2 33 1 42 -3 17 -6 17 -7
-1 -20 -10 -8 -22 -12 -26 -10 -4 3 -5 -15 -3 -39 l5 -44 -61 -31 c-33 -17
-61 -36 -61 -41 0 -5 -12 -13 -27 -16 -16 -4 -56 -20 -90 -35 -34 -15 -64 -25
-67 -22 -2 3 -38 5 -78 4 -41 -1 -100 6 -132 14 -41 11 -81 14 -130 9 -39 -3
-82 -1 -96 4 -23 9 -21 10 25 17 28 3 77 15 110 25 33 11 83 22 110 26 28 3
61 13 74 21 13 9 69 28 125 44 55 15 102 32 104 37 8 25 31 45 53 46 29 1 52
41 38 68 -11 20 1 24 19 6 9 -9 12 -8 12 6 0 22 38 18 54 -6z m4549 5 c-13 -2
-33 -2 -45 0 -13 2 -3 4 22 4 25 0 35 -2 23 -4z m-7957 -13 c109 0 138 -13 54
-25 -60 -8 -276 15 -258 27 7 5 33 6 57 3 24 -3 90 -5 147 -5z m8322 3 c-15
-2 -42 -2 -60 0 -18 2 -6 4 27 4 33 0 48 -2 33 -4z m-237 -23 c10 -6 19 -16
19 -21 0 -11 -30 -8 -105 8 l-30 7 35 7 c53 10 60 10 81 -1z m-7076 -9 c7 -13
-15 -19 -105 -31 -118 -15 -171 -11 -70 6 47 8 101 18 120 23 48 12 48 12 55
2z m4633 -34 c41 -37 29 -52 -41 -52 -66 1 -107 10 -107 26 0 5 11 9 24 9 14
0 28 5 31 10 3 6 15 10 26 10 10 0 18 3 18 8 -5 28 9 25 49 -11z m2616 17 c9
-3 16 -10 16 -14 0 -8 -67 4 -77 14 -8 8 41 8 61 0z m-3984 -25 c0 -12 -37
-12 -44 0 -3 4 -3 11 0 14 8 7 44 -4 44 -14z m-4080 -18 c0 -13 -37 -24 -50
-16 -6 4 -8 11 -5 16 8 12 55 12 55 0z m5741 -17 c43 -22 34 -44 -26 -60 -27
-7 -54 -9 -58 -5 -11 11 24 81 40 81 8 0 28 -7 44 -16z m-3911 -9 c103 -2 103
-2 32 -31 l-62 -25 -53 19 c-30 10 -68 17 -85 14 -20 -3 -32 0 -32 7 0 19 43
31 85 24 22 -4 74 -7 115 -8z m-2020 -20 c-13 -14 -26 -23 -28 -20 -7 7 29 45
41 45 6 0 0 -11 -13 -25z m475 5 c8 -13 -75 -13 -95 0 -11 7 0 10 37 10 28 0
55 -4 58 -10z m5075 -10 c13 -8 13 -10 -2 -10 -9 0 -20 5 -23 10 -8 13 5 13
25 0z m2703 -18 c24 -21 21 -32 -8 -32 -15 0 -25 6 -25 14 0 7 -14 16 -31 20
-17 3 -28 10 -25 14 8 13 68 2 89 -16z m-7920 11 c-7 -2 -21 -2 -30 0 -10 3
-4 5 12 5 17 0 24 -2 18 -5z m2625 -11 c2 -7 -3 -12 -12 -12 -9 0 -16 7 -16
16 0 17 22 14 28 -4z m-2705 1 c-13 -2 -33 -2 -45 0 -13 2 -3 4 22 4 25 0 35
-2 23 -4z m4266 -7 c8 -10 8 -16 -3 -25 -10 -9 -16 -8 -26 3 -12 15 -6 36 9
36 5 0 14 -6 20 -14z m-334 -16 c3 -6 -1 -7 -9 -4 -18 7 -21 14 -7 14 6 0 13
-4 16 -10z m2579 1 c-22 -4 -65 -4 -95 0 -45 5 -38 6 41 6 65 0 82 -2 54 -6z
m-894 -21 c0 -5 -5 -10 -11 -10 -5 0 -7 5 -4 10 3 6 8 10 11 10 2 0 4 -4 4
-10z m1145 -15 c72 -8 157 -15 190 -16 l60 -1 -45 -10 c-81 -17 -260 -14 -304
5 -21 9 -49 17 -61 17 -31 0 -55 10 -55 22 0 6 16 8 43 4 23 -4 101 -13 172
-21z m-4535 11 c0 -3 -4 -8 -10 -11 -5 -3 -10 -1 -10 4 0 6 5 11 10 11 6 0 10
-2 10 -4z m938 -30 c6 -27 -11 -38 -33 -22 -17 12 -17 16 -6 30 17 20 35 16
39 -8z m2997 -4 l50 -6 -65 -7 c-36 -4 -101 -5 -145 -3 l-80 3 65 -13 65 -13
-60 -4 -60 -5 43 -8 c23 -5 42 -12 42 -16 0 -8 -83 8 -170 33 -30 9 -77 20
-105 24 l-50 8 75 6 c97 8 331 8 395 1z m-1385 -27 c0 -17 -9 -29 -30 -40 -34
-18 -137 -20 -142 -3 -2 6 -35 14 -74 18 -58 6 -47 7 73 9 132 1 142 2 148 21
9 28 25 25 25 -5z m2190 -17 c12 -8 11 -8 -3 -4 -10 3 -34 6 -53 6 -22 0 -33
4 -29 11 7 11 60 3 85 -13z m-80 -22 c0 -3 -4 -8 -10 -11 -5 -3 -10 -1 -10 4
0 6 5 11 10 11 6 0 10 -2 10 -4z m-4497 -30 c1 -6 -12 -13 -29 -18 -17 -4 -37
-15 -44 -23 -16 -19 -30 -19 -30 -1 0 36 95 74 103 42z m1310 -12 c9 -10 -21
-62 -42 -74 -13 -6 -35 -6 -68 1 -26 5 -72 9 -101 9 l-52 -1 12 25 c13 29 41
33 116 16 38 -9 47 -8 69 10 25 20 54 26 66 14z m186 -30 c2 -2 -4 -7 -14 -10
-9 -4 -38 0 -63 9 l-47 16 60 -6 c33 -3 62 -7 64 -9z m105 -15 c17 -21 24 -22
133 -16 72 4 112 3 108 -3 -3 -6 -36 -10 -73 -11 -37 0 -89 -4 -116 -8 -38 -6
-53 -5 -64 5 -7 8 -18 14 -23 14 -5 0 -9 9 -9 20 0 26 21 25 44 -1z m857 -7
c-16 -5 -41 5 -41 17 0 7 10 6 26 -1 15 -7 21 -14 15 -16z m-2112 -1 c19 -12
1 -21 -61 -28 -78 -8 -43 21 42 36 3 0 11 -3 19 -8z m219 -8 c-21 -2 -57 -2
-80 0 -24 2 -7 4 37 4 44 0 63 -2 43 -4z m2272 -5 c-9 -3 -39 -9 -66 -13 -27
-4 -74 -13 -104 -20 -84 -20 -268 -37 -324 -29 l-50 6 45 17 c46 18 132 38
184 45 52 6 334 1 315 -6z m-2140 -8 c8 -5 11 -10 5 -10 -5 0 -17 5 -25 10 -8
5 -10 10 -5 10 6 0 17 -5 25 -10z m863 -27 c-7 -2 -21 -2 -30 0 -10 3 -4 5 12
5 17 0 24 -2 18 -5z m-43 -13 c25 -13 370 -22 370 -10 0 13 37 13 45 1 3 -5
19 -12 35 -16 17 -4 30 -11 30 -16 0 -6 -72 -7 -187 -3 -186 7 -324 -3 -401
-27 -18 -6 -89 -12 -158 -12 -107 -2 -121 0 -97 10 24 11 11 12 -87 11 -120
-2 -289 19 -370 47 l-45 15 40 -5 c22 -4 83 -13 135 -21 52 -9 150 -18 217
-21 105 -4 131 -2 185 15 35 12 97 24 138 27 41 4 77 9 79 11 8 8 52 4 71 -6z
m1269 -14 c-2 -2 -67 -5 -144 -8 -77 -3 -120 -2 -95 2 48 7 246 13 239 6z
m-736 -161 c39 5 47 -4 22 -25 -10 -8 -33 -10 -75 -5 -41 5 -60 4 -60 -4 0
-13 -49 -15 -68 -2 -10 6 -6 14 17 34 30 25 31 25 78 11 27 -9 64 -13 86 -9z
m-2153 5 c10 -7 -4 -8 -45 -4 -33 4 -62 8 -64 10 -10 9 96 3 109 -6z m240 -10
c29 -23 22 -24 -32 -8 -26 8 -35 14 -26 20 19 12 30 10 58 -12z m348 -6 c27
-8 -1 -24 -42 -24 -41 0 -101 21 -91 32 5 5 112 -1 133 -8z m1192 -24 c0 -5
-4 -10 -10 -10 -5 0 -10 5 -10 10 0 6 5 10 10 10 6 0 10 -4 10 -10z m140 0 c0
-6 -11 -8 -27 -4 -40 10 -41 14 -5 14 18 0 32 -5 32 -10z m-1115 -139 c3 -5 1
-13 -5 -16 -15 -9 -43 3 -35 15 8 13 32 13 40 1z m1875 -66 c6 -8 9 -19 5 -25
-8 -13 -192 -13 -200 0 -4 6 6 10 22 10 15 0 46 7 68 15 52 18 90 19 105 0z
m80 -15 c-20 -13 -40 -13 -40 0 0 6 12 10 28 10 21 0 24 -2 12 -10z m-1490
-308 c57 -43 44 -146 -23 -173 -111 -46 -209 38 -160 138 30 62 122 80 183 35z
m568 22 c15 -4 22 -14 22 -30 0 -13 -4 -24 -10 -24 -5 0 -10 7 -10 15 0 20
-46 30 -65 15 -33 -27 -12 -50 58 -65 16 -3 32 -16 39 -31 10 -20 8 -29 -8
-51 -39 -52 -136 -52 -142 0 -2 15 1 27 7 27 6 0 11 -7 11 -15 0 -36 81 -44
94 -8 9 22 -9 37 -61 52 -33 9 -44 18 -49 38 -14 55 46 95 114 77z m603 -12
c3 -4 3 -18 -1 -32 -6 -25 -7 -25 -14 -3 -14 43 -111 39 -135 -6 -20 -37 -13
-81 18 -112 30 -29 46 -34 75 -23 22 8 21 51 -1 57 -10 3 2 5 27 6 l46 1 -4
-34 c-4 -32 -7 -35 -52 -45 -44 -10 -72 -6 -123 14 -21 9 -47 55 -47 84 0 68
70 116 155 106 28 -4 53 -9 56 -13z m-2571 -19 c-1 -25 -2 -26 -14 -10 -7 9
-23 17 -35 17 -18 0 -21 -6 -22 -47 -3 -76 2 -117 15 -125 6 -4 -14 -7 -44 -7
-30 1 -47 3 -37 6 14 4 17 17 17 89 l0 84 -30 0 c-22 0 -30 -5 -30 -17 -1 -17
-1 -17 -11 0 -18 30 0 37 97 37 l94 0 0 -27z m148 13 c-11 -8 -18 -26 -18 -45
0 -31 1 -31 50 -31 49 0 50 0 50 31 0 19 -7 37 -17 45 -16 12 -11 13 37 14 42
0 51 -3 42 -12 -17 -17 -16 -175 1 -181 6 -3 -13 -5 -43 -5 -30 0 -47 2 -37 5
14 4 17 13 15 46 l-3 42 -45 0 -45 0 -3 -42 c-2 -33 1 -42 15 -46 10 -3 -7 -5
-37 -5 -30 0 -49 2 -42 5 15 6 17 173 2 173 -5 0 -10 5 -10 10 0 6 24 10 53
10 45 -1 50 -2 35 -14z m372 -6 c0 -11 -4 -20 -10 -20 -5 0 -10 5 -10 10 0 6
-16 10 -35 10 -33 0 -35 -2 -35 -35 0 -32 3 -35 29 -35 16 0 32 6 34 13 3 6 5
-4 5 -23 0 -19 -2 -29 -5 -22 -2 6 -18 12 -34 12 -26 0 -29 -3 -29 -35 0 -34
1 -35 40 -35 30 0 40 4 40 16 0 8 4 13 9 10 5 -3 7 -15 4 -26 -5 -18 -14 -20
-77 -20 l-71 0 3 90 c2 59 0 90 -7 90 -6 0 -11 5 -11 10 0 6 33 10 80 10 73 0
80 -2 80 -20z m349 -7 c-1 -17 -3 -21 -6 -10 -3 11 -14 17 -34 17 l-29 0 0
-84 c0 -72 3 -85 18 -89 9 -3 -8 -5 -38 -5 -30 0 -49 2 -42 5 8 3 12 31 12 89
0 82 0 84 -25 84 -13 0 -29 -8 -34 -17 -9 -15 -10 -14 -11 10 l0 27 95 0 95 0
-1 -27z m229 15 c18 -18 14 -45 -9 -67 l-22 -20 37 -50 36 -51 -28 0 c-21 0
-34 11 -59 50 -37 57 -38 60 -18 60 18 0 37 34 29 54 -7 17 -42 31 -52 21 -4
-4 -7 -42 -7 -86 0 -60 4 -82 15 -89 10 -7 -2 -10 -40 -10 -42 1 -51 3 -37 11
14 8 17 25 17 94 0 71 -3 84 -17 88 -10 3 18 5 63 6 50 1 84 -3 92 -11z m488
-34 l27 -46 28 46 c16 25 34 46 39 46 15 0 13 -7 -25 -61 -39 -58 -47 -111
-17 -128 13 -8 4 -10 -38 -10 -42 0 -51 2 -37 10 27 16 22 70 -13 118 -17 23
-37 44 -45 48 -27 10 -16 23 20 23 30 0 37 -5 61 -46z m648 -41 c21 -49 46
-93 55 -100 13 -10 6 -12 -39 -13 -34 0 -50 4 -41 9 8 5 11 16 6 30 -9 29 -79
30 -95 2 -8 -16 -6 -22 7 -30 15 -8 11 -10 -20 -11 l-38 0 20 26 c12 15 21 30
21 34 0 22 61 140 72 140 7 0 31 -39 52 -87z m580 5 c21 -46 45 -91 53 -100
15 -17 13 -18 -38 -18 -42 1 -50 3 -36 11 13 8 15 14 7 30 -16 28 -86 27 -95
-2 -5 -14 -2 -25 6 -30 9 -6 1 -9 -24 -9 -33 0 -36 2 -24 14 7 8 31 53 52 100
21 47 44 86 50 86 7 0 29 -37 49 -82z m-3161 -34 c15 -16 -8 -34 -44 -34 -37
0 -51 15 -32 33 8 9 68 9 76 1z m3457 -9 c0 -11 -12 -15 -45 -15 -35 0 -43 3
-39 15 4 10 20 15 45 15 28 0 39 -4 39 -15z"/>
<path d="M4227 5913 c-3 -5 -5 -173 -6 -375 l0 -368 94 0 c244 0 412 54 515
167 133 145 103 371 -64 477 -72 47 -154 75 -265 91 -102 16 -267 20 -274 8z"/>
<path d="M5266 4239 c-21 -17 -26 -29 -26 -65 0 -42 24 -84 48 -84 5 0 24 32
42 71 32 69 33 72 15 85 -26 19 -48 17 -79 -7z"/>
<path d="M5361 4132 c-26 -37 -26 -46 -1 -39 13 3 20 0 20 -8 0 -7 -13 -16
-30 -20 -33 -7 -40 -31 -38 -120 1 -27 -5 -78 -12 -113 -9 -43 -10 -66 -3 -70
16 -11 33 -49 33 -74 0 -13 7 -33 15 -44 14 -18 14 -18 16 6 1 14 0 35 0 46
-1 12 9 41 22 65 19 34 22 50 16 68 -6 13 -6 28 -1 35 13 16 24 66 15 66 -5 0
-8 47 -8 104 0 121 -11 144 -44 98z"/>
<path d="M5180 3243 c-3 -23 -2 -39 3 -34 5 5 7 24 5 42 -3 33 -4 33 -8 -8z"/>
<path d="M5476 2998 c-3 -24 -8 -117 -11 -208 -4 -129 -3 -161 7 -145 7 12 13
87 15 207 4 181 0 234 -11 146z"/>
<path d="M5521 2460 c-1 -8 -4 -26 -7 -40 -5 -22 -4 -23 6 -7 6 10 9 28 7 40
-2 12 -5 15 -6 7z"/>
<path d="M5214 2390 c4 -28 11 -62 17 -77 9 -23 13 -25 51 -19 36 6 40 5 28
-9 -10 -12 -10 -15 4 -15 9 0 16 -4 16 -10 0 -11 52 -13 96 -4 29 6 84 75 84
106 0 15 -26 18 -48 4 -9 -5 -12 3 -12 30 l0 37 -24 -22 c-22 -21 -30 -22 -86
-16 -40 5 -69 14 -81 26 -10 10 -26 19 -35 19 -14 0 -16 -8 -10 -50z"/>
<path d="M5640 2420 c0 -6 -18 -17 -40 -26 -24 -10 -40 -23 -40 -33 0 -9 -9
-27 -20 -41 -11 -14 -20 -31 -20 -38 0 -9 -7 -11 -19 -7 -23 7 -39 -14 -20
-26 21 -13 23 -12 44 24 23 39 34 50 62 65 33 18 41 15 60 -20 l17 -33 6 40
c4 22 9 49 13 61 6 16 2 23 -18 32 -15 7 -25 8 -25 2z"/>
<path d="M5250 2233 c1 -18 61 -73 86 -79 44 -11 111 -53 142 -89 16 -18 40
-40 53 -48 33 -21 116 -32 132 -18 9 7 24 8 48 1 29 -8 39 -7 62 11 19 14 38
19 55 16 14 -3 40 2 56 12 26 14 31 22 30 53 0 39 -26 78 -51 78 -8 0 -22 -9
-31 -20 -10 -12 -35 -25 -57 -30 -38 -9 -42 -8 -70 24 -35 39 -111 81 -120 66
-8 -13 -61 -13 -84 0 -16 8 -48 10 -180 9 -19 0 -39 5 -44 10 -13 13 -27 14
-27 4z"/>
<path d="M5110 2163 c0 -17 5 -35 10 -38 13 -8 13 35 0 55 -7 11 -10 7 -10
-17z"/>
<path d="M7318 2033 c6 -2 18 -2 25 0 6 3 1 5 -13 5 -14 0 -19 -2 -12 -5z"/>
<path d="M6215 2020 c3 -5 12 -10 20 -10 8 0 17 5 20 10 4 6 -5 10 -20 10 -15
0 -24 -4 -20 -10z"/>
<path d="M6370 2025 c0 -24 95 -68 136 -63 28 3 28 4 8 15 -12 7 -37 14 -57
16 -19 2 -47 11 -61 20 -14 10 -26 15 -26 12z"/>
<path d="M7518 1878 c6 -6 37 -12 69 -13 56 -1 57 -1 28 11 -39 17 -114 19
-97 2z"/>
<path d="M3803 4180 c-11 -29 -10 -30 17 -30 27 0 28 1 17 30 -6 17 -14 30
-17 30 -3 0 -11 -13 -17 -30z"/>
<path d="M2510 4240 c-24 -24 -28 -105 -5 -137 17 -25 62 -28 88 -5 25 23 24
115 -3 142 -11 11 -29 20 -40 20 -11 0 -29 -9 -40 -20z"/>
<path d="M4675 4235 c-66 -65 7 -195 79 -142 12 9 20 31 24 65 4 44 1 54 -21
76 -32 32 -51 33 -82 1z"/>
<path d="M6832 4223 c2 -20 8 -28 23 -28 31 0 28 49 -3 53 -20 3 -23 0 -20
-25z"/>
<path d="M6838 4130 c-3 -33 0 -40 14 -40 25 0 41 35 28 60 -18 33 -38 24 -42
-20z"/>
<path d="M7074 4137 c3 -10 6 -22 6 -27 0 -4 7 -10 15 -14 21 -8 19 8 -6 35
-16 19 -19 20 -15 6z"/>
<path d="M3701 3384 c0 -11 3 -14 6 -6 3 7 2 16 -1 19 -3 4 -6 -2 -5 -13z"/>
<path d="M3681 2524 c0 -11 3 -14 6 -6 3 7 2 16 -1 19 -3 4 -6 -2 -5 -13z"/>
<path d="M3853 2462 c-47 -3 -52 -8 -25 -28 23 -18 47 -17 62 1 19 23 8 30
-37 27z"/>
<path d="M2054 2964 c-10 -37 8 -50 41 -28 l27 18 -24 18 c-31 24 -36 23 -44
-8z"/>
<path d="M2611 2834 c0 -11 3 -14 6 -6 3 7 2 16 -1 19 -3 4 -6 -2 -5 -13z"/>
<path d="M2173 2755 c-9 -25 4 -29 17 -6 7 15 7 21 0 21 -6 0 -13 -7 -17 -15z"/>
<path d="M2766 2598 c-8 -18 -17 -41 -20 -52 -4 -12 -13 -17 -26 -13 -14 4
-26 -3 -41 -24 -20 -29 -20 -29 0 -29 11 0 33 11 49 25 17 14 36 25 43 25 7 0
9 3 6 7 -4 3 -2 12 4 19 5 6 14 26 19 43 12 43 -15 42 -34 -1z"/>
<path d="M1965 2560 c-3 -5 -1 -10 4 -10 6 0 11 5 11 10 0 6 -2 10 -4 10 -3 0
-8 -4 -11 -10z"/>
<path d="M2460 2515 c0 -8 -6 -15 -12 -15 -7 0 -5 -5 5 -11 23 -13 121 -13
144 0 16 9 15 11 -7 12 -77 5 -93 8 -103 18 -15 15 -27 14 -27 -4z"/>
<path d="M2303 2445 c-6 -18 23 -55 44 -55 14 0 17 27 7 54 -8 20 -43 21 -51
1z"/>
<path d="M1140 3080 c0 -5 5 -10 10 -10 6 0 10 5 10 10 0 6 -4 10 -10 10 -5 0
-10 -4 -10 -10z"/>
<path d="M1171 3074 c0 -11 3 -14 6 -6 3 7 2 16 -1 19 -3 4 -6 -2 -5 -13z"/>
<path d="M1124 2875 c-44 -19 -56 -38 -60 -96 -5 -58 14 -91 36 -64 14 16 34
10 27 -9 -3 -6 4 -27 14 -46 l19 -35 -7 44 c-3 25 -12 56 -20 70 -20 40 -17
101 9 128 24 26 24 26 -18 8z"/>
<path d="M1160 2611 c0 -5 5 -13 10 -16 6 -3 10 -2 10 4 0 5 -4 13 -10 16 -5
3 -10 2 -10 -4z"/>
<path d="M928 2533 c6 -2 18 -2 25 0 6 3 1 5 -13 5 -14 0 -19 -2 -12 -5z"/>
<path d="M3148 2626 c-22 -16 -14 -77 12 -94 16 -10 19 -6 25 38 9 67 -2 83
-37 56z"/>
<path d="M2952 2278 c-6 -15 -20 -36 -32 -48 l-20 -20 36 0 c19 0 33 4 30 9
-4 5 -1 11 6 13 9 3 9 13 1 39 l-10 34 -11 -27z"/>
<path d="M3005 2210 c-3 -5 -1 -10 4 -10 6 0 11 5 11 10 0 6 -2 10 -4 10 -3 0
-8 -4 -11 -10z"/>
<path d="M2810 2090 c11 -20 22 -25 33 -14 11 11 -5 34 -24 34 -17 0 -18 -3
-9 -20z"/>
<path d="M2538 2053 c6 -2 18 -2 25 0 6 3 1 5 -13 5 -14 0 -19 -2 -12 -5z"/>
<path d="M2643 1829 c-25 -9 58 -21 117 -17 43 3 41 4 -27 13 -39 6 -79 8 -90
4z"/>
<path d="M2936 1691 c-12 -4 0 -7 33 -7 28 0 51 3 51 8 0 10 -58 9 -84 -1z"/>
<path d="M2392 1641 c-15 -9 63 -21 145 -21 52 0 77 13 47 24 -24 9 -177 7
-192 -3z"/>
<path d="M2428 2363 c7 -3 16 -2 19 1 4 3 -2 6 -13 5 -11 0 -14 -3 -6 -6z"/>
<path d="M1160 2189 c0 -5 5 -7 10 -4 6 3 10 8 10 11 0 2 -4 4 -10 4 -5 0 -10
-5 -10 -11z"/>
<path d="M1870 2120 c-9 -6 -10 -10 -3 -10 6 0 15 5 18 10 8 12 4 12 -15 0z"/>
<path d="M6490 1564 c-59 -6 -220 -38 -220 -44 0 -12 258 21 320 40 20 7 16 8
-20 8 -25 -1 -61 -3 -80 -4z"/>
<path d="M4933 764 c-22 -22 -25 -32 -20 -72 8 -77 65 -105 112 -57 50 49 18
155 -45 155 -11 0 -33 -12 -47 -26z"/>
<path d="M5812 715 c-16 -35 -16 -35 18 -35 l31 0 -16 30 c-9 17 -17 30 -19
30 -1 0 -8 -11 -14 -25z"/>
<path d="M6393 710 c-11 -29 -10 -30 18 -30 33 0 33 0 17 35 -15 32 -21 32
-35 -5z"/>
<path d="M6306 4104 c-8 -22 -8 -24 8 -24 21 0 28 16 12 29 -11 9 -15 8 -20
-5z"/>
<path d="M6376 4105 c4 -8 10 -15 15 -15 4 0 6 7 3 15 -4 8 -10 15 -15 15 -4
0 -6 -7 -3 -15z"/>
<path d="M6432 3730 c0 -14 2 -19 5 -12 2 6 2 18 0 25 -3 6 -5 1 -5 -13z"/>
<path d="M7154 3251 c31 -61 73 -157 95 -213 41 -110 151 -342 158 -334 2 2
-13 39 -35 82 -22 44 -62 140 -90 214 -71 189 -148 354 -167 358 -11 3 0 -28
39 -107z"/>
<path d="M6915 3303 c15 -32 25 -42 25 -24 0 5 -9 19 -20 32 l-21 24 16 -32z"/>
<path d="M7956 3010 c18 -35 204 -282 267 -354 10 -12 2 6 -18 39 -21 33 -52
76 -70 95 -17 19 -53 64 -78 100 -47 66 -115 147 -101 120z"/>
<path d="M7220 2717 c0 -11 71 -137 81 -142 5 -3 -7 25 -27 62 -35 65 -54 94
-54 80z"/>
<path d="M8268 2604 c11 -16 41 -51 67 -79 l46 -50 -40 53 c-23 30 -41 57 -41
62 0 4 -12 16 -27 25 l-26 18 21 -29z"/>
<path d="M7450 2610 c0 -13 99 -193 100 -182 0 8 -17 44 -37 80 -38 69 -63
110 -63 102z"/>
<path d="M6643 2415 c0 -22 2 -30 4 -17 2 12 2 30 0 40 -3 9 -5 -1 -4 -23z"/>
</g>
</svg>
