<?xml version="1.0" standalone="no"?>
<!DOCTYPE svg PUBLIC "-//W3C//DTD SVG 20010904//EN"
 "http://www.w3.org/TR/2001/REC-SVG-20010904/DTD/svg10.dtd">
<svg version="1.0" xmlns="http://www.w3.org/2000/svg"
 width="680.000000pt" height="680.000000pt" viewBox="0 0 680.000000 680.000000"
 preserveAspectRatio="xMidYMid meet">

<g transform="translate(0.000000,680.000000) scale(0.100000,-0.100000)"
fill="#000000" stroke="none">
<path d="M0 3400 l0 -3400 3400 0 3400 0 0 2209 0 2210 -27 4 -28 4 28 2 c17
0 27 7 27 16 0 19 -10 20 -142 11 -15 -1 -25 2 -22 6 3 4 -13 8 -35 8 -41 0
-61 13 -40 26 8 4 9 3 5 -4 -7 -12 8 -13 172 -17 l62 -1 0 1163 0 1163 -590 0
c-324 0 -590 -2 -590 -4 0 -3 20 -44 44 -93 46 -92 85 -197 110 -298 18 -72
34 -385 19 -385 -6 0 -8 22 -5 55 3 32 0 60 -6 68 -6 7 -14 51 -17 98 -8 111
-23 189 -51 258 -13 31 -24 51 -24 44 0 -6 -3 -19 -7 -29 -4 -10 -2 -15 3 -11
6 3 10 -14 10 -44 0 -28 4 -53 10 -57 5 -4 10 -25 11 -47 1 -22 4 -103 8 -180
9 -161 -7 -395 -34 -528 -10 -48 -15 -90 -11 -92 4 -3 10 10 13 28 12 81 39
212 44 217 11 10 -9 -138 -32 -241 -22 -96 -53 -189 -55 -164 0 6 -5 2 -11 -8
-5 -9 -7 -22 -4 -27 3 -6 1 -10 -4 -10 -6 0 -11 9 -11 20 0 39 -36 16 -62 -40
-5 -12 -7 -12 -7 3 -1 26 -20 21 -27 -8 -5 -21 -12 -25 -40 -25 -26 0 -34 4
-35 18 0 14 -3 13 -16 -5 -8 -13 -21 -23 -28 -23 -7 0 -18 -13 -25 -29 -13
-32 -40 -32 -40 0 0 27 -18 24 -22 -3 -3 -15 -7 -5 -13 27 -7 43 3 179 17 235
2 8 0 5 -6 -7 -5 -13 -13 -23 -17 -23 -4 0 -22 -25 -39 -55 -17 -30 -33 -55
-36 -55 -6 0 20 55 31 62 6 5 5 8 -3 8 -7 0 -22 -19 -34 -42 -11 -24 -28 -58
-39 -77 -10 -19 -26 -65 -36 -103 -17 -65 -39 -97 -28 -40 4 18 1 15 -9 -11
-17 -44 -11 -97 11 -97 12 0 14 8 9 38 -4 26 -3 31 3 16 12 -27 74 -64 108
-64 15 0 34 7 44 16 15 14 22 13 76 -8 32 -14 57 -30 55 -36 -4 -19 18 -53 28
-47 6 3 7 -1 4 -9 -5 -14 9 -16 102 -18 60 0 93 -4 74 -6 l-35 -6 40 -6 40 -7
-45 -3 c-25 -1 18 -8 95 -14 207 -17 225 -7 233 135 l5 92 18 -64 c9 -35 29
-104 43 -154 23 -79 35 -145 19 -107 -2 6 -10 12 -17 12 -8 0 -11 13 -9 38 l3
37 -13 -33 c-7 -19 -20 -38 -30 -43 -9 -6 -17 -16 -17 -24 0 -8 -16 -30 -35
-49 -19 -20 -35 -43 -35 -53 0 -10 -7 -27 -15 -37 -15 -19 -15 -19 -15 2 0 12
5 22 10 22 6 0 10 13 10 28 0 15 5 33 11 39 8 8 7 17 -3 32 -17 27 -22 26 -46
-4 -13 -16 -18 -34 -15 -48 5 -17 3 -20 -7 -10 -7 6 -12 23 -12 37 0 41 -15
40 -33 -1 -33 -73 -38 -82 -47 -77 -5 4 -7 17 -3 31 6 26 -11 57 -26 47 -5 -3
-9 0 -9 6 0 19 -42 57 -47 43 -7 -18 -43 -16 -43 2 0 8 -4 15 -8 15 -5 0 -6
-15 -4 -32 3 -19 1 -29 -4 -25 -5 5 -10 12 -10 15 -8 36 -18 52 -25 40 -5 -7
-6 -21 -3 -30 3 -9 -1 -20 -9 -25 -8 -4 -16 -15 -19 -23 -3 -10 -12 0 -27 27
-21 43 -41 56 -41 29 0 -20 -38 -8 -45 15 -3 10 -12 16 -19 13 -18 -7 -41 -74
-37 -108 2 -27 1 -28 -13 -13 -18 18 -46 13 -46 -8 0 -8 -9 -17 -20 -20 -11
-4 -27 -18 -35 -33 l-14 -27 0 25 c-1 14 3 31 8 39 13 20 2 41 -20 41 -10 0
-18 3 -16 8 1 4 -24 33 -55 64 l-58 57 -6 -40 c-4 -23 -14 -44 -25 -49 -24
-13 -29 -13 -29 5 0 7 -8 19 -18 25 -12 8 -13 13 -4 16 20 9 14 24 -15 35 -22
8 -30 7 -40 -7 -8 -11 -21 -15 -38 -12 -27 6 -36 -16 -10 -26 8 -3 15 -15 15
-27 0 -20 -2 -20 -22 -7 -13 9 -25 26 -28 38 -8 34 -22 34 -45 -1 -17 -25 -25
-29 -50 -24 -16 3 -32 10 -36 16 -4 7 -11 9 -16 6 -5 -4 -23 -2 -39 3 -27 8
-26 8 16 10 25 1 65 5 90 9 40 8 37 9 -38 10 -45 0 -128 8 -185 17 -56 9 -113
18 -126 19 -33 2 -39 22 -9 28 17 3 15 5 -9 6 -36 1 -44 -17 -18 -39 24 -20
11 -23 -28 -7 -38 16 -60 9 -55 -18 2 -10 -3 -20 -9 -22 -9 -3 -13 9 -13 41 0
41 -2 45 -27 49 -16 2 -5 5 24 6 63 1 83 21 22 21 -65 0 -41 10 28 11 39 1 72
-4 92 -15 17 -9 45 -23 62 -32 28 -15 32 -15 47 0 15 15 14 16 -10 16 -34 0
-127 36 -152 58 -33 31 -59 95 -60 149 -1 29 -1 53 -1 53 0 0 -38 -18 -84 -41
-92 -44 -117 -48 -43 -5 52 30 46 29 -43 -8 -126 -52 -299 -86 -441 -86 -41 0
-74 -4 -74 -8 0 -5 48 -7 107 -6 l108 3 -85 -14 c-101 -16 -180 -19 -180 -6 0
5 10 12 23 14 17 3 16 5 -8 6 -23 1 -27 3 -15 11 12 8 8 10 -15 11 -29 1 -30
1 -5 9 23 7 23 8 3 9 -19 1 -22 9 -28 65 -4 35 -5 72 -3 82 4 20 1 20 124 8
59 -6 77 -3 115 14 24 11 53 27 64 36 19 17 19 17 -5 5 -24 -12 -24 -12 -7 12
21 30 59 99 54 99 -3 0 -16 -18 -31 -40 -14 -22 -31 -40 -37 -40 -5 0 4 20 21
45 17 25 27 45 22 45 -6 0 -12 -7 -16 -15 -7 -18 -94 -75 -115 -75 -9 0 -1 9
17 20 40 25 83 111 89 179 l3 46 -14 -42 c-18 -55 -47 -100 -90 -142 -42 -41
-49 -23 -13 30 34 50 57 114 57 157 0 36 -1 36 -36 -35 -36 -73 -100 -143
-130 -143 -12 0 -9 6 10 21 34 27 56 70 55 106 -2 24 -2 25 -6 5 -3 -13 -11
-26 -19 -29 -8 -3 -14 -13 -14 -22 0 -14 -2 -14 -10 -1 -9 13 -10 13 -10 0 -1
-13 -2 -12 -10 1 -8 14 -15 11 -49 -21 -45 -43 -100 -65 -137 -56 -34 9 -30
20 16 41 23 10 55 34 72 54 45 51 82 146 41 105 -17 -17 -18 -16 -21 22 -4 43
-22 73 -22 36 0 -30 -56 -127 -87 -152 -29 -23 -77 -25 -111 -7 l-23 13 26 12
c40 18 75 103 74 177 -1 46 -3 52 -8 28 -9 -47 -25 -28 -39 47 -13 67 -57 166
-92 210 -15 19 -13 9 10 -40 32 -71 60 -170 60 -210 -1 -14 -17 22 -36 80 -42
127 -61 153 -28 40 24 -83 33 -149 14 -105 -8 18 -9 18 -9 -5 -2 -58 -52 -86
-103 -59 -26 14 -33 6 -13 -15 16 -15 9 -21 -17 -17 -16 2 -7 -24 16 -48 14
-15 45 -53 70 -86 35 -48 42 -63 33 -75 -9 -12 -9 -13 3 -3 11 10 23 4 64 -31
28 -24 83 -64 122 -89 39 -25 74 -53 78 -62 8 -21 8 -152 0 -182 -4 -14 -14
-23 -25 -23 -11 0 -27 -5 -37 -11 -12 -7 -56 -8 -142 -2 l-125 8 73 48 c39 26
72 50 72 53 0 8 -63 -27 -119 -67 -45 -33 -62 -39 -103 -39 -37 0 -47 3 -42
13 6 9 5 9 -8 0 -11 -10 -34 -10 -98 -2 -46 5 -89 8 -96 5 -13 -5 -64 15 -64
25 0 3 -10 5 -22 4 -13 -1 -25 1 -28 5 -3 4 -23 10 -45 13 -25 4 -32 3 -20 -2
16 -6 11 -9 -27 -15 -37 -6 -55 -3 -85 13 -35 19 -36 20 -13 22 27 1 -81 28
-115 28 -17 0 -16 -2 7 -16 41 -26 46 -50 6 -26 -37 20 -88 110 -88 153 0 14
7 36 16 48 19 27 10 62 -17 62 -33 0 -24 20 26 54 19 14 19 14 0 57 -28 65
-31 67 -70 29 -31 -30 -35 -40 -35 -84 0 -37 3 -47 10 -36 5 8 7 24 5 35 -3
11 -2 14 1 7 4 -9 13 -5 30 13 31 33 31 26 0 -19 -29 -44 -50 -126 -43 -169 5
-31 5 -30 -13 8 -10 22 -22 62 -25 90 -12 96 -15 107 -31 94 -16 -13 -19 -33
-4 -24 6 4 10 -9 10 -30 0 -43 25 -147 45 -185 8 -15 25 -40 39 -56 14 -16 34
-40 45 -54 18 -22 18 -17 -5 32 -14 32 -27 84 -30 115 l-4 58 20 -74 c23 -87
61 -172 95 -217 31 -41 32 -53 3 -28 -19 16 -18 13 4 -17 l27 -37 -26 -6 -26
-7 24 -25 24 -26 -25 3 c-14 1 -32 -1 -40 -4 -21 -8 -123 -15 -138 -10 -6 3
-12 11 -12 19 0 8 -7 14 -15 14 -8 0 -15 -7 -15 -15 0 -9 -7 -18 -16 -22 -15
-6 -15 -8 2 -20 15 -11 15 -13 2 -13 -9 0 -21 14 -28 33 -10 30 -12 31 -22 12
-6 -11 -12 -22 -14 -24 -2 -2 -13 8 -25 23 -20 26 -22 26 -39 9 -9 -10 -15
-23 -13 -30 4 -9 -1 -9 -21 0 -14 7 -26 18 -26 25 0 9 -12 13 -38 11 -21 -2
-44 1 -51 6 -9 5 -19 2 -28 -10 -7 -11 -13 -13 -13 -7 0 7 -10 17 -22 22 -15
5 -18 9 -8 11 8 1 2 4 -15 8 -39 9 -63 3 -68 -18 -4 -15 -5 -15 -6 0 -1 19
-47 34 -64 21 -7 -5 -22 -9 -35 -10 -19 -1 -21 2 -12 14 10 11 9 14 -4 14 -9
0 -16 -8 -16 -20 0 -21 -16 -28 -22 -9 -5 16 -48 1 -48 -16 0 -8 -9 -19 -20
-25 -12 -6 -20 -7 -20 -1 0 5 -52 10 -122 10 -127 1 -178 6 -238 20 -26 7 -3
9 90 11 131 2 135 16 5 20 l-70 3 64 8 c35 4 65 10 67 12 6 6 -145 107 -159
107 -15 0 -66 35 -126 87 -52 45 -74 117 -70 223 4 68 8 84 34 121 17 23 50
52 77 66 126 66 227 290 201 446 -5 34 -8 69 -5 77 6 15 22 -35 48 -145 l14
-60 -6 78 c-3 43 -15 109 -28 147 -13 38 -21 71 -19 74 3 2 1 10 -3 17 -11 18
-12 59 -1 59 4 0 17 -19 27 -42 20 -44 28 -40 11 5 -5 13 -10 48 -12 78 -1 30
-7 60 -12 67 -5 6 -6 12 -3 12 4 0 1 10 -6 23 -7 12 -11 28 -10 34 2 7 -5 24
-14 38 -15 23 -15 25 0 25 8 0 25 -17 36 -37 l21 -38 -7 35 c-4 19 -15 52 -25
72 -20 40 -24 68 -10 68 5 0 11 -7 15 -15 3 -8 9 -15 14 -15 9 0 -32 125 -69
208 l-19 42 -600 0 -600 0 0 -3400z m5747 2848 c-3 -7 -5 -2 -5 12 0 14 2 19
5 13 2 -7 2 -19 0 -25z m-5080 -65 c-3 -10 -5 -4 -5 12 0 17 2 24 5 18 2 -7 2
-21 0 -30z m5090 -45 c-2 -13 -4 -3 -4 22 0 25 2 35 4 23 2 -13 2 -33 0 -45z
m-5067 -60 c0 -5 9 -21 19 -34 14 -18 21 -48 26 -112 10 -133 23 -204 44 -247
37 -75 99 -290 104 -360 2 -22 7 -53 11 -70 9 -38 -70 132 -95 204 -25 72 -17
76 12 7 12 -31 24 -54 26 -53 5 6 -27 107 -52 161 -51 113 -92 271 -100 391
-3 44 -8 93 -10 108 -3 17 -1 26 5 22 6 -3 10 -11 10 -17z m5075 -123 c-8 -22
-14 -32 -15 -23 0 20 19 72 25 67 2 -3 -2 -23 -10 -44z m-18 -102 c-3 -10 -5
-2 -5 17 0 19 2 27 5 18 2 -10 2 -26 0 -35z m162 -142 c1 -105 -5 -85 -12 34
-3 57 -2 87 3 70 4 -16 8 -63 9 -104z m-2611 -147 c-9 -9 -27 -14 -44 -12
l-29 4 25 11 c14 7 34 12 45 12 18 1 18 0 3 -15z m-2574 -44 l7 -25 -15 25
c-9 14 -15 32 -15 40 0 13 1 13 8 0 5 -8 12 -26 15 -40z m-27 -82 c-3 -8 -6
-5 -6 6 -1 11 2 17 5 13 3 -3 4 -12 1 -19z m60 -30 c-3 -7 -5 -2 -5 12 0 14 2
19 5 13 2 -7 2 -19 0 -25z m2798 -18 c3 -5 -3 -10 -14 -10 -12 0 -21 -4 -21
-10 0 -5 -7 -10 -17 -10 -13 0 -11 4 7 20 26 22 36 25 45 10z m-2738 -87 c32
-69 73 -132 128 -194 70 -80 85 -99 75 -99 -19 0 -86 48 -115 82 -44 52 -141
268 -120 268 3 0 17 -26 32 -57z m5178 -77 c0 -138 -11 -149 -21 -22 -4 42 -2
88 5 114 7 23 13 42 14 42 1 0 2 -61 2 -134z m-5232 -238 c9 -21 19 -38 22
-38 3 0 1 8 -4 19 -15 28 0 35 18 7 21 -31 81 -81 81 -67 0 6 -3 11 -7 11 -10
0 -57 69 -52 74 2 3 23 -13 47 -33 24 -21 67 -46 97 -56 30 -11 52 -22 49 -26
-2 -4 4 -13 13 -19 17 -10 16 -11 -2 -6 -32 7 -158 20 -177 18 -10 -1 -18 2
-18 7 0 6 -8 12 -18 15 -43 14 -97 167 -85 240 7 38 8 36 14 -34 3 -41 13 -92
22 -112z m79 145 c28 -33 33 -47 15 -40 -26 10 -21 0 21 -42 40 -40 159 -95
231 -107 70 -11 56 -23 -21 -18 -121 9 -170 28 -212 84 -20 27 -41 61 -45 77
-5 15 -12 36 -16 46 -4 9 -3 17 2 17 6 0 17 -8 25 -17z m3414 -8 c-11 -8 -25
-15 -30 -15 -6 1 0 7 14 15 32 19 40 18 16 0z m-1678 -52 c24 -8 41 -17 39
-19 -5 -6 -117 36 -117 43 0 3 8 2 18 -2 9 -4 36 -14 60 -22z m3225 -43 c4
-36 3 -48 -3 -35 -6 14 -9 16 -9 4 -1 -8 -8 -24 -16 -35 -14 -18 -15 -18 -6 7
5 14 9 41 9 61 0 33 10 65 17 56 1 -2 5 -28 8 -58z m-1726 24 c-3 -3 -12 -4
-19 -1 -8 3 -5 6 6 6 11 1 17 -2 13 -5z m-44 -11 c-7 -2 -19 -2 -25 0 -7 3 -2
5 12 5 14 0 19 -2 13 -5z m-540 -10 c-7 -2 -21 -2 -30 0 -10 3 -4 5 12 5 17 0
24 -2 18 -5z m432 -9 c-38 -8 -79 -13 -90 -11 -11 2 9 8 45 14 95 15 127 13
45 -3z m403 -19 c24 -38 16 -47 -13 -15 -10 11 -31 20 -49 20 l-31 1 30 14
c40 18 37 19 63 -20z m-521 -1 c-3 -3 -12 -4 -19 -1 -8 3 -5 6 6 6 11 1 17 -2
13 -5z m358 -4 c-3 -5 -16 -10 -28 -9 -20 1 -20 2 3 9 14 4 26 8 28 9 2 1 0
-3 -3 -9z m-1490 -110 c33 -16 78 -33 100 -38 l40 -9 -47 -8 c-27 -4 -58 -3
-75 3 l-28 10 30 2 c30 1 30 1 6 11 -13 5 -43 11 -65 13 -61 6 -64 8 -26 15
l35 7 -50 17 c-39 13 -42 16 -15 12 19 -3 61 -19 95 -35z m-90 -33 c30 -22 34
-27 15 -22 -14 4 -34 14 -45 21 -11 8 -36 14 -57 14 -31 0 -36 3 -31 17 4 11
3 14 -5 9 -7 -4 -18 -4 -24 1 -9 5 -1 10 22 13 37 6 52 -1 125 -53z m-932 16
c-7 -2 -19 -2 -25 0 -7 3 -2 5 12 5 14 0 19 -2 13 -5z m1762 -3 c18 -8 18 -9
2 -9 -10 -1 -16 -5 -13 -10 4 -5 -4 -7 -16 -4 -22 6 -21 4 6 -25 15 -17 25
-35 22 -41 -11 -18 -25 -12 -19 8 3 12 -5 26 -24 41 -36 28 -92 23 -151 -14
-49 -31 -64 -34 -31 -6 29 24 23 25 -25 5 -28 -12 -48 -13 -84 -6 l-47 9 45 2
c25 1 50 3 55 4 24 4 121 37 135 46 18 12 117 12 145 0z m739 -6 c22 -21 20
-27 -5 -14 -31 17 -52 5 -45 -25 4 -14 2 -25 -4 -25 -14 0 -13 53 2 68 16 16
33 15 52 -4z m83 0 c-3 -3 -12 -4 -19 -1 -8 3 -5 6 6 6 11 1 17 -2 13 -5z
m-2447 -14 c0 -5 -5 -10 -11 -10 -5 0 -7 5 -4 10 3 6 8 10 11 10 2 0 4 -4 4
-10z m734 -5 c8 -8 20 -15 26 -15 13 0 140 -59 140 -65 0 -2 -11 -1 -23 4 -13
5 -38 8 -55 7 -18 -1 -33 3 -36 11 -3 7 -16 13 -30 13 -20 0 -56 35 -56 55 0
10 19 5 34 -10z m386 10 c0 -6 -56 -35 -67 -35 -4 0 6 9 22 20 29 19 45 25 45
15z m1521 -12 c13 -16 12 -17 -3 -4 -17 13 -22 21 -14 21 2 0 10 -8 17 -17z
m-2971 -5 c0 -4 -21 -7 -47 -7 -41 1 -43 2 -18 8 40 9 65 8 65 -1z m225 3
c-12 -11 -95 -21 -95 -11 0 15 15 20 59 20 27 0 41 -4 36 -9z m683 -6 c4 -5
-2 -5 -12 -1 -11 4 -22 2 -26 -3 -6 -11 -50 -3 -50 9 0 10 78 5 88 -5z m1102
-49 c0 -26 -6 -18 -14 19 -5 22 -4 26 4 15 5 -8 10 -24 10 -34z m1086 27 c-3
-20 -45 -25 -63 -7 -11 10 -9 13 9 17 47 9 56 7 54 -10z m54 10 c-8 -4 -20
-13 -27 -22 -11 -14 -12 -13 -13 7 0 18 5 22 28 21 16 0 21 -3 12 -6z m-770
-13 c0 -5 -5 -10 -11 -10 -5 0 -7 5 -4 10 3 6 8 10 11 10 2 0 4 -4 4 -10z
m-948 -23 c-6 -7 -9 -23 -5 -35 7 -28 2 -28 -29 1 -25 23 -25 23 -4 34 32 16
51 16 38 0z m2746 -16 c4 -22 3 -22 -16 -4 -20 19 -19 37 1 30 7 -2 13 -14 15
-26z m434 -11 c23 0 23 -14 1 -40 -20 -24 -33 -26 -33 -6 0 8 -10 16 -22 18
l-23 3 22 19 c12 10 19 26 17 35 -3 9 1 6 7 -6 7 -13 20 -23 31 -23z m-2253 1
c0 -9 -4 -25 -9 -36 -8 -17 -9 -15 -8 10 1 17 -1 36 -6 43 -5 8 -2 10 8 6 9
-3 16 -14 15 -23z m156 19 c-3 -5 -15 -10 -25 -10 -10 0 -22 -4 -25 -10 -8
-14 -1 -13 42 5 20 8 38 14 40 11 2 -2 -15 -11 -38 -20 -47 -19 -72 -9 -49 19
14 16 65 21 55 5z m-1245 -10 c0 -5 -5 -10 -11 -10 -5 0 -7 5 -4 10 3 6 8 10
11 10 2 0 4 -4 4 -10z m2700 -23 c0 -5 -4 -5 -10 -2 -5 3 -10 14 -10 23 0 15
2 15 10 2 5 -8 10 -19 10 -23z m-2126 14 c3 -5 0 -13 -7 -19 -10 -8 -13 -6
-13 9 0 20 11 25 20 10z m-1544 -21 c11 -11 16 -20 12 -20 -5 0 -17 9 -27 20
-10 11 -15 20 -12 20 4 0 16 -9 27 -20z m1024 -17 c-10 -7 -25 -13 -33 -13
-12 1 -11 3 4 12 11 6 24 18 29 27 8 13 10 13 14 2 3 -8 -3 -20 -14 -28z
m2321 -63 c3 -42 2 -43 -8 -17 -6 15 -19 27 -28 27 -22 0 -57 49 -51 73 3 15
8 14 44 -11 36 -25 41 -33 43 -72z m35 35 c1 -5 2 -22 1 -37 -1 -31 -16 -39
-18 -10 -1 9 -4 32 -8 50 -9 46 5 79 15 37 4 -16 8 -34 10 -40z m-3523 49 c-3
-3 -12 -4 -19 -1 -8 3 -5 6 6 6 11 1 17 -2 13 -5z m1630 0 c-3 -3 -12 -4 -19
-1 -8 3 -5 6 6 6 11 1 17 -2 13 -5z m-1354 -23 c25 -11 48 -17 51 -14 3 4 6 1
6 -5 0 -17 -10 -15 -66 12 -59 30 -53 34 9 7z m-35 -16 c4 -9 20 -19 35 -23
19 -5 24 -11 18 -20 -7 -12 -12 -12 -30 0 -18 11 -23 11 -31 -2 -5 -8 -10 -25
-10 -38 0 -13 -4 -20 -10 -17 -5 3 -10 21 -10 40 0 22 -6 38 -17 45 -14 8 -12
9 11 4 25 -6 28 -4 23 10 -8 20 9 21 21 1z m278 -7 c6 -4 26 -6 45 -3 l34 5
-32 -15 c-18 -8 -37 -24 -44 -36 -9 -18 -7 -25 15 -45 32 -30 52 -30 61 -1 5
17 8 18 12 6 5 -22 46 -40 64 -28 8 5 18 9 22 9 11 0 -3 -44 -14 -48 -5 -2 -9
-10 -9 -17 0 -10 -7 -12 -30 -5 -17 5 -32 5 -35 -1 -9 -13 -114 -3 -158 16
-20 8 -37 21 -37 29 0 7 -9 25 -20 39 -26 32 -25 37 5 37 13 0 28 6 32 13 4 7
19 21 33 30 l24 17 -34 1 -35 1 30 7 c31 7 52 4 71 -11z m3620 -15 c-8 -15
-15 -25 -16 -21 0 12 23 58 27 54 3 -2 -2 -17 -11 -33z m721 19 c-10 -10 -17
-23 -17 -29 0 -6 -7 -16 -15 -23 -18 -15 -19 -3 -6 34 6 13 18 26 28 29 10 3
20 5 22 6 2 0 -3 -7 -12 -17z m-5017 1 c-14 -3 -30 -9 -36 -14 -5 -4 -20 -5
-33 -2 -35 9 -4 23 49 21 27 0 35 -3 20 -5z m173 -28 c-32 -40 -27 -39 -76
-21 l-38 13 24 16 c13 8 42 17 63 20 21 2 43 4 47 5 4 1 -5 -14 -20 -33z
m1307 27 c0 -14 -11 -21 -26 -15 -8 3 -11 9 -8 14 7 11 34 12 34 1z m91 -19
c-8 -15 -10 -15 -11 -2 0 17 10 32 18 25 2 -3 -1 -13 -7 -23z m1289 18 c24 -7
24 -7 5 -15 -26 -11 -60 -11 -110 0 l-40 8 40 7 c53 8 75 8 105 0z m-3017 -8
c-7 -2 -19 -2 -25 0 -7 3 -2 5 12 5 14 0 19 -2 13 -5z m702 -5 c-11 -7 -22
-11 -25 -11 -3 1 -13 -3 -22 -8 -21 -11 -23 -4 -5 16 6 8 26 14 42 14 28 0 28
-1 10 -11z m-328 -47 c0 -11 -5 -17 -9 -15 -11 7 -10 34 1 34 6 0 9 -9 8 -19z
m2617 7 c-4 -7 -16 -23 -27 -35 -21 -24 -11 -32 12 -10 11 10 11 8 2 -11 -12
-22 -59 -48 -69 -38 -3 3 3 8 12 12 9 3 13 11 10 16 -4 5 9 25 27 44 35 36 45
42 33 22z m1547 -21 c-10 -9 -11 -8 -5 6 3 10 9 15 12 12 3 -3 0 -11 -7 -18z
m571 11 c-9 -9 -15 -9 -24 0 -9 9 -7 12 12 12 19 0 21 -3 12 -12z m-4992 -13
c-7 -9 -15 -13 -17 -11 -7 7 7 26 19 26 6 0 6 -6 -2 -15z m500 -22 c0 -32 -5
-28 -14 10 -4 19 -3 26 4 22 5 -3 10 -18 10 -32z m-1178 -22 c-16 -17 -33 -27
-36 -23 -4 4 -31 12 -59 18 l-52 12 45 2 c85 3 100 6 112 18 6 6 14 10 16 7 2
-2 -9 -18 -26 -34z m1964 24 c-8 -8 -18 -15 -23 -15 -5 0 -15 -9 -23 -20 -8
-11 -21 -20 -30 -20 -10 0 -7 7 11 23 44 39 100 66 65 32z m-1436 -11 c0 -2
-7 -4 -15 -4 -8 0 -15 4 -15 10 0 5 7 7 15 4 8 -4 15 -8 15 -10z m1342 -14
c-9 -16 -21 -30 -25 -30 -5 0 1 14 13 30 27 39 34 39 12 0z m-1116 -28 c-4 -3
-11 -1 -17 5 -8 8 -8 15 2 26 12 13 14 13 17 -5 2 -11 1 -22 -2 -26z m-649 6
c-3 -8 -6 -5 -6 6 -1 11 2 17 5 13 3 -3 4 -12 1 -19z m368 -16 c-15 -16 -16
-15 -4 12 7 15 15 23 17 16 3 -7 -3 -19 -13 -28z m1840 28 c3 -5 1 -10 -4 -10
-6 0 -11 5 -11 10 0 6 2 10 4 10 3 0 8 -4 11 -10z m968 3 c-13 -2 -33 -2 -45
0 -13 2 -3 4 22 4 25 0 35 -2 23 -4z m-888 -34 c11 -17 -1 -21 -15 -4 -8 9 -8
15 -2 15 6 0 14 -5 17 -11z m3105 -13 c0 -2 -7 -7 -16 -10 -8 -3 -12 -2 -9 4
6 10 25 14 25 6z m213 -3 c-7 -2 -19 -2 -25 0 -7 3 -2 5 12 5 14 0 19 -2 13
-5z m-3503 -13 c8 -5 12 -11 9 -14 -3 -3 -14 1 -25 9 -21 16 -8 20 16 5z m386
2 c9 -6 27 -52 20 -52 -1 0 -12 14 -24 30 -22 29 -20 38 4 22z m861 -4 c17 -7
31 -17 31 -23 1 -12 -37 -34 -58 -34 -8 0 -1 7 15 14 19 9 24 14 13 15 -10 0
-18 6 -18 14 0 8 -8 17 -17 19 -10 3 -13 5 -7 6 7 0 25 -5 41 -11z m-1552 -64
c-16 -51 -28 -70 -49 -81 -36 -19 -44 -11 -11 11 14 9 25 22 25 28 0 9 -3 9
-12 0 -7 -7 -17 -12 -23 -12 -5 0 5 12 23 26 44 35 40 49 -8 24 -50 -26 -52
-19 -2 11 27 17 33 24 20 26 -9 3 -27 -1 -38 -7 -32 -17 -39 -2 -10 20 15 12
41 20 66 20 l40 0 -21 -66z m139 57 c3 -5 -1 -11 -9 -14 -9 -4 -12 -1 -8 9 6
16 10 17 17 5z m1124 2 c-10 -2 -26 -2 -35 0 -10 3 -2 5 17 5 19 0 27 -2 18
-5z m69 -35 c-3 -8 -6 -5 -6 6 -1 11 2 17 5 13 3 -3 4 -12 1 -19z m-1762 -46
c-15 -16 -16 -15 -4 12 7 15 15 23 17 16 3 -7 -3 -19 -13 -28z m3862 32 c-3
-3 -12 -4 -19 -1 -8 3 -5 6 6 6 11 1 17 -2 13 -5z m-3664 -19 c-3 -9 -8 -14
-10 -11 -3 3 -2 9 2 15 9 16 15 13 8 -4z m367 5 c0 -5 -5 -10 -11 -10 -5 0 -7
5 -4 10 3 6 8 10 11 10 2 0 4 -4 4 -10z m3328 -7 c-10 -2 -26 -2 -35 0 -10 3
-2 5 17 5 19 0 27 -2 18 -5z m579 -9 c-3 -3 -12 -4 -19 -1 -8 3 -5 6 6 6 11 1
17 -2 13 -5z m-4747 -44 c0 -5 -5 -10 -11 -10 -5 0 -7 5 -4 10 3 6 8 10 11 10
2 0 4 -4 4 -10z m1846 -48 c-17 -16 -18 -16 -5 5 7 12 15 20 18 17 3 -2 -3
-12 -13 -22z m-3261 -23 c11 -17 0 -20 -21 -4 -17 13 -17 14 -2 15 9 0 20 -5
23 -11z m712 -31 c-3 -8 -6 -5 -6 6 -1 11 2 17 5 13 3 -3 4 -12 1 -19z m1858
-18 c18 -8 18 -9 -5 -8 -14 0 -36 4 -50 8 -24 8 -24 8 5 8 17 0 39 -3 50 -8z
m-148 -26 c-3 -3 -12 -4 -19 -1 -8 3 -5 6 6 6 11 1 17 -2 13 -5z m-2620 -10
c-3 -3 -12 -4 -19 -1 -8 3 -5 6 6 6 11 1 17 -2 13 -5z m4666 -11 c-7 -2 -21
-2 -30 0 -10 3 -4 5 12 5 17 0 24 -2 18 -5z m67 3 c0 -2 -7 -7 -16 -10 -8 -3
-12 -2 -9 4 6 10 25 14 25 6z m-3947 -133 c-7 -2 -19 -2 -25 0 -7 3 -2 5 12 5
14 0 19 -2 13 -5z m657 -17 c0 -2 -7 -9 -15 -16 -13 -11 -14 -10 -9 4 5 14 24
23 24 12z m1422 -41 c161 -28 277 -86 313 -155 46 -89 -6 -241 -105 -306 l-38
-26 20 -36 20 -37 -22 28 c-12 15 -27 24 -32 21 -7 -5 -8 -2 -3 6 6 10 2 12
-16 7 -13 -4 -41 -10 -62 -13 -27 -5 -37 -11 -35 -23 3 -16 89 -63 111 -60 30
4 70 -2 63 -8 -4 -5 -24 -13 -44 -19 -32 -9 -43 -7 -84 13 -27 13 -54 36 -65
54 l-18 31 -101 -5 c-58 -3 -110 -10 -124 -18 -18 -11 -24 -11 -27 -1 -3 6
-18 12 -34 12 l-29 0 0 -117 c0 -65 4 -123 8 -129 4 -6 21 -18 37 -27 28 -15
21 -16 -150 -16 -125 1 -170 4 -149 10 60 17 59 9 59 404 0 395 1 387 -58 402
-27 7 -20 9 43 13 168 11 446 9 522 -5z m807 -8 c-63 -28 -59 -2 -59 -436 0
-430 -1 -424 55 -440 20 -6 -29 -9 -150 -9 -121 0 -170 3 -150 9 51 15 55 29
55 190 0 81 -4 150 -8 153 -20 12 -62 -54 -62 -99 0 -26 -26 -68 -45 -74 -5
-2 -29 -17 -53 -33 -67 -46 -199 -104 -287 -127 -149 -37 -397 -51 -585 -32
-58 6 -49 7 80 13 187 10 307 30 455 79 144 48 246 101 339 177 37 32 75 62
84 67 9 6 25 20 35 33 10 12 25 22 33 22 12 0 14 33 14 218 -1 119 -4 228 -7
240 -4 16 -20 30 -47 42 l-41 19 185 -1 c149 0 180 -2 159 -11z m1806 -7 c10
-11 16 -20 13 -20 -3 0 -13 9 -23 20 -10 11 -16 20 -13 20 3 0 13 -9 23 -20z
m-3411 -15 c3 -13 20 -40 36 -59 17 -18 30 -36 30 -38 0 -2 -46 11 -102 29
-57 18 -130 38 -163 44 -65 11 -344 27 -351 20 -8 -9 -4 -380 5 -385 11 -7
191 9 328 30 l101 15 66 -33 c36 -18 66 -36 66 -40 0 -4 -30 -22 -66 -39 l-65
-32 -97 17 c-83 14 -267 35 -324 36 -16 0 -18 -17 -17 -201 1 -149 4 -202 14
-205 24 -9 371 16 428 31 33 8 91 36 129 61 l71 45 -7 -28 c-4 -15 -12 -54
-19 -85 l-12 -58 -406 0 c-392 0 -469 5 -469 31 0 5 10 9 23 9 33 0 60 23 66
56 3 16 6 101 6 189 l0 160 -100 5 c-76 4 -92 7 -66 13 18 4 62 7 97 7 l64 0
1 93 c1 202 -2 272 -14 284 -7 6 -28 16 -47 21 l-35 9 35 11 c21 6 180 11 411
11 l377 1 6 -25z m1976 13 c-123 -51 -179 -88 -267 -173 l-93 -90 0 47 c0 44
2 48 58 92 74 60 160 103 242 120 78 17 93 18 60 4z m554 -3 c60 -8 133 -21
162 -30 52 -15 53 -16 58 -58 8 -63 13 -147 10 -147 -2 0 -10 15 -19 34 -55
116 -165 180 -346 201 -108 12 -252 -27 -336 -91 -31 -24 -69 -75 -44 -60 6 4
11 3 11 -3 0 -5 -10 -11 -22 -13 -35 -5 -70 -102 -76 -208 -9 -185 61 -339
190 -418 43 -26 73 -35 144 -43 141 -17 249 -9 319 26 68 33 133 93 159 148
10 21 20 36 22 34 3 -3 2 -44 -2 -91 l-7 -86 -51 -15 c-91 -26 -188 -36 -333
-36 -284 2 -459 70 -575 223 -37 48 -68 129 -68 174 0 13 -4 26 -10 29 -5 3
-10 5 -10 3 0 -2 -10 -28 -20 -58 -11 -30 -18 -44 -15 -30 2 14 5 32 5 41 0 9
11 32 24 51 13 19 26 55 30 80 10 67 71 160 136 209 70 53 137 84 236 109 163
41 262 47 428 25z m-164 -226 c-7 -11 -14 -19 -16 -16 -7 7 7 37 17 37 6 0 5
-9 -1 -21z m-4132 -161 c20 -20 15 -48 -9 -48 -12 0 -19 5 -16 13 2 6 0 20 -5
30 -10 20 11 24 30 5z m49 -124 c-3 -3 -12 -4 -19 -1 -8 3 -5 6 6 6 11 1 17
-2 13 -5z m1972 -25 c-13 -25 -39 -54 -39 -45 0 10 44 75 48 71 2 -2 -2 -14
-9 -26z m708 9 c-3 -8 -6 -5 -6 6 -1 11 2 17 5 13 3 -3 4 -12 1 -19z m-827
-52 c0 -3 -15 -14 -32 -26 l-33 -22 30 26 c31 27 35 29 35 22z m-1120 -46 c25
-10 37 -19 28 -19 -29 -1 -118 22 -118 31 0 14 42 8 90 -12z m3840 -4 c0 -2
-7 -7 -16 -10 -8 -3 -12 -2 -9 4 6 10 25 14 25 6z m1225 -56 c-7 -11 -65 -43
-65 -36 0 4 62 45 68 46 2 0 0 -5 -3 -10z m-615 -215 c0 -6 -155 -52 -200 -59
-19 -3 -1 6 40 20 41 14 88 27 104 30 16 2 32 6 34 9 7 6 22 7 22 0z m-165
-115 c-3 -5 -11 -10 -16 -10 -6 0 -7 5 -4 10 3 6 11 10 16 10 6 0 7 -4 4 -10z
m-1942 -7 c-7 -2 -21 -2 -30 0 -10 3 -4 5 12 5 17 0 24 -2 18 -5z m1897 -18
c-7 -8 -17 -15 -23 -15 -6 0 -2 7 9 15 25 19 30 19 14 0z m-45 -25 c-3 -6 -21
-17 -38 -26 -36 -19 -31 -9 10 17 34 21 36 22 28 9z m-3812 -57 c27 -25 22
-78 -9 -102 -68 -54 -154 15 -113 90 21 40 83 46 122 12z m154 1 c2 -11 0 -13
-3 -6 -3 6 -14 12 -25 12 -14 0 -19 -7 -19 -26 0 -23 3 -25 25 -20 18 5 23 3
19 -8 -3 -8 -13 -12 -26 -8 -19 5 -21 2 -15 -30 5 -32 3 -36 -16 -34 -20 1
-22 6 -22 71 l0 70 40 -1 c31 -1 41 -5 42 -20z m411 20 c12 -4 22 -13 22 -22
0 -12 -3 -13 -12 -4 -21 21 -67 15 -79 -12 -19 -40 7 -80 56 -87 40 -5 40 -5
11 -14 -89 -25 -147 91 -66 132 28 14 36 15 68 7z m710 0 c21 -6 32 -34 12
-34 -5 0 -10 5 -10 10 0 14 -54 12 -68 -2 -15 -15 -16 -53 -2 -79 8 -14 22
-19 53 -19 31 0 38 -3 27 -10 -47 -30 -120 9 -120 64 0 53 49 85 108 70z m175
-5 c30 -16 37 -28 37 -66 0 -62 -80 -95 -127 -51 -63 59 13 157 90 117z m167
-41 l42 -53 -3 48 c-3 37 -1 47 11 47 12 0 14 -12 12 -57 -5 -93 -8 -94 -63
-33 l-50 55 4 -51 c3 -45 2 -51 -14 -47 -15 4 -16 9 -7 28 7 17 8 36 1 64 -9
34 -8 41 6 44 9 3 17 5 18 6 1 0 20 -23 43 -51z m228 46 c12 -4 22 -13 22 -21
0 -12 -3 -13 -14 -4 -25 21 -69 9 -80 -21 -15 -42 14 -78 62 -78 27 0 33 -3
22 -10 -42 -27 -120 9 -120 56 0 60 47 94 108 78z m162 -3 c6 -1 10 -5 10 -11
0 -5 -13 -7 -30 -3 -27 5 -30 3 -30 -21 0 -28 18 -34 38 -14 9 9 12 7 12 -10
0 -19 -4 -21 -25 -16 -22 5 -25 3 -25 -20 0 -21 5 -26 24 -26 13 0 27 6 29 13
3 7 6 6 6 -5 1 -24 -14 -31 -57 -23 l-37 6 3 59 c3 41 0 60 -8 60 -6 0 -9 3
-7 8 4 6 55 8 97 3z m157 -5 c16 -7 17 -38 1 -54 -7 -7 -22 -12 -35 -12 -18 0
-23 -6 -23 -25 0 -14 5 -25 10 -25 6 0 10 -4 10 -9 0 -4 -12 -8 -27 -7 -28 1
-28 2 -28 71 l0 70 39 -2 c22 -1 45 -4 53 -7z m942 -29 c-5 -18 -9 -44 -9 -60
0 -35 -38 -55 -78 -41 -25 9 -27 15 -32 72 -5 57 -3 62 15 62 18 0 20 -7 20
-57 0 -58 0 -58 30 -58 l30 0 0 61 c0 52 2 60 17 57 13 -4 14 -11 7 -36z m236
-31 c0 -74 0 -75 -26 -74 -25 1 -26 3 -22 47 l3 46 -22 -42 c-12 -24 -25 -43
-30 -43 -4 0 -19 21 -33 48 l-26 47 4 -51 c2 -33 0 -51 -8 -51 -7 0 -10 19 -7
60 3 43 1 62 -9 68 -10 6 -5 9 16 9 25 0 33 -7 48 -40 17 -37 37 -53 37 -31 0
22 43 81 58 81 14 0 17 -12 17 -74z m-3036 47 c0 -11 -3 -13 -6 -5 -2 6 -16
12 -29 12 -17 0 -24 -6 -24 -19 0 -26 17 -36 35 -21 13 10 15 8 14 -16 0 -16
-3 -23 -6 -16 -2 6 -13 12 -24 12 -14 0 -19 -7 -19 -25 0 -14 5 -25 10 -25 6
0 10 -4 10 -8 0 -5 -12 -9 -27 -9 -28 0 -28 1 -28 69 l0 68 48 0 c38 0 47 -3
46 -17z m96 -51 c0 -60 -2 -67 -20 -67 -18 0 -20 7 -20 67 0 61 2 68 20 68 18
0 20 -7 20 -68z m288 61 c-16 -6 -18 -113 -3 -113 6 0 10 -4 10 -9 0 -5 -12
-8 -27 -8 -28 2 -28 2 -28 69 l0 68 30 -1 c17 0 24 -3 18 -6z m162 -55 c16
-35 30 -66 32 -69 2 -3 -10 -6 -26 -7 -26 -1 -30 3 -28 21 2 17 -4 23 -25 25
-27 3 -33 -4 -29 -34 1 -6 -6 -11 -14 -11 -9 0 -14 3 -13 6 2 3 14 34 28 69
14 34 30 62 36 62 6 0 24 -28 39 -62z m127 2 c-4 -58 -3 -60 21 -60 14 0 28 6
31 13 3 6 5 3 3 -8 -2 -17 -10 -20 -47 -20 l-44 1 3 58 c2 41 -2 61 -11 67 -9
6 -3 9 17 9 l30 0 -3 -60z m1361 43 c-4 -11 -8 -12 -11 -5 -2 7 -11 12 -19 12
-13 0 -15 -11 -11 -63 l4 -64 -28 0 c-15 0 -28 4 -28 9 0 4 5 8 10 8 6 0 10
23 10 50 0 37 -4 52 -16 57 -9 3 -20 0 -25 -8 -7 -11 -9 -11 -9 4 0 14 10 17
65 17 56 0 64 -2 58 -17z m233 -45 c15 -35 30 -66 32 -70 2 -5 -8 -7 -22 -6
-17 2 -26 8 -26 20 0 18 -33 33 -50 23 -6 -4 -8 -15 -5 -26 5 -15 1 -19 -14
-19 -24 0 -25 3 -11 28 6 9 19 38 30 65 10 26 23 47 28 47 5 0 22 -28 38 -62z
m126 2 c-4 -58 -3 -60 21 -60 14 0 28 6 31 13 3 6 5 3 3 -8 -2 -17 -10 -20
-46 -20 l-43 0 -2 68 c-1 61 1 67 19 67 18 0 20 -5 17 -60z m215 44 c3 -8 1
-20 -5 -26 -8 -8 -7 -15 4 -25 17 -18 18 -24 1 -47 -9 -12 -28 -19 -53 -21
l-40 -2 4 60 c3 43 1 62 -9 68 -9 6 5 9 39 9 39 0 54 -4 59 -16z m-561 -191
c-47 -25 -102 -46 -91 -34 15 15 87 50 105 50 8 0 2 -7 -14 -16z m-1279 -159
c-3 -3 -12 -4 -19 -1 -8 3 -5 6 6 6 11 1 17 -2 13 -5z m-937 -36 c35 -24 50
-48 30 -48 -7 0 -25 10 -40 23 -15 12 -36 27 -46 34 -18 11 -18 12 2 12 12 1
36 -9 54 -21z m-133 0 c-9 -7 -24 -22 -33 -33 -8 -11 -12 -13 -8 -5 11 24 36
50 47 50 6 0 3 -6 -6 -12z m1168 2 c3 -6 -1 -7 -9 -4 -18 7 -21 14 -7 14 6 0
13 -4 16 -10z m352 -14 c-15 -7 -46 -30 -70 -52 l-42 -39 40 43 c38 41 67 61
90 61 6 -1 -2 -6 -18 -13z m-2607 -33 c0 -11 -59 -113 -65 -113 -5 0 10 38 37
92 12 26 28 37 28 21z m2817 -69 c-3 -3 -12 -4 -19 -1 -8 3 -5 6 6 6 11 1 17
-2 13 -5z m-55 -14 c-12 -5 -53 -12 -90 -14 l-67 -5 60 9 c33 6 64 12 70 14 5
2 19 4 30 5 18 0 18 -1 -3 -9z m-1052 -105 c0 -7 -103 -65 -115 -65 -5 0 17
16 50 34 67 39 65 38 65 31z m2579 -139 c2 -45 -6 -27 -12 29 -4 34 -3 42 3
25 4 -14 8 -38 9 -54z m-2746 57 c-7 -2 -21 -2 -30 0 -10 3 -4 5 12 5 17 0 24
-2 18 -5z m-60 -40 c-7 -2 -21 -2 -30 0 -10 3 -4 5 12 5 17 0 24 -2 18 -5z
m3717 -68 c0 -2 -10 -10 -22 -16 -21 -11 -22 -11 -9 4 13 16 31 23 31 12z m50
-20 c-46 -18 -74 -17 -35 0 17 8 39 14 50 14 13 0 8 -5 -15 -14z m153 8 c-7
-2 -21 -2 -30 0 -10 3 -4 5 12 5 17 0 24 -2 18 -5z m106 -19 c29 -8 51 -17 49
-19 -2 -2 -32 5 -68 15 -36 10 -58 19 -49 19 8 1 39 -6 68 -15z m-345 -47
c-22 -11 -47 -26 -56 -35 -10 -8 -18 -10 -18 -4 0 16 83 70 99 64 8 -3 -1 -13
-25 -25z m83 27 c-3 -3 -12 -4 -19 -1 -8 3 -5 6 6 6 11 1 17 -2 13 -5z m373
-24 c8 -5 11 -10 5 -10 -5 0 -17 5 -25 10 -8 5 -10 10 -5 10 6 0 17 -5 25 -10z
m-560 -3 c0 -2 -10 -12 -22 -23 l-23 -19 19 23 c18 21 26 27 26 19z m268 -212
c15 -9 18 -13 7 -9 -11 4 -45 13 -75 21 l-55 13 48 -5 c26 -3 60 -12 75 -20z
m-197 -23 c-20 -20 -46 -51 -59 -67 l-22 -30 16 35 c15 33 79 100 95 100 3 0
-10 -17 -30 -38z m-1374 -18 c-3 -3 -12 -4 -19 -1 -8 3 -5 6 6 6 11 1 17 -2
13 -5z m780 0 c-3 -3 -12 -4 -19 -1 -8 3 -5 6 6 6 11 1 17 -2 13 -5z m-341
-29 c-27 -22 -113 -51 -123 -42 -2 3 16 9 39 15 24 7 57 20 73 31 41 27 46 25
11 -4z m1515 5 c90 -17 79 -29 -22 -23 l-94 5 -28 -35 c-17 -22 -34 -34 -42
-30 -26 9 3 43 58 69 60 27 57 27 128 14z m-1056 -10 c3 -6 -1 -7 -9 -4 -18 7
-21 14 -7 14 6 0 13 -4 16 -10z m775 -20 c8 -15 8 -18 -3 -14 -8 3 -14 11 -14
19 0 20 4 19 17 -5z m-2779 1 c-11 -7 -10 -10 5 -13 10 -2 -7 -9 -38 -16 -44
-10 -66 -22 -97 -54 -45 -44 -48 -44 -27 5 22 54 70 87 124 87 31 0 42 -3 33
-9z m1262 2 c-7 -2 -21 -2 -30 0 -10 3 -4 5 12 5 17 0 24 -2 18 -5z m-1132
-50 c13 -17 13 -17 -6 -3 -11 8 -22 16 -24 17 -2 2 0 3 6 3 6 0 17 -8 24 -17z
m1232 10 c-7 -2 -19 -2 -25 0 -7 3 -2 5 12 5 14 0 19 -2 13 -5z m-1936 -200
c-3 -10 -5 -4 -5 12 0 17 2 24 5 18 2 -7 2 -21 0 -30z m-195 -35 c-7 -7 -12
-8 -12 -2 0 14 12 26 19 19 2 -3 -1 -11 -7 -17z m302 -13 c-52 -26 -283 -90
-292 -80 -3 3 1 5 9 5 10 1 9 4 -4 11 -9 6 -15 14 -12 19 13 21 -19 19 -67 -6
l-53 -26 34 35 c32 34 36 35 85 30 28 -3 56 -10 63 -15 8 -6 28 -2 57 11 25
11 46 16 46 11 0 -4 -6 -11 -12 -14 -7 -3 11 -4 40 -2 29 1 60 10 70 19 9 8
26 17 37 20 46 11 46 6 -1 -18z m226 -25 c-6 -11 -13 -20 -16 -20 -2 0 0 9 6
20 6 11 13 20 16 20 2 0 0 -9 -6 -20z m2975 0 c-11 -5 -29 -9 -41 -9 -11 -1
-61 -27 -110 -60 -98 -64 -105 -74 -213 -276 -11 -22 -21 -34 -21 -26 0 21 87
183 121 224 17 21 64 60 104 87 41 27 76 54 80 60 3 5 27 10 53 9 35 0 42 -3
27 -9z m685 -277 c-1 -5 -14 -24 -30 -43 -35 -40 -43 -19 -9 24 20 25 39 34
39 19z m-4560 -33 c-14 -11 -29 -20 -35 -20 -5 0 4 9 20 20 38 25 48 25 15 0z
m2315 -20 c-33 -22 -64 -40 -70 -40 -17 0 44 50 78 65 56 25 53 16 -8 -25z
m-161 -162 c-20 -35 -68 -108 -71 -108 -6 0 28 63 50 93 21 28 34 37 21 15z
m-2507 -363 c2 -11 0 -14 -3 -7 -3 6 -14 12 -25 12 -16 0 -19 -7 -19 -54 0
-34 5 -56 13 -59 6 -3 -1 -6 -18 -6 l-30 -1 3 60 c4 62 -7 77 -36 48 -9 -9
-12 -9 -12 3 0 24 6 26 67 25 50 -1 58 -4 60 -21z m86 -7 c-5 -26 -3 -28 27
-28 31 0 32 2 27 29 -5 25 -3 29 16 27 22 -1 23 -5 19 -60 -3 -42 -1 -61 9
-67 10 -6 5 -9 -17 -9 -28 0 -31 2 -26 26 5 30 -10 44 -40 36 -15 -4 -19 -11
-16 -33 4 -24 1 -29 -16 -29 -19 0 -21 6 -21 68 0 62 2 67 22 67 18 0 21 -4
16 -27z m244 16 c2 -7 -8 -9 -27 -6 -25 3 -30 1 -30 -15 0 -27 9 -34 31 -22
16 8 19 6 19 -9 0 -15 -5 -18 -25 -14 -22 4 -25 1 -25 -23 0 -25 3 -27 30 -23
17 3 30 1 30 -4 0 -4 -20 -8 -45 -8 l-45 0 0 54 c0 30 -3 61 -6 69 -5 13 3 15
42 14 26 -1 49 -7 51 -13z m195 -46 c-4 -48 -2 -59 13 -64 34 -13 50 9 50 68
0 33 4 55 11 55 13 0 6 -106 -8 -124 -15 -19 -43 -24 -72 -14 -24 10 -26 15
-26 64 0 29 -5 58 -10 63 -7 7 -2 11 18 11 l28 0 -4 -59z m214 6 l43 -49 1 41
c0 22 -5 45 -12 52 -9 9 -7 12 11 12 17 0 22 -4 17 -16 -3 -9 -6 -40 -6 -70 0
-67 -12 -69 -60 -9 -19 24 -38 44 -42 44 -13 1 -9 -77 5 -82 6 -3 3 -6 -8 -6
-18 -1 -20 5 -20 68 0 83 9 85 71 15z m238 37 c23 -19 20 -77 -4 -101 -14 -14
-33 -20 -67 -20 l-48 0 0 70 0 69 52 -2 c28 -2 58 -9 67 -16z m163 3 c2 -7 -8
-9 -27 -6 -25 4 -30 1 -30 -16 0 -27 17 -37 35 -22 12 10 15 9 15 -7 0 -16 -5
-19 -25 -15 -22 4 -25 1 -25 -22 0 -21 5 -26 24 -26 13 0 27 6 29 13 3 7 6 5
6 -5 1 -15 -8 -18 -44 -18 l-45 0 0 54 c0 30 -2 61 -5 69 -5 11 4 14 41 13 26
-1 49 -6 51 -12z m152 2 c16 -10 14 -31 -4 -46 -13 -11 -13 -17 6 -46 17 -28
18 -34 5 -34 -8 0 -24 14 -36 31 -21 28 -21 31 -5 49 18 20 13 40 -11 40 -13
0 -15 -11 -12 -60 3 -55 1 -60 -17 -60 -18 0 -20 7 -20 69 l0 69 41 -3 c23 -1
47 -6 53 -9z m105 2 c-3 -5 -3 -26 1 -46 l8 -37 22 50 23 50 16 -37 c9 -21 16
-43 16 -50 0 -30 22 13 23 44 0 21 6 35 14 35 7 0 13 -1 13 -1 -1 -1 -9 -30
-19 -65 -10 -36 -22 -66 -28 -68 -5 -2 -16 15 -23 37 -7 22 -16 40 -21 40 -4
0 -14 -18 -23 -40 -9 -22 -20 -40 -24 -40 -5 0 -15 26 -22 58 -7 31 -14 62
-16 67 -2 6 7 11 21 11 14 1 22 -2 19 -8z m313 -15 c39 -52 -9 -131 -72 -119
-63 12 -84 78 -39 123 21 21 32 24 62 19 20 -3 43 -13 49 -23z m154 16 c23
-12 24 -32 4 -49 -13 -11 -13 -17 6 -46 17 -28 18 -34 5 -34 -8 0 -24 14 -36
30 -20 28 -20 31 -5 46 19 19 15 38 -9 42 -16 3 -17 -3 -14 -57 3 -56 1 -61
-17 -61 -18 0 -20 7 -20 69 l0 68 34 1 c18 1 42 -3 52 -9z m121 -55 c-4 -63
-4 -64 21 -64 14 0 28 6 30 13 3 7 6 5 6 -5 1 -15 -8 -18 -46 -18 l-48 0 0 68
c0 60 2 67 20 68 19 2 21 -3 17 -62z m185 60 c62 -9 81 -58 42 -108 -17 -22
-28 -26 -70 -26 l-49 0 0 54 c0 30 -3 61 -6 69 -6 16 19 19 83 11z m291 -18
c4 -18 3 -18 -12 -3 -9 9 -23 14 -32 10 -25 -9 -11 -36 24 -45 24 -7 32 -14
32 -32 0 -53 -91 -79 -98 -28 -2 12 1 22 7 22 6 0 11 -7 11 -16 0 -11 8 -14
28 -12 36 4 35 29 -3 41 -47 16 -58 43 -29 72 22 22 68 16 72 -9z m163 -46
c13 -30 28 -58 33 -62 6 -4 -3 -8 -20 -8 -24 0 -31 4 -30 18 1 12 -7 18 -26
20 -26 3 -33 -5 -29 -30 0 -5 -6 -8 -13 -8 -13 0 -13 4 0 35 7 19 21 52 29 72
18 43 24 39 56 -37z m203 64 c17 -7 22 -34 6 -34 -5 0 -10 5 -10 10 0 6 -16
10 -35 10 -24 0 -37 -6 -45 -19 -24 -45 -1 -91 46 -91 25 0 34 24 12 33 -7 3
-1 6 15 6 22 1 27 -3 27 -23 0 -46 -105 -43 -129 3 -36 67 36 134 113 105z
m169 -64 l33 -70 -27 0 c-19 0 -26 5 -25 18 1 12 -8 18 -28 20 -25 3 -28 1
-23 -17 4 -16 0 -21 -13 -21 -18 0 -18 3 4 53 12 28 26 60 29 70 4 9 9 17 12
17 2 0 20 -31 38 -70z m-3253 -20 c0 -5 -11 -10 -25 -10 -14 0 -25 5 -25 10 0
6 11 10 25 10 14 0 25 -4 25 -10z m3470 0 c0 -5 -11 -10 -25 -10 -14 0 -25 5
-25 10 0 6 11 10 25 10 14 0 25 -4 25 -10z"/>
<path d="M2075 4660 c-10 -11 -13 -20 -7 -20 7 0 21 9 32 20 14 14 16 20 7 20
-8 0 -22 -9 -32 -20z"/>
<path d="M2871 3809 c0 -207 1 -210 22 -219 20 -7 20 -9 5 -15 -10 -4 -18 -18
-18 -31 0 -24 1 -25 88 -23 106 1 160 12 230 46 179 87 189 304 19 398 -72 40
-143 55 -258 55 l-89 0 1 -211z m229 -198 c0 -5 -19 -24 -42 -42 l-43 -33 40
42 c42 45 45 47 45 33z"/>
<path d="M1702 2878 c-16 -16 -15 -60 1 -80 44 -55 102 7 67 73 -12 21 -50 25
-68 7z"/>
<path d="M3169 2866 c-22 -47 14 -106 55 -90 21 8 31 50 20 83 -13 37 -60 42
-75 7z"/>
<path d="M3900 2865 c0 -20 4 -26 18 -23 9 2 17 12 17 23 0 11 -8 21 -17 23
-14 3 -18 -3 -18 -23z"/>
<path d="M2586 2844 c-9 -22 -8 -24 9 -24 8 0 15 6 15 14 0 22 -17 28 -24 10z"/>
<path d="M4310 2835 c0 -8 5 -15 10 -15 6 0 10 7 10 15 0 8 -4 15 -10 15 -5 0
-10 -7 -10 -15z"/>
<path d="M4650 2870 c0 -11 7 -20 15 -20 8 0 15 9 15 20 0 11 -7 20 -15 20 -8
0 -15 -9 -15 -20z"/>
<path d="M4657 2833 c-4 -3 -7 -17 -7 -30 0 -28 26 -31 33 -3 5 20 -15 45 -26
33z"/>
<path d="M2619 1356 c7 -8 21 -12 31 -9 27 7 15 23 -17 23 -21 0 -23 -3 -14
-14z"/>
<path d="M2760 475 c0 -51 2 -55 23 -55 31 0 47 18 47 51 0 45 -10 59 -41 59
-28 0 -29 -1 -29 -55z"/>
<path d="M3479 506 c-24 -53 26 -109 67 -76 17 15 19 71 2 88 -21 21 -57 14
-69 -12z"/>
<path d="M3990 476 c0 -53 1 -56 25 -56 35 0 60 40 48 77 -7 22 -17 29 -41 31
l-32 3 0 -55z"/>
<path d="M4436 484 c-9 -22 -8 -24 9 -24 8 0 15 6 15 14 0 22 -17 28 -24 10z"/>
<path d="M4806 484 c-9 -22 -8 -24 9 -24 8 0 15 6 15 14 0 22 -17 28 -24 10z"/>
<path d="M1261 6720 c39 -76 65 -112 53 -73 -3 10 1 7 9 -7 9 -14 34 -83 57
-154 26 -79 46 -124 52 -118 18 18 -34 171 -119 355 -33 69 -39 77 -64 77
l-29 0 41 -80z"/>
<path d="M1312 6778 c8 -13 36 -63 62 -111 27 -48 50 -86 52 -84 3 2 -9 36
-25 76 -16 39 -27 71 -24 71 7 0 88 -180 114 -254 13 -38 25 -63 27 -54 5 24
-24 130 -70 261 l-42 117 -54 0 c-54 0 -54 0 -40 -22z"/>
<path d="M1459 6741 c31 -61 67 -167 97 -286 l18 -70 9 40 c9 47 -2 128 -40
273 l-26 102 -44 0 -43 0 29 -59z"/>
<path d="M1572 6775 c6 -14 13 -24 14 -22 6 6 -9 47 -17 47 -5 0 -3 -11 3 -25z"/>
<path d="M1615 6780 c3 -14 13 -52 21 -84 10 -36 17 -107 18 -178 l1 -119 18
38 c12 27 16 54 13 93 -5 61 -48 229 -66 257 -10 16 -11 15 -5 -7z"/>
<path d="M1741 6793 c0 -5 4 -17 9 -28 8 -18 9 -17 9 8 1 15 -3 27 -9 27 -5 0
-10 -3 -9 -7z"/>
<path d="M5616 6709 c20 -23 24 -23 24 -5 0 7 -9 16 -21 19 -20 5 -20 5 -3
-14z"/>
<path d="M5650 6630 c0 -5 5 -10 10 -10 6 0 10 5 10 10 0 6 -4 10 -10 10 -5 0
-10 -4 -10 -10z"/>
<path d="M1301 6395 c1 -19 18 -51 18 -35 0 8 -4 22 -9 30 -5 8 -9 11 -9 5z"/>
<path d="M1341 6004 c0 -11 3 -14 6 -6 3 7 2 16 -1 19 -3 4 -6 -2 -5 -13z"/>
<path d="M3180 5980 c6 -11 13 -20 16 -20 2 0 0 9 -6 20 -6 11 -13 20 -16 20
-2 0 0 -9 6 -20z"/>
<path d="M1353 5955 c-3 -9 -3 -19 1 -22 3 -4 6 1 6 10 0 8 6 18 13 20 9 4 9
6 -1 6 -7 1 -15 -6 -19 -14z"/>
<path d="M1362 5875 c-1 -27 1 -35 7 -26 7 11 10 10 14 -5 4 -16 5 -16 6 4 0
12 -3 22 -8 22 -5 0 -12 10 -14 23 -2 12 -5 5 -5 -18z"/>
<path d="M1282 5877 c-1 -16 -7 -38 -13 -50 -11 -20 -10 -21 6 -6 11 11 15 27
12 50 -3 30 -4 31 -5 6z"/>
<path d="M1360 5770 c0 -29 2 -51 4 -49 8 8 10 88 3 95 -4 4 -7 -17 -7 -46z"/>
<path d="M3545 5776 c10 -14 19 -26 22 -26 7 0 -17 39 -28 46 -6 3 -3 -5 6
-20z"/>
<path d="M1230 5718 c-8 -21 -18 -38 -23 -38 -4 0 -6 -4 -3 -9 3 -5 -15 -39
-39 -77 -25 -38 -54 -87 -65 -110 -24 -48 -42 -142 -38 -187 3 -28 6 -24 26
38 13 39 39 99 58 134 40 73 74 158 74 184 0 10 7 29 16 42 9 13 14 32 12 42
-3 13 -8 7 -18 -19z"/>
<path d="M3795 5710 c4 -19 11 -60 16 -90 7 -49 7 -46 4 24 -2 44 -9 84 -16
90 -9 8 -10 3 -4 -24z"/>
<path d="M1269 5603 c-8 -15 -38 -63 -68 -108 -30 -44 -64 -103 -77 -131 -28
-65 -16 -91 14 -30 12 24 45 75 72 112 28 38 58 93 66 122 18 60 15 76 -7 35z"/>
<path d="M1282 5528 c-6 -18 -32 -60 -57 -93 -48 -65 -55 -81 -28 -71 13 5 11
0 -7 -21 -14 -15 -28 -30 -32 -33 -12 -9 -38 -91 -38 -119 0 -14 5 -33 10 -41
7 -11 10 -4 10 28 0 55 22 108 64 152 18 19 40 55 49 80 9 25 25 69 36 98 12
28 17 52 13 52 -4 0 -13 -15 -20 -32z"/>
<path d="M1038 5513 c-46 -49 -55 -67 -63 -133 -9 -73 16 -170 57 -221 26 -32
33 -36 44 -24 8 7 14 22 13 32 0 14 -2 13 -10 -5 -8 -20 -11 -22 -23 -9 -53
53 -44 280 14 359 39 52 18 53 -32 1z"/>
<path d="M5610 5423 c0 -12 5 -25 10 -28 13 -8 13 15 0 35 -8 12 -10 11 -10
-7z"/>
<path d="M2251 5414 c0 -11 3 -14 6 -6 3 7 2 16 -1 19 -3 4 -6 -2 -5 -13z"/>
<path d="M3995 5400 l-60 -6 60 -4 c33 -3 83 -2 110 1 43 5 45 6 13 7 -20 1
-42 3 -50 5 -7 2 -40 1 -73 -3z"/>
<path d="M4032 5363 c21 -24 29 -65 18 -83 -7 -11 -10 -7 -10 16 0 18 -9 42
-21 55 -19 23 -20 23 -10 2 16 -32 13 -58 -9 -84 -14 -17 -18 -19 -14 -6 3 9
1 17 -5 17 -6 0 -11 -4 -11 -10 0 -5 -14 -25 -31 -45 -31 -35 -53 -39 -42 -7
5 13 3 15 -7 5 -23 -21 -4 -45 30 -39 16 3 44 9 60 12 37 7 49 -15 29 -54 -7
-15 -15 -30 -17 -34 -2 -3 6 -4 17 -1 21 5 23 10 25 68 1 27 5 31 48 40 26 5
55 19 65 29 17 19 17 19 -1 5 -18 -13 -19 -12 -11 6 4 11 10 34 12 50 4 29 3
29 -19 -10 l-23 -40 -6 45 c-4 33 -6 37 -7 15 -2 -28 -58 -112 -69 -102 -2 3
7 17 21 32 15 16 26 38 26 51 0 32 -19 72 -38 79 -14 5 -14 4 0 -12z m-22
-122 c-11 -21 -30 -37 -30 -25 0 8 30 44 37 44 2 0 -1 -9 -7 -19z"/>
<path d="M4965 5310 c-3 -19 -15 -53 -25 -75 -15 -30 -17 -48 -11 -70 l9 -30
15 35 c8 19 31 64 51 99 20 35 34 67 30 70 -3 3 -19 6 -34 6 -25 0 -30 -5 -35
-35z"/>
<path d="M5035 5280 c-14 -27 -23 -50 -20 -50 2 0 16 23 30 50 14 28 23 50 20
50 -2 0 -16 -22 -30 -50z"/>
<path d="M4354 5252 c-18 -26 -35 -60 -38 -77 -5 -22 3 -13 29 32 20 34 40 65
45 68 6 4 10 10 10 16 0 20 -17 7 -46 -39z"/>
<path d="M1091 5274 c0 -11 3 -14 6 -6 3 7 2 16 -1 19 -3 4 -6 -2 -5 -13z"/>
<path d="M2190 5276 c0 -22 63 -136 95 -171 l37 -40 -26 37 c-14 20 -44 69
-66 110 -22 40 -40 69 -40 64z"/>
<path d="M5061 5243 c-36 -45 -68 -105 -75 -143 -3 -19 -2 -30 2 -23 5 8 13 9
22 3 8 -6 27 -10 41 -10 26 0 27 2 31 68 3 37 4 69 2 71 -2 2 -8 -18 -15 -43
-8 -33 -15 -44 -22 -37 -7 7 -3 31 15 76 15 36 25 65 24 65 -1 0 -12 -12 -25
-27z"/>
<path d="M1901 5203 c0 -4 13 -18 30 -31 16 -13 29 -20 28 -15 0 4 -13 18 -30
31 -16 13 -29 20 -28 15z"/>
<path d="M2961 5149 c-29 -33 -50 -63 -46 -67 6 -7 15 2 86 91 49 60 19 42
-40 -24z"/>
<path d="M3162 5156 c-33 -24 -63 -50 -68 -57 -8 -13 56 31 111 76 50 41 21
28 -43 -19z"/>
<path d="M3959 5113 c-13 -16 -12 -17 4 -4 9 7 17 15 17 17 0 8 -8 3 -21 -13z"/>
<path d="M2588 5103 c7 -3 16 -2 19 1 4 3 -2 6 -13 5 -11 0 -14 -3 -6 -6z"/>
<path d="M1420 4990 c0 -5 5 -10 10 -10 6 0 10 5 10 10 0 6 -4 10 -10 10 -5 0
-10 -4 -10 -10z"/>
<path d="M5972 4950 c-2 -27 -5 -31 -12 -20 -8 12 -10 13 -10 1 0 -8 -7 -23
-17 -33 -18 -20 -4 -25 15 -6 9 9 12 9 12 -3 0 -8 -5 -20 -12 -27 -9 -9 -8
-12 5 -12 21 0 30 33 24 91 -3 39 -4 40 -5 9z"/>
<path d="M1500 4955 c-11 -13 -9 -15 15 -15 16 0 25 5 23 12 -7 19 -24 20 -38
3z"/>
<path d="M5498 4953 c7 -3 16 -2 19 1 4 3 -2 6 -13 5 -11 0 -14 -3 -6 -6z"/>
<path d="M1480 4920 l-45 -7 40 -1 c22 0 60 3 85 7 l45 8 -40 0 c-22 0 -60 -3
-85 -7z"/>
<path d="M5906 4915 c-16 -12 -17 -15 -4 -15 9 0 18 7 22 15 7 18 6 18 -18 0z"/>
<path d="M2305 4880 c3 -5 19 -10 35 -10 16 0 32 5 35 10 4 6 -10 10 -35 10
-25 0 -39 -4 -35 -10z"/>
<path d="M4580 4879 c60 -10 108 -9 55 2 -22 4 -53 8 -70 7 -22 0 -19 -3 15
-9z"/>
<path d="M5738 4858 c-16 -5 -28 -14 -28 -19 0 -6 5 -7 12 -3 7 4 29 7 50 5
29 -1 38 2 38 14 0 17 -30 19 -72 3z"/>
<path d="M5677 4829 c7 -7 15 -10 18 -7 3 3 -2 9 -12 12 -14 6 -15 5 -6 -5z"/>
</g>
</svg>
