<?xml version="1.0" standalone="no"?>
<!DOCTYPE svg PUBLIC "-//W3C//DTD SVG 20010904//EN"
 "http://www.w3.org/TR/2001/REC-SVG-20010904/DTD/svg10.dtd">
<svg version="1.0" xmlns="http://www.w3.org/2000/svg"
 width="1000.000000pt" height="1000.000000pt" viewBox="0 0 1000.000000 1000.000000"
 preserveAspectRatio="xMidYMid meet">

<g transform="translate(0.000000,1000.000000) scale(0.100000,-0.100000)"
fill="#000000" stroke="none">
<path d="M0 5000 l0 -5000 5000 0 5000 0 0 5000 0 5000 -5000 0 -5000 0 0
-5000z m7007 4808 c-3 -8 -6 -5 -6 6 -1 11 2 17 5 13 3 -3 4 -12 1 -19z m293
-22 c0 -2 -8 -10 -17 -17 -16 -13 -17 -12 -4 4 13 16 21 21 21 13z m450 -75
c-6 -12 -8 -27 -4 -34 4 -6 3 -9 -1 -4 -11 10 -36 -63 -29 -85 3 -9 19 -20 35
-23 21 -5 28 -10 21 -17 -15 -15 -52 0 -61 24 -6 18 -12 10 -34 -46 -34 -83
-35 -101 -4 -92 12 4 49 14 82 22 73 19 88 32 105 87 7 23 15 49 18 57 3 8 5
18 4 22 -1 4 8 13 21 19 12 7 41 29 64 50 24 22 47 39 52 39 15 0 -75 -94
-104 -110 -16 -9 -29 -28 -36 -52 -5 -22 -13 -46 -16 -55 -5 -12 -3 -14 7 -8
28 17 2 -14 -52 -63 -32 -28 -74 -56 -95 -61 -21 -6 -51 -20 -68 -31 -37 -25
-74 -28 -55 -5 11 13 7 13 -26 -1 -71 -30 -95 -45 -153 -97 -50 -46 -98 -73
-232 -130 -34 -15 -36 -17 -35 -62 1 -53 -15 -71 -114 -126 -30 -17 -81 -59
-113 -92 -32 -34 -53 -51 -46 -37 26 52 72 98 125 124 30 15 70 41 90 58 34
30 36 34 30 80 -4 26 -5 48 -4 48 2 0 36 14 77 30 122 50 186 94 248 173 71
91 82 101 55 54 -29 -50 -28 -52 11 -29 17 11 49 25 70 32 29 9 37 17 37 35 0
14 -9 29 -20 35 -12 7 -20 21 -20 38 l0 27 -20 -32 c-11 -18 -22 -33 -25 -33
-4 0 -4 3 -2 8 2 4 19 37 36 75 21 44 42 72 60 81 32 17 121 110 121 127 0 7
3 10 6 7 3 -4 1 -16 -6 -27z m-805 -48 c-4 -10 -11 -34 -15 -53 l-8 -35 -1 33
c-1 32 13 72 25 72 4 0 3 -8 -1 -17z m120 7 c-3 -6 -21 -17 -38 -26 -18 -9
-43 -26 -57 -37 l-25 -21 21 23 c12 13 39 34 60 46 47 28 47 28 39 15z m1224
-67 c-43 -99 -50 -137 -56 -303 -3 -91 -11 -196 -18 -235 -12 -64 -13 -53 -8
140 5 238 12 283 60 378 38 77 52 90 22 20z m-1411 -125 c-22 -33 -41 -36 -27
-4 7 14 19 26 27 26 13 0 13 -3 0 -22z m-2383 -116 c-85 -54 -85 -54 -85 -47
0 8 122 85 135 85 6 0 -17 -17 -50 -38z m1376 -70 c-35 -44 -71 -78 -56 -52
19 33 67 90 77 90 5 0 -4 -17 -21 -38z m884 2 c-22 -17 -111 -64 -121 -64 -3
0 -1 7 6 15 18 22 5 19 -59 -14 -31 -17 -82 -35 -115 -40 -37 -7 -87 -27 -135
-55 -54 -31 -96 -47 -146 -55 -38 -7 -92 -23 -120 -36 -27 -13 -61 -28 -75
-34 l-25 -11 25 4 c89 15 150 30 185 47 44 20 86 33 155 48 40 9 43 8 26 -5
-11 -8 -14 -14 -7 -14 20 0 52 20 47 29 -3 4 7 13 22 20 24 10 25 10 10 -2
-19 -15 -25 -33 -8 -22 5 3 7 0 4 -8 -3 -8 -17 -20 -32 -28 -15 -7 -33 -18
-41 -23 -7 -6 -19 -11 -25 -12 -6 0 -16 -2 -22 -2 -6 -1 -17 -15 -24 -31 -6
-16 -17 -31 -23 -34 -16 -6 -69 28 -59 38 8 9 -114 0 -141 -11 -14 -5 -16 -9
-6 -15 7 -4 21 -3 30 2 21 11 79 12 79 1 0 -15 56 -41 77 -36 17 5 21 0 27
-35 3 -23 11 -41 16 -41 13 0 13 12 0 46 -9 22 -8 31 6 43 15 15 16 14 9 -6
-7 -24 9 -32 19 -10 3 6 3 2 0 -10 -8 -34 5 -28 21 10 18 44 75 115 75 93 0
-9 -4 -16 -10 -16 -14 0 -60 -83 -60 -109 0 -12 -11 -32 -25 -45 -26 -24 -33
-46 -15 -46 21 0 9 -32 -18 -47 -31 -18 -112 -119 -112 -140 0 -7 -7 -26 -16
-41 -16 -26 -15 -25 9 3 15 17 26 36 27 43 0 19 83 112 99 112 23 0 51 31 51
56 0 22 34 53 72 67 10 3 20 19 24 34 4 15 17 37 29 48 12 11 41 44 64 73 24
28 49 52 57 52 8 0 14 6 14 14 0 7 7 19 15 26 9 7 14 19 11 26 -3 7 4 23 16
36 l20 23 -16 -27 c-25 -43 -7 -33 56 29 32 32 58 52 58 46 0 -6 -34 -42 -75
-79 -41 -37 -75 -73 -75 -80 0 -7 -15 -25 -32 -40 -43 -35 -117 -130 -135
-172 -10 -23 -22 -34 -43 -39 -26 -5 -31 -11 -37 -46 -6 -42 -28 -66 -90 -101
-23 -13 -49 -42 -70 -78 -18 -31 -43 -65 -56 -75 -13 -10 -34 -39 -47 -65 -24
-49 -57 -87 -75 -86 -5 0 -17 -21 -26 -46 -9 -25 -35 -65 -58 -88 -22 -24 -41
-47 -41 -52 0 -11 -51 -74 -133 -163 -34 -37 -71 -87 -81 -111 -11 -23 -21
-40 -23 -38 -3 2 5 22 16 44 11 21 20 48 19 58 -1 36 28 90 100 187 39 54 72
103 72 108 0 5 5 9 11 9 7 0 5 -9 -4 -22 -9 -13 -37 -63 -63 -113 -26 -49 -51
-97 -57 -105 -6 -8 17 14 50 50 36 38 68 84 78 110 9 25 22 59 28 75 6 17 29
49 50 73 22 23 36 42 33 42 -4 0 -4 5 0 11 5 8 9 7 14 -1 9 -14 32 23 44 70 5
18 0 15 -19 -15 -17 -26 -24 -32 -20 -17 4 13 39 65 78 116 111 141 152 197
153 204 0 4 4 15 8 24 6 12 -6 35 -41 79 -26 35 -51 67 -55 72 -9 14 -99 9
-148 -8 -49 -17 -60 -18 -60 -7 0 5 17 13 38 20 l37 11 -45 -6 c-25 -3 -53
-14 -63 -24 -10 -11 -22 -17 -27 -14 -10 6 -138 -20 -148 -30 -4 -4 21 -5 56
-3 34 2 59 1 55 -3 -12 -10 -256 -20 -272 -10 -9 6 -1 13 30 24 117 41 178 58
215 62 23 2 82 24 135 51 52 27 98 47 102 46 4 -1 22 5 40 15 18 9 54 18 80
20 29 3 70 16 100 33 29 16 66 36 82 44 38 20 303 106 324 106 9 0 27 7 41 14
34 19 50 19 25 0z m-2121 -6 c-3 -7 -22 -26 -42 -42 l-37 -30 40 42 c42 45 48
49 39 30z m554 -50 c-22 -33 -83 -65 -163 -84 -38 -9 -87 -26 -109 -36 -21
-11 -36 -15 -33 -10 8 12 70 37 154 61 43 13 89 35 115 55 52 41 55 42 36 14z
m616 -43 c-26 -39 -143 -134 -203 -164 -31 -16 -87 -38 -126 -51 -38 -12 -83
-29 -100 -37 l-30 -14 24 19 c13 11 56 30 95 42 69 22 230 99 223 106 -2 2
-29 -5 -60 -16 -31 -11 -78 -20 -104 -19 l-48 1 65 13 c116 24 201 65 254 124
26 28 30 27 10 -4z m2096 -10 c-7 -9 -15 -13 -19 -10 -3 3 1 10 9 15 21 14 24
12 10 -5z m-6076 -30 c-4 -8 -9 -15 -13 -15 -4 0 -6 -15 -5 -32 1 -27 0 -28
-3 -5 -2 15 -9 25 -15 21 -6 -4 -6 1 1 14 9 17 17 24 38 31 1 1 0 -6 -3 -14z
m4737 -42 c-42 -62 -121 -144 -121 -126 0 6 19 28 43 50 23 22 43 46 45 54 3
13 61 79 69 79 2 0 -14 -26 -36 -57z m1199 9 c0 -9 -53 -42 -67 -42 -10 1 49
50 60 50 4 0 7 -4 7 -8z m96 -11 c-3 -5 -16 -11 -28 -14 -13 -2 -32 -8 -43
-12 -17 -6 -17 -4 4 14 22 20 78 30 67 12z m-1374 -31 c-17 -31 -32 -39 -32
-18 0 13 29 48 41 48 4 0 0 -13 -9 -30z m-4722 -35 c-11 -22 -20 -56 -20 -77
0 -32 -4 -40 -24 -48 -14 -5 -32 -22 -40 -37 -9 -17 -15 -22 -16 -12 0 9 9 24
20 34 12 11 20 31 20 49 0 17 5 38 10 46 6 10 8 3 3 -22 -4 -25 -2 -38 6 -38
6 0 11 13 11 29 0 16 3 37 7 47 5 13 3 15 -7 9 -7 -5 -1 8 15 28 16 20 30 35
32 33 1 -1 -6 -20 -17 -41z m6044 20 c-4 -8 -1 -15 5 -15 28 0 7 -53 -51 -125
-35 -43 -74 -92 -87 -109 -20 -26 -22 -27 -18 -8 3 12 2 22 -3 22 -14 0 -105
-65 -102 -73 4 -13 -28 -68 -38 -62 -8 5 -66 -69 -80 -101 -6 -14 -78 -94 -85
-94 -6 0 71 117 120 182 19 27 40 47 46 45 6 -1 14 4 17 12 3 9 0 11 -8 6 -21
-13 18 52 43 72 13 10 24 26 24 35 0 15 -7 17 -41 12 -62 -10 -79 -24 -21 -18
37 4 46 3 35 -5 -19 -14 -110 -14 -110 -1 0 5 21 20 46 31 32 16 42 24 32 30
-7 5 -10 9 -6 9 3 0 14 3 24 7 13 5 15 3 9 -7 -5 -9 -4 -11 4 -6 6 4 9 11 6
16 -7 11 14 26 60 39 72 22 95 33 95 46 0 7 19 27 42 44 48 36 49 36 42 16z
m-264 -12 c0 -3 -8 -15 -17 -26 -17 -19 -17 -20 4 -8 29 15 54 14 48 -2 -10
-24 -93 -67 -151 -78 -33 -6 -78 -21 -101 -35 -51 -29 -65 -31 -29 -3 43 34
29 41 -19 8 -24 -16 -47 -34 -50 -40 -4 -5 -14 -9 -23 -9 -14 1 -14 2 3 12 11
6 36 25 54 41 42 36 113 69 160 74 41 5 78 22 48 23 -10 0 -28 -5 -40 -11 -21
-10 -21 -10 -3 5 11 9 24 16 29 16 4 0 5 5 1 11 -4 7 0 9 13 5 10 -3 28 1 39
9 21 16 34 19 34 8z m114 -22 c-5 -4 -31 -20 -59 -36 -46 -26 -48 -26 -30 -6
21 24 87 62 94 55 3 -2 0 -8 -5 -13z m-2296 -34 c-51 -46 -109 -132 -102 -150
5 -14 -54 -89 -65 -83 -4 3 -24 -23 -45 -57 -55 -92 -100 -156 -109 -156 -12
-1 11 37 59 98 24 30 41 57 39 59 -8 9 -150 -94 -161 -116 -15 -31 -24 -38
-24 -19 0 27 47 73 117 115 71 42 116 90 147 156 18 39 165 196 182 196 5 0
-12 -19 -38 -43z m241 -11 c-17 -14 -67 -33 -134 -50 -70 -17 -123 -37 -151
-56 -59 -41 -65 -37 -19 10 21 22 44 39 50 38 29 -5 221 48 244 68 14 12 28
20 31 17 3 -2 -7 -15 -21 -27z m286 4 c-3 -5 -14 -10 -23 -10 -15 0 -15 2 -2
10 20 13 33 13 25 0z m-1470 -10 c-3 -5 -34 -26 -68 -46 -34 -20 -75 -48 -91
-62 -29 -27 -29 -27 -13 -2 10 14 52 46 95 71 87 53 85 52 77 39z m1993 -10
c-14 -22 -44 -38 -32 -17 14 23 27 37 35 37 5 0 4 -9 -3 -20z m1182 -10 c-24
-18 -60 -33 -60 -24 0 4 72 43 80 43 3 0 -6 -8 -20 -19z m-85 -20 c-3 -5 -1
-10 6 -10 8 0 8 -4 1 -12 -6 -7 -10 -17 -11 -23 0 -5 -19 -15 -43 -21 -24 -6
-54 -16 -67 -24 -16 -8 -46 -11 -89 -7 -42 3 -79 0 -104 -9 -21 -7 -38 -11
-38 -8 0 7 90 44 108 44 9 0 40 11 67 25 52 25 109 32 120 15 3 -5 11 -10 16
-10 6 0 7 5 4 10 -3 6 2 10 12 11 12 0 14 2 4 6 -11 5 -11 7 0 14 18 11 22 11
14 -1z m-1094 -28 c-5 -10 -18 -25 -28 -33 -12 -10 -11 -5 6 19 24 35 38 43
22 14z m-3631 -2 c0 -5 -5 -10 -11 -10 -5 0 -7 5 -4 10 3 6 8 10 11 10 2 0 4
-4 4 -10z m5448 -168 c-2 -45 0 -82 4 -82 4 0 2 -15 -3 -32 -9 -34 -12 -88 -5
-88 2 0 11 -3 20 -6 25 -9 256 230 256 265 0 6 9 16 20 23 11 7 20 18 20 25 0
6 13 17 29 24 16 7 27 17 25 21 -3 4 2 8 10 8 9 0 16 -4 16 -10 0 -5 6 -10 13
-10 8 0 13 -9 11 -22 -1 -13 -3 -23 -4 -23 0 0 -2 -19 -4 -43 -1 -27 -20 -77
-51 -138 -59 -118 -74 -136 -140 -179 -46 -29 -56 -41 -65 -77 -13 -51 -31
-85 -82 -155 -31 -43 -35 -53 -21 -53 14 0 12 -3 -6 -13 -24 -12 -58 -58 -156
-213 -27 -44 -55 -85 -61 -91 -25 -26 -23 -12 5 36 16 26 38 69 49 94 12 26
33 62 48 82 30 39 23 47 -13 13 -13 -12 -23 -17 -23 -11 0 6 17 25 38 42 56
46 75 66 96 101 18 32 18 32 -2 21 -26 -14 -83 -69 -104 -101 -9 -14 -17 -20
-17 -15 -1 12 25 52 73 115 20 25 49 65 65 90 17 25 37 52 46 61 8 9 15 23 15
33 0 10 5 14 11 10 6 -4 10 1 8 12 -2 11 1 29 5 42 6 19 10 21 22 11 11 -9 14
-9 14 0 0 7 23 35 51 62 28 28 49 52 46 55 -3 3 -16 -5 -29 -18 -12 -12 -29
-21 -36 -20 -8 2 -11 -1 -7 -8 9 -14 -14 -42 -28 -33 -7 4 -8 0 -3 -13 6 -15
5 -16 -5 -7 -8 8 -9 16 -2 25 12 15 44 108 37 108 -2 0 -37 -34 -78 -76 -62
-65 -77 -75 -102 -72 -40 4 -55 39 -44 98 5 25 10 104 11 175 1 129 1 129 16
85 9 -29 13 -75 11 -128z m-2328 148 c12 -8 11 -10 -7 -10 -13 0 -23 5 -23 10
0 13 11 13 30 0z m1275 -10 c-3 -5 -12 -10 -18 -10 -7 0 -6 4 3 10 19 12 23
12 15 0z m-1050 -10 c15 -7 9 -9 -25 -9 -33 -1 -41 2 -30 9 18 12 28 12 55 0z
m1039 -25 c-21 -16 -75 -21 -58 -6 8 8 28 14 68 20 6 0 1 -6 -10 -14z m-1756
-80 c-2 -3 -24 -15 -49 -28 -24 -13 -62 -46 -84 -73 -101 -125 -106 -130 -99
-104 4 14 27 51 51 83 24 31 42 57 38 57 -3 0 -21 -7 -40 -14 -58 -25 -39 -7
23 21 109 49 176 73 160 58z m2177 -82 c-31 -60 -85 -130 -85 -109 0 12 40 86
58 107 9 11 15 21 12 24 -3 2 6 15 19 29 14 14 26 24 28 22 2 -2 -12 -35 -32
-73z m-2660 -40 c-63 -128 -119 -292 -113 -333 3 -21 1 -29 -7 -26 -9 3 -14
-25 -17 -102 -4 -86 -10 -120 -31 -171 -15 -36 -27 -75 -27 -88 0 -33 -22 -73
-61 -109 -19 -17 -40 -40 -47 -50 -11 -17 -11 -17 -2 3 5 12 10 33 10 46 0 13
11 41 25 61 l25 37 -37 -30 c-21 -17 -56 -37 -78 -46 -28 -11 -35 -12 -23 -2
9 7 20 26 24 43 4 16 18 53 30 83 16 36 23 69 22 102 l-2 49 -29 -28 c-16 -15
-38 -44 -48 -64 -11 -21 -22 -38 -24 -38 -14 0 31 79 75 132 27 33 50 64 50
70 0 12 59 90 78 101 7 5 10 17 7 27 -3 10 0 22 6 26 8 4 9 3 5 -4 -4 -7 -5
-12 -2 -12 7 0 36 56 36 67 -1 4 -7 -3 -15 -17 -16 -29 -20 -19 -4 11 5 11 14
17 18 14 5 -2 16 6 25 20 9 14 13 25 10 25 -4 0 1 9 11 20 11 12 13 20 6 20
-7 0 -9 5 -6 10 4 6 11 8 17 4 5 -3 8 2 6 13 -1 10 7 32 20 50 12 17 22 34 22
37 0 11 45 76 52 76 4 0 1 -12 -7 -27z m2561 -1 c-17 -16 -18 -16 -5 5 7 12
15 20 18 17 3 -2 -3 -12 -13 -22z m-2533 -24 c-11 -13 -48 -124 -57 -168 -3
-14 -3 0 -1 31 3 54 49 168 62 155 3 -3 1 -11 -4 -18z m1841 -32 c7 -35 6 -38
-7 -27 -12 10 -20 8 -40 -11 -14 -13 -35 -30 -48 -39 -20 -14 -21 -18 -11 -49
14 -39 16 -110 3 -110 -8 0 -31 104 -31 138 0 7 18 24 40 38 22 15 50 44 62
65 12 21 22 38 23 36 1 -1 6 -20 9 -41z m653 -26 c-16 -33 -28 -45 -44 -46
-29 -1 -29 14 0 27 12 5 30 24 40 41 26 46 30 29 4 -22z m-2349 23 c-25 -28
-45 -75 -53 -120 -3 -22 -13 -49 -22 -60 -14 -17 -14 -17 -9 0 3 10 9 37 12
60 4 23 13 53 22 67 16 28 53 70 60 70 3 0 -2 -8 -10 -17z m-141 -65 c-3 -7
-5 -2 -5 12 0 14 2 19 5 13 2 -7 2 -19 0 -25z m28 -49 c9 -17 14 -38 12 -47
-3 -15 -5 -14 -11 3 -4 11 -12 28 -17 37 -10 19 -12 38 -4 38 2 0 12 -14 20
-31z m2015 11 c18 -6 5 -8 -45 -9 -38 -1 -75 -5 -82 -9 -19 -12 -63 -81 -54
-86 22 -14 134 26 192 69 34 25 64 43 67 40 3 -3 3 -6 1 -8 -2 -2 -25 -19 -51
-37 -27 -18 -46 -36 -43 -38 3 -3 13 2 22 10 37 31 43 30 26 -5 -10 -19 -21
-33 -26 -30 -4 2 -11 -7 -17 -21 -5 -14 -17 -26 -27 -26 -10 0 -29 -3 -43 -6
l-25 -6 24 20 24 19 -44 -7 c-113 -19 -134 -30 -169 -88 -19 -32 -31 -65 -30
-81 2 -14 3 -62 3 -106 1 -70 -2 -85 -25 -120 -14 -22 -35 -49 -47 -60 l-22
-19 6 29 c19 89 18 112 -5 128 -15 10 -18 16 -8 20 7 2 10 8 6 12 -12 13 -49
-7 -97 -53 -103 -100 -121 -115 -127 -110 -3 4 12 24 33 46 21 22 53 68 71
103 l34 64 -29 -28 c-16 -15 -32 -25 -34 -22 -3 2 -23 -13 -44 -35 -22 -22
-43 -40 -47 -40 -5 0 3 24 18 53 28 55 119 157 142 157 7 0 10 5 6 12 -4 6 -3
8 3 5 14 -9 94 27 115 50 9 10 20 30 23 46 8 29 25 37 25 11 0 -14 3 -14 15
-4 8 7 15 9 15 4 0 -4 11 3 25 16 14 13 25 30 25 37 0 8 6 16 14 19 7 3 22 20
32 39 10 18 27 38 38 44 25 12 101 12 136 1z m327 -26 c-21 -20 -41 -33 -44
-31 -7 8 55 67 70 67 7 0 -5 -17 -26 -36z m56 -1 c-8 -7 -21 -21 -27 -31 -6
-11 -17 -30 -25 -43 -13 -21 -13 -23 1 -11 13 10 17 10 22 -3 7 -19 -13 -53
-76 -124 -40 -46 -74 -104 -118 -201 -4 -8 -25 -27 -47 -42 -31 -21 -42 -36
-48 -65 -8 -43 -20 -60 -130 -188 -43 -49 -94 -112 -115 -140 -21 -27 -70 -84
-109 -125 -40 -41 -79 -88 -87 -103 -17 -32 -21 -98 -9 -169 9 -54 25 -65 25
-17 0 17 12 50 26 75 32 55 52 69 25 18 -31 -57 -28 -109 10 -151 17 -20 36
-49 44 -67 39 -93 54 -119 97 -164 19 -21 41 -48 50 -62 9 -14 26 -26 38 -27
13 -1 37 -16 54 -32 18 -17 43 -32 56 -33 14 -1 43 -20 65 -41 22 -22 34 -36
26 -31 -9 5 -12 3 -7 -4 4 -7 12 -12 17 -12 6 0 21 -12 34 -27 25 -29 30 -64
14 -98 -7 -15 -8 -9 -5 22 4 41 2 44 -47 85 -29 24 -58 49 -66 56 -9 9 -17 10
-24 3 -7 -7 -14 -4 -21 10 -6 12 -24 28 -41 37 -16 10 -33 21 -37 27 -4 5 -9
7 -12 4 -3 -2 11 -21 30 -41 38 -41 46 -62 12 -32 -13 11 -32 26 -42 34 -18
14 -19 14 -7 -8 7 -13 19 -26 27 -29 8 -3 14 -10 14 -17 0 -6 27 -38 60 -71
33 -33 60 -54 60 -48 0 6 -20 27 -46 48 -25 20 -43 40 -40 42 13 14 63 -13
108 -57 44 -43 51 -56 55 -97 7 -70 11 -79 26 -62 6 8 27 28 46 44 30 26 28
22 -13 -30 -52 -65 -66 -76 -66 -51 0 9 -4 16 -10 16 -5 0 -10 9 -10 21 0 11
-4 17 -10 14 -5 -3 -10 -2 -10 2 0 17 -240 277 -265 288 -37 15 -142 122 -183
185 -19 30 -40 58 -45 61 -6 4 -7 37 -4 80 3 41 2 61 -2 44 l-8 -30 -7 35 c-3
19 -12 67 -19 105 l-12 70 -75 -1 c-100 0 -291 -24 -309 -38 -12 -9 -13 -8 -8
7 5 13 1 17 -19 17 l-25 0 20 -26 c11 -14 25 -49 31 -77 15 -74 26 -87 33 -40
8 47 41 103 62 103 9 0 12 -6 9 -15 -5 -12 0 -14 24 -9 19 4 36 1 45 -7 13
-12 13 -16 -1 -33 -15 -18 -14 -18 21 2 51 29 69 28 32 -3 -16 -13 -24 -24
-17 -25 20 0 55 20 74 44 10 11 18 16 18 10 0 -14 -26 -37 -65 -57 -45 -24
-85 -65 -91 -95 -3 -15 -16 -40 -29 -56 l-23 -29 -7 34 c-7 29 -9 31 -16 14
-4 -11 -8 -45 -8 -76 -1 -37 -6 -61 -16 -69 -8 -7 -15 -17 -15 -22 0 -14 -40
-68 -50 -68 -10 0 -7 50 4 68 4 6 12 9 19 6 20 -7 15 156 -6 186 -9 13 -17 34
-17 45 0 11 -10 56 -21 100 -12 44 -21 88 -21 97 0 9 -7 19 -16 22 -10 3 -28
24 -41 45 -29 46 -56 61 -115 61 -46 0 -82 20 -197 107 -37 28 -78 53 -93 57
-14 3 -26 13 -26 20 0 26 12 46 24 39 6 -3 2 3 -9 14 -15 15 -26 18 -43 12
-58 -22 -40 -5 35 33 l82 41 29 -25 c16 -14 56 -35 88 -48 54 -21 93 -44 310
-183 39 -24 80 -48 92 -51 11 -4 39 -21 62 -37 33 -24 39 -33 29 -40 -9 -6 1
-9 31 -8 32 0 39 3 25 8 -17 7 -16 9 9 15 36 9 117 77 149 125 13 20 112 146
219 281 107 135 234 301 282 370 115 161 320 366 338 337 4 -7 1 -17 -9 -24z
m-3055 -1 c2 -7 -3 -12 -12 -12 -9 0 -16 7 -16 16 0 17 22 14 28 -4z m3809
-49 c-8 -15 -20 -49 -27 -75 -7 -27 -16 -48 -19 -48 -4 0 -13 -17 -20 -37 -13
-36 -36 -92 -67 -160 -8 -17 -14 -35 -13 -40 0 -8 85 151 115 217 48 108 60
130 72 135 10 3 9 -2 -2 -23 -8 -15 -28 -56 -43 -92 -15 -36 -55 -120 -88
-187 -33 -66 -57 -119 -52 -116 4 2 7 0 7 -6 0 -7 9 -7 28 0 16 6 23 6 17 1
-5 -6 -27 -15 -47 -20 -45 -12 -45 -12 -22 91 9 40 33 106 54 147 20 41 40 89
44 105 11 47 71 170 74 152 2 -8 -3 -28 -11 -44z m493 33 c0 -14 -4 -28 -10
-31 -6 -4 -10 7 -10 24 0 17 5 31 10 31 6 0 10 -11 10 -24z m-4142 -11 c-20
-14 -53 -52 -74 -85 -20 -33 -38 -60 -40 -60 -11 0 -2 51 12 64 8 9 12 16 8
16 -15 0 42 53 76 70 51 26 60 24 18 -5z m1702 1 c0 -2 -8 -10 -17 -17 -16
-13 -17 -12 -4 4 13 16 21 21 21 13z m-1312 -87 c-10 -59 -14 -68 -18 -44 -5
26 18 130 27 121 2 -2 -2 -36 -9 -77z m192 -19 c-17 -34 -33 -60 -36 -58 -5 6
22 73 43 105 29 44 25 16 -7 -47z m-712 20 c-11 -16 -9 -26 6 -55 24 -45 12
-59 -20 -22 -28 33 -30 54 -7 79 22 24 36 23 21 -2z m1214 -17 c-5 -10 -15
-42 -22 -71 -7 -29 -14 -51 -17 -49 -9 10 30 137 43 137 2 0 1 -8 -4 -17z
m2892 -37 c-19 -56 -38 -72 -94 -80 l-45 -5 45 12 c39 11 49 19 73 65 16 29
30 52 32 52 2 0 -3 -20 -11 -44z m163 2 c-3 -7 -5 -2 -5 12 0 14 2 19 5 13 2
-7 2 -19 0 -25z m-4164 -13 c-3 -9 -8 -14 -10 -11 -3 3 -2 9 2 15 9 16 15 13
8 -4z m-346 -77 c33 -65 53 -125 51 -158 l-1 -25 -4 25 c-6 29 -44 125 -81
203 -2 4 -1 7 2 7 3 0 18 -24 33 -52z m4571 11 c-3 -20 -5 -19 -9 9 -3 20 -2
29 4 23 5 -5 7 -19 5 -32z m-3822 -55 c-10 -26 -26 -4 -26 34 l1 37 15 -28 c9
-16 13 -35 10 -43z m-497 27 c9 -6 10 -11 2 -15 -13 -8 -31 1 -31 15 0 11 11
11 29 0z m4327 -41 c7 7 16 20 19 31 4 10 11 19 17 19 7 0 8 -26 3 -78 -6 -71
-5 -79 14 -96 19 -17 21 -30 21 -133 0 -112 9 -139 28 -85 5 15 30 50 53 78
24 28 58 71 75 96 28 39 166 148 211 165 10 4 -3 -17 -27 -46 -25 -29 -62 -73
-83 -98 -58 -69 -68 -96 -65 -166 3 -58 5 -63 38 -85 21 -14 44 -22 58 -19 18
3 21 1 17 -14 -3 -10 1 -29 10 -43 12 -18 14 -36 9 -77 -6 -43 -9 -49 -14 -29
-6 24 -8 22 -26 -20 -12 -25 -24 -58 -28 -74 -4 -15 -10 -26 -13 -23 -3 3 0
20 5 37 10 27 -1 20 -85 -55 -61 -54 -100 -82 -106 -76 -13 13 2 34 20 27 8
-3 12 -2 8 3 -7 12 64 144 86 161 4 3 11 18 14 33 4 15 11 27 17 27 5 0 6 5 3
10 -10 17 -70 11 -130 -12 -43 -16 -63 -19 -83 -12 -22 8 -30 6 -43 -10 -15
-19 -16 -17 -7 29 16 81 21 304 9 345 -7 24 -20 41 -38 50 -22 10 -24 14 -11
17 11 3 20 22 27 54 14 64 14 64 -4 49 -9 -7 -15 -29 -15 -51 0 -22 -5 -39
-11 -39 -8 0 -10 15 -7 44 5 40 2 48 -23 72 -42 40 -36 52 7 15 28 -25 39 -29
50 -21z m-4418 -12 c19 -20 22 -28 11 -28 -25 0 -61 44 -52 65 5 15 8 16 11 4
3 -7 16 -26 30 -41z m677 -55 c-4 -32 -11 -62 -17 -68 -7 -7 -9 -2 -5 15 3 14
9 44 13 68 10 63 17 51 9 -15z m-3257 12 c18 -39 15 -64 -13 -97 -17 -20 -25
-41 -25 -66 l0 -37 20 25 c28 36 24 14 -10 -50 l-30 -55 5 79 c4 68 8 83 30
106 21 22 24 32 19 59 l-7 34 -18 -24 c-10 -13 -17 -29 -14 -36 2 -6 -9 -28
-25 -48 -15 -19 -30 -31 -32 -25 -2 6 -12 4 -26 -6 -13 -9 -21 -22 -18 -30 3
-7 1 -16 -5 -19 -5 -4 -12 1 -15 10 -7 17 22 55 41 55 22 0 64 40 59 55 -3 8
4 26 15 41 12 15 21 33 21 40 0 23 16 16 28 -11z m2662 -5 c12 -7 12 -12 3
-21 -9 -9 -16 -9 -27 1 -26 21 -5 39 24 20z m1056 -38 c-17 -16 -18 -16 -5 5
7 12 15 20 18 17 3 -2 -3 -12 -13 -22z m294 14 c0 -3 -23 -33 -51 -68 -59 -73
-199 -281 -199 -296 0 -6 -19 -25 -42 -44 -41 -32 -41 -31 25 55 37 49 74 102
82 117 26 50 77 123 128 183 46 53 57 64 57 53z m736 -33 c-18 -33 -21 -26 -6
13 6 15 13 24 16 21 3 -3 -1 -18 -10 -34z m1814 29 c0 -4 -29 -39 -65 -77 -36
-37 -65 -63 -65 -58 0 9 118 140 128 142 1 1 2 -3 2 -7z m-2887 -44 c-11 -13
-25 -32 -31 -43 -8 -13 -11 -15 -12 -6 0 8 12 28 27 43 32 33 45 38 16 6z
m106 -63 c-18 -30 -49 -70 -67 -88 -27 -25 -23 -17 18 38 29 38 57 79 63 92 6
13 12 21 15 18 3 -2 -10 -29 -29 -60z m1750 28 c-13 -16 -39 -41 -59 -57 -19
-17 -11 -5 20 27 58 61 76 75 39 30z m-3034 7 c3 -5 2 -10 -4 -10 -5 0 -13 5
-16 10 -3 6 -2 10 4 10 5 0 13 -4 16 -10z m1619 -35 c-26 -34 -42 -47 -28 -22
9 15 46 57 51 57 2 0 -8 -16 -23 -35z m-850 -57 c4 -17 2 -28 -4 -28 -5 0 -10
12 -11 28 l-1 27 -11 -32 c-7 -17 -16 -35 -21 -40 -5 -5 -6 0 -2 12 4 11 10
43 13 70 l6 50 12 -30 c7 -16 15 -42 19 -57z m3407 59 c-10 -9 -11 -8 -5 6 3
10 9 15 12 12 3 -3 0 -11 -7 -18z m-3228 -24 c-3 -21 -10 -47 -14 -58 -6 -17
-8 -15 -8 10 l-1 30 -32 -39 c-18 -21 -50 -68 -70 -104 -21 -37 -38 -60 -38
-52 0 25 46 114 69 135 13 11 38 41 58 67 19 27 36 48 38 48 2 0 1 -17 -2 -37z
m-898 -43 c-16 -10 -31 -17 -34 -14 -7 6 32 33 49 34 8 0 2 -9 -15 -20z m1397
-27 c-11 -16 -30 -37 -43 -48 -12 -11 -5 1 16 28 43 52 57 63 27 20z m-4008
-63 c-4 -8 -7 -30 -6 -49 2 -60 -10 -24 -14 41 -3 57 -2 61 12 43 8 -11 11
-26 8 -35z m2571 30 c-10 -11 -28 -19 -39 -19 -20 2 -20 2 1 6 12 2 27 11 33
19 7 8 15 14 18 14 3 0 -3 -9 -13 -20z m-2531 -72 c9 -29 18 -71 22 -93 l6
-40 19 40 c11 22 17 31 13 20 -11 -36 -44 -179 -51 -220 l-7 -40 -5 35 -6 35
-14 -45 c-9 -28 -16 -38 -19 -27 -2 9 4 37 13 61 12 31 14 49 7 62 -6 10 -6
29 -1 47 5 17 6 49 2 70 -5 31 -3 38 7 32 9 -6 11 -25 7 -69 -3 -34 -2 -77 3
-96 6 -27 8 -13 9 60 0 58 -5 114 -14 144 -8 27 -15 55 -15 63 0 27 9 12 24
-39z m3264 -8 l9 -35 16 50 c12 39 16 44 16 22 1 -36 -30 -146 -62 -223 -18
-42 -26 -78 -25 -115 l1 -54 15 38 c8 20 19 37 23 37 12 0 11 -2 -6 -42 -8
-20 -10 -39 -5 -44 5 -5 0 -32 -12 -64 -11 -30 -22 -64 -25 -75 l-5 -20 14 20
c8 11 23 43 33 70 11 28 22 52 26 55 4 3 8 14 10 24 2 11 9 21 15 23 7 2 8
-13 4 -50 -8 -54 -64 -175 -119 -257 -33 -47 -41 -45 -16 4 9 16 13 31 11 34
-9 8 -47 -63 -43 -79 3 -12 -1 -15 -16 -11 -16 4 -19 2 -14 -11 3 -9 3 -16 -1
-14 -4 1 -9 -2 -12 -8 -2 -5 -15 -21 -27 -33 -13 -13 -36 -43 -50 -65 -15 -23
-59 -73 -100 -112 -55 -53 -73 -77 -73 -97 0 -33 -41 -83 -97 -119 -50 -31
-91 -86 -109 -145 -20 -66 -43 -104 -99 -164 -29 -30 -58 -66 -64 -78 -7 -13
-15 -21 -18 -18 -9 9 26 57 83 113 34 34 58 69 68 100 10 26 28 70 41 97 22
45 23 47 3 30 -11 -11 -31 -38 -45 -61 -14 -24 -27 -43 -29 -43 -6 0 9 34 32
70 25 41 183 195 166 164 -6 -12 -25 -34 -43 -48 -44 -37 -28 -32 30 9 50 36
61 52 61 86 0 17 -3 18 -20 9 -30 -16 -24 2 17 49 l36 43 -49 -25 c-93 -47
-212 -58 -334 -31 -71 16 -72 17 -92 63 -11 25 -22 76 -25 112 -6 70 -8 63 66
217 26 53 218 290 306 377 146 143 195 187 186 162 -4 -12 -6 -28 -4 -35 5
-14 -60 -107 -82 -116 -8 -3 1 17 20 43 19 27 35 51 35 55 0 4 -38 -25 -85
-64 -78 -66 -131 -135 -140 -183 -2 -10 -11 -32 -20 -50 -9 -18 -21 -50 -27
-72 -12 -45 -21 -148 -11 -125 28 68 116 131 179 129 38 -1 38 -1 9 -8 -51
-13 -92 -39 -122 -78 -37 -48 -44 -68 -30 -82 15 -15 -5 -14 -23 2 -8 6 -4 0
9 -15 29 -34 100 -47 146 -28 16 7 45 14 63 16 42 4 122 48 178 97 24 21 44
35 44 31 0 -5 21 12 46 36 63 62 85 116 90 219 2 59 7 86 18 95 15 11 40 66
30 66 -3 0 -11 -15 -19 -32 -9 -20 -14 -26 -15 -15 0 10 9 36 21 59 21 41 22
97 4 158 -7 22 -6 23 8 10 9 -8 20 -31 25 -50z m3390 40 c-7 -10 -14 -18 -15
-16 -6 6 9 36 18 36 5 0 4 -9 -3 -20z m-5388 6 c0 -3 -4 -8 -10 -11 -5 -3 -10
-1 -10 4 0 6 5 11 10 11 6 0 10 -2 10 -4z m5326 -60 c-3 -13 -17 -28 -31 -34
-15 -7 -23 -17 -20 -22 4 -6 1 -18 -6 -26 -9 -12 -14 -12 -20 -2 -5 8 -11 3
-19 -18 -7 -16 -25 -56 -41 -89 -50 -103 -33 -100 40 8 27 40 68 90 91 112 41
39 41 40 29 10 -7 -16 -18 -37 -24 -45 -7 -8 -17 -28 -24 -45 -6 -16 -24 -39
-40 -50 -88 -62 -133 -100 -167 -142 -21 -25 -54 -62 -74 -82 -19 -20 -45 -49
-57 -66 -14 -19 -22 -24 -23 -14 0 18 32 62 83 112 22 23 37 47 37 62 0 41 37
100 74 117 25 12 34 23 34 42 0 16 20 48 61 94 33 38 61 74 61 81 0 8 7 11 15
7 11 -4 15 3 16 27 1 25 3 27 6 8 3 -12 2 -33 -1 -45z m-3209 5 c-44 -49 -51
-82 -37 -174 8 -56 8 -80 -1 -103 -13 -29 -13 -29 -20 26 -19 145 -4 223 49
267 43 35 48 27 9 -16z m-783 17 c-15 -27 -47 -57 -55 -52 -5 3 -7 -1 -4 -8 2
-7 -17 -29 -43 -49 -84 -64 -93 -61 -24 9 37 38 70 65 73 60 3 -4 15 5 27 22
22 30 40 42 26 18z m-146 -25 c-14 -16 -33 -41 -41 -58 -11 -20 -16 -24 -17
-13 0 17 65 98 78 98 3 0 -6 -12 -20 -27z m1388 -37 c-20 -31 -36 -61 -36 -66
0 -6 -11 -10 -25 -10 -14 0 -25 5 -25 10 0 6 4 10 8 10 5 0 30 27 56 61 26 33
50 59 53 56 2 -3 -11 -31 -31 -61z m-220 -23 c-8 -15 -15 -25 -16 -21 0 12 23
58 27 54 3 -2 -2 -17 -11 -33z m3024 -20 c-11 -17 -11 -17 -6 0 3 10 6 24 7
30 0 9 2 9 5 0 3 -7 0 -20 -6 -30z m27 -25 c-3 -7 -5 -2 -5 12 0 14 2 19 5 13
2 -7 2 -19 0 -25z m-6785 -26 c-6 -2 -10 -9 -8 -15 1 -7 1 -9 -1 -5 -3 5 -14
3 -26 -4 -17 -9 -15 -4 8 20 18 19 32 27 34 20 2 -7 -1 -14 -7 -16z m3843 18
c-3 -5 -14 -10 -23 -9 -14 0 -13 2 3 9 27 11 27 11 20 0z m-592 -32 c-7 -29
-80 -128 -94 -128 -6 0 -3 13 8 29 73 118 97 144 86 99z m43 -10 c-21 -50
-102 -178 -109 -172 -3 3 -3 13 0 22 7 20 113 182 119 182 2 0 -2 -15 -10 -32z
m3479 -8 c-4 -12 -9 -19 -12 -17 -3 3 -2 15 2 27 4 12 9 19 12 17 3 -3 2 -15
-2 -27z m-4356 17 c-2 -1 -13 -9 -24 -17 -19 -14 -19 -14 -6 3 7 9 18 17 24
17 6 0 8 -1 6 -3z m36 -34 c-7 -16 -20 -44 -29 -63 -32 -67 -73 -101 -121 -99
l-30 1 36 12 c48 15 69 34 69 60 0 13 10 32 23 43 12 12 30 33 40 47 23 34 29
33 12 -1z m1215 2 c-7 -8 -19 -52 -26 -97 l-14 -83 4 72 c3 65 23 123 42 123
4 0 1 -7 -6 -15z m-3689 -60 c-9 -30 -20 -57 -24 -61 -16 -17 -6 -77 19 -109
14 -19 34 -55 44 -82 18 -45 19 -46 20 -18 1 17 8 53 15 80 l13 50 -5 -70 c-3
-55 -35 -212 -69 -335 -6 -24 -90 -132 -100 -129 -4 2 -16 -21 -26 -51 -10
-35 -17 -46 -17 -30 -1 25 33 110 43 110 3 0 3 -8 -1 -17 -3 -10 -3 -15 1 -12
4 4 9 21 11 37 9 68 28 115 63 154 36 40 37 43 35 116 -3 74 -37 202 -55 202
-4 0 -13 11 -18 25 -7 19 -5 38 9 75 11 28 15 50 11 50 -5 0 -11 -6 -13 -12
-3 -7 -5 3 -5 22 0 19 2 27 5 18 7 -26 21 -22 38 12 23 44 25 37 6 -25z m7316
-31 c-23 -36 -63 -84 -89 -105 l-46 -40 44 68 c41 63 109 140 126 142 4 1 -12
-29 -35 -65z m-637 41 c-4 -5 -8 -14 -8 -20 0 -5 -5 -11 -11 -13 -6 -2 -11 2
-11 8 0 9 -4 9 -15 0 -14 -11 -12 -15 14 -28 17 -8 29 -18 26 -22 -3 -5 9 -13
27 -19 49 -17 78 -50 78 -87 0 -40 9 -66 21 -58 5 3 9 16 9 30 0 14 4 22 10
19 6 -3 10 -1 10 6 0 7 2 10 5 7 8 -8 -14 -60 -31 -72 -8 -6 -15 -28 -16 -49
-2 -67 -15 -39 -20 46 -6 93 -17 123 -50 132 -52 14 -138 48 -138 54 0 17 68
77 87 77 14 0 19 -4 13 -11z m-1446 -45 c-15 -22 -29 -40 -31 -40 -5 0 3 15
29 53 30 43 31 32 2 -13z m1585 -44 c-9 -8 -10 -7 -5 7 3 10 7 33 8 50 1 28 2
28 5 -7 3 -22 -1 -43 -8 -50z m68 47 c-3 -10 -5 -4 -5 12 0 17 2 24 5 18 2 -7
2 -21 0 -30z m631 -3 c-23 -45 -29 -50 -21 -17 5 18 31 57 38 57 2 0 -6 -18
-17 -40z m-7258 -31 c-12 -23 -24 -39 -26 -36 -7 7 28 77 38 77 5 0 -1 -18
-12 -41z m6144 4 c-58 -79 -106 -133 -113 -128 -5 2 -14 -7 -21 -20 -7 -14
-17 -25 -22 -25 -12 0 16 52 41 74 14 13 21 15 21 6 0 -7 14 7 31 31 33 46 80
99 87 99 2 0 -8 -17 -24 -37z m-3343 11 c9 -11 22 -14 43 -10 l31 5 -27 -15
c-25 -13 -30 -13 -53 2 -25 16 -33 34 -16 34 5 0 14 -7 22 -16z m-139 -61 c8
-10 15 -9 35 7 14 11 36 20 49 20 30 0 85 -46 77 -65 -8 -22 -21 -18 -25 7 -2
12 -16 29 -31 38 -27 14 -30 14 -44 -7 -17 -25 -61 -31 -81 -11 -7 7 -12 26
-11 43 0 30 0 30 10 6 5 -14 15 -31 21 -38z m-2996 18 c-12 -19 -24 -12 -19
10 4 13 9 17 15 11 6 -6 7 -15 4 -21z m5268 -36 c-9 -14 -18 -25 -21 -25 -5 0
5 18 20 38 17 22 18 13 1 -13z m-5038 -33 c4 -20 12 -40 18 -44 6 -4 4 -9 -7
-14 -23 -9 -24 -8 -32 55 -8 62 10 65 21 3z m67 33 c-3 -9 -8 -14 -10 -11 -3
3 -2 9 2 15 9 16 15 13 8 -4z m6648 -75 c-8 -22 -10 -18 -10 26 -1 28 2 54 7
58 11 12 14 -57 3 -84z m583 67 c-3 -8 -19 -24 -37 -37 l-32 -23 34 37 c38 40
43 43 35 23z m-428 -197 c-15 -43 -26 -87 -26 -98 0 -11 -5 -24 -12 -28 -15
-9 -48 32 -47 60 0 15 4 12 13 -13 14 -39 43 -59 31 -22 -4 14 1 38 14 66 11
24 26 88 33 142 l13 98 3 -64 c2 -48 -3 -84 -22 -141z m243 178 c-8 -5 -23
-14 -34 -19 -15 -9 -14 -6 5 14 14 13 29 22 34 19 4 -2 2 -9 -5 -14z m-7152
-45 c-3 -10 -5 -2 -5 17 0 19 2 27 5 18 2 -10 2 -26 0 -35z m112 -35 c-11 -46
-14 -50 -19 -28 -6 21 -8 23 -15 8 -4 -10 -11 -18 -16 -18 -5 0 6 22 23 49 18
26 35 47 37 45 2 -2 -3 -27 -10 -56z m2841 58 c0 -2 -8 -10 -17 -17 -16 -13
-17 -12 -4 4 13 16 21 21 21 13z m2020 -50 c-7 -7 -10 1 -9 25 0 32 1 33 10
10 6 -16 6 -28 -1 -35z m-1939 27 c-25 -47 -79 -79 -186 -111 -43 -13 -90 -36
-118 -58 -26 -20 -50 -35 -52 -32 -11 11 121 92 178 110 61 19 144 65 167 94
17 19 23 18 11 -3z m794 6 c11 -17 -1 -21 -15 -4 -8 9 -8 15 -2 15 6 0 14 -5
17 -11z m-1651 -20 c-3 -5 -11 -9 -19 -9 -7 0 -27 -17 -44 -37 -17 -21 -30
-32 -31 -26 0 22 70 92 86 86 7 -3 11 -9 8 -14z m4145 3 c-75 -101 -91 -121
-104 -126 -23 -8 -5 19 55 87 50 55 77 77 49 39z m245 -17 c5 -22 4 -26 -4
-15 -5 8 -10 24 -10 34 0 26 6 18 14 -19z m301 5 c-8 -16 -15 -35 -15 -43 0
-7 -6 -14 -14 -14 -11 0 -10 10 7 44 12 24 25 43 29 43 5 0 2 -13 -7 -30z
m-6855 -41 c0 -24 -4 -38 -10 -34 -5 3 -10 22 -10 41 0 19 5 34 10 34 6 0 10
-18 10 -41z m4558 -18 c-7 -29 -13 -38 -19 -29 -16 24 -10 66 9 70 23 6 22 8
10 -41z m2470 12 c-34 -37 -56 -82 -64 -129 -5 -32 0 -50 26 -99 24 -45 30
-68 26 -93 -10 -66 25 -87 49 -29 32 76 110 147 163 147 32 0 36 -22 12 -69
-25 -50 -36 -54 -16 -7 8 19 12 37 8 40 -11 12 -48 6 -78 -13 -32 -19 -81 -87
-71 -98 4 -3 16 11 28 31 24 41 75 74 91 58 14 -14 -7 -74 -32 -97 -23 -21
-26 -9 -5 19 8 11 15 30 15 43 0 20 -3 22 -19 14 -10 -6 -28 -26 -40 -46 -24
-42 -104 -95 -142 -95 -32 0 -42 20 -33 65 3 18 -1 76 -10 128 l-17 96 35 53
c40 64 77 108 90 108 6 0 -2 -12 -16 -27z m-3708 11 c0 -36 -28 -164 -47 -217
-21 -59 -23 -72 -12 -104 18 -57 6 -177 -25 -248 -59 -131 -56 -127 -49 -63 5
50 -3 155 -12 146 -1 -1 -5 -22 -9 -45 -14 -107 -174 -350 -286 -434 -29 -22
-59 -47 -65 -56 -7 -9 -16 -13 -22 -10 -14 9 -90 -72 -103 -108 -12 -33 -63
-72 -107 -79 -15 -2 -51 -5 -80 -5 -34 -1 -57 -7 -69 -18 -15 -16 -15 -17 2
-24 15 -5 11 -8 -16 -11 -19 -3 57 -6 170 -6 113 -1 248 -5 301 -8 l95 -7 17
54 c16 52 16 41 2 -28 -6 -30 -4 -33 18 -33 13 0 69 -11 123 -25 235 -59 364
-173 364 -320 0 -110 -65 -245 -148 -307 -115 -85 -194 -107 -442 -119 -107
-6 -232 -13 -277 -15 l-83 -6 0 -168 c0 -166 0 -169 25 -198 14 -17 39 -34 56
-37 17 -4 29 -9 26 -11 -2 -2 -123 -6 -268 -9 -195 -4 -257 -2 -239 6 72 31
96 46 107 69 10 19 13 140 12 509 0 266 -2 481 -5 478 -4 -3 -7 -27 -8 -54 -3
-43 -54 -209 -62 -200 -2 2 5 33 15 70 10 37 15 67 10 67 -4 0 -10 -8 -14 -19
-3 -10 -15 -27 -27 -37 -19 -17 -19 -15 4 21 34 56 66 137 60 154 -3 9 -14 -2
-28 -30 -13 -24 -23 -38 -24 -32 0 23 33 98 53 121 15 16 18 25 10 33 -7 7
-23 -8 -52 -51 -51 -77 -54 -69 -5 12 41 67 39 73 -29 84 -56 10 -26 24 50 24
60 0 62 1 98 43 21 23 48 65 60 92 13 28 30 57 39 64 12 10 10 1 -7 -35 -14
-27 -27 -64 -31 -82 l-6 -33 28 19 c15 11 36 29 46 41 30 33 77 58 124 66 83
13 242 138 242 190 0 29 147 265 165 265 5 0 -40 -98 -49 -107 -3 -4 -6 -10
-6 -14 0 -5 17 10 38 33 25 26 39 35 39 25 0 -9 -4 -14 -9 -11 -4 3 -8 -1 -8
-8 0 -7 -14 -31 -32 -52 -23 -29 -26 -36 -11 -28 11 6 50 51 87 99 36 48 76
100 88 115 16 21 22 43 23 87 1 48 10 76 43 144 37 76 40 88 31 116 -6 17 -9
46 -6 64 10 67 76 207 98 207 5 0 9 -3 9 -6z m3377 -101 c-2 -21 -4 -4 -4 37
0 41 2 58 4 38 2 -21 2 -55 0 -75z m-7082 77 c-3 -5 -12 -10 -18 -10 -7 0 -6
4 3 10 19 12 23 12 15 0z m405 -38 c-6 -36 -39 -97 -47 -88 -2 2 5 21 16 42
12 21 21 46 21 55 0 13 8 29 15 29 1 0 -1 -17 -5 -38z m6710 -32 l-19 -55 0
60 c-1 41 2 55 9 45 7 -12 10 -11 16 5 18 45 12 -5 -6 -55z m-715 -15 c-52
-60 -67 -70 -40 -27 15 24 73 82 83 82 2 0 -18 -25 -43 -55z m-5921 11 c-21
-19 -40 -33 -42 -31 -8 7 23 55 33 51 7 -2 18 0 26 5 28 17 22 8 -17 -25z
m1149 27 c-7 -2 -21 -2 -30 0 -10 3 -4 5 12 5 17 0 24 -2 18 -5z m-263 -16 c0
-2 -12 -14 -27 -28 l-28 -24 24 28 c23 25 31 32 31 24z m6095 -33 c-20 -49
-20 -88 1 -80 8 3 12 2 9 -4 -3 -6 -13 -10 -21 -10 -19 0 -18 58 2 98 21 44
28 40 9 -4z m-401 -9 c4 -19 10 -35 14 -35 5 0 8 -31 8 -69 l0 -68 -17 31 c-9
17 -19 64 -22 104 -6 74 6 99 17 37z m173 13 c-3 -8 -6 -5 -6 6 -1 11 2 17 5
13 3 -3 4 -12 1 -19z m-7337 -7 c0 -5 -7 -12 -16 -15 -14 -5 -15 -4 -4 9 14
17 20 19 20 6z m1530 -1 c-19 -4 -44 -10 -55 -14 -13 -5 -11 -2 5 8 14 8 39
15 55 14 29 0 29 0 -5 -8z m5631 -177 c16 -50 29 -107 29 -125 -1 -54 -16 -15
-55 143 -36 147 -46 214 -18 124 9 -27 29 -91 44 -142z m640 120 c-9 -15 -10
-12 -10 17 0 29 1 32 10 18 7 -12 7 -24 0 -35z m-7311 -128 c0 -16 -4 -36 -9
-43 -8 -13 -15 27 -26 148 l-4 45 19 -60 c11 -33 20 -73 20 -90z m47 90 c-12
-30 -23 -51 -25 -45 -4 10 34 100 42 100 2 0 -6 -25 -17 -55z m864 31 c-9 -11
-9 -15 1 -20 7 -3 3 -4 -9 -2 -13 2 -23 0 -23 -6 0 -5 -5 -6 -11 -2 -7 4 0 14
18 25 34 23 39 24 24 5z m195 -2 c19 -15 19 -15 -1 -6 -11 5 -27 12 -35 15
-13 5 -13 6 1 6 8 1 24 -6 35 -15z m-546 3 c0 -2 -10 -12 -22 -23 -19 -15 -20
-16 -9 -1 12 15 10 17 -26 17 -21 0 -45 -6 -53 -12 -12 -11 -12 -10 -1 5 10
12 27 17 62 17 27 0 49 -2 49 -3z m5510 -1 c0 -2 -8 -10 -17 -17 -16 -13 -17
-12 -4 4 13 16 21 21 21 13z m-5113 -12 c-3 -3 -12 -4 -19 -1 -8 3 -5 6 6 6
11 1 17 -2 13 -5z m-1457 -39 c-13 -14 -26 -22 -29 -19 -3 3 5 14 19 24 34 27
38 25 10 -5z m237 -65 c1 -45 -2 -80 -7 -80 -5 0 -7 13 -4 29 3 16 1 38 -5 49
-11 20 -5 82 8 82 3 0 7 -36 8 -80z m6271 48 c-13 -18 -39 -58 -56 -88 -30
-52 -292 -333 -292 -313 0 5 57 68 126 139 82 85 135 148 154 186 25 48 74
108 89 108 2 0 -8 -15 -21 -32z m-5569 1 c8 -3 3 -9 -15 -17 -25 -12 -26 -12
-13 4 13 15 12 16 -11 9 -24 -7 -24 -7 -5 8 11 8 22 12 25 8 3 -5 11 -10 19
-12z m3032 -6 c-12 -20 -14 -14 -5 12 4 9 9 14 11 11 3 -2 0 -13 -6 -23z m229
-3 c-6 -11 -13 -20 -16 -20 -2 0 0 9 6 20 6 11 13 20 16 20 2 0 0 -9 -6 -20z
m3141 -17 c-5 -10 -24 -31 -42 -48 -28 -25 -30 -26 -14 -5 50 64 75 87 56 53z
m539 13 c0 -2 -19 -19 -42 -36 l-43 -32 40 36 c40 36 45 39 45 32z m-7110 -41
c-7 -8 -18 -15 -24 -15 -6 0 -2 7 8 15 25 19 32 19 16 0z m73 8 c-7 -2 -19 -2
-25 0 -7 3 -2 5 12 5 14 0 19 -2 13 -5z m722 -1 c6 -4 15 -17 22 -29 13 -23
-1 -44 -63 -90 l-29 -23 49 20 c61 25 72 19 17 -9 -24 -13 -50 -19 -63 -16
-17 4 -31 -2 -51 -24 -15 -16 -37 -33 -47 -36 -11 -4 -27 -23 -36 -43 -13 -29
-17 -33 -23 -20 -5 15 -15 9 -61 -35 -30 -29 -81 -83 -114 -120 -65 -76 -87
-84 -32 -11 43 57 48 84 6 32 -43 -52 -149 -134 -211 -163 -30 -14 -48 -25
-41 -25 7 0 23 5 35 12 19 10 20 9 9 -4 -15 -18 -64 -30 -72 -17 -3 4 -16 6
-29 2 -17 -4 -19 -8 -9 -14 9 -6 5 -9 -14 -9 -15 0 -38 -4 -52 -10 -14 -5 -26
-8 -26 -6 0 8 68 44 106 56 21 7 55 21 75 31 39 19 139 113 139 130 0 5 4 8 9
5 11 -7 33 19 56 63 23 46 14 138 -15 158 -11 8 -17 19 -14 25 4 6 0 14 -7 19
-11 7 -10 9 4 9 21 0 75 -26 95 -46 23 -24 48 -16 93 31 49 51 74 61 35 14
-14 -17 -26 -35 -26 -39 0 -5 -8 -17 -18 -27 -11 -10 -22 -27 -26 -38 -4 -11
15 3 41 31 35 38 64 57 108 73 33 12 72 28 86 36 14 8 29 12 32 9 11 -11 45 7
61 31 20 30 8 61 -26 68 -20 4 -20 4 -3 5 11 1 25 -2 30 -6z m4213 -56 c39
-20 43 -40 4 -23 -33 15 -102 69 -102 81 0 4 15 -3 33 -16 17 -14 47 -33 65
-42z m-4095 34 c-3 -10 -12 -25 -21 -32 -13 -11 -12 -8 2 20 19 36 27 41 19
12z m4841 -10 c-10 -16 -42 -55 -72 -87 l-54 -58 38 50 c51 67 98 125 102 125
2 0 -5 -13 -14 -30z m1209 -2 c-18 -18 -36 -44 -42 -58 -8 -21 -10 -22 -10 -5
-1 16 64 95 78 95 3 0 -9 -15 -26 -32z m-3545 -31 l-3 -22 -13 22 c-6 12 -9
29 -5 38 5 16 7 16 15 1 5 -9 8 -27 6 -39z m727 -25 c-5 -26 0 -34 47 -74 29
-24 66 -53 81 -63 15 -10 26 -19 24 -21 -7 -7 -101 47 -119 68 -10 12 -21 18
-24 15 -4 -3 -15 -2 -25 4 -32 16 -21 1 16 -24 l35 -24 -24 -26 c-13 -14 -21
-29 -17 -33 3 -4 0 -4 -7 0 -15 9 -52 -20 -52 -41 0 -8 -5 -11 -10 -8 -6 3
-13 -1 -16 -9 -10 -26 -27 -18 -21 9 2 14 3 24 2 23 -2 -2 -21 -25 -44 -53
-44 -53 -58 -90 -15 -40 14 17 22 23 18 15 -13 -27 -36 -50 -45 -44 -5 3 -12
-2 -15 -10 -3 -9 -10 -14 -14 -11 -12 7 -42 -44 -34 -58 4 -7 4 -9 -1 -5 -4 4
-16 -4 -27 -17 -11 -14 -29 -30 -40 -36 -12 -6 7 25 43 72 36 46 75 104 88
129 13 25 44 74 68 111 23 36 43 73 43 84 0 21 27 55 44 55 6 0 17 9 24 20 17
28 25 25 17 -8z m-980 -39 c-9 -50 -17 -34 -9 18 4 24 9 38 12 31 2 -7 1 -29
-3 -49z m-2505 40 c-8 -4 -29 -17 -46 -30 -33 -25 -49 -30 -38 -12 10 16 67
49 84 48 13 0 13 -1 0 -6z m-1211 -75 c13 -55 15 -131 2 -124 -4 3 -11 34 -14
68 -4 35 -9 77 -13 93 -11 50 12 16 25 -37z m7096 -18 c-4 -22 -10 -42 -15
-45 -5 -3 -4 11 2 31 5 20 7 48 4 63 -5 22 -5 23 5 8 6 -11 8 -34 4 -57z
m-2332 40 c6 -23 -1 -25 -25 -6 -23 17 -23 26 1 26 10 0 21 -9 24 -20z m-2911
0 c6 0 0 -9 -13 -20 -19 -15 -21 -19 -7 -20 9 0 24 7 33 16 9 9 18 14 21 11 3
-3 -16 -20 -41 -37 -36 -25 -49 -29 -55 -19 -7 10 -12 10 -26 -2 -16 -12 -17
-12 -9 1 26 46 58 81 72 76 8 -3 19 -6 25 -6z m3794 -18 c-4 -3 -14 2 -24 12
-16 18 -16 18 6 6 13 -6 21 -14 18 -18z m-1406 13 c0 -13 -86 -56 -151 -76
-83 -24 -132 -63 -167 -132 -15 -29 -22 -36 -22 -21 0 22 47 101 72 122 8 7
46 23 84 36 38 13 92 35 119 49 50 26 65 31 65 22z m3250 -9 c0 -2 -8 -10 -17
-17 -16 -13 -17 -12 -4 4 13 16 21 21 21 13z m-6706 -45 c5 -7 -24 -19 -94
-37 -79 -20 -266 -167 -349 -273 -46 -60 -101 -160 -101 -186 0 -8 -4 -15 -10
-15 -13 0 -13 7 6 87 19 85 22 89 136 205 69 71 108 102 153 123 33 15 80 42
105 59 55 38 141 59 154 37z m2917 -76 c-28 -43 -51 -71 -51 -64 0 13 33 66
75 121 39 50 25 19 -24 -57z m3849 82 c0 -2 -10 -12 -22 -23 l-23 -19 19 23
c18 21 26 27 26 19z m-7753 -29 c1 -13 5 -48 8 -78 7 -49 4 -63 -20 -110 -18
-36 -29 -77 -33 -118 -7 -85 -22 -89 -23 -5 -4 171 8 279 28 260 2 -3 -1 -15
-7 -27 -8 -15 -9 -43 -5 -83 7 -56 9 -59 21 -42 28 38 38 92 25 135 -7 23 -16
38 -22 34 -6 -3 -3 8 5 25 20 37 22 38 23 9z m1071 -19 c-3 -8 -7 -3 -11 10
-4 17 -3 21 5 13 5 -5 8 -16 6 -23z m6592 -26 c0 -27 -4 -43 -8 -36 -8 12 -4
83 4 83 2 0 4 -21 4 -47z m-5700 7 c-31 -24 -40 -25 -40 -4 0 10 6 14 14 11 8
-3 20 1 27 9 6 8 15 12 18 9 3 -4 -5 -15 -19 -25z m1998 -50 c-17 -28 -37 -72
-43 -98 -12 -43 -13 -45 -20 -21 -7 27 16 83 57 142 34 47 39 29 6 -23z
m-2921 -12 c-3 -8 -6 -5 -6 6 -1 11 2 17 5 13 3 -3 4 -12 1 -19z m1143 -10 c0
-32 -20 -100 -34 -118 -7 -8 -21 -35 -31 -60 -20 -48 -41 -80 -30 -45 4 11 10
29 15 40 26 64 31 84 25 107 -4 16 1 37 15 61 25 42 40 47 40 15z m-1300 -20
c0 -25 -170 -168 -200 -168 -20 0 -9 29 32 80 41 52 41 52 12 37 -17 -9 -47
-36 -68 -61 -32 -40 -38 -55 -45 -122 -7 -60 -14 -81 -34 -102 -14 -15 -34
-45 -46 -67 -27 -54 -64 -240 -56 -284 6 -32 5 -34 -11 -21 -15 13 -16 28 -10
125 4 60 13 135 21 165 l13 55 2 -40 1 -40 23 45 c13 25 36 56 50 69 23 22 26
32 26 91 0 58 4 72 29 106 46 62 105 114 147 129 39 14 114 16 114 3z m379
-42 c-22 -20 -26 -22 -13 -6 12 14 24 34 29 45 5 14 9 16 12 6 3 -7 -10 -27
-28 -45z m6821 50 c0 -3 -4 -8 -10 -11 -5 -3 -10 -1 -10 4 0 6 5 11 10 11 6 0
10 -2 10 -4z m-1430 -36 c-6 -11 -13 -20 -16 -20 -2 0 0 9 6 20 6 11 13 20 16
20 2 0 0 -9 -6 -20z m-2411 -18 c-31 -15 -78 -45 -105 -66 l-49 -40 35 38 c33
35 140 97 164 95 6 0 -14 -13 -45 -27z m523 -39 c-32 -49 -88 -136 -125 -198
-20 -33 -54 -75 -77 -93 -22 -18 -51 -53 -66 -77 -14 -25 -28 -45 -31 -45 -2
0 -1 5 3 11 18 29 -18 -3 -86 -76 l-74 -80 215 -5 c138 -3 199 -8 173 -12 -23
-5 -52 -16 -65 -27 l-24 -19 0 -596 c0 -681 -9 -622 95 -649 52 -14 39 -15
-230 -15 l-285 -1 55 19 c30 10 60 26 67 36 17 23 19 1174 3 1205 -16 29 -38
23 -77 -21 -20 -22 -40 -40 -45 -40 -6 0 9 21 32 47 l41 47 -33 12 c-31 12
-31 13 -8 14 14 1 31 2 39 0 18 -2 56 35 82 79 l21 36 -29 -25 c-69 -62 -73
-60 -22 8 30 41 53 78 51 83 -1 5 4 8 10 7 7 -2 13 4 13 13 0 28 125 183 176
218 26 18 60 49 75 69 47 61 118 118 99 80 -3 -7 4 0 17 15 28 35 36 18 10
-20z m1438 8 c-5 -11 -15 -23 -21 -27 -6 -3 -3 5 6 20 20 30 30 35 15 7z
m-4990 -6 c0 -2 -13 -11 -28 -19 -18 -9 -40 -38 -62 -81 -33 -66 -79 -111
-103 -102 -7 3 -5 6 5 6 20 1 64 56 93 115 19 39 95 104 95 81z m500 -44 c-20
-30 -40 -44 -23 -18 27 42 38 56 41 52 2 -2 -6 -18 -18 -34z m371 6 c-8 -8
-11 -7 -11 4 0 20 13 34 18 19 3 -7 -1 -17 -7 -23z m4860 10 c-10 -9 -11 -8
-5 6 3 10 9 15 12 12 3 -3 0 -11 -7 -18z m19 -45 c-25 -52 -34 -55 -13 -4 19
46 24 54 29 49 2 -2 -5 -22 -16 -45z m-7046 -79 c10 -18 27 -39 38 -47 21 -15
58 -65 58 -78 0 -17 -16 -6 -32 22 -10 17 -25 34 -35 38 -43 18 -93 55 -98 73
-9 27 -25 23 -25 -6 0 -14 -10 -37 -23 -51 -23 -25 -23 -25 -41 -5 -26 29 -13
74 32 111 40 33 75 41 65 14 -4 -12 -2 -15 8 -12 8 3 15 11 15 19 4 33 7 32
14 -6 4 -22 15 -55 24 -72z m2085 95 c36 3 61 0 65 -7 5 -7 -2 -11 -19 -11
-25 0 -32 -2 -92 -34 -18 -9 -33 -13 -33 -7 0 5 5 13 10 16 6 3 8 18 5 33 -3
15 -3 22 0 16 3 -6 28 -9 64 -6z m1888 -39 c-17 -40 -44 -66 -109 -103 -65
-37 -61 -24 6 19 31 19 66 53 82 79 33 51 41 53 21 5z m196 9 c-5 -7 -15 -40
-23 -73 -12 -57 -35 -115 -46 -115 -2 0 -1 8 4 18 6 9 13 37 17 61 10 62 36
121 53 121 2 0 0 -6 -5 -12z m2927 -1 c0 -2 -10 -12 -22 -23 l-23 -19 19 23
c18 21 26 27 26 19z m-4948 -39 c-15 -15 -16 -32 -2 -23 34 21 -17 -53 -94
-137 -26 -30 -70 -42 -46 -13 7 8 16 13 20 10 11 -7 33 23 37 48 4 21 3 21
-11 2 -8 -11 -12 -24 -9 -29 4 -5 0 -6 -7 -1 -9 6 -11 4 -5 -5 5 -8 4 -11 -3
-7 -16 11 -43 -3 -51 -26 -5 -13 -10 -16 -15 -9 -4 6 2 19 12 28 56 47 74 66
69 71 -3 3 -22 -5 -41 -17 -34 -20 -63 -20 -50 1 3 5 9 7 14 4 5 -3 31 6 57
20 26 14 53 25 59 25 6 0 24 18 38 41 15 22 30 38 34 35 3 -4 0 -12 -6 -18z
m668 17 c0 -2 -33 -29 -72 -59 -71 -53 -218 -133 -218 -119 0 4 -7 -2 -16 -13
-8 -10 -12 -13 -8 -5 9 18 -11 6 -54 -34 -18 -16 -54 -49 -80 -73 -50 -45
-195 -125 -208 -114 -4 4 -4 1 0 -6 4 -7 0 -15 -10 -19 -35 -13 18 -22 138
-22 l116 -1 12 -35 c6 -19 31 -58 55 -87 24 -29 42 -54 40 -56 -2 -2 -66 17
-142 42 -76 25 -167 52 -203 60 -71 16 -269 34 -448 39 l-112 3 1 -183 2 -183
26 0 c48 0 56 -13 45 -70 -8 -40 -8 -53 3 -61 7 -6 13 -25 13 -42 l0 -30 118
6 c64 3 169 15 232 25 215 36 188 38 300 -18 55 -28 100 -52 100 -55 0 -3 -45
-28 -100 -55 l-101 -51 -177 30 c-197 32 -409 50 -398 33 3 -6 2 -30 -3 -54
-5 -24 -11 -74 -12 -113 -2 -38 -9 -80 -16 -91 -10 -15 -12 -42 -9 -85 5 -59
4 -60 -4 -20 -16 77 -18 70 -19 -76 l-1 -143 126 0 c183 0 406 18 507 41 70
17 108 34 194 85 58 36 108 62 110 60 3 -3 -6 -40 -20 -83 -14 -43 -28 -95
-32 -115 l-6 -38 -517 -4 c-609 -6 -640 -7 -669 -23 -11 -7 -54 -13 -95 -14
-63 -2 -77 -5 -100 -27 -16 -14 -28 -21 -28 -15 0 25 53 53 100 53 26 0 50 3
54 7 4 4 13 8 19 9 7 0 20 2 30 2 24 3 21 22 -3 22 -12 0 -35 7 -53 16 l-32
17 55 14 c58 15 97 39 63 40 -10 0 -27 -7 -38 -16 -19 -15 -19 -15 -5 3 8 11
30 25 48 33 l32 13 0 208 c0 116 -5 214 -10 222 -9 13 -10 13 -10 -1 0 -8 -12
-26 -26 -40 -25 -23 -57 -67 -136 -188 -38 -58 -51 -118 -23 -107 8 3 22 9 30
12 20 8 20 -32 0 -66 l-15 -25 6 28 c4 16 2 27 -5 27 -17 0 -31 -35 -31 -78 0
-33 -6 -45 -35 -71 -20 -17 -39 -31 -43 -31 -3 0 11 14 32 32 35 28 38 34 32
68 -4 29 -1 44 15 64 20 25 20 26 1 26 -14 0 -21 -9 -25 -32 -6 -37 -36 -112
-42 -106 -2 2 0 21 5 43 5 22 8 41 6 42 -9 9 -71 -97 -78 -135 -4 -25 -15 -53
-23 -62 -8 -9 -15 -23 -15 -31 1 -8 10 -3 26 15 l25 28 -7 -28 c-14 -57 -33
-100 -69 -159 l-37 -60 7 99 c4 54 11 112 16 130 6 17 14 67 19 111 5 44 12
90 16 103 4 15 2 22 -7 22 -16 -1 -49 -66 -49 -98 0 -11 -4 -23 -8 -26 -5 -3
-7 16 -4 43 3 33 0 51 -8 56 -10 6 -12 1 -8 -19 3 -14 1 -26 -3 -26 -5 0 -9
25 -9 55 0 30 -4 55 -10 55 -5 0 -10 11 -10 25 0 34 18 32 26 -2 3 -16 9 -37
14 -48 8 -19 9 -19 9 2 1 12 10 29 22 37 12 8 18 19 15 25 -4 5 -2 12 3 15 5
4 12 -3 16 -14 3 -11 15 -20 25 -20 25 0 30 -19 21 -84 -4 -31 -4 -56 0 -56
14 0 31 41 25 62 -4 16 -2 18 7 9 8 -8 8 -19 0 -41 -18 -47 2 -35 37 21 46 75
67 136 80 230 18 130 39 223 56 247 14 21 14 22 -6 22 -12 0 -36 -11 -53 -24
-18 -13 -56 -31 -85 -42 -29 -10 -73 -35 -99 -57 -41 -33 -52 -38 -81 -32 -34
6 -34 6 -28 -27 l7 -33 -20 35 c-17 30 -17 37 -5 51 19 22 18 32 -10 58 -34
32 -88 155 -83 188 l4 28 8 -25 c5 -14 21 -48 36 -77 15 -28 30 -65 34 -82 4
-17 13 -31 20 -31 7 0 15 -6 18 -12 5 -17 27 130 27 182 0 39 -1 40 -35 40
-21 0 -43 8 -54 19 -18 18 -39 75 -42 111 -2 30 -17 -36 -18 -80 -2 -54 -21
-36 -21 20 0 36 44 210 62 243 18 34 18 11 -1 -55 -18 -66 -18 -67 4 -142 24
-84 43 -105 93 -106 l32 0 0 -53 c0 -29 -7 -78 -15 -109 -14 -56 -11 -123 7
-134 16 -10 84 65 97 106 15 52 81 110 124 110 43 0 48 5 81 75 l27 60 -4 -43
c-5 -37 -3 -41 9 -31 12 10 17 5 31 -30 9 -22 19 -41 22 -40 3 0 21 19 39 41
l33 41 -3 215 c-3 209 -4 214 -26 232 -13 11 -43 22 -68 26 -25 3 -42 10 -37
14 26 24 123 30 475 30 224 0 379 4 388 10 12 8 12 10 -5 10 -11 0 -16 3 -10
8 6 4 12 18 12 31 1 13 13 36 27 50 19 20 25 36 24 64 -1 21 4 43 11 50 11 10
12 1 9 -45 l-4 -56 23 15 c14 10 23 11 23 4 0 -6 -7 -11 -16 -11 -8 0 -13 -4
-9 -9 3 -5 0 -13 -6 -17 -7 -4 -9 -3 -5 4 3 6 0 9 -9 8 -24 -4 -27 -13 -5 -19
15 -4 28 3 45 21 13 15 24 31 24 35 0 12 131 137 171 163 19 13 45 25 57 27
11 1 27 8 35 15 8 6 32 14 54 18 l39 6 -24 -26 -25 -26 65 26 c35 14 81 35
102 45 21 11 43 17 50 13 7 -4 8 -3 4 1 -4 5 11 19 35 32 48 25 48 25 48 18z
m-936 -37 c4 -17 2 -28 -4 -28 -5 0 -10 14 -10 32 0 36 4 35 14 -4z m-1544 12
c0 -5 -2 -10 -4 -10 -3 0 -8 5 -11 10 -3 6 -1 10 4 10 6 0 11 -4 11 -10z
m3448 -12 c-6 -13 -15 -41 -18 -63 -6 -37 -7 -38 -14 -14 -8 29 16 99 34 99 7
0 7 -7 -2 -22z m2942 -44 c-16 -49 -21 -38 -8 16 6 24 13 39 16 32 2 -6 -2
-28 -8 -48z m-6582 16 c-7 -11 -18 -22 -25 -25 -9 -3 -8 4 3 20 19 29 40 34
22 5z m202 -6 c0 -8 -4 -12 -10 -9 -5 3 -10 13 -10 21 0 8 5 12 10 9 6 -3 10
-13 10 -21z m1590 -44 l-9 -45 2 42 c1 23 -2 45 -6 49 -4 4 -7 12 -7 18 0 6 7
4 15 -5 12 -11 13 -24 5 -59z m-1730 43 c0 -12 -12 -26 -40 -48 -21 -16 -20
-14 5 14 29 32 29 33 5 21 -23 -12 -24 -12 -11 3 14 17 41 23 41 10z m3521
-58 c-8 -46 -9 -47 -10 -13 -1 34 8 73 15 66 2 -2 -1 -26 -5 -53z m-3392 14
c2 41 52 -58 65 -129 2 -14 9 -46 15 -73 12 -50 4 -244 -10 -252 -18 -12 -92
255 -76 272 7 6 27 -57 27 -84 0 -14 6 -39 14 -56 8 -18 17 -39 19 -47 3 -8 6
1 6 20 1 19 3 44 5 55 2 11 1 14 -1 8 -11 -31 -25 -10 -22 31 2 24 1 42 -3 39
-5 -2 -8 6 -8 18 0 12 -3 19 -7 15 -8 -8 -30 83 -38 159 -4 36 -3 44 4 30 6
-11 10 -14 10 -6z m1836 -19 c-5 -27 -32 -53 -40 -40 -3 5 -2 10 3 10 5 0 14
11 20 25 14 30 22 33 17 5z m-1148 -15 c-13 -9 -45 -13 -103 -13 -46 1 -82 4
-79 6 3 3 47 8 97 12 51 4 95 8 98 8 3 1 -3 -5 -13 -13z m833 5 c0 -5 -2 -10
-4 -10 -3 0 -8 5 -11 10 -3 6 -1 10 4 10 6 0 11 -4 11 -10z m-1650 -10 c0 -5
-5 -10 -11 -10 -5 0 -7 5 -4 10 3 6 8 10 11 10 2 0 4 -4 4 -10z m3546 -38 c-9
-17 -20 -33 -25 -36 -5 -4 0 12 12 33 25 46 36 48 13 3z m-862 14 c-3 -8 -18
-22 -32 -32 -27 -17 -27 -17 2 15 33 35 38 37 30 17z m-772 -19 c-9 -10 -17
-41 -21 -79 -1 -5 -5 -8 -10 -8 -6 0 -5 15 1 38 10 35 25 62 35 62 3 0 1 -6
-5 -13z m4362 -39 c-16 -18 -32 -37 -36 -42 -5 -6 -8 -7 -8 -3 0 8 60 77 68
77 3 0 -7 -15 -24 -32z m-2549 12 c-3 -5 -21 -9 -38 -9 l-32 1 30 8 c43 11 47
11 40 0z m-2255 -10 c0 -5 -5 -10 -11 -10 -5 0 -7 5 -4 10 3 6 8 10 11 10 2 0
4 -4 4 -10z m2010 -18 c0 -10 -7 -27 -15 -38 -13 -17 -13 -15 -3 19 12 41 18
47 18 19z m-3440 -139 c-5 -19 -10 -36 -12 -39 -10 -9 -48 29 -48 49 l1 22 18
-22 c11 -13 21 -23 24 -23 12 0 -1 71 -17 94 -15 24 -15 27 1 44 17 17 18 15
29 -36 7 -31 8 -68 4 -89z m3508 110 c-14 -16 -32 -39 -41 -53 -10 -14 -17
-18 -17 -10 0 8 17 31 37 52 42 44 60 52 21 11z m-3114 -8 c-12 -18 -15 -40
-12 -80 5 -57 -3 -70 -23 -34 -15 28 -3 88 24 117 27 29 31 28 11 -3z m3336
-7 c-1 -7 -7 -26 -16 -43 -12 -26 -14 -27 -9 -5 2 14 5 33 5 43 0 9 5 17 10
17 6 0 10 -6 10 -12z m-1869 -13 c5 4 6 -1 2 -10 -5 -13 -7 -14 -14 -3 -6 9
-9 7 -9 -9 0 -12 -4 -24 -9 -28 -6 -3 -6 7 0 27 5 18 9 35 10 38 0 3 3 -1 6
-8 2 -6 9 -10 14 -7z m461 -42 c-5 -26 -42 -87 -48 -80 -4 3 45 107 50 107 2
0 1 -12 -2 -27z m218 14 c0 -2 -10 -12 -22 -23 l-23 -19 19 23 c18 21 26 27
26 19z m910 -57 c-11 -16 -26 -33 -33 -37 -12 -7 0 11 32 50 23 28 24 20 1
-13z m-3479 -94 c5 -5 14 -4 24 4 22 19 18 -1 -12 -55 -26 -47 -26 -48 -10
-94 19 -53 33 -129 23 -119 -4 3 -14 28 -21 55 l-13 48 -1 -42 c-1 -23 -10
-59 -22 -80 -37 -66 -38 -59 -5 18 14 35 14 38 -4 59 -24 28 -25 51 -4 92 11
20 15 49 12 89 -2 34 1 61 7 62 6 2 12 -3 13 -12 2 -9 8 -20 13 -25z m587 -34
c1 -37 -2 -80 -7 -97 -8 -23 -8 -17 -4 28 6 62 -2 74 -18 27 -6 -16 -14 -28
-17 -26 -20 11 -53 -19 -77 -68 -15 -31 -30 -56 -34 -56 -10 0 -31 23 -31 34
0 6 5 5 12 -2 17 -17 28 -15 28 7 0 10 11 35 25 55 21 31 22 35 6 26 -15 -7
-25 -5 -41 8 -19 15 -21 23 -14 53 l8 34 6 -40 c6 -48 34 -60 51 -22 6 14 22
29 34 35 13 6 28 26 35 46 17 54 35 35 38 -42z m4512 39 c-139 -44 -272 -131
-414 -273 -59 -59 -110 -108 -112 -108 -2 0 -4 27 -4 59 l0 59 62 57 c125 112
261 183 403 209 107 19 132 18 65 -3z m758 9 c154 -17 273 -41 354 -72 30 -11
32 -20 43 -203 l5 -90 -32 65 c-55 114 -169 207 -310 254 -140 47 -367 48
-506 1 -179 -60 -302 -185 -359 -365 -20 -66 -28 -243 -14 -325 37 -212 149
-378 309 -458 88 -44 211 -60 413 -55 l144 3 88 42 c109 53 193 132 238 225
l30 63 -7 -135 c-3 -74 -8 -138 -10 -141 -5 -9 -143 -45 -234 -61 -49 -8 -161
-13 -325 -13 -237 0 -255 2 -355 27 -204 52 -340 125 -448 243 -101 111 -144
222 -145 375 0 186 83 335 251 447 202 134 563 206 870 173z m-3579 -59 c-16
-54 -24 -46 -9 9 6 23 14 40 16 37 3 -3 0 -24 -7 -46z m-2209 -60 c12 -30 37
-72 56 -93 19 -21 34 -43 34 -50 0 -29 -88 87 -103 136 -28 89 -21 92 13 7z
m5782 -48 c-22 -27 -47 -63 -57 -82 -9 -18 -46 -63 -81 -100 l-64 -66 24 71
c43 127 57 144 162 198 27 14 50 26 52 26 2 0 -15 -21 -36 -47z m-1818 -5
c-47 -53 -48 -54 -30 -23 17 28 44 55 55 55 3 0 -8 -15 -25 -32z m81 12 c-3
-5 -12 -10 -18 -10 -7 0 -6 4 3 10 19 12 23 12 15 0z m2435 -20 c0 -5 -5 -10
-11 -10 -5 0 -7 5 -4 10 3 6 8 10 11 10 2 0 4 -4 4 -10z m-4700 -89 c-24 -7
-24 -7 -3 -13 11 -3 27 -16 34 -29 11 -22 11 -22 -20 4 -39 32 -62 34 -110 6
l-36 -21 30 26 c28 24 54 32 105 34 l25 0 -25 -7z m63 -13 c6 -9 7 -23 2 -34
-8 -17 -9 -17 -13 6 -2 14 -9 31 -15 39 -10 11 -9 13 2 10 8 -3 19 -12 24 -21z
m-1758 -34 c-8 -16 -15 -23 -15 -16 0 13 22 53 27 48 2 -2 -3 -16 -12 -32z
m2316 2 c-14 -36 -22 -33 -9 5 6 16 12 28 14 26 3 -2 0 -16 -5 -31z m3189 -41
c0 -2 -10 -9 -22 -15 -22 -11 -22 -10 -4 4 21 17 26 19 26 11z m-3970 -30 c-7
-8 -17 -15 -23 -15 -6 0 -2 7 9 15 25 19 30 19 14 0z m-1584 -16 c10 -12 31
-27 46 -35 15 -8 32 -24 39 -35 9 -17 8 -20 -3 -13 -41 25 -126 103 -112 104
6 0 19 -9 30 -21z m1740 5 c10 -8 12 -12 4 -8 -8 5 -33 11 -55 15 l-40 6 36 2
c19 0 44 -6 55 -15z m-1886 -30 c12 -19 20 -37 17 -40 -6 -6 -47 50 -47 65 0
19 7 12 30 -25z m1687 11 c0 -8 -4 -15 -8 -15 -4 0 -16 -3 -26 -7 -12 -4 -10
0 7 15 14 12 25 21 26 22 0 0 1 -7 1 -15z m3923 2 c0 -2 -10 -12 -22 -23 l-23
-19 19 23 c18 21 26 27 26 19z m-5248 -82 c10 -18 10 -19 -5 -6 -15 11 -17 11
-17 -1 0 -8 7 -29 16 -47 13 -26 19 -30 30 -20 11 9 14 7 14 -10 0 -12 -6 -21
-15 -21 -9 0 -20 -10 -25 -22 -9 -23 -10 -21 -15 30 -1 13 -6 27 -11 32 -5 5
-7 32 -5 61 3 52 6 53 33 4z m5298 11 c0 -2 -8 -10 -17 -17 -16 -13 -17 -12
-4 4 13 16 21 21 21 13z m-5615 -100 c17 0 38 4 47 8 13 6 17 2 20 -21 2 -22
9 -29 31 -31 19 -2 27 -8 25 -20 -2 -12 5 -18 29 -20 25 -2 33 1 38 18 5 16
10 18 19 11 7 -6 16 -8 20 -4 4 4 4 0 1 -9 -3 -8 0 -32 9 -51 l15 -36 68 3
c67 3 70 2 91 -28 16 -23 22 -26 22 -13 0 10 4 16 9 13 5 -3 5 -22 1 -42 -5
-22 -4 -47 1 -63 12 -30 1 -22 -15 11 -17 34 -73 59 -124 56 -39 -3 -43 -1
-57 29 -9 18 -19 35 -24 37 -5 3 -12 22 -16 42 -6 32 -8 34 -19 19 -7 -10 -18
-15 -25 -11 -6 4 -18 3 -26 -4 -10 -8 -19 -8 -34 2 -12 7 -21 17 -21 23 -1 12
-35 55 -45 55 -10 0 6 -62 20 -76 7 -7 38 -20 69 -29 65 -19 75 -36 14 -25
-23 5 -57 6 -75 3 -43 -7 -92 14 -99 43 -3 13 -17 30 -30 39 -26 17 -30 35
-13 66 7 14 16 18 27 13 9 -4 31 -8 47 -8z m425 -58 c0 -10 7 -21 15 -24 8 -4
15 -11 15 -17 0 -5 -9 -2 -20 8 -11 10 -20 26 -20 36 0 10 -4 21 -10 24 -5 3
-10 12 -10 18 1 19 30 -25 30 -45z m17 -68 c3 -11 13 -20 22 -20 9 0 33 -11
54 -25 35 -24 37 -29 37 -80 0 -29 -3 -56 -7 -58 -5 -3 -6 16 -5 43 3 43 1 50
-29 78 -24 23 -36 28 -42 19 -7 -9 -10 -9 -14 1 -2 6 -11 12 -19 12 -8 0 -14
4 -14 9 0 5 -3 16 -6 25 -4 9 -1 16 6 16 6 0 14 -9 17 -20z m-496 -87 c8 -9
37 -27 64 -39 46 -21 47 -23 15 -18 -45 7 -130 34 -130 41 0 3 11 2 25 -1 14
-4 25 -2 25 4 0 5 -12 13 -26 16 -19 5 -29 2 -36 -10 -5 -9 -17 -16 -26 -16
-14 1 -13 4 7 20 28 24 64 26 82 3z m4137 -90 l-3 -87 -56 -46 c-177 -141
-415 -239 -697 -284 -103 -16 -498 -20 -682 -7 l-105 8 96 1 c201 4 466 32
594 63 22 6 60 15 85 20 156 33 399 137 537 230 65 44 203 162 211 182 2 4 8
7 13 7 6 0 9 -36 7 -87z m-3588 -51 c0 -15 -2 -15 -10 -2 -13 20 -13 33 0 25
6 -3 10 -14 10 -23z m44 -4 c-4 -18 -7 -38 -7 -45 0 -7 -4 -10 -9 -7 -11 7
-10 27 2 58 14 37 23 32 14 -6z m190 -6 c-6 -4 -18 -20 -27 -37 -22 -41 -21
-15 1 29 11 22 20 31 27 25 6 -7 6 -12 -1 -17z m-680 9 c6 -8 -73 -21 -129
-21 -26 1 -28 2 -12 11 10 6 28 9 40 6 12 -3 31 -1 42 3 27 11 53 12 59 1z
m563 -31 c-3 -11 -1 -23 4 -26 5 -3 9 -10 9 -16 0 -7 -5 -6 -14 1 -12 10 -19
8 -36 -9 -27 -27 -38 -16 -29 30 6 32 6 32 8 7 1 -24 3 -26 20 -17 11 5 23 19
26 30 8 26 19 26 12 0z m-202 -250 c-3 -5 -11 -10 -16 -10 -6 0 -7 5 -4 10 3
6 11 10 16 10 6 0 7 -4 4 -10z m530 -150 c-3 -5 -11 -10 -16 -10 -6 0 -7 5 -4
10 3 6 11 10 16 10 6 0 7 -4 4 -10z m-351 -24 c-3 -9 -10 -14 -14 -11 -13 8
-43 -62 -37 -85 3 -14 0 -20 -10 -20 -11 0 -14 6 -9 23 3 12 6 30 6 40 0 11
14 32 31 48 33 31 44 33 33 5z m-1 -68 c-3 -15 -11 -29 -17 -31 -9 -4 -8 5 3
29 17 39 21 40 14 2z m6097 7 c16 -19 1 -19 -24 0 -16 12 -17 15 -4 15 8 0 21
-7 28 -15z m-5867 -40 c-3 -9 -8 -14 -10 -11 -3 3 -2 9 2 15 9 16 15 13 8 -4z
m-8 -142 c-17 -33 -9 -45 12 -18 8 11 13 14 11 6 -2 -8 -14 -21 -26 -29 -21
-14 -22 -13 -22 16 0 25 17 48 37 52 1 0 -4 -12 -12 -27z m500 -19 c56 -51 18
-165 -60 -180 -82 -15 -143 39 -132 119 7 48 33 77 78 86 49 10 85 2 114 -25z
m615 24 c0 -5 -6 -11 -12 -13 -9 -4 -14 -33 -16 -84 -3 -68 -1 -81 15 -90 16
-9 14 -11 -12 -12 -31 -1 -78 1 -82 5 -1 1 2 15 7 32 l10 29 -4 -28 c-2 -17 1
-26 8 -24 6 2 12 18 14 36 3 24 0 31 -9 25 -9 -5 -10 -2 -6 10 4 10 10 35 13
57 5 32 3 40 -12 46 -15 6 -10 9 21 13 58 8 65 8 65 -2z m2830 -20 c0 -16 -4
-28 -10 -28 -5 0 -10 7 -10 15 0 9 -9 15 -25 15 -25 0 -25 -1 -25 -80 0 -65 3
-81 18 -89 9 -6 15 -11 12 -11 -71 -11 -135 -2 -95 14 12 4 15 24 15 86 0 79
0 80 -25 80 -16 0 -25 -6 -25 -15 0 -8 -4 -15 -10 -15 -5 0 -10 12 -10 28 l0
27 95 0 95 0 0 -27z m-3211 -5 c-1 -17 -3 -21 -6 -10 -3 12 -15 17 -39 17 -32
0 -34 -2 -34 -35 0 -31 3 -35 25 -35 14 0 25 5 25 10 0 6 5 10 10 10 6 0 10
-13 10 -30 0 -16 -4 -30 -10 -30 -5 0 -10 5 -10 10 0 6 -11 10 -25 10 -22 0
-25 -4 -25 -35 0 -22 6 -38 18 -44 13 -8 4 -10 -38 -10 -42 0 -51 2 -37 10 14
8 17 24 17 89 0 65 -3 81 -17 89 -13 8 2 10 60 11 l77 0 -1 -27z m220 20 c0
-5 -4 -17 -9 -28 -7 -17 -9 -17 -9 -2 -1 13 -10 17 -36 17 -32 0 -35 -2 -35
-30 0 -35 23 -49 51 -31 17 10 19 8 19 -21 0 -25 -3 -29 -12 -20 -7 7 -21 12
-33 12 -17 0 -21 -7 -23 -34 -2 -24 3 -38 15 -45 14 -8 7 -10 -32 -10 -27 0
-44 3 -37 6 8 3 12 32 12 93 0 61 -4 90 -12 93 -7 3 22 6 65 6 42 1 77 -2 76
-6z m409 -28 l4 -30 -27 29 c-21 22 -31 27 -53 21 -45 -11 -62 -34 -62 -82 0
-68 59 -110 117 -84 19 9 24 9 21 -1 -6 -18 -55 -31 -93 -24 -55 11 -86 44
-92 98 -5 43 -3 50 25 78 29 29 36 31 94 28 62 -3 63 -4 66 -33z m155 28 c-9
-3 -13 -32 -13 -93 0 -61 4 -90 13 -93 6 -3 -10 -5 -38 -5 -27 0 -44 2 -37 5
8 3 12 32 12 93 0 61 -4 90 -12 93 -7 3 10 5 37 5 28 0 44 -2 38 -5z m226 -76
c19 -45 41 -90 49 -99 14 -17 12 -18 -34 -18 -31 0 -44 3 -35 9 8 5 11 16 6
30 -5 17 -14 21 -45 21 -31 0 -40 -4 -45 -21 -5 -14 -2 -25 6 -30 9 -6 0 -9
-25 -9 -34 0 -37 2 -23 13 14 10 39 62 78 165 15 39 33 23 68 -61z m203 71
c-7 -7 -12 -43 -12 -90 l0 -78 35 0 c22 0 38 6 44 18 9 14 10 13 11 -10 l0
-28 -77 1 c-43 0 -72 3 -65 6 8 3 12 31 12 88 0 69 -3 86 -17 94 -14 8 -7 10
32 11 38 0 46 -3 37 -12z m456 -20 c2 -16 -1 -28 -7 -28 -6 0 -11 7 -11 15 0
26 -44 40 -79 25 -41 -16 -56 -68 -36 -116 18 -42 57 -60 103 -46 40 12 44 -4
5 -19 -115 -43 -217 89 -133 172 27 28 34 30 92 27 60 -3 63 -4 66 -30z m255
12 c54 -43 40 -142 -24 -175 -41 -22 -102 -15 -134 15 -42 40 -41 111 2 155
34 33 117 36 156 5z m223 -52 l59 -72 3 59 c3 47 0 62 -14 72 -16 11 -13 13
22 12 21 0 33 -3 27 -6 -9 -3 -13 -33 -13 -99 0 -77 -3 -94 -15 -94 -15 0 -58
43 -116 116 l-29 37 0 -68 c0 -56 3 -66 15 -61 13 4 13 2 5 -14 -5 -10 -15
-22 -22 -26 -7 -4 -8 -3 -4 4 5 8 -2 12 -21 12 -24 1 -25 2 -10 11 14 8 17 24
17 89 0 65 -3 81 -17 89 -15 8 -11 10 18 11 33 0 42 -6 95 -72z m362 37 l4
-30 -27 29 c-21 22 -31 27 -53 21 -44 -11 -62 -34 -62 -80 0 -68 54 -108 114
-85 21 8 27 7 24 -2 -3 -7 -20 -17 -40 -22 -113 -29 -197 96 -118 175 27 28
34 30 92 27 62 -3 63 -4 66 -33z m222 15 c0 -11 -4 -20 -10 -20 -5 0 -10 5
-10 10 0 6 -16 10 -35 10 -33 0 -35 -2 -35 -35 0 -30 3 -35 25 -35 13 0 29 8
34 18 8 13 10 9 10 -23 0 -22 -3 -34 -6 -27 -2 6 -18 12 -34 12 -26 0 -29 -3
-29 -35 0 -34 1 -35 40 -35 29 0 40 4 40 15 0 8 5 15 11 15 6 0 8 -7 5 -16 -3
-9 -6 -20 -6 -25 0 -5 -35 -9 -77 -9 -60 0 -74 3 -65 12 7 7 12 43 12 90 0 63
-3 79 -17 87 -13 8 4 10 65 11 75 0 82 -2 82 -20z m228 8 c32 -32 -4 -98 -53
-98 -30 0 -33 16 -4 23 30 8 23 61 -8 65 -22 3 -23 1 -23 -74 0 -59 4 -80 16
-88 14 -10 11 -14 -20 -23 -24 -7 -36 -8 -36 -1 0 6 -7 8 -15 4 -17 -6 -20 5
-5 20 17 17 15 164 -1 175 -9 5 15 9 62 9 45 0 80 -5 87 -12z m586 -78 c21
-49 45 -94 54 -100 13 -7 2 -9 -38 -10 -34 0 -50 4 -41 9 8 5 11 16 6 30 -5
17 -14 21 -45 21 -30 0 -39 -4 -43 -22 -4 -13 -1 -26 6 -30 7 -4 -5 -8 -27 -8
-34 0 -37 2 -23 13 14 10 39 62 78 165 16 41 36 23 73 -68z m204 79 c-15 -8
-18 -24 -18 -89 l0 -80 40 0 c29 0 40 4 40 15 0 8 4 15 9 15 4 0 6 -11 3 -25
-4 -24 -7 -25 -80 -25 -59 0 -73 3 -64 12 7 7 12 43 12 90 0 63 -3 79 -17 87
-14 8 -5 10 37 10 42 0 51 -2 38 -10z m300 -1 c18 -18 15 -46 -6 -59 -18 -11
-17 -13 5 -35 28 -28 28 -34 2 -68 -18 -23 -27 -26 -87 -26 -51 0 -63 3 -54
12 7 7 12 43 12 90 0 63 -3 79 -17 87 -14 8 1 10 58 11 45 0 80 -5 87 -12z
m169 1 c-15 -9 -18 -22 -16 -77 2 -76 10 -92 48 -92 48 0 56 13 56 91 0 52 -4
73 -15 80 -10 6 -3 8 25 9 22 0 35 -4 29 -8 -7 -4 -13 -42 -16 -84 -4 -96 -18
-113 -87 -113 -71 0 -81 13 -81 106 0 64 -3 80 -17 88 -14 8 -5 10 37 10 43 0
51 -2 37 -10z m302 -61 l32 -73 34 73 c33 71 34 72 72 71 21 0 32 -3 26 -6 -9
-3 -13 -32 -13 -93 0 -61 4 -90 13 -93 6 -3 -10 -5 -38 -5 -27 0 -44 2 -37 5
8 3 12 27 11 71 l0 67 -37 -72 c-20 -40 -40 -73 -45 -73 -4 0 -23 32 -42 72
l-35 72 0 -66 c0 -44 4 -68 13 -71 6 -3 -5 -6 -26 -6 -36 -1 -37 0 -21 16 14
14 16 30 11 92 -3 45 -11 77 -19 82 -8 6 2 9 28 9 l41 0 32 -72z m861 38 c0
-8 -11 -28 -25 -43 l-26 -28 21 43 c21 44 30 52 30 28z m-1003 -12 c-3 -3 -12
-4 -19 -1 -8 3 -5 6 6 6 11 1 17 -2 13 -5z m-5127 -50 c0 -8 -10 -19 -22 -25
-20 -11 -21 -10 -10 3 10 13 9 16 -10 20 -36 6 -54 -1 -66 -25 -6 -12 -11 -16
-11 -9 -1 7 4 22 10 33 8 16 19 20 60 18 32 -2 49 -7 49 -15z m3810 12 c0 -2
-8 -10 -17 -17 -16 -13 -17 -12 -4 4 13 16 21 21 21 13z m-150 -60 c0 -2 -8
-10 -17 -17 -16 -13 -17 -12 -4 4 13 16 21 21 21 13z m-2649 -93 c-12 -20 -14
-14 -5 12 4 9 9 14 11 11 3 -2 0 -13 -6 -23z m59 13 c0 -2 -8 -10 -17 -17 -16
-13 -17 -12 -4 4 13 16 21 21 21 13z m4209 -30 c-2 -2 -47 -5 -99 -8 -52 -3
-81 -2 -65 2 30 8 172 13 164 6z m-164 -46 c-3 -5 -18 -10 -33 -9 -24 0 -25 1
-7 9 28 12 47 12 40 0z m98 -7 c-7 -2 -21 -2 -30 0 -10 3 -4 5 12 5 17 0 24
-2 18 -5z m-4232 -26 c-10 -9 -11 -8 -5 6 3 10 9 15 12 12 3 -3 0 -11 -7 -18z
m4019 8 c0 -2 -10 -9 -22 -15 -22 -11 -22 -10 -4 4 21 17 26 19 26 11z m606
-35 c23 -5 49 -8 57 -4 9 3 39 -7 68 -22 60 -33 109 -107 109 -165 0 -38 -24
-69 -113 -143 -26 -22 -47 -44 -47 -50 0 -5 -22 -50 -50 -98 -27 -48 -50 -97
-50 -108 0 -12 11 -37 25 -57 13 -20 22 -40 19 -45 -8 -12 -81 -48 -99 -48 -9
0 -57 -16 -106 -35 -69 -26 -105 -35 -148 -34 l-56 1 50 8 c135 20 201 84 267
259 11 29 36 71 55 92 20 22 31 39 26 39 -15 0 -94 -88 -136 -151 -46 -70 -82
-109 -100 -109 -7 0 -32 -9 -55 -20 -22 -11 -45 -20 -50 -20 -5 0 -23 -7 -41
-16 -17 -9 -40 -17 -49 -18 -17 -3 -42 -40 -42 -63 0 -6 12 -16 28 -21 24 -9
24 -11 5 -11 -26 -1 -53 24 -53 50 0 42 74 111 166 154 65 30 91 50 189 150
62 63 115 115 119 115 4 0 28 14 54 32 45 30 46 30 23 5 -47 -51 -12 -38 58
23 87 74 108 110 91 151 -27 63 -79 102 -188 137 -56 19 -102 36 -102 39 0 2
8 2 18 -1 9 -3 36 -10 58 -16z m-175 -26 c8 -9 27 -23 44 -30 25 -11 26 -13 9
-14 -12 0 -41 18 -65 41 -24 22 -35 36 -23 30 11 -5 27 -18 35 -27z m-1263
-23 c-13 -17 -27 -30 -32 -30 -6 -1 3 13 19 29 37 38 43 39 13 1z m-618 -28
c-5 -16 -13 -83 -19 -149 -6 -67 -13 -130 -17 -140 -5 -18 -5 -18 7 0 6 11 18
42 25 70 l13 51 -3 -50 c-5 -72 -43 -162 -90 -214 -23 -26 -64 -73 -91 -106
l-50 -60 40 24 40 23 -47 -49 c-27 -27 -48 -52 -48 -56 0 -3 23 7 52 24 108
64 251 86 366 57 67 -17 89 -42 110 -127 12 -47 21 -67 26 -56 10 27 7 70 -6
83 -7 7 -8 12 -3 12 18 0 55 -54 55 -80 0 -15 -7 -47 -15 -70 -8 -23 -15 -53
-15 -66 0 -48 69 -20 134 54 16 18 37 37 48 43 18 10 18 9 8 -12 -22 -40 -98
-108 -132 -117 -44 -12 -66 1 -74 43 l-6 35 -35 -46 c-28 -37 -34 -52 -29 -75
3 -18 2 -28 -4 -24 -16 10 -30 77 -30 145 0 59 -3 69 -29 98 -23 24 -38 32
-65 32 -28 0 -40 7 -66 40 -33 41 -65 50 -115 31 -15 -6 -11 -9 23 -14 35 -6
44 -12 56 -40 17 -42 55 -67 100 -67 52 0 70 -32 61 -108 -10 -91 -32 -150
-70 -194 -19 -23 -36 -51 -37 -62 -1 -12 -3 -39 -4 -61 -4 -61 -16 -108 -30
-123 -16 -16 -19 -68 -4 -77 6 -4 39 -7 73 -7 49 -1 72 4 112 25 29 16 64 27
85 26 l35 -1 -36 -12 c-20 -6 -60 -31 -90 -56 -137 -115 -207 -148 -258 -120
-24 12 -54 105 -46 139 4 14 22 51 41 82 37 60 64 135 64 179 0 15 -10 36 -24
49 l-23 22 -49 -41 c-135 -115 -178 -161 -252 -267 -11 -16 -12 -15 -7 10 l6
29 -37 -29 -38 -28 35 -5 c27 -4 30 -7 16 -13 -10 -4 -27 -7 -38 -7 -69 0
-151 -139 -135 -227 4 -21 9 -45 10 -53 1 -8 8 -26 15 -39 8 -15 11 -39 7 -65
-6 -35 -3 -45 15 -62 12 -10 24 -27 28 -36 5 -14 15 -11 71 23 63 38 122 51
135 29 3 -5 0 -7 -8 -4 -24 9 -99 -16 -140 -46 l-38 -28 35 -6 c38 -7 59 -27
54 -51 -2 -13 -9 -12 -37 10 -19 14 -48 25 -63 25 -20 0 -28 5 -28 18 0 10
-11 28 -25 40 -14 12 -25 29 -25 37 0 8 -6 15 -14 15 -9 0 -14 13 -14 41 -1
27 -8 49 -21 63 -15 16 -21 36 -21 68 0 85 57 180 156 258 31 25 95 80 141
123 46 42 88 77 93 77 6 0 10 5 10 11 0 6 18 31 40 56 62 71 50 117 -14 50
-42 -44 -142 -119 -191 -145 -22 -11 -55 -35 -72 -53 -18 -19 -42 -43 -54 -54
-13 -13 -19 -28 -16 -43 3 -15 -12 -43 -50 -94 -33 -45 -56 -86 -59 -110 -7
-42 -18 -48 -34 -19 -25 47 5 142 61 197 40 39 50 61 24 50 -10 -3 -15 1 -15
13 0 10 -2 20 -5 23 -9 9 -181 -56 -195 -73 -12 -14 -71 -39 -108 -45 -57 -9
-64 -16 -70 -73 -2 -28 -10 -55 -16 -60 -9 -8 -10 3 -5 42 8 66 15 82 42 95
l22 11 -22 0 c-35 1 -56 52 -51 125 3 49 15 86 60 181 31 66 63 143 72 172 19
67 33 93 51 93 8 0 17 11 21 25 7 26 24 35 24 11 0 -7 -12 -35 -27 -61 -22
-40 -26 -59 -25 -111 2 -60 0 -65 -28 -86 -34 -25 -50 -79 -30 -103 10 -13 9
-15 -9 -15 -17 0 -21 6 -21 30 0 17 -4 30 -8 30 -11 0 -57 -87 -66 -122 -8
-36 -1 -35 34 2 21 22 33 28 47 23 16 -7 16 -8 -5 -11 -13 -2 -32 -17 -42 -35
-17 -28 -18 -33 -5 -47 8 -9 21 -17 28 -18 6 -1 31 -5 55 -10 40 -9 47 -7 100
28 69 44 98 53 139 41 24 -7 37 -5 55 7 12 9 49 29 81 44 113 54 198 110 262
174 68 67 90 75 140 52 23 -10 29 -20 26 -40 -2 -12 12 -9 53 11 21 11 43 18
50 15 16 -6 19 44 5 77 -12 30 -36 45 -99 59 -36 8 -59 6 -115 -10 -38 -11
-89 -24 -111 -30 -54 -13 -140 -84 -192 -158 -43 -62 -99 -119 -107 -110 -8 7
53 206 73 236 28 44 196 259 212 272 4 3 20 29 36 59 16 30 61 89 100 130 85
91 95 108 100 175 11 155 26 272 39 302 17 41 27 45 15 7z m258 -23 c-7 -10
-14 -17 -17 -15 -4 4 18 35 25 35 2 0 -1 -9 -8 -20z m305 -40 c-15 -27 -29
-46 -31 -41 -3 9 46 91 55 91 2 0 -8 -22 -24 -50z m677 -25 c-12 -19 -26 -35
-31 -35 -4 0 4 20 19 45 15 25 28 41 30 35 2 -5 -6 -26 -18 -45z m-1214 -36
c-8 -24 -14 -37 -15 -28 -1 19 20 82 25 76 2 -2 -2 -23 -10 -48z m2385 25 c27
4 57 9 67 12 9 2 -1 -5 -23 -16 -52 -25 -106 -26 -136 0 l-24 20 33 -11 c19
-7 54 -9 83 -5z m-2001 -29 c0 -6 -97 -55 -107 -55 -4 1 17 14 47 30 61 32 60
32 60 25z m-2170 -35 c-6 -11 -13 -20 -16 -20 -2 0 0 9 6 20 6 11 13 20 16 20
2 0 0 -9 -6 -20z m4600 -40 c100 -11 120 -15 238 -57 44 -16 68 -29 61 -34
-17 -10 30 -32 121 -57 85 -24 190 -60 176 -61 -25 -2 -266 73 -302 94 -22 13
-70 31 -105 39 -35 8 -105 25 -156 36 -80 19 -98 20 -150 10 -55 -12 -295
-128 -318 -155 -15 -17 -90 -47 -110 -43 -15 3 -14 7 7 38 39 58 114 106 207
135 47 15 109 35 136 45 61 22 74 22 195 10z m-2611 -3 c-2 -2 -20 -14 -39
-26 l-35 -23 30 26 c17 14 34 26 39 26 5 0 7 -1 5 -3z m1002 -155 c-5 -10 -18
-25 -27 -33 -11 -9 -9 -2 6 19 26 35 36 42 21 14z m-193 -26 c-9 -22 -9 -32 0
-47 13 -21 12 -22 -12 -13 -21 8 -20 43 0 72 21 30 28 22 12 -12z m3012 24
c-8 -5 -19 -10 -25 -10 -5 0 -3 5 5 10 8 5 20 10 25 10 6 0 3 -5 -5 -10z m-65
-25 c-16 -8 -37 -14 -45 -14 -8 0 1 7 20 14 46 18 64 17 25 0z m-6005 -21 c0
-3 -25 -31 -54 -63 -48 -50 -127 -180 -158 -260 -11 -30 51 38 118 129 24 33
49 60 54 60 10 0 -36 -66 -109 -158 -20 -25 -45 -77 -62 -128 -17 -53 -45
-108 -74 -149 -47 -66 -75 -92 -35 -32 22 32 80 151 80 163 0 13 -32 -21 -62
-64 -17 -24 -59 -76 -95 -115 -36 -40 -85 -100 -109 -134 -40 -55 -107 -112
-125 -106 -4 1 -28 -25 -53 -57 -26 -33 -50 -60 -52 -60 -5 0 -4 3 65 95 111
148 124 165 129 160 3 -2 -1 -11 -8 -20 -10 -12 -10 -15 3 -15 24 0 153 156
201 244 15 27 42 72 60 100 18 28 39 63 46 76 40 79 -113 -130 -160 -218 -35
-65 -76 -120 -66 -88 7 20 7 20 -15 0 -50 -45 112 197 273 408 141 185 208
260 208 232z m886 -28 c3 -19 2 -42 -4 -52 -8 -15 -11 -13 -17 14 -6 28 -11
32 -38 32 l-32 0 35 19 c48 25 48 25 56 -13z m5017 17 c-24 -8 -43 -18 -43
-23 0 -4 33 -11 73 -15 39 -5 66 -10 59 -12 -7 -3 -50 0 -95 6 -47 6 -102 8
-127 3 -25 -4 -61 -5 -80 -2 -27 4 -16 7 46 12 45 4 103 16 130 27 27 11 56
20 64 20 8 0 -4 -7 -27 -16z m-4913 -39 c0 -14 -4 -23 -10 -19 -5 3 -7 12 -3
20 3 8 0 15 -7 15 -8 0 -10 -8 -6 -22 3 -13 6 -36 6 -53 1 -28 2 -29 10 -7 9
21 30 31 30 14 0 -4 -9 -33 -20 -65 -11 -31 -20 -70 -20 -86 0 -16 -4 -32 -9
-36 -12 -7 -31 57 -31 103 0 34 15 44 23 15 3 -10 5 -3 6 16 1 28 -1 32 -13
21 -18 -14 -58 -10 -64 8 -3 11 0 11 16 1 27 -17 57 4 43 29 -6 11 -4 26 5 44
18 36 44 37 44 2z m258 -32 c-78 -86 -98 -126 -98 -192 0 -36 -7 -75 -15 -93
-19 -39 -95 -127 -95 -110 0 7 13 27 29 45 42 49 51 70 60 146 5 38 17 86 26
106 20 41 101 136 117 136 6 0 -5 -17 -24 -38z m90 10 c2 -13 -4 -45 -14 -72
-15 -43 -16 -53 -4 -77 24 -47 24 -49 -4 -24 -31 29 -33 58 -6 111 27 52 26
77 -2 83 -20 5 -20 5 2 4 18 -2 26 -9 28 -25z m-623 -61 c-3 -6 -11 -11 -17
-11 -6 0 -6 6 2 15 14 17 26 13 15 -4z m545 -21 c0 -5 -4 -10 -10 -10 -5 0
-10 5 -10 10 0 6 5 10 10 10 6 0 10 -4 10 -10z m1585 -94 c-49 -12 -120 -38
-157 -58 -38 -20 -68 -34 -68 -33 0 2 21 19 48 38 47 35 173 75 237 75 17 1
-10 -9 -60 -22z m-1519 -49 c-10 -7 -32 -23 -47 -35 -16 -13 -29 -19 -29 -13
0 12 69 61 85 60 5 0 2 -6 -9 -12z m1213 -147 c-39 -55 -112 -121 -167 -150
-39 -19 -35 -5 5 23 21 15 74 63 118 107 44 44 81 80 83 80 2 0 -16 -27 -39
-60z m-1111 -238 c-45 -116 -65 -147 -43 -64 13 52 74 186 81 179 2 -2 -15
-54 -38 -115z m3527 -32 c3 -5 1 -10 -4 -10 -6 0 -11 5 -11 10 0 6 2 10 4 10
3 0 8 -4 11 -10z m-2221 -108 c-21 -16 -50 -45 -64 -65 -39 -57 -100 -74 -100
-28 0 41 118 121 179 121 22 0 20 -3 -15 -28z m-1464 3 c-7 -8 -17 -15 -22
-15 -6 0 -5 7 2 15 7 8 17 15 22 15 6 0 5 -7 -2 -15z m1752 -47 c49 -30 74
-51 76 -66 2 -15 -2 -22 -12 -22 -9 0 -16 -4 -16 -10 0 -20 -31 -9 -40 14 -7
21 -18 26 -67 32 -32 4 -67 7 -78 6 -30 -4 -108 -33 -125 -47 -62 -52 -208
-91 -281 -76 -30 7 -75 0 -159 -25 l-25 -7 29 31 c15 17 41 36 58 43 33 13 32
29 -3 46 -23 12 -23 13 -2 13 12 0 25 -4 28 -10 3 -5 14 -14 24 -20 15 -8 28
-2 64 30 l45 40 -9 -43 c-6 -23 -17 -47 -25 -54 -12 -9 -8 -12 25 -18 83 -14
117 8 174 115 36 67 68 82 169 77 71 -3 83 -7 150 -49z m-1247 -17 c-3 -6 -11
-8 -17 -5 -6 4 -5 9 3 15 16 10 23 4 14 -10z m479 -163 c-28 -29 -58 -65 -67
-80 -21 -33 -37 -36 -37 -7 0 31 37 78 88 110 68 43 72 35 16 -23z m-925 -33
c-13 -29 -20 -68 -21 -108 0 -40 -6 -68 -16 -79 -14 -16 -16 -15 -33 17 -19
35 -19 35 7 102 30 81 49 113 69 113 11 0 10 -9 -6 -45z m1066 -11 c-109 -46
-107 -45 -103 -32 5 14 111 57 143 57 11 0 -7 -11 -40 -25z m607 -102 c14 -15
28 -36 32 -47 5 -16 1 -14 -18 8 -14 15 -28 27 -31 27 -13 0 8 -66 31 -101 13
-19 24 -39 24 -45 0 -5 -14 -25 -31 -44 l-31 -35 21 38 c26 47 26 59 2 81 -11
10 -22 31 -25 47 -3 16 -9 42 -12 59 -3 17 -14 32 -25 35 -10 4 -19 10 -19 15
0 16 57 -10 82 -38z m-1638 -117 c-5 -20 -13 -37 -19 -38 -10 -2 -25 100 -16
109 3 2 14 -4 24 -15 16 -16 18 -25 11 -56z m1244 -22 c-10 -2 -28 -2 -40 0
-13 2 -5 4 17 4 22 1 32 -1 23 -4z m70 -33 c-21 -4 -46 -14 -55 -22 -21 -18
-53 -36 -38 -21 34 33 71 53 99 52 30 -1 30 -2 -6 -9z m-1294 -79 c-10 -12
-34 26 -34 53 l1 31 18 -40 c10 -22 17 -42 15 -44z m1418 46 c33 -25 63 -67
48 -67 -6 0 -27 17 -48 38 -20 20 -46 43 -57 50 -19 12 -18 12 5 6 13 -4 37
-16 52 -27z m-419 -24 c-18 -2 -48 -2 -65 0 -18 2 -4 4 32 4 36 0 50 -2 33 -4z
m-630 -81 c-10 -10 -23 -27 -30 -38 -11 -18 -12 -17 -12 7 -1 29 15 49 41 49
17 0 17 -1 1 -18z m95 -32 c24 -31 28 -45 12 -35 -5 3 -10 -3 -10 -13 0 -11
-3 -33 -6 -50 -6 -27 -2 -34 27 -52 l34 -22 -30 7 c-51 11 -59 27 -61 115 0
44 2 80 6 80 3 0 16 -13 28 -30z m745 13 c-7 -2 -19 -2 -25 0 -7 3 -2 5 12 5
14 0 19 -2 13 -5z m-46 -9 c-3 -3 -12 -4 -19 -1 -8 3 -5 6 6 6 11 1 17 -2 13
-5z m-454 -11 c-7 -2 -19 -2 -25 0 -7 3 -2 5 12 5 14 0 19 -2 13 -5z m182 -33
c-3 -5 -11 -10 -16 -10 -6 0 -7 5 -4 10 3 6 11 10 16 10 6 0 7 -4 4 -10z
m-627 -37 c-4 -95 17 -126 86 -128 26 -1 52 -7 58 -13 16 -16 -102 -3 -130 15
-13 8 -21 17 -18 20 3 3 -2 12 -10 20 -8 9 -13 22 -10 29 16 41 -25 57 -65 25
-22 -17 -119 -36 -119 -23 0 3 7 14 17 24 15 17 15 18 -1 18 -9 0 -30 -14 -45
-30 -30 -34 -61 -32 -61 2 0 17 3 18 14 9 12 -10 19 -8 35 8 23 23 66 27 120
11 29 -8 40 -6 75 15 52 31 55 31 54 -2z m-318 -12 c0 -10 -50 -25 -58 -17 -3
3 6 10 19 15 31 13 39 13 39 2z m1080 -11 c0 -5 -4 -10 -10 -10 -5 0 -10 5
-10 10 0 6 5 10 10 10 6 0 10 -4 10 -10z m-162 -20 c6 -11 28 -27 49 -35 20
-8 34 -18 31 -20 -3 -3 -21 2 -41 10 -33 14 -37 13 -49 -3 -10 -14 -134 -62
-160 -62 -16 0 0 30 19 39 15 7 22 7 18 1 -8 -13 4 -13 46 1 48 17 72 39 58
55 -10 13 -5 34 9 34 4 0 13 -9 20 -20z m-978 -65 c0 -13 -5 -27 -11 -30 -15
-10 -17 -4 -12 32 6 37 23 35 23 -2z m845 25 c-3 -5 -14 -10 -23 -9 -14 0 -13
2 3 9 27 11 27 11 20 0z m746 -33 c-10 -9 -11 -8 -5 6 3 10 9 15 12 12 3 -3 0
-11 -7 -18z m-856 -7 c-4 -7 -22 -18 -41 -26 -41 -17 -78 -19 -68 -3 3 6 0 15
-7 20 -9 6 -3 7 16 3 17 -3 45 1 65 9 37 16 46 15 35 -3z m-405 -50 c0 -5 -7
-10 -16 -10 -8 0 -12 5 -9 10 3 6 10 10 16 10 5 0 9 -4 9 -10z m189 6 c-18
-17 -79 -43 -84 -36 -6 10 6 19 43 30 31 9 47 12 41 6z m1024 -38 c-16 -18
-42 -51 -57 -73 -15 -23 -26 -33 -26 -23 0 9 4 19 10 23 5 3 7 12 4 19 -3 8
-1 17 5 21 7 4 8 -1 4 -12 -3 -10 13 3 36 30 24 26 45 47 49 47 3 0 -8 -15
-25 -32z m-33 2 c-6 -11 -13 -20 -16 -20 -2 0 0 9 6 20 6 11 13 20 16 20 2 0
0 -9 -6 -20z m-1081 -54 c-10 -9 -69 -36 -69 -32 0 7 52 35 64 36 5 0 7 -2 5
-4z m61 -6 c0 -5 -5 -10 -11 -10 -5 0 -7 5 -4 10 3 6 8 10 11 10 2 0 4 -4 4
-10z m-4343 -72 c-3 -8 -6 -5 -6 6 -1 11 2 17 5 13 3 -3 4 -12 1 -19z m5779
-106 c-17 -16 -18 -16 -5 5 7 12 15 20 18 17 3 -2 -3 -12 -13 -22z m-122 -126
c-3 -15 -8 -25 -11 -23 -2 3 -1 17 3 31 3 15 8 25 11 23 2 -3 1 -17 -3 -31z
m-689 -14 c-27 -24 -116 -82 -110 -73 6 11 106 81 114 81 3 0 1 -4 -4 -8z
m655 -75 c0 -2 -12 -14 -27 -28 l-28 -24 24 28 c23 25 31 32 31 24z m-2180
-62 c0 -2 -18 -14 -40 -25 -22 -11 -40 -18 -40 -15 0 2 17 13 38 24 42 23 42
23 42 16z m1260 -78 c0 -2 -12 -14 -27 -28 l-28 -24 24 28 c23 25 31 32 31 24z
m51 -27 c-13 -11 -28 -20 -35 -20 -6 0 3 9 19 19 39 25 46 25 16 1z m723 -34
c-3 -21 -9 -35 -11 -32 -3 3 -2 21 1 42 4 20 10 34 12 31 3 -3 2 -21 -2 -41z
m-938 -18 c0 -7 -25 -35 -56 -63 -30 -27 -48 -41 -40 -30 8 11 28 33 45 48 31
29 26 31 -30 13 -11 -4 -4 1 15 10 28 13 61 30 66 33 0 1 0 -5 0 -11z m103 8
c-2 -2 -15 -9 -29 -15 -24 -11 -24 -11 -6 3 16 13 49 24 35 12z m-309 -33 c-1
-5 -12 -21 -27 -38 -26 -30 -26 -30 11 33 8 13 16 16 16 5z m50 -91 c-16 -32
-30 -63 -32 -68 -2 -5 14 -30 35 -54 l37 -44 0 67 c0 54 -3 67 -16 67 -8 0
-13 4 -10 8 3 4 22 6 43 3 21 -3 30 -6 21 -9 -16 -3 -18 -16 -18 -98 0 -74 -3
-94 -14 -94 -8 0 -46 35 -85 78 l-71 77 0 -67 c0 -53 4 -69 18 -77 13 -8 7
-10 -28 -10 -40 0 -43 1 -27 13 24 19 26 176 1 176 -8 0 -12 4 -9 10 9 14 68
0 87 -21 22 -26 25 -25 43 19 17 39 43 82 50 82 2 0 -9 -26 -25 -58z m-307
-32 c9 -11 15 -20 12 -20 -9 0 59 -145 74 -157 13 -10 7 -12 -39 -13 -34 0
-50 4 -41 9 8 5 11 16 6 30 -5 17 -14 21 -45 21 -41 0 -59 -22 -39 -46 9 -12
4 -14 -30 -14 -22 0 -41 5 -41 10 0 6 6 10 14 10 7 0 33 42 57 95 23 52 45 95
49 95 3 0 13 -9 23 -20z m626 14 c26 -6 31 -11 31 -35 0 -16 -4 -29 -10 -29
-5 0 -10 9 -10 19 0 36 -63 42 -104 10 -34 -26 -36 -84 -5 -123 20 -25 27 -27
75 -24 30 1 54 0 54 -4 0 -10 -75 -29 -91 -24 -8 2 -27 7 -42 10 -16 4 -36 20
-47 39 -59 97 23 186 149 161z m599 0 c15 -4 22 -14 22 -30 0 -13 -4 -24 -10
-24 -5 0 -10 6 -10 14 0 29 -64 36 -78 9 -14 -28 -4 -42 36 -49 59 -11 72 -21
72 -59 0 -44 -32 -67 -94 -67 -56 0 -65 5 -59 35 l5 24 23 -23 c27 -27 43 -30
69 -11 29 22 16 50 -29 62 -55 14 -65 22 -65 53 0 35 10 49 40 61 30 12 47 13
78 5z m565 0 c31 -6 37 -11 37 -30 0 -29 -4 -30 -30 -4 -26 26 -70 26 -104 -1
-20 -16 -26 -29 -26 -59 0 -53 8 -68 42 -86 41 -21 78 -11 78 20 0 18 -7 26
-22 29 -13 2 1 5 30 6 40 1 51 -2 45 -11 -4 -7 -9 -22 -10 -32 -4 -26 -6 -27
-50 -35 -95 -17 -163 24 -163 98 0 80 69 122 173 105z m-4004 -31 c-1 -17 -3
-21 -6 -10 -3 11 -14 17 -34 17 l-29 0 0 -84 c0 -72 3 -85 18 -89 9 -3 -8 -5
-38 -5 -30 0 -49 2 -42 5 8 3 12 31 12 89 0 82 0 84 -25 84 -13 0 -29 -8 -34
-17 -9 -15 -10 -14 -11 10 l0 27 95 0 95 0 -1 -27z m147 14 c-12 -9 -17 -23
-14 -42 3 -28 6 -30 51 -33 l47 -3 0 33 c0 19 -5 39 -12 46 -9 9 0 12 43 12
41 -1 50 -3 37 -11 -15 -8 -18 -25 -18 -94 0 -71 3 -84 18 -88 9 -3 -8 -5 -38
-5 -30 0 -49 2 -42 5 7 3 12 23 12 49 l0 45 -47 -3 c-47 -3 -48 -4 -51 -38 -3
-24 2 -38 14 -47 15 -11 10 -13 -37 -13 -41 1 -50 3 -36 11 14 8 17 24 17 89
0 65 -3 81 -17 89 -14 8 -5 10 36 11 47 0 52 -2 37 -13z m374 -14 c-1 -24 -2
-25 -11 -10 -6 11 -22 17 -44 17 -33 0 -35 -2 -35 -35 0 -32 2 -35 30 -35 17
0 30 5 30 10 0 6 4 10 8 10 5 0 9 -13 9 -30 0 -16 -4 -30 -9 -30 -4 0 -8 5 -8
10 0 6 -13 10 -30 10 -28 0 -30 -3 -30 -35 0 -34 1 -35 36 -35 23 0 42 6 50
18 12 15 13 14 14 -10 l0 -28 -82 0 c-64 0 -79 3 -70 12 7 7 12 43 12 90 0 63
-3 79 -17 87 -13 8 4 10 65 11 l82 0 0 -27z m308 15 c-15 -12 -14 -19 10 -77
l27 -64 28 64 c27 60 28 64 11 76 -16 11 -12 13 27 13 37 -1 41 -3 28 -13 -9
-7 -34 -52 -55 -100 -25 -58 -43 -87 -52 -85 -8 2 -31 41 -52 88 -21 46 -47
90 -56 97 -15 11 -9 13 41 13 49 0 56 -2 43 -12z m352 -15 c-1 -24 -2 -25 -11
-10 -6 11 -22 17 -44 17 -33 0 -35 -2 -35 -35 0 -32 2 -35 30 -35 17 0 30 5
30 10 0 25 15 6 16 -20 1 -17 -3 -30 -7 -30 -5 0 -9 5 -9 10 0 6 -13 10 -30
10 -28 0 -30 -3 -30 -35 0 -34 1 -35 36 -35 23 0 42 6 50 18 12 15 13 14 14
-10 l0 -28 -80 0 -80 0 10 26 c6 14 10 54 10 89 0 50 -4 66 -17 74 -13 8 4 10
65 11 l82 0 0 -27z m202 -45 l67 -73 1 62 c0 49 -4 64 -17 72 -14 8 -10 10 22
10 22 0 34 -3 28 -6 -9 -3 -13 -33 -13 -98 0 -52 -4 -96 -9 -100 -11 -6 -42
20 -110 98 l-51 57 0 -69 c0 -58 3 -70 18 -74 9 -3 -3 -5 -28 -5 -25 0 -37 2
-27 5 14 4 17 17 17 88 0 69 -3 86 -17 94 -15 9 -12 10 17 11 30 0 43 -9 102
-72z m372 66 c17 -7 22 -54 6 -54 -5 0 -10 7 -10 15 0 21 -47 37 -82 30 -92
-21 -69 -182 25 -173 37 4 50 34 21 55 -16 11 -12 13 30 13 42 0 47 -2 36 -15
-7 -8 -10 -24 -7 -35 4 -16 -2 -22 -31 -30 -50 -13 -76 -13 -116 4 -42 18 -66
51 -66 94 0 43 14 68 48 86 27 15 117 21 146 10z m256 -14 c0 -18 -1 -18 -28
-3 -40 23 -62 12 -62 -32 0 -32 2 -35 30 -35 21 0 30 5 30 16 0 8 5 12 10 9 9
-5 9 -29 1 -65 -1 -3 -6 3 -12 13 -5 9 -21 17 -34 17 -22 0 -25 -4 -25 -40 l0
-40 40 0 c29 0 40 4 40 15 0 8 5 15 10 15 6 0 10 -11 10 -25 0 -25 -1 -25 -80
-25 l-80 0 10 26 c6 14 10 54 10 89 0 50 -4 66 -17 74 -13 8 4 10 65 11 75 0
82 -2 82 -20z m1080 0 c0 -24 -6 -25 -27 -4 -9 8 -25 14 -37 12 -29 -4 -31
-71 -2 -76 11 -2 26 4 33 14 7 10 13 16 14 13 5 -26 3 -61 -3 -65 -4 -3 -8 2
-8 10 0 11 -9 16 -30 16 -28 0 -30 -2 -30 -40 l0 -40 40 0 c29 0 40 4 40 15 0
8 5 15 10 15 6 0 10 -11 10 -25 0 -25 -1 -25 -80 -25 l-80 0 10 26 c16 41 12
140 -6 158 -14 15 -8 16 65 16 74 0 81 -2 81 -20z m617 -80 l48 -100 -45 0
c-29 0 -40 3 -31 9 8 5 11 16 6 30 -5 17 -14 21 -50 21 -34 0 -44 -4 -48 -20
-3 -12 1 -24 11 -30 13 -7 7 -9 -25 -10 -41 0 -42 1 -25 18 10 10 33 55 52
100 18 45 39 82 46 82 7 0 35 -45 61 -100z m577 12 c22 -48 47 -92 55 -99 13
-10 6 -12 -39 -13 -34 0 -50 4 -41 9 8 5 11 16 6 30 -9 29 -79 30 -95 2 -8
-16 -6 -22 7 -30 15 -8 11 -10 -20 -11 l-38 0 20 26 c12 15 21 30 21 34 0 22
61 140 72 140 7 0 31 -40 52 -88z m-1954 18 c-6 -11 -13 -20 -16 -20 -2 0 0 9
6 20 6 11 13 20 16 20 2 0 0 -9 -6 -20z m-20 -34 c0 -2 -8 -10 -17 -17 -16
-13 -17 -12 -4 4 13 16 21 21 21 13z m-2702 -23 c-2 -13 -15 -19 -46 -21 -44
-3 -45 -3 -36 22 4 11 19 16 46 16 32 0 39 -3 36 -17z m5020 5 c-5 -15 -88
-24 -88 -10 0 16 13 22 53 22 26 0 37 -4 35 -12z"/>
<path d="M7658 9616 c-47 -41 -48 -44 -48 -99 0 -55 14 -76 26 -39 4 9 22 52
42 95 19 42 33 79 31 81 -2 2 -25 -15 -51 -38z"/>
<path d="M7711 9426 c-44 -16 -55 -40 -14 -30 45 11 71 22 78 33 8 14 -21 13
-64 -3z"/>
<path d="M6094 8528 c-8 -18 -25 -52 -39 -75 -13 -24 -20 -43 -16 -43 12 0 31
23 31 38 0 8 13 37 30 63 16 27 25 49 19 49 -5 0 -17 -15 -25 -32z"/>
<path d="M7713 8969 c-6 -6 -9 -17 -7 -23 6 -15 -40 -38 -60 -30 -8 3 -17 0
-21 -6 -4 -7 0 -10 11 -8 11 2 18 -2 17 -9 -7 -31 64 10 93 55 15 23 15 24 -6
17 -15 -5 -20 -4 -16 4 9 14 3 14 -11 0z"/>
<path d="M7480 8980 c-8 -5 -12 -11 -9 -14 3 -3 14 1 25 9 21 16 8 20 -16 5z"/>
<path d="M8587 8849 c-9 -5 -20 -8 -25 -6 -4 2 -18 -7 -31 -20 l-25 -24 48 22
c26 11 54 18 61 15 8 -3 17 -1 20 3 3 5 -2 12 -11 15 -19 7 -15 8 -37 -5z"/>
<path d="M8578 8793 c7 -3 16 -2 19 1 4 3 -2 6 -13 5 -11 0 -14 -3 -6 -6z"/>
<path d="M8524 8774 c-18 -14 -18 -15 4 -4 12 6 22 13 22 15 0 8 -5 6 -26 -11z"/>
<path d="M8489 8733 c-12 -16 -12 -17 1 -7 8 6 22 14 30 17 13 5 12 6 -1 6 -9
1 -23 -7 -30 -16z"/>
<path d="M8504 8698 c-4 -7 -4 -10 1 -6 4 4 14 3 22 -4 11 -8 12 -7 7 6 -7 19
-20 21 -30 4z"/>
<path d="M8446 8517 l-38 -49 30 18 c17 9 30 20 29 23 -1 3 5 17 12 29 22 41
8 31 -33 -21z"/>
<path d="M4662 8175 c-7 -14 -14 -45 -17 -68 -4 -34 -2 -30 14 23 21 69 22 86
3 45z"/>
<path d="M4684 8040 c-29 -47 -59 -99 -68 -117 l-16 -31 28 13 c62 31 118 128
110 191 -3 26 -8 21 -54 -56z"/>
<path d="M4688 7896 c-15 -19 -30 -47 -34 -62 -6 -27 -5 -27 24 11 26 35 50
85 40 85 -2 0 -15 -15 -30 -34z"/>
<path d="M6661 8214 c0 -11 3 -14 6 -6 3 7 2 16 -1 19 -3 4 -6 -2 -5 -13z"/>
<path d="M6579 8198 c-12 -23 -12 -23 10 -4 23 21 26 26 11 26 -5 0 -15 -10
-21 -22z"/>
<path d="M6534 8178 c-11 -13 -26 -32 -34 -43 -12 -17 -12 -18 0 -7 8 6 23 12
35 13 11 0 14 3 8 6 -9 3 -9 11 3 29 20 30 14 31 -12 2z"/>
<path d="M6648 8180 c-3 -8 2 -28 10 -45 20 -39 27 -17 9 26 -9 23 -15 29 -19
19z"/>
<path d="M7246 8309 c-14 -17 -26 -34 -26 -39 0 -5 -16 -30 -36 -57 -27 -37
-21 -32 28 21 35 38 64 78 64 88 2 24 0 23 -30 -13z"/>
<path d="M7210 8315 c-7 -9 -10 -18 -7 -21 3 -3 10 4 17 15 13 25 8 27 -10 6z"/>
<path d="M7165 8250 c-10 -11 -16 -22 -13 -25 3 -3 13 6 22 20 20 30 16 32 -9
5z"/>
<path d="M6980 8011 c0 -6 5 -13 10 -16 6 -3 10 1 10 9 0 9 -4 16 -10 16 -5 0
-10 -4 -10 -9z"/>
<path d="M6952 7978 c2 -6 10 -13 16 -14 7 -1 8 0 2 3 -5 2 -8 9 -4 14 3 5 0
9 -6 9 -7 0 -10 -5 -8 -12z"/>
<path d="M6901 7893 l-45 -45 41 21 c35 17 64 54 51 66 -1 1 -23 -18 -47 -42z"/>
<path d="M6913 7824 c-26 -37 -75 -84 -84 -79 -4 3 -18 -4 -30 -15 -18 -14
-20 -19 -8 -20 8 0 21 6 28 13 11 10 12 9 6 -3 -5 -8 -17 -21 -27 -28 -10 -7
-28 -31 -39 -54 -11 -22 -23 -38 -26 -35 -2 3 0 14 6 25 13 25 14 32 1 32 -10
0 -26 -68 -17 -76 2 -3 33 30 67 73 34 43 66 78 70 78 14 0 26 16 53 68 28 52
28 61 0 21z"/>
<path d="M6816 7793 c-6 -14 -5 -15 5 -6 7 7 10 15 7 18 -3 3 -9 -2 -12 -12z"/>
<path d="M5780 7643 c0 -5 7 -18 15 -29 21 -27 18 -37 -6 -24 -11 7 -23 9 -26
7 -5 -6 28 -18 39 -14 11 3 37 -36 38 -55 0 -9 10 -24 22 -32 26 -18 17 -21
-15 -5 -21 10 -21 10 -3 -5 11 -9 28 -14 37 -11 10 4 31 -1 48 -9 16 -9 36
-14 43 -11 7 2 40 -11 73 -30 103 -60 160 -85 208 -91 54 -8 66 10 15 20 -18
3 -58 15 -88 27 -95 35 -187 87 -128 71 58 -15 -45 55 -113 77 -38 12 -77 46
-66 57 3 4 28 -8 55 -25 58 -37 74 -40 44 -8 -35 37 -192 111 -192 90z m168
-139 c46 -21 40 -23 -20 -8 -58 16 -63 19 -73 54 l-8 25 34 -28 c19 -15 49
-34 67 -43z"/>
<path d="M5655 7600 c3 -6 11 -10 17 -10 5 0 30 -13 54 -30 24 -16 44 -26 44
-22 0 5 -19 19 -42 33 -56 31 -81 41 -73 29z"/>
<path d="M6428 7343 c7 -3 16 -2 19 1 4 3 -2 6 -13 5 -11 0 -14 -3 -6 -6z"/>
<path d="M6267 7183 c-2 -5 -8 -26 -11 -48 l-7 -40 25 34 c14 19 26 41 26 48
0 14 -26 18 -33 6z"/>
<path d="M6830 6775 c13 -14 25 -25 27 -25 9 0 -33 49 -41 50 -5 0 1 -11 14
-25z"/>
<path d="M8985 8007 c-30 -29 -55 -59 -55 -67 0 -7 11 -2 25 14 13 14 28 26
34 26 5 0 24 18 41 40 45 57 19 49 -45 -13z"/>
<path d="M8856 7849 c-23 -26 -35 -59 -22 -59 2 0 16 20 29 45 30 53 28 56 -7
14z"/>
<path d="M8875 7805 c-52 -86 -52 -85 9 -85 l54 0 -8 33 c-5 17 -13 48 -17 67
l-9 34 -29 -49z"/>
<path d="M8794 7765 c-10 -24 6 -38 21 -18 7 10 11 21 9 25 -8 13 -24 9 -30
-7z"/>
<path d="M8950 7735 c7 -8 17 -15 22 -15 6 0 5 7 -2 15 -7 8 -17 15 -22 15 -6
0 -5 -7 2 -15z"/>
<path d="M8765 7689 c-9 -28 1 -36 14 -10 7 12 7 22 2 26 -5 3 -13 -4 -16 -16z"/>
<path d="M8847 7699 c22 -8 177 -29 181 -24 11 11 -44 23 -116 27 -46 2 -75 0
-65 -3z"/>
<path d="M8796 7665 c-17 -44 17 -63 54 -30 10 9 37 19 61 24 l44 9 -46 1
c-26 1 -60 4 -76 7 -23 4 -32 2 -37 -11z"/>
<path d="M9041 7638 c1 -7 4 -24 9 -38 l7 -25 8 27 c7 28 1 48 -16 48 -5 0 -9
-6 -8 -12z"/>
<path d="M9007 7555 c-5 -16 -18 -40 -29 -52 -12 -13 -17 -23 -11 -23 22 0 55
48 51 76 l-3 29 -8 -30z"/>
<path d="M4195 7245 c-8 -14 -22 -36 -30 -50 -22 -36 -45 -132 -45 -188 0 -32
8 -61 22 -87 23 -40 41 -50 90 -50 20 0 32 -8 43 -30 19 -37 54 -55 89 -46 34
8 33 22 0 21 -21 0 -32 9 -49 40 -24 42 -61 64 -111 65 -26 0 -34 6 -44 31
-19 45 1 205 33 270 26 53 27 65 2 24z"/>
<path d="M4756 7140 c-39 -44 -48 -64 -15 -34 23 21 63 74 56 74 -3 0 -21 -18
-41 -40z"/>
<path d="M4637 7009 l-72 -71 73 62 c70 61 89 80 78 80 -4 0 -39 -32 -79 -71z"/>
<path d="M4660 6943 c-18 -7 -103 -74 -108 -85 -2 -5 -9 -5 -14 -2 -7 4 -8 2
-4 -5 6 -9 15 -7 35 6 28 18 118 94 110 92 -2 0 -11 -3 -19 -6z"/>
<path d="M4080 6880 c0 -6 9 -28 19 -48 22 -42 56 -62 104 -61 27 0 29 2 12 9
-11 4 -33 22 -49 38 -15 17 -35 28 -42 25 -8 -3 -14 0 -14 7 0 6 -7 18 -15 26
-9 9 -15 11 -15 4z"/>
<path d="M4450 6830 c-35 -13 -43 -18 -24 -15 32 4 108 33 89 34 -5 0 -35 -9
-65 -19z"/>
<path d="M4443 6799 c-28 -10 -87 -23 -130 -27 l-78 -9 63 -2 c62 -1 185 30
198 50 3 5 4 9 2 8 -2 0 -26 -9 -55 -20z"/>
<path d="M8068 7494 c-16 -8 -28 -22 -28 -31 0 -13 7 -10 30 12 41 40 41 43
-2 19z"/>
<path d="M1512 6939 c-18 -37 -32 -70 -32 -74 0 -15 61 69 66 91 14 54 -5 44
-34 -17z"/>
<path d="M8646 6867 c-8 -47 -5 -63 11 -56 4 2 6 27 3 54 l-6 50 -8 -48z"/>
<path d="M4927 7099 c-28 -80 -27 -132 3 -77 14 28 35 148 26 148 -2 0 -15
-32 -29 -71z"/>
<path d="M4880 6846 c-19 -41 -20 -53 -10 -100 6 -30 8 -67 5 -82 -3 -19 4
-11 21 25 20 41 27 69 27 118 0 86 -16 101 -43 39z"/>
<path d="M4632 6375 c-34 -41 -59 -75 -54 -75 5 0 31 28 57 63 69 88 68 87 64
87 -3 0 -33 -34 -67 -75z"/>
<path d="M4351 6137 c-12 -15 -64 -38 -128 -57 -24 -7 -51 -22 -60 -33 -17
-20 -17 -20 2 -12 11 4 41 14 66 21 26 7 60 19 75 27 33 17 83 67 67 67 -6 0
-16 -6 -22 -13z"/>
<path d="M4300 6055 c-14 -8 -33 -14 -42 -15 -9 0 -19 -4 -22 -8 -11 -19 57
-4 77 16 25 25 22 27 -13 7z"/>
<path d="M3994 5948 l-19 -23 23 19 c21 18 27 26 19 26 -2 0 -12 -10 -23 -22z"/>
<path d="M4039 5953 c-13 -16 -12 -17 4 -4 9 7 17 15 17 17 0 8 -8 3 -21 -13z"/>
<path d="M4230 5642 c0 -152 -3 -322 -7 -376 l-6 -99 144 6 c288 12 453 90
524 249 24 54 27 69 23 142 -3 56 -11 94 -26 122 -23 45 -69 104 -81 104 -4 0
-27 -17 -51 -37 l-45 -38 30 37 c17 21 33 38 38 38 24 0 -1 24 -53 50 -89 45
-208 70 -359 75 l-131 4 0 -277z m31 1 c-5 -10 -9 -22 -9 -26 0 -14 -12 -21
-12 -8 0 14 18 51 26 51 2 0 0 -8 -5 -17z"/>
<path d="M3199 6763 c-13 -16 -12 -17 4 -4 9 7 17 15 17 17 0 8 -8 3 -21 -13z"/>
<path d="M1666 6375 c-9 -26 -7 -32 5 -12 6 10 9 21 6 23 -2 3 -7 -2 -11 -11z"/>
<path d="M2014 6552 c3 -6 -5 -19 -20 -29 -14 -10 -43 -33 -63 -51 -34 -31
-34 -32 -5 -15 35 21 87 63 97 80 4 6 2 15 -4 19 -7 4 -9 3 -5 -4z"/>
<path d="M5852 6381 c-78 -122 -84 -131 -78 -108 8 26 2 21 -34 -30 -19 -27
-26 -41 -16 -33 10 8 24 15 32 16 21 3 49 41 80 104 14 30 36 69 48 85 30 40
38 55 31 55 -3 0 -31 -40 -63 -89z m-91 -144 c-10 -9 -11 -8 -5 6 3 10 9 15
12 12 3 -3 0 -11 -7 -18z"/>
<path d="M974 6365 c-16 -25 -16 -56 1 -56 6 0 15 18 22 40 13 46 2 54 -23 16z"/>
<path d="M1046 6365 c4 -8 10 -15 15 -15 4 0 6 7 3 15 -4 8 -10 15 -15 15 -4
0 -6 -7 -3 -15z"/>
<path d="M3139 6398 c-12 -23 -12 -23 10 -4 23 21 26 26 11 26 -5 0 -15 -10
-21 -22z"/>
<path d="M3535 6230 c-3 -5 -1 -10 4 -10 6 0 11 5 11 10 0 6 -2 10 -4 10 -3 0
-8 -4 -11 -10z"/>
<path d="M3397 6126 c-37 -35 -67 -66 -67 -69 0 -3 10 -3 22 1 14 3 19 2 14
-6 -4 -7 -16 -12 -26 -12 -11 0 -24 -10 -30 -22 -9 -19 -9 -21 2 -8 7 9 25 14
41 12 25 -3 27 -1 23 21 -2 14 2 34 11 44 8 10 12 13 9 6 -3 -6 -2 -22 3 -35
8 -22 9 -22 15 9 4 18 5 37 2 42 -3 5 2 15 11 22 14 12 15 11 8 -10 -5 -16 -4
-21 4 -17 6 4 11 17 11 30 0 12 5 27 12 34 6 6 9 14 7 17 -3 2 -35 -24 -72
-59z"/>
<path d="M3430 6080 c0 -5 4 -10 9 -10 6 0 13 5 16 10 3 6 -1 10 -9 10 -9 0
-16 -4 -16 -10z"/>
<path d="M3210 5965 c0 -8 2 -15 4 -15 2 0 6 7 10 15 3 8 1 15 -4 15 -6 0 -10
-7 -10 -15z"/>
<path d="M2710 5477 c0 -8 11 -12 28 -11 38 3 39 3 22 14 -21 14 -50 12 -50
-3z"/>
<path d="M2717 5443 c-4 -3 -7 -37 -7 -75 l0 -68 34 0 c42 0 56 34 26 62 -14
13 -17 26 -13 53 5 30 3 35 -14 35 -11 0 -23 -3 -26 -7z"/>
<path d="M2311 5334 c-21 -26 -28 -64 -13 -64 19 1 34 20 42 54 9 43 -1 46
-29 10z"/>
<path d="M2205 5303 c-16 -3 -38 -11 -49 -19 -19 -13 -15 -14 41 -14 43 0 62
4 66 14 4 11 -18 32 -26 25 -1 -1 -15 -4 -32 -6z"/>
<path d="M2425 5290 c-3 -5 -1 -10 4 -10 6 0 11 5 11 10 0 6 -2 10 -4 10 -3 0
-8 -4 -11 -10z"/>
<path d="M2115 5235 c-7 -11 -16 -31 -20 -45 -6 -21 -2 -19 28 15 23 25 36 34
37 25 0 -9 -6 -22 -12 -29 -7 -7 10 -3 37 9 73 31 74 38 5 42 -54 3 -65 0 -75
-17z"/>
<path d="M2350 5199 c-39 -44 -49 -66 -72 -153 -15 -55 -26 -105 -25 -110 2
-5 21 20 42 55 22 35 57 82 77 105 45 49 74 120 57 140 -19 23 -33 16 -79 -37z"/>
<path d="M2710 5213 c0 -10 4 -14 8 -8 4 6 11 13 16 18 5 4 2 7 -7 7 -10 0
-17 -8 -17 -17z"/>
<path d="M2727 5186 c-10 -10 -14 -41 -15 -103 0 -94 5 -91 31 17 18 72 16 85
-7 43 -19 -36 -20 -23 -2 22 16 38 15 42 -7 21z"/>
<path d="M2009 4809 c-5 -11 -5 -26 1 -41 l10 -23 -3 25 c-2 21 3 25 31 28 20
2 32 9 32 18 0 20 -59 14 -71 -7z"/>
<path d="M2065 4740 c-4 -12 -5 -24 -2 -27 3 -2 8 5 12 17 4 12 5 24 2 27 -3
2 -8 -5 -12 -17z"/>
<path d="M2057 4600 c-25 -36 -23 -60 4 -33 12 11 19 29 17 39 -3 17 -5 17
-21 -6z"/>
<path d="M2503 4583 c9 -2 25 -2 35 0 9 3 1 5 -18 5 -19 0 -27 -2 -17 -5z"/>
<path d="M2046 4469 c-9 -15 -21 -41 -26 -59 -8 -26 -7 -30 5 -20 18 15 47 78
42 93 -2 6 -11 0 -21 -14z"/>
<path d="M1276 5741 c-4 -5 -2 -20 3 -33 9 -21 10 -21 10 10 1 32 -3 39 -13
23z"/>
<path d="M7100 5708 c-23 -18 -48 -44 -55 -58 -28 -54 -46 -102 -41 -108 9 -9
84 78 102 118 8 19 25 45 36 57 32 34 6 28 -42 -9z"/>
<path d="M1260 5293 c0 -12 5 -25 10 -28 13 -8 13 15 0 35 -8 12 -10 11 -10
-7z"/>
<path d="M1306 5253 c8 -57 11 -63 29 -63 15 0 12 37 -6 88 -16 41 -31 25 -23
-25z"/>
<path d="M1606 5151 c-3 -5 0 -14 7 -19 14 -12 77 -26 77 -17 0 10 -79 44 -84
36z"/>
<path d="M2530 4253 c-27 -10 -40 -36 -40 -85 0 -35 6 -54 20 -68 57 -57 128
19 100 106 -15 44 -42 61 -80 47z"/>
<path d="M3803 4180 c-11 -29 -10 -30 17 -30 27 0 28 1 17 30 -6 17 -14 30
-17 30 -3 0 -11 -13 -17 -30z"/>
<path d="M4675 4235 c-48 -47 -20 -155 40 -155 65 0 90 125 32 165 -30 21 -44
19 -72 -10z"/>
<path d="M6339 4187 c-14 -31 -9 -40 19 -35 17 3 17 6 6 33 l-12 30 -13 -28z"/>
<path d="M6830 4219 c0 -26 3 -30 23 -27 16 2 23 11 25 31 3 23 0 27 -22 27
-22 0 -26 -4 -26 -31z"/>
<path d="M6830 4131 c0 -43 9 -55 34 -45 39 15 26 84 -15 84 -15 0 -19 -8 -19
-39z"/>
<path d="M5565 3225 c-22 -9 -51 -24 -64 -34 -21 -16 -16 -16 47 5 39 12 102
26 141 30 80 7 95 1 167 -70 53 -53 64 -75 64 -131 0 -32 4 -44 11 -39 15 9 5
117 -15 164 -8 19 -26 46 -40 60 -25 22 -35 24 -149 27 -90 2 -133 -1 -162
-12z"/>
<path d="M5535 3180 l-20 -9 20 0 c11 0 27 4 35 9 13 9 13 10 0 9 -8 0 -24 -4
-35 -9z"/>
<path d="M5406 3125 c-38 -36 -32 -52 8 -18 19 15 35 31 35 36 2 14 -16 7 -43
-18z"/>
<path d="M5319 3057 c-15 -12 -32 -33 -39 -47 -13 -24 -12 -24 22 5 33 27 53
54 46 61 -2 1 -15 -8 -29 -19z"/>
<path d="M5255 2889 c-33 -39 -67 -78 -75 -87 -55 -60 -30 -43 31 22 65 69
118 136 107 136 -1 0 -30 -32 -63 -71z"/>
<path d="M5530 2820 c-13 -8 -12 -10 3 -10 9 0 17 5 17 10 0 12 -1 12 -20 0z"/>
<path d="M5672 2797 l-23 -13 27 -12 c22 -11 28 -10 39 5 24 32 -1 43 -43 20z"/>
<path d="M5638 2523 c-14 -27 -29 -67 -33 -90 -6 -37 -4 -43 18 -57 19 -13 33
-14 75 -6 77 14 149 55 99 56 -75 1 -98 6 -124 28 -27 23 -27 26 -16 67 6 24
10 45 9 46 -2 2 -14 -18 -28 -44z"/>
<path d="M4710 2506 c0 -2 8 -10 18 -17 15 -13 16 -12 3 4 -13 16 -21 21 -21
13z"/>
<path d="M8540 3610 c8 -5 22 -9 30 -9 10 0 8 3 -5 9 -27 12 -43 12 -25 0z"/>
<path d="M8598 3593 c7 -3 16 -2 19 1 4 3 -2 6 -13 5 -11 0 -14 -3 -6 -6z"/>
<path d="M8089 3523 c-13 -15 -12 -15 11 -3 34 17 36 20 18 20 -9 0 -22 -7
-29 -17z"/>
<path d="M5092 712 c-9 -26 -8 -28 19 -30 22 -2 27 1 22 13 -3 9 -11 14 -18
11 -8 -3 -11 2 -8 15 8 29 -4 23 -15 -9z"/>
<path d="M6552 725 c-17 -38 -15 -45 14 -45 22 0 24 3 18 23 -13 45 -20 49
-32 22z"/>
<path d="M7132 718 c-14 -37 -12 -41 21 -36 25 3 25 3 8 36 l-17 32 -12 -32z"/>
</g>
</svg>
