<?xml version="1.0" standalone="no"?>
<!DOCTYPE svg PUBLIC "-//W3C//DTD SVG 20010904//EN"
 "http://www.w3.org/TR/2001/REC-SVG-20010904/DTD/svg10.dtd">
<svg version="1.0" xmlns="http://www.w3.org/2000/svg"
 width="1000.000000pt" height="1000.000000pt" viewBox="0 0 1000.000000 1000.000000"
 preserveAspectRatio="xMidYMid meet">

<g transform="translate(0.000000,1000.000000) scale(0.100000,-0.100000)"
fill="#000000" stroke="none">
<path d="M0 5594 c0 -3017 3 -4411 10 -4425 7 -13 7 -19 0 -19 -7 0 -10 -185
-10 -575 l0 -575 5000 0 5000 0 0 5000 0 5000 -1474 0 c-1393 0 -1475 -1
-1479 -18 -4 -16 -5 -16 -6 0 -1 17 -176 18 -3521 18 l-3520 0 0 -4406z m6410
4336 c0 -5 -2 -10 -4 -10 -3 0 -8 5 -11 10 -3 6 -1 10 4 10 6 0 11 -4 11 -10z
m-635 -28 c-8 -8 -25 10 -19 20 4 6 9 5 15 -3 4 -7 6 -15 4 -17z m-3945 -13
c0 -6 -4 -7 -10 -4 -5 3 -10 11 -10 16 0 6 5 7 10 4 6 -3 10 -11 10 -16z
m-1110 -9 c0 -5 -2 -10 -4 -10 -3 0 -8 5 -11 10 -3 6 -1 10 4 10 6 0 11 -4 11
-10z m4069 -437 l1 -211 33 -8 32 -7 -30 -11 c-29 -11 -30 -12 -27 -71 1 -33
9 -81 17 -107 8 -26 15 -56 15 -67 0 -11 8 -26 18 -33 10 -7 21 -21 25 -30 3
-10 15 -18 26 -18 11 0 27 -10 36 -22 14 -21 26 -24 138 -30 67 -3 217 -7 332
-8 144 -2 194 -5 160 -10 -27 -5 -71 -9 -97 -9 -38 -1 -46 -4 -42 -16 6 -13 1
-16 -23 -14 -5 0 -7 7 -5 16 3 14 -18 15 -181 11 -134 -3 -189 -8 -201 -17
-11 -9 -16 -10 -16 -2 0 12 -29 15 -54 5 -9 -3 -16 -13 -16 -20 0 -8 -13 -17
-29 -20 -25 -5 -36 -16 -46 -44 -1 -3 -9 -22 -18 -42 -23 -50 -21 -100 4 -151
12 -23 68 -112 124 -197 56 -85 133 -204 170 -265 67 -108 220 -350 260 -411
11 -18 67 -106 125 -198 58 -91 164 -251 235 -355 72 -104 166 -246 210 -315
44 -69 135 -210 203 -313 67 -103 122 -191 122 -196 0 -5 16 -32 35 -58 19
-27 35 -53 35 -57 0 -4 13 -23 28 -42 38 -46 122 -181 122 -195 0 -3 -12 -5
-27 -5 -54 0 -192 -57 -280 -115 -52 -35 -132 -103 -196 -167 -59 -59 -110
-108 -113 -108 -3 0 -4 28 -2 62 l3 62 76 66 c42 36 105 82 140 103 72 43 226
93 311 102 l58 6 -58 71 c-31 39 -80 93 -107 122 -60 61 -158 174 -205 236
-18 25 -63 77 -99 115 -36 39 -79 86 -95 105 -16 19 -36 44 -45 54 -15 18 -15
18 4 8 22 -11 121 -98 229 -201 l69 -66 -37 50 c-21 27 -92 110 -159 185 -67
75 -135 153 -152 173 -16 21 -49 59 -73 85 -23 26 -128 160 -232 297 -104 138
-213 279 -242 315 -74 91 -292 398 -358 503 -57 91 -116 166 -106 135 3 -10 1
-18 -4 -18 -5 0 -11 8 -13 18 -3 9 -5 -32 -6 -93 l-1 -110 71 -100 c113 -160
293 -434 295 -450 1 -8 12 -27 23 -41 18 -23 31 -57 58 -154 2 -8 -10 11 -27
43 -21 39 -36 57 -50 57 -18 0 -18 -2 -4 -35 7 -19 13 -49 13 -67 -2 -27 -3
-28 -6 -8 -2 14 -17 41 -32 60 -25 29 -31 32 -45 21 -9 -7 -16 -19 -16 -26 0
-15 -57 -124 -77 -147 -10 -12 -14 -28 -10 -47 4 -17 3 -33 -2 -35 -12 -8 -20
-56 -10 -62 5 -3 9 -13 9 -24 0 -10 19 -38 43 -62 24 -23 55 -64 70 -89 14
-25 33 -52 43 -60 15 -12 20 -9 50 25 25 29 34 49 36 85 l4 46 18 -40 c15 -33
17 -57 13 -155 -3 -63 -10 -137 -15 -163 -6 -34 -6 -47 2 -44 16 5 24 61 36
241 5 88 12 162 15 164 15 15 20 -25 18 -156 -1 -90 -7 -174 -17 -217 -8 -38
-29 -131 -46 -205 -75 -327 -100 -507 -82 -593 6 -29 15 -79 21 -112 6 -33 19
-71 30 -85 14 -20 138 -127 218 -190 6 -5 23 -12 37 -16 14 -3 26 -13 26 -21
0 -11 -5 -13 -17 -8 -10 4 -31 10 -46 13 -26 4 -28 3 -21 -24 3 -16 13 -39 21
-52 8 -13 12 -31 10 -40 -3 -15 -5 -14 -11 3 -26 70 -104 175 -129 175 -5 0
-5 -25 -1 -56 5 -41 4 -55 -5 -50 -6 4 -11 17 -11 29 0 26 -70 177 -82 177 -5
0 -7 -4 -4 -8 3 -5 6 -27 7 -50 2 -27 8 -42 16 -42 18 0 16 -17 -3 -24 -8 -3
-12 -11 -8 -17 4 -7 3 -9 -4 -5 -5 3 -13 23 -17 44 -8 47 -27 80 -24 42 2 -43
-4 -47 -10 -6 -3 22 -12 41 -18 44 -10 3 -13 -30 -14 -140 0 -78 -3 -137 -6
-130 -9 23 -23 12 -23 -19 0 -20 4 -28 12 -23 7 4 8 3 4 -4 -12 -19 -36 -14
-36 8 0 30 -43 111 -75 140 l-27 25 -19 -23 c-10 -13 -23 -21 -28 -18 -5 3
-24 0 -43 -7 -30 -10 -34 -16 -33 -42 1 -16 5 -38 9 -48 18 -40 -3 -24 -25 19
l-24 46 -60 -6 c-33 -4 -141 -9 -240 -12 -99 -2 -204 -7 -232 -10 l-53 -5 0
-169 c0 -163 1 -170 24 -196 13 -16 39 -33 57 -40 29 -10 8 -12 -151 -18 -102
-4 -223 -6 -270 -4 l-85 3 48 14 c29 8 57 25 72 43 l25 30 0 348 0 348 -62 15
c-35 9 -90 21 -122 27 -107 22 -282 108 -433 215 -119 84 -197 125 -211 110
-5 -5 66 -117 192 -305 50 -74 95 -141 99 -150 10 -17 -40 42 -63 75 -8 12
-42 59 -75 103 -33 44 -82 117 -110 162 -80 129 -65 119 -187 127 -60 3 -108
3 -108 -1 0 -4 27 -47 60 -95 64 -93 69 -104 45 -95 -8 4 -13 10 -10 14 3 5 1
10 -3 12 -5 1 -34 40 -66 86 -40 56 -64 82 -78 82 -19 0 -19 -2 7 -47 15 -27
44 -71 64 -98 20 -28 63 -89 95 -138 58 -85 85 -110 70 -65 -12 39 19 5 80
-87 62 -94 61 -93 159 -74 l57 10 100 -52 c55 -29 97 -56 93 -60 -22 -20 -195
-99 -218 -99 -18 0 -24 -4 -18 -12 16 -27 12 -40 -8 -22 -10 9 -21 15 -24 12
-6 -6 42 -107 61 -125 20 -20 47 -74 40 -80 -3 -3 -14 5 -26 18 -43 51 -112
168 -91 155 20 -12 11 8 -17 41 -22 27 -40 34 -102 47 -82 16 -282 36 -372 36
l-58 0 0 -300 0 -300 43 5 c23 2 128 7 232 10 221 6 367 25 439 58 28 13 89
47 134 76 46 29 86 50 89 48 2 -3 -7 -43 -21 -89 -14 -46 -26 -99 -26 -116 l0
-33 -617 3 c-508 2 -623 6 -645 17 -33 17 -36 31 -8 31 38 0 101 32 111 57 5
13 9 143 9 289 l0 264 -122 1 c-137 1 -223 16 -102 18 39 1 106 4 148 8 l77 6
-3 268 c-3 304 1 289 -88 312 l-55 14 40 13 c22 7 109 15 193 17 83 3 152 6
152 8 0 5 -224 338 -326 485 -93 133 -152 219 -289 424 -43 64 -79 108 -94
113 -22 8 -18 12 50 40 41 17 73 34 72 39 -1 6 25 20 58 33 63 24 68 33 43 69
l-16 23 79 -1 c46 -1 98 5 128 14 60 19 58 19 50 6 -10 -16 12 -12 55 10 42
22 53 36 20 25 -11 -3 -86 -6 -167 -6 -198 0 -376 31 -581 101 -76 27 -77 35
-2 15 30 -8 151 -35 267 -60 l213 -46 167 10 c186 12 241 25 352 88 36 21 78
43 92 49 60 27 42 34 -83 35 -68 1 -148 5 -178 9 -37 6 11 8 150 7 177 -1 209
1 238 16 41 22 41 32 0 35 -74 6 -227 51 -177 52 25 0 171 -30 197 -41 49 -20
19 -44 -178 -146 -19 -10 -37 -21 -40 -24 -10 -13 -178 -99 -243 -125 -38 -15
-71 -32 -73 -39 -3 -7 9 -36 27 -65 19 -31 33 -67 34 -92 1 -24 22 -79 53
-141 130 -259 230 -415 333 -517 25 -25 54 -57 63 -72 23 -35 52 -36 60 -4 7
28 -8 76 -24 76 -5 0 -16 11 -25 23 -21 32 -10 81 27 118 28 27 29 32 18 59
-7 17 -16 30 -20 30 -15 0 -23 112 -12 159 6 25 14 61 17 79 4 18 9 31 12 28
3 -3 25 8 48 25 45 33 79 84 88 137 7 35 6 35 -53 -5 l-25 -17 20 23 c25 29
72 54 86 45 5 -3 18 3 27 13 48 54 126 82 138 49 4 -10 22 -12 75 -8 59 4 69
2 69 -12 0 -9 5 -16 10 -16 6 0 10 -11 10 -24 0 -37 17 -41 69 -13 61 31 88
21 40 -15 -53 -40 -74 -48 -139 -55 -33 -3 -60 -9 -60 -13 0 -15 240 -328 336
-439 119 -138 130 -145 152 -111 10 13 31 43 48 65 l30 40 -36 0 c-33 0 -38
-3 -53 -39 -9 -22 -19 -37 -23 -34 -3 3 4 25 15 49 10 24 22 60 25 80 4 21 17
53 30 72 l23 34 -60 2 c-61 2 -102 15 -92 31 3 5 0 12 -6 16 -8 4 -9 3 -5 -4
5 -8 -2 -12 -18 -12 -23 0 -31 9 -27 33 0 4 -4 7 -10 7 -5 0 -7 5 -3 11 3 6 1
15 -7 19 -10 7 -10 16 -1 46 10 33 9 38 -11 54 -11 10 -26 33 -32 51 -10 29
-9 38 8 61 23 31 16 48 -21 48 -21 0 -24 2 -12 10 13 9 13 10 0 10 -28 1 12
17 56 23 41 5 42 4 60 -34 17 -39 17 -40 -4 -62 -26 -27 -28 -64 -7 -95 14
-19 14 -24 0 -51 -13 -25 -13 -31 -1 -38 7 -4 13 -19 12 -33 -1 -24 1 -25 49
-21 28 2 86 16 130 32 78 29 80 29 96 10 15 -18 16 -18 39 -1 14 10 28 16 32
14 17 -11 62 33 84 81 43 91 27 179 -49 269 -33 39 -34 39 -105 39 -42 -1 -75
4 -81 10 -13 18 -31 85 -37 147 -5 48 -3 58 15 74 12 11 21 27 21 37 0 19 36
59 54 59 5 0 0 -10 -12 -23 -31 -33 -20 -78 31 -128 37 -35 43 -37 61 -26 31
21 30 34 -4 52 -26 13 -29 19 -20 31 8 9 21 12 37 8 40 -11 58 26 58 121 0 70
4 88 33 146 17 37 32 72 32 79 0 12 22 40 71 89 69 70 75 144 14 180 -28 16
-35 27 -35 51 0 60 48 120 97 120 13 0 32 5 42 12 19 11 18 15 -19 67 -61 87
-69 89 -142 40 -34 -23 -118 -88 -187 -143 -69 -56 -171 -134 -226 -174 -55
-39 -127 -91 -160 -115 -197 -144 -626 -417 -653 -417 -15 0 28 42 61 59 35
19 35 35 -1 28 -64 -13 -204 -29 -209 -24 -3 3 10 8 28 11 19 3 76 13 127 21
131 21 188 54 177 102 -3 12 0 23 7 25 8 3 4 12 -10 26 -16 16 -18 22 -7 22 8
0 26 -18 40 -40 25 -40 26 -40 51 -24 l25 17 -30 20 c-38 23 -32 37 15 37 19
0 48 7 64 15 16 8 71 29 122 46 82 28 112 45 258 152 175 129 262 199 255 206
-3 2 -19 -7 -37 -21 -97 -74 -209 -104 -453 -123 -104 -9 -225 -22 -269 -30
-145 -28 -145 -16 0 21 67 17 149 28 254 34 169 11 233 21 327 51 80 26 90 40
16 23 -67 -16 -59 -6 21 26 72 29 60 37 -21 16 -72 -19 -227 -31 -219 -17 4 5
41 17 84 26 156 33 172 37 172 48 0 14 31 47 44 47 6 0 3 -5 -6 -11 -33 -18
-19 -28 20 -15 80 28 122 55 122 78 0 16 3 19 11 11 8 -8 8 -17 -1 -33 -16
-30 -9 -33 29 -12 37 20 161 123 161 133 0 8 -72 6 -335 -11 -229 -15 -264
-12 -185 15 51 17 113 22 298 24 36 1 62 5 62 12 0 5 -4 7 -10 4 -5 -3 -7 0
-5 7 3 7 31 21 63 32 83 27 185 67 201 80 10 8 -1 13 -50 23 -35 6 -85 12
-111 12 -49 1 -65 17 -25 25 12 3 53 7 90 9 38 3 74 10 80 17 9 9 -8 11 -78 8
-136 -7 -255 -62 -255 -116 0 -11 12 -13 58 -8 31 4 69 9 85 12 15 3 27 2 27
-3 0 -20 -156 -58 -166 -41 -4 6 -10 5 -15 -3 -8 -12 -12 -11 -22 2 -10 13
-17 14 -40 4 -16 -6 -32 -16 -35 -21 -8 -10 -65 -33 -102 -40 -44 -9 -164 -42
-209 -58 -24 -9 -51 -16 -61 -16 -10 0 -28 -9 -41 -21 l-24 -20 25 12 c53 26
-3 -22 -59 -51 -31 -16 -65 -35 -76 -44 -19 -14 -15 -15 56 -16 142 0 174 -19
88 -52 -38 -14 -94 -24 -286 -54 -18 -3 -32 -10 -30 -17 1 -6 -8 -13 -20 -15
-38 -6 -26 -25 12 -20 27 3 32 1 23 -9 -6 -7 -16 -13 -22 -13 -6 0 -38 -13
-71 -28 -33 -16 -66 -27 -74 -24 -8 3 -11 0 -7 -7 5 -7 1 -9 -8 -5 -22 9 -86
-57 -86 -89 0 -14 9 -31 23 -40 12 -9 16 -16 9 -16 -22 -1 -52 38 -52 69 l0
29 -41 -14 c-22 -8 -45 -18 -52 -22 -7 -4 -17 -8 -23 -9 -6 -1 -23 -10 -38
-19 -53 -35 -27 -112 48 -145 l41 -19 -80 1 c-92 0 -164 15 -82 17 42 1 47 3
39 18 -5 9 -7 34 -4 56 3 27 1 42 -9 48 -20 13 -37 11 -19 -2 12 -9 12 -10 -4
-5 -13 5 -44 -10 -98 -45 l-79 -52 30 -13 c17 -7 45 -19 63 -28 45 -20 94 -33
148 -41 111 -15 152 -27 141 -38 -8 -8 -77 -13 -214 -14 -216 -3 -254 11 -66
24 l104 7 -55 16 c-30 9 -69 24 -87 33 -44 23 -89 21 -148 -7 l-50 -24 59 -1
c80 -1 68 -8 -29 -15 -70 -6 -97 -15 -212 -67 -120 -56 -205 -104 -148 -84 11
4 85 9 165 11 l145 3 -105 -14 c-201 -26 -401 -68 -388 -81 3 -2 54 5 114 16
276 52 354 59 464 41 35 -5 11 -9 -105 -15 -89 -4 -161 -13 -177 -20 -14 -8
-66 -19 -115 -26 -48 -7 -98 -19 -110 -26 -12 -8 -52 -15 -90 -15 -59 -1 -146
-14 -118 -18 129 -16 275 -50 275 -63 0 -5 -12 -7 -27 -4 -167 34 -388 58
-369 39 3 -3 51 -33 107 -67 110 -65 137 -94 78 -82 -43 8 -166 65 -181 83 -7
8 14 3 48 -12 32 -15 75 -34 94 -41 32 -14 34 -13 15 1 -11 9 -54 34 -95 56
-154 80 -163 102 -79 184 l61 60 -41 -60 c-44 -64 -48 -75 -29 -75 19 0 58 42
58 62 0 39 25 71 90 117 l35 25 -37 -42 c-38 -42 -55 -82 -43 -101 11 -19 80
-12 136 12 30 13 88 37 129 52 191 71 369 159 530 262 69 43 161 99 205 122
44 24 148 87 230 141 83 53 173 109 200 125 48 28 99 59 252 159 50 33 70 51
66 62 -3 8 -13 13 -22 10 -9 -2 -47 -7 -86 -11 -53 -5 -90 -17 -160 -52 -105
-53 -216 -94 -176 -65 13 9 84 45 158 80 123 57 138 62 202 62 41 0 73 5 77
11 4 8 13 4 24 -11 l18 -24 72 54 c57 42 78 65 96 104 13 28 24 58 24 67 0 8
5 20 10 25 20 20 -25 47 -70 42 -43 -4 -47 3 -26 41 9 16 16 20 20 12 4 -7 2
-18 -4 -26 -11 -13 -7 -15 25 -15 22 0 46 -7 57 -17 27 -24 23 -82 -7 -123
-14 -19 -25 -35 -25 -37 0 -8 262 176 329 231 l74 61 -32 3 c-21 2 -41 -3 -54
-15 -19 -16 -20 -16 -8 0 12 16 9 17 -43 17 -31 0 -56 4 -56 9 0 17 14 20 91
22 41 1 80 7 88 13 11 8 13 8 7 -1 -5 -9 1 -13 20 -13 18 0 48 18 93 57 63 54
141 129 141 136 0 2 18 23 40 46 22 23 40 46 40 52 0 15 -98 -39 -112 -61 -7
-11 -18 -20 -25 -20 -17 0 -17 17 0 23 9 4 9 7 0 18 -10 10 -19 6 -46 -22 -18
-19 -56 -52 -83 -74 -35 -28 -21 -10 50 65 54 58 108 110 120 117 21 12 21 12
0 13 -21 0 -121 -38 -186 -71 -21 -11 -38 -17 -38 -15 0 3 32 22 71 42 40 21
67 40 61 42 -6 2 -28 -6 -50 -17 -22 -11 -42 -17 -46 -14 -3 4 -6 2 -6 -4 0
-5 -12 -15 -27 -22 -25 -12 -25 -11 5 17 18 17 32 35 32 42 0 7 7 10 16 6 9
-3 67 19 137 55 106 53 128 60 169 57 56 -4 58 -1 58 117 0 44 3 105 7 135 6
49 8 52 14 25 4 -16 7 -61 8 -99 0 -39 6 -107 13 -153 l12 -83 93 0 c77 0 95
3 100 16 3 9 1 26 -6 37 -8 12 -9 22 -3 26 5 3 12 125 16 273 3 147 10 275 14
285 10 24 19 -167 21 -424z m-4472 395 c-3 -8 -6 -5 -6 6 -1 11 2 17 5 13 3
-3 4 -12 1 -19z m4713 -28 c0 -5 -4 -10 -10 -10 -5 0 -10 5 -10 10 0 6 5 10
10 10 6 0 10 -4 10 -10z m1100 -21 c0 -5 -4 -9 -10 -9 -5 0 -10 7 -10 16 0 8
5 12 10 9 6 -3 10 -10 10 -16z m-3615 -119 c3 -5 1 -10 -4 -10 -6 0 -11 5 -11
10 0 6 2 10 4 10 3 0 8 -4 11 -10z m3301 -57 c-10 -10 -19 5 -10 18 6 11 8 11
12 0 2 -7 1 -15 -2 -18z m-686 -3 c0 -5 -6 -10 -14 -10 -8 0 -18 5 -21 10 -3
6 3 10 14 10 12 0 21 -4 21 -10z m-512 -182 c-3 -7 -11 -13 -18 -13 -7 0 -15
6 -17 13 -3 7 4 12 17 12 13 0 20 -5 18 -12z m-3118 -48 c0 -5 -2 -10 -4 -10
-3 0 -8 5 -11 10 -3 6 -1 10 4 10 6 0 11 -4 11 -10z m204 -112 c-9 -14 -23 2
-17 18 4 12 8 13 14 3 4 -7 5 -17 3 -21z m7796 -54 c0 -8 -5 -12 -10 -9 -6 4
-8 11 -5 16 9 14 15 11 15 -7z m-4620 -4 c0 -5 -2 -10 -4 -10 -3 0 -8 5 -11
10 -3 6 -1 10 4 10 6 0 11 -4 11 -10z m77 -116 c-3 -3 -12 -4 -19 -1 -8 3 -5
6 6 6 11 1 17 -2 13 -5z m-1007 -56 c-41 -22 -91 -51 -110 -63 -19 -12 -86
-53 -148 -90 -77 -46 -111 -73 -110 -84 3 -18 -91 -85 -199 -141 -37 -19 -107
-61 -156 -94 -48 -32 -90 -56 -93 -54 -2 3 23 22 56 42 32 20 62 41 65 47 10
16 -187 -104 -441 -267 -88 -57 -167 -104 -175 -104 -17 -1 -80 -44 -324 -220
-303 -220 -335 -242 -335 -233 2 26 528 405 775 558 61 38 198 123 305 191
536 335 912 554 955 554 6 0 -24 -19 -65 -42z m5670 6 c0 -8 -4 -14 -10 -14
-5 0 -10 9 -10 21 0 11 5 17 10 14 6 -3 10 -13 10 -21z m-5485 -24 c-3 -5 -10
-10 -16 -10 -5 0 -9 5 -9 10 0 6 7 10 16 10 8 0 12 -4 9 -10z m115 -10 c0 -5
-4 -10 -10 -10 -5 0 -10 5 -10 10 0 6 5 10 10 10 6 0 10 -4 10 -10z m-4140
-20 c0 -5 -2 -10 -4 -10 -3 0 -8 5 -11 10 -3 6 -1 10 4 10 6 0 11 -4 11 -10z
m4060 -40 c0 -5 -4 -10 -10 -10 -5 0 -10 5 -10 10 0 6 5 10 10 10 6 0 10 -4
10 -10z m-155 -10 c3 -5 -3 -10 -14 -10 -12 0 -21 5 -21 10 0 6 6 10 14 10 8
0 18 -4 21 -10z m-130 -40 c-3 -5 -11 -10 -16 -10 -6 0 -7 5 -4 10 3 6 11 10
16 10 6 0 7 -4 4 -10z m175 -20 c0 -5 -5 -10 -11 -10 -5 0 -7 5 -4 10 3 6 8
10 11 10 2 0 4 -4 4 -10z m1176 -27 c-7 -7 -26 7 -26 19 0 6 6 6 15 -2 9 -7
13 -15 11 -17z m4621 -15 c-3 -8 -6 -5 -6 6 -1 11 2 17 5 13 3 -3 4 -12 1 -19z
m-6222 -68 c-10 -11 -20 -18 -23 -15 -3 3 3 14 13 25 10 11 20 18 23 15 3 -3
-3 -14 -13 -25z m-318 -17 c-9 -9 -20 -13 -24 -9 -4 4 -1 11 7 16 25 16 35 11
17 -7z m241 -100 c-18 -19 -41 -39 -50 -44 -15 -8 -15 -6 -2 21 18 35 62 72
76 64 5 -4 -5 -22 -24 -41z m1332 16 c0 -5 -7 -9 -15 -9 -15 0 -20 12 -9 23 8
8 24 -1 24 -14z m-1318 -67 c-32 -25 -163 -94 -168 -89 -4 3 17 16 140 85 48
26 60 28 28 4z m-332 -77 c-32 -85 -64 -116 -204 -200 -101 -60 -146 -72 -54
-14 100 62 171 124 210 182 41 60 65 76 48 32z m1720 15 c0 -5 -4 -10 -10 -10
-5 0 -10 5 -10 10 0 6 5 10 10 10 6 0 10 -4 10 -10z m-1845 -40 c-3 -5 -16
-15 -28 -21 -19 -9 -19 -8 3 10 28 23 34 26 25 11z m-55 -35 c0 -2 -10 -9 -22
-15 -22 -11 -22 -10 -4 4 21 17 26 19 26 11z m1015 -134 c3 -6 -31 -13 -77
-17 -58 -5 -75 -10 -58 -14 l25 -7 -26 -11 c-29 -11 -223 -42 -269 -42 -17 0
-30 4 -30 9 0 11 71 27 175 40 l70 8 -59 2 c-38 1 -56 5 -50 10 20 21 287 40
299 22z m-1285 -35 c0 -2 -8 -10 -17 -17 -16 -13 -17 -12 -4 4 13 16 21 21 21
13z m200 -44 c0 -17 -116 -89 -126 -79 -5 5 57 56 91 75 24 14 35 15 35 4z
m894 -222 c-15 -15 -150 -60 -202 -67 -78 -10 -37 12 78 41 57 15 106 29 109
31 2 3 9 5 15 5 6 0 7 -3 0 -10z m-1228 -77 c-13 -26 -32 -57 -41 -68 -9 -11
0 12 21 52 21 40 40 71 42 69 2 -2 -8 -26 -22 -53z m187 40 c-7 -2 -21 -2 -30
0 -10 3 -4 5 12 5 17 0 24 -2 18 -5z m277 -56 c0 -2 -10 -12 -22 -23 l-23 -19
19 23 c18 21 26 27 26 19z m530 -31 c-42 -13 -114 -47 -165 -79 -56 -34 -110
-59 -144 -66 -49 -10 -84 -8 -50 3 8 2 39 12 69 21 30 10 75 30 100 45 133 81
171 97 235 98 19 0 2 -8 -45 -22z m-295 4 c4 -6 -20 -10 -67 -9 -58 1 -66 3
-38 9 53 11 98 11 105 0z m70 -19 c-9 -16 -103 -40 -165 -42 -141 -4 -146 7
-9 22 52 6 112 16 134 24 42 14 51 13 40 -4z m-483 -59 c15 -12 72 -27 206
-54 83 -16 80 -32 -5 -23 -164 16 -244 60 -243 132 1 12 5 7 14 -12 7 -17 20
-36 28 -43z m6798 43 c0 -8 -2 -15 -4 -15 -2 0 -6 7 -10 15 -3 8 -1 15 4 15 6
0 10 -7 10 -15z m-6845 -77 c3 -7 -1 -4 -9 6 -9 11 -16 29 -15 40 1 17 2 16 9
-6 4 -14 11 -32 15 -40z m-472 27 c-3 -9 -8 -14 -10 -11 -3 3 -2 9 2 15 9 16
15 13 8 -4z m694 -132 c42 -20 48 -39 18 -69 -16 -16 -34 -24 -57 -23 l-33 1
34 8 c45 11 68 34 52 53 -20 25 -98 42 -127 28 -22 -10 -24 -14 -14 -26 11
-13 10 -14 -4 -9 -21 8 -21 40 2 53 20 12 85 4 129 -16z m-82 -93 c-3 -5 -23
-9 -43 -9 l-37 2 40 7 c22 4 41 8 43 9 2 0 0 -3 -3 -9z m1092 -142 c-3 -8 -6
-5 -6 6 -1 11 2 17 5 13 3 -3 4 -12 1 -19z m-1837 -49 c32 -1 19 -5 -46 -13
-85 -10 -124 -26 -124 -48 0 -5 24 -20 54 -34 47 -21 67 -24 138 -22 85 3 108
18 46 29 l-33 6 30 2 c42 1 63 -14 49 -36 -39 -62 -294 -18 -294 51 0 13 7 30
17 37 24 20 75 38 98 33 11 -2 40 -4 65 -5z m-1832 -67 c2 -7 -2 -10 -12 -6
-9 3 -16 11 -16 16 0 13 23 5 28 -10z m2332 -12 c-18 -11 -154 -11 -190 0 -16
5 17 8 90 9 78 0 110 -2 100 -9z m-70 -40 c-8 -5 -37 -9 -65 -9 -42 1 -45 2
-20 8 50 12 102 12 85 1z m-1445 -80 c3 -5 -3 -10 -14 -10 -12 0 -21 5 -21 10
0 6 6 10 14 10 8 0 18 -4 21 -10z m8655 -16 c0 -8 -5 -12 -10 -9 -6 4 -8 11
-5 16 9 14 15 11 15 -7z m-9302 -33 c3 -16 -1 -22 -10 -19 -7 3 -15 15 -16 27
-3 16 1 22 10 19 7 -3 15 -15 16 -27z m792 -12 c0 -6 -4 -7 -10 -4 -5 3 -10
11 -10 16 0 6 5 7 10 4 6 -3 10 -11 10 -16z m650 1 c25 -25 25 -35 -1 -53 -13
-10 -37 -13 -67 -11 -63 6 -193 34 -212 46 -11 7 -8 8 10 4 144 -29 260 -33
267 -9 2 6 -8 19 -24 27 -20 11 -23 15 -10 16 9 0 26 -9 37 -20z m-1090 -24
c0 -3 -4 -8 -10 -11 -5 -3 -10 -1 -10 4 0 6 5 11 10 11 6 0 10 -2 10 -4z
m4411 -22 c13 -14 17 -23 9 -19 -13 5 -46 45 -37 45 2 0 14 -11 28 -26z m88
-134 c57 -83 89 -140 65 -115 -26 27 -144 201 -144 212 1 10 30 -26 79 -97z
m-3624 50 c39 -26 25 -26 -17 0 -18 11 -28 20 -23 20 6 0 24 -9 40 -20z m229
-2 c-7 -10 -152 -8 -184 2 -16 6 13 8 82 7 58 -1 104 -5 102 -9z m-1856 -23
c-12 -27 -28 -34 -28 -12 0 14 20 37 32 37 4 0 2 -11 -4 -25z m2862 10 c0 -9
-7 -30 -16 -46 -12 -24 -18 -28 -29 -19 -16 13 -36 10 -53 -10 -12 -13 -13
-13 -8 3 3 10 6 23 6 29 0 6 11 8 25 5 17 -3 24 0 22 7 -3 6 -10 10 -16 8 -7
-1 -10 2 -6 8 3 6 10 8 15 5 4 -3 10 2 14 10 7 20 46 19 46 0z m-2510 -35 c0
-5 -5 -10 -11 -10 -5 0 -7 5 -4 10 3 6 8 10 11 10 2 0 4 -4 4 -10z m-100 -20
c0 -5 -2 -10 -4 -10 -3 0 -8 5 -11 10 -3 6 -1 10 4 10 6 0 11 -4 11 -10z m770
-60 c0 -5 -7 -10 -15 -10 -8 0 -15 5 -15 10 0 6 7 10 15 10 8 0 15 -4 15 -10z
m-540 -90 c0 -5 -4 -10 -10 -10 -5 0 -10 5 -10 10 0 6 5 10 10 10 6 0 10 -4
10 -10z m1020 -161 c0 -11 -4 -17 -10 -14 -5 3 -10 13 -10 21 0 8 5 14 10 14
6 0 10 -9 10 -21z m-910 -25 c0 -8 -4 -12 -10 -9 -5 3 -10 10 -10 16 0 5 5 9
10 9 6 0 10 -7 10 -16z m5020 -168 c8 -12 35 -41 60 -64 25 -23 37 -39 28 -36
-25 9 -23 -1 18 -67 19 -33 34 -64 32 -70 -3 -9 -113 127 -175 216 -24 35 -83
142 -83 151 0 7 100 -101 120 -130z m-4770 94 c0 -5 -4 -10 -10 -10 -5 0 -10
5 -10 10 0 6 5 10 10 10 6 0 10 -4 10 -10z m630 -95 c0 -8 -4 -15 -10 -15 -5
0 -10 7 -10 15 0 8 5 15 10 15 6 0 10 -7 10 -15z m-746 -70 c-4 -8 -10 -15
-15 -15 -5 0 -9 7 -9 15 0 8 7 15 15 15 9 0 12 -6 9 -15z m1209 -55 c3 -11 1
-20 -4 -20 -5 0 -9 2 -9 4 0 2 -3 11 -6 20 -3 9 -2 16 4 16 5 0 12 -9 15 -20z
m-523 -150 c0 -5 -2 -10 -4 -10 -3 0 -8 5 -11 10 -3 6 -1 10 4 10 6 0 11 -4
11 -10z m-645 -39 c3 -5 1 -12 -5 -16 -5 -3 -10 1 -10 9 0 18 6 21 15 7z m345
-21 c0 -5 -7 -10 -15 -10 -8 0 -15 5 -15 10 0 6 7 10 15 10 8 0 15 -4 15 -10z
m-95 -110 c3 -5 1 -10 -4 -10 -6 0 -11 5 -11 10 0 6 2 10 4 10 3 0 8 -4 11
-10z m180 -50 c-3 -5 -10 -10 -16 -10 -5 0 -9 5 -9 10 0 6 7 10 16 10 8 0 12
-4 9 -10z m4465 -41 c-57 -16 -78 -30 -90 -62 -11 -32 -15 -653 -4 -681 3 -9
12 -16 20 -16 8 0 14 -4 14 -10 0 -5 -7 -7 -15 -4 -23 9 -26 -27 -23 -254 3
-242 3 -242 94 -267 44 -12 21 -13 -231 -13 -275 0 -279 0 -227 16 30 10 60
26 68 36 12 17 14 117 14 611 0 579 0 592 -20 610 -11 10 -41 24 -67 31 -42
11 -14 13 227 12 191 0 264 -3 240 -9z m1415 -29 c66 -10 150 -28 187 -40 l66
-20 6 -53 c3 -28 8 -92 11 -142 l7 -90 -31 63 c-61 125 -191 226 -346 268 -90
24 -302 30 -395 10 -227 -47 -393 -207 -444 -426 -20 -82 -20 -224 -1 -315 21
-100 31 -120 69 -133 19 -7 39 -19 46 -27 10 -12 7 -12 -19 -2 -17 6 -33 8
-37 5 -12 -13 52 -114 112 -175 92 -95 174 -130 329 -143 275 -22 434 -4 427
51 -3 23 -2 24 13 4 15 -19 16 -19 53 0 57 30 165 143 196 205 l27 55 -6 -130
c-5 -94 -11 -133 -21 -141 -7 -6 -49 -19 -91 -28 -116 -26 -114 -26 -103 -39
6 -7 38 -55 73 -107 59 -90 87 -129 167 -238 l35 -47 7 45 c3 25 7 68 8 95 l2
50 9 -40 c4 -22 8 -66 8 -97 1 -45 6 -63 25 -85 24 -28 26 -28 157 -31 173 -5
151 -22 -28 -22 -73 0 -133 -3 -133 -6 0 -3 23 -38 51 -77 27 -40 83 -121 122
-182 l72 -110 80 -17 c44 -9 83 -17 87 -17 18 -2 81 -68 105 -110 15 -25 39
-62 53 -81 37 -48 118 -198 98 -182 -8 6 -28 32 -44 57 -15 25 -31 44 -35 43
-4 -2 -44 -55 -90 -118 -115 -161 -557 -602 -749 -748 -297 -227 -586 -414
-788 -514 -71 -35 -102 -55 -98 -64 6 -16 -3 -18 -23 -5 -9 6 -35 0 -75 -16
-57 -23 -242 -111 -276 -132 -8 -5 -34 -17 -57 -27 -24 -9 -43 -23 -43 -30 0
-18 -20 -28 -32 -16 -14 14 -38 4 -38 -15 0 -8 -5 -11 -10 -8 -15 10 -50 -4
-44 -18 3 -8 -7 -12 -28 -13 -18 0 -99 -26 -180 -57 -81 -31 -156 -57 -166
-57 -11 0 -39 -7 -62 -15 -23 -8 -48 -15 -54 -15 -20 1 57 31 184 72 69 22
132 46 140 53 8 7 20 11 26 8 13 -4 65 19 287 126 81 40 157 80 167 89 36 33
49 42 60 42 14 0 92 52 86 57 -2 3 -37 -7 -78 -21 -82 -29 -74 -19 35 45 82
49 89 70 9 30 -32 -16 -154 -71 -272 -121 -118 -51 -217 -94 -219 -96 -17 -16
20 -8 109 21 57 19 105 34 106 32 2 -2 -29 -18 -69 -36 -93 -43 -282 -104
-405 -131 -53 -12 -104 -24 -112 -28 -8 -3 -29 -6 -47 -7 -51 -3 -123 -26
-116 -38 3 -5 7 -20 9 -33 3 -27 42 -86 120 -178 55 -64 64 -71 134 -93 41
-13 82 -22 92 -20 10 3 16 1 13 -3 -3 -4 -27 -11 -54 -15 -83 -11 -122 16
-241 173 -42 55 -56 68 -61 55 -4 -12 -8 -13 -13 -4 -4 6 -3 17 2 24 6 8 -3
31 -29 72 -21 33 -39 57 -39 53 0 -5 0 -10 0 -13 0 -3 -6 -18 -15 -35 -21 -40
-19 -99 3 -116 15 -12 15 -13 1 -14 -14 0 -18 -20 -24 -131 -4 -72 -9 -129
-11 -126 -2 2 -7 87 -10 188 -4 101 -11 195 -17 209 -5 14 -9 35 -8 47 2 17
-2 21 -13 17 -17 -7 -36 24 -36 60 0 16 -9 32 -25 42 -14 9 -25 23 -25 30 0 8
-5 13 -12 11 -7 -1 -12 12 -14 31 -1 19 -6 38 -11 43 -5 5 -141 12 -301 16
-161 3 -292 10 -292 14 0 15 52 18 290 19 259 1 320 6 325 24 2 6 6 32 10 58
6 46 35 94 50 80 4 -4 0 9 -10 28 -16 32 -171 259 -184 270 -4 3 -12 17 -18
32 -8 19 -17 26 -28 22 -8 -3 -15 -1 -15 6 0 6 5 8 10 5 6 -3 10 -4 10 0 0 12
-223 349 -255 385 -13 14 -68 101 -124 193 -56 93 -121 194 -145 225 -69 90
-152 234 -147 255 1 5 -3 6 -8 3 -5 -3 -36 36 -69 87 -127 196 -186 353 -69
184 23 -33 55 -84 70 -112 15 -27 25 -41 22 -30 -3 11 -12 47 -20 78 -20 79
-18 94 4 27 43 -128 142 -345 183 -401 28 -38 43 -37 23 1 -8 16 -20 42 -26
57 l-10 27 24 -24 c13 -14 21 -29 19 -35 -3 -5 -1 -7 3 -2 5 4 17 -5 27 -20
10 -16 18 -22 18 -13 0 8 -16 38 -35 65 -35 51 -60 125 -37 111 7 -4 10 -2 8
6 -2 7 -7 35 -10 63 l-6 49 42 -65 c24 -36 54 -85 67 -110 14 -24 43 -70 65
-103 23 -32 57 -82 76 -110 19 -28 62 -89 95 -136 33 -46 63 -88 66 -93 4 -6
16 -3 30 7 31 21 42 20 58 -5 10 -17 10 -23 1 -29 -19 -12 -17 -103 5 -169 10
-31 105 -171 116 -171 5 0 9 -5 9 -11 0 -32 144 -237 168 -238 6 -1 12 -6 12
-12 0 -17 48 -70 54 -60 4 5 9 83 12 173 l5 163 -104 143 c-57 78 -130 172
-162 209 -120 136 -172 235 -220 417 -40 157 -55 267 -55 418 0 102 -1 107
-22 113 -48 15 -68 45 -68 101 0 46 4 55 31 78 24 21 41 26 84 26 30 0 57 -4
60 -10 11 -18 25 -11 26 13 1 12 6 -3 11 -33 17 -103 -10 -163 -80 -176 -19
-4 -30 -9 -24 -13 5 -3 12 -55 16 -116 9 -134 28 -238 61 -336 31 -90 135
-275 187 -331 21 -23 36 -48 34 -55 -3 -7 0 -13 7 -13 18 0 43 -43 28 -48 -16
-5 -14 -27 8 -64 11 -17 18 -35 16 -39 -3 -4 2 -12 10 -19 8 -7 15 -16 15 -21
0 -8 128 -179 134 -179 1 0 3 6 4 13 10 149 15 177 30 164 13 -10 14 -9 3 11
-6 12 -30 34 -52 48 -56 35 -41 43 22 12 l51 -26 -6 57 c-4 37 -2 69 7 95 8
21 12 47 10 57 -6 21 -82 69 -110 69 -10 1 -31 7 -48 16 -28 13 -26 14 48 10
51 -3 77 -1 77 6 0 6 -14 33 -31 60 -25 39 -34 46 -45 37 -13 -11 -19 -3 -16
22 2 11 -32 37 -68 52 l-35 14 6 -56 c3 -31 12 -69 19 -84 12 -25 12 -32 -4
-61 -16 -31 -16 -34 3 -76 11 -25 20 -54 20 -65 l-1 -20 -7 20 c-15 43 -37 81
-58 98 -12 10 -20 24 -16 32 3 8 0 15 -6 15 -6 0 -11 9 -11 20 0 11 7 20 15
20 8 0 15 -7 15 -15 0 -8 4 -15 9 -15 5 0 11 7 15 15 3 8 1 15 -4 15 -13 0
-20 28 -24 96 -2 32 -10 76 -19 96 -8 20 -13 39 -9 42 10 11 22 6 22 -8 0 -23
69 -74 91 -69 44 12 156 -108 161 -173 1 -16 13 -44 25 -63 27 -40 28 -46 8
-101 -22 -62 -17 -117 16 -182 12 -23 11 -28 -1 -28 -6 0 -15 10 -21 23 -8 19
-9 18 -3 -8 18 -92 65 -154 121 -160 14 -1 32 -10 41 -19 16 -15 14 -16 -17
-10 l-33 7 7 -34 c4 -19 14 -47 23 -64 20 -39 24 -129 5 -113 -7 6 -13 24 -13
40 0 47 -27 86 -57 80 -21 -4 -24 -2 -19 15 5 16 -2 26 -32 46 -41 27 -52 53
-52 128 0 22 -5 39 -10 39 -14 0 -6 -127 11 -178 14 -45 43 -84 54 -74 5 4 5
2 2 -4 -7 -11 129 -174 145 -174 4 0 11 0 14 1 4 0 10 -4 14 -11 4 -6 17 -12
28 -13 12 -1 22 -6 22 -12 0 -5 4 -4 8 3 6 9 18 1 42 -28 18 -22 48 -44 67
-51 18 -6 33 -14 33 -18 0 -4 18 -16 40 -26 22 -10 37 -22 34 -26 -5 -9 41
-12 126 -9 59 2 206 34 250 54 34 15 30 16 -90 12 -69 -3 -138 -8 -155 -11
-23 -5 -26 -4 -15 4 27 20 93 33 205 41 117 9 192 33 365 117 l75 37 -60 8
c-55 7 -61 6 -77 -14 -9 -13 -20 -19 -24 -15 -4 4 1 20 13 35 25 34 94 43 123
17 26 -23 80 -12 80 17 0 11 19 41 43 67 64 72 91 133 95 219 4 62 1 75 -14
86 -16 12 -17 19 -6 80 7 37 21 86 31 109 24 53 59 175 72 246 5 29 15 61 22
71 10 15 12 10 12 -29 0 -55 40 -139 77 -160 53 -30 130 24 163 114 33 94 64
150 103 188 54 52 62 31 12 -29 -22 -27 -45 -65 -50 -85 -6 -20 -19 -48 -30
-62 -11 -14 -20 -28 -20 -32 0 -16 -63 -93 -84 -103 -12 -5 -44 -9 -70 -8 -40
2 -53 7 -73 31 l-24 30 7 -50 c4 -27 11 -61 16 -75 l8 -25 -20 25 -20 25 0
-32 c0 -17 4 -34 9 -37 5 -3 12 -18 16 -33 3 -15 16 -40 27 -55 11 -16 18 -31
16 -34 -20 -20 -108 80 -111 126 -2 27 -3 29 -15 13 -13 -17 -12 -30 4 -143
l5 -35 -14 30 c-8 17 -18 39 -22 50 -5 16 -8 17 -15 5 -17 -27 -12 -78 10 -90
21 -11 27 -44 11 -55 -5 -3 -9 -40 -8 -83 1 -91 -14 -131 -69 -186 -38 -37
-37 -37 43 15 45 30 83 59 83 65 0 6 35 40 79 77 79 66 208 210 250 280 21 34
41 49 41 30 0 -14 -42 -77 -83 -127 -26 -31 -33 -44 -19 -35 12 8 22 17 22 20
0 3 28 24 63 47 34 22 107 86 161 141 55 56 101 100 103 98 11 -12 -45 -85
-131 -172 -310 -309 -585 -519 -896 -685 -74 -39 -142 -77 -150 -84 -51 -40
-307 -151 -388 -166 -83 -17 -149 -10 -224 24 -21 9 -40 16 -43 16 -11 0 -4
-37 11 -56 8 -10 13 -13 9 -6 -3 6 -2 12 3 12 6 0 12 -6 15 -14 3 -7 19 -16
36 -19 17 -4 31 -12 31 -18 0 -8 -5 -7 -17 2 -9 8 -18 13 -20 11 -9 -8 -62 11
-77 27 -9 10 -17 35 -18 55 -1 41 -4 42 -36 20 -26 -18 -22 -55 12 -93 l21
-24 -22 12 c-19 9 -22 9 -17 -3 5 -14 105 -32 122 -22 4 2 14 0 22 -6 12 -8
11 -8 -5 -3 -18 5 -18 4 -5 -9 14 -13 59 -21 103 -17 24 2 22 21 -3 21 -10 0
-24 10 -31 21 -10 20 -9 21 12 15 13 -4 41 -10 62 -13 28 -4 37 -10 35 -22 -2
-9 -13 -16 -25 -16 -11 -1 -28 -7 -37 -14 -9 -8 -38 -16 -64 -18 -131 -10
-152 -14 -152 -33 0 -5 14 -4 32 1 53 15 67 12 61 -12 -4 -15 -12 -19 -27 -16
-11 2 -32 1 -46 -3 -18 -6 -8 -8 37 -9 34 -1 69 -4 79 -8 14 -5 16 -2 10 21
-4 18 -3 25 4 21 5 -3 10 -15 10 -26 0 -26 45 -25 85 2 17 11 44 27 60 35 l30
15 -32 -30 c-18 -17 -33 -34 -33 -37 0 -10 110 3 124 15 7 6 15 9 18 6 3 -3
13 4 23 15 10 11 23 20 28 20 6 0 1 -9 -12 -21 -12 -12 -20 -23 -18 -25 4 -4
233 74 337 116 60 23 93 47 50 36 -24 -7 -24 -7 5 20 17 15 29 31 28 35 -5 15
105 89 133 89 8 0 14 4 14 10 0 30 243 248 284 254 8 1 22 8 32 15 11 8 7 2
-8 -12 -16 -14 -28 -29 -28 -33 0 -4 -25 -40 -55 -80 l-54 -72 152 93 c166
102 345 228 523 370 62 49 135 106 161 125 l48 34 -23 -29 c-13 -17 -64 -72
-114 -122 -50 -51 -88 -93 -83 -93 5 0 17 7 27 17 10 9 21 13 25 10 4 -4 -2
-14 -13 -23 -10 -8 -13 -13 -6 -9 6 3 12 1 12 -4 0 -6 -4 -11 -10 -11 -5 0
-10 -5 -10 -11 0 -5 16 2 35 17 20 15 38 24 41 22 3 -3 -44 -45 -103 -94 -59
-48 -110 -91 -113 -95 -3 -3 -12 -9 -20 -12 -11 -4 -10 -6 4 -6 35 -2 316 200
466 335 112 101 294 278 320 311 46 60 65 88 62 96 -1 4 20 40 47 80 50 73 77
127 63 127 -6 0 -44 -55 -97 -140 -45 -73 -97 -146 -126 -180 -21 -23 -26 -27
-17 -10 8 14 29 51 47 83 18 33 50 86 72 119 44 69 52 98 14 54 -14 -16 -25
-33 -25 -38 0 -4 -5 -8 -10 -8 -6 0 6 24 27 54 21 29 42 51 47 48 5 -3 6 0 2
6 -4 6 2 17 14 24 24 15 26 53 5 75 -9 8 -17 14 -18 12 -97 -152 -223 -311
-271 -343 -26 -17 -27 -17 -17 1 6 10 34 43 62 73 29 30 77 93 107 140 30 47
68 100 85 117 28 30 29 35 18 60 l-13 28 -17 -25 c-20 -30 -93 -126 -122 -160
-33 -40 -10 0 36 60 23 30 52 72 64 92 l22 37 -21 11 c-20 11 -21 10 -15 -12
7 -22 7 -22 -12 -5 -22 19 -38 23 -28 7 4 -6 4 -17 1 -25 -4 -10 -13 -7 -37
16 -35 33 -47 32 -29 -1 19 -36 -3 -43 -34 -11 -25 26 -32 28 -52 19 -19 -9
-28 -8 -46 8 -13 10 -17 12 -10 4 15 -18 15 -32 -1 -54 -12 -17 -17 -12 -55
52 -23 39 -42 73 -42 77 0 3 -14 27 -32 53 -19 29 -24 41 -13 32 15 -12 14 -8
-5 20 -13 19 -25 37 -26 39 -2 2 -7 -12 -12 -30 -9 -32 -10 -30 -17 34 -4 37
-11 70 -16 73 -10 6 -74 103 -82 124 -3 8 -6 -2 -6 -22 -1 -21 4 -38 9 -38 6
0 10 -4 10 -8 0 -5 -20 -9 -45 -10 -25 0 -45 4 -45 9 0 5 5 9 10 9 16 0 12 67
-5 74 -10 3 -21 -9 -35 -40 -11 -25 -24 -44 -30 -42 -5 1 -25 35 -44 73 l-35
70 0 -67 c-1 -48 3 -68 12 -69 6 -1 -4 -5 -23 -9 -39 -10 -54 -3 -27 11 25 15
25 163 0 178 -14 8 -10 10 23 11 40 0 40 0 74 -70 l34 -70 34 72 c28 61 32 75
22 96 -8 18 -8 28 0 36 7 7 10 6 10 -2 0 -7 9 -12 20 -12 11 0 20 3 20 6 0 10
-142 247 -157 262 -7 8 -18 23 -24 34 -10 19 -17 20 -98 14 -161 -13 -421 -8
-513 8 -123 22 -239 61 -343 114 -160 82 -291 237 -324 384 -15 65 -14 213 3
273 45 171 205 326 413 402 76 28 262 69 367 83 101 13 310 4 451 -20z m-5701
-65 c-6 -16 -24 -21 -24 -7 0 11 11 22 21 22 5 0 6 -7 3 -15z m5074 -193 c4
-25 -13 -30 -22 -6 -9 25 -7 36 7 32 6 -3 13 -14 15 -26z m-5028 -13 c0 -5 -9
-9 -20 -9 -22 0 -27 16 -7 23 15 5 27 -1 27 -14z m1550 -229 c6 -11 8 -20 6
-20 -3 0 -10 9 -16 20 -6 11 -8 20 -6 20 3 0 10 -9 16 -20z m2210 -368 l0 -87
-62 -48 c-136 -104 -333 -206 -449 -231 -26 -6 -41 -31 -70 -118 -21 -61 -28
-43 -11 27 9 35 14 67 11 69 -2 3 -33 -2 -69 -9 -36 -7 -109 -18 -162 -24
-105 -12 -510 -13 -648 -2 -79 6 -73 7 95 14 302 12 513 44 710 109 l100 33 7
40 c10 57 13 204 4 243 -5 23 -4 32 5 32 7 0 9 -3 6 -6 -3 -4 -2 -15 4 -25 5
-11 10 -73 10 -139 0 -81 4 -120 11 -120 22 0 184 83 263 134 44 29 116 85
160 124 44 39 81 72 83 72 1 0 2 -39 2 -88z m1385 -230 c-5 -6 -65 40 -65 50
0 5 16 -4 35 -19 19 -15 32 -29 30 -31z m49 -41 c-1 -1 -12 3 -23 11 -12 8
-18 17 -15 21 6 5 43 -25 38 -32z m-1569 -1 c-6 -9 -9 -9 -16 1 -10 17 0 34
13 21 6 -6 7 -16 3 -22z m1592 -22 c-3 -8 -6 -5 -6 6 -1 11 2 17 5 13 3 -3 4
-12 1 -19z m-912 2 c3 -5 2 -10 -4 -10 -5 0 -13 5 -16 10 -3 6 -2 10 4 10 5 0
13 -4 16 -10z m-978 -82 c-3 -8 -6 -5 -6 6 -1 11 2 17 5 13 3 -3 4 -12 1 -19z
m1262 -83 c34 -39 42 -66 14 -44 -42 31 -63 53 -63 66 0 22 16 15 49 -22z
m-5576 -120 c4 -8 2 -17 -3 -20 -6 -4 -10 3 -10 14 0 25 6 27 13 6z m4107
-122 c-11 -17 -11 -17 -6 0 3 10 7 26 7 35 1 15 2 15 6 0 2 -10 -1 -25 -7 -35z
m-4730 17 c0 -5 -2 -10 -4 -10 -3 0 -8 5 -11 10 -3 6 -1 10 4 10 6 0 11 -4 11
-10z m5626 -35 c15 -22 23 -25 79 -25 65 0 95 -15 95 -46 0 -22 -46 -64 -70
-64 -26 0 -26 16 1 23 31 8 23 61 -10 65 -23 4 -23 2 -19 -51 4 -51 9 -61 61
-117 107 -115 109 -166 3 -70 -39 37 -67 53 -98 59 -24 5 -37 9 -30 10 15 1
17 102 2 117 -15 15 -50 124 -40 124 5 0 17 -11 26 -25z m-5151 -15 c3 -5 1
-10 -4 -10 -6 0 -11 5 -11 10 0 6 2 10 4 10 3 0 8 -4 11 -10z m4469 -38 l20
-26 7 25 c7 21 7 20 6 -7 -1 -21 9 -45 28 -70 l30 -39 3 60 c3 47 0 62 -14 72
-15 11 -12 13 27 13 35 -1 40 -3 27 -11 -15 -8 -18 -25 -18 -104 0 -52 -3 -95
-8 -95 -18 0 -56 36 -102 97 l-50 66 0 -71 c0 -59 3 -71 18 -75 9 -3 -3 -5
-28 -6 -35 0 -41 2 -27 10 24 14 26 169 2 169 -15 0 -20 12 -10 22 13 12 71
-7 89 -30z m-2350 2 c47 -48 31 -140 -29 -169 -106 -50 -202 44 -150 145 20
39 41 49 101 50 42 0 56 -5 78 -26z m235 -1 c-1 -17 -3 -21 -6 -10 -3 12 -15
17 -39 17 -32 0 -34 -2 -34 -35 0 -31 3 -35 25 -35 14 0 25 5 25 10 0 6 5 10
10 10 6 0 10 -13 10 -30 0 -16 -4 -30 -10 -30 -5 0 -10 5 -10 10 0 6 -11 10
-25 10 -22 0 -25 -4 -25 -35 0 -22 6 -38 18 -44 13 -8 6 -10 -33 -10 -27 0
-44 3 -37 6 16 6 17 164 0 181 -9 9 4 12 60 12 l72 0 -1 -27z m221 8 c0 -11
-4 -23 -10 -26 -5 -3 -10 1 -10 10 0 12 -8 16 -32 13 -29 -3 -33 -7 -36 -35
-3 -29 0 -33 20 -33 13 0 29 5 36 12 9 9 12 5 12 -20 0 -18 -4 -32 -10 -32 -5
0 -10 5 -10 10 0 6 -12 10 -26 10 -25 0 -26 -2 -19 -37 4 -21 12 -41 18 -45 7
-4 -10 -7 -38 -7 -27 0 -44 3 -37 6 16 6 17 164 0 181 -9 9 5 12 65 12 70 0
77 -2 77 -19z m148 8 c-15 -8 -18 -25 -18 -94 0 -71 3 -84 18 -88 9 -3 -8 -5
-38 -6 -42 0 -51 2 -37 10 14 8 17 24 17 89 0 65 -3 81 -17 89 -14 8 -5 10 37
10 42 0 51 -2 38 -10z m260 -22 l3 -27 -26 26 c-28 28 -64 27 -97 -3 -18 -16
-24 -75 -12 -108 11 -27 62 -48 103 -40 30 5 34 4 23 -7 -8 -7 -35 -13 -67
-13 -43 0 -59 5 -79 24 -49 47 -43 136 13 166 16 9 48 14 81 12 52 -2 55 -4
58 -30z m154 21 c-17 -17 -16 -175 1 -181 6 -3 -10 -5 -38 -5 -27 0 -44 2 -37
5 8 3 12 32 12 93 0 61 -4 90 -12 93 -7 3 9 6 37 6 38 1 46 -2 37 -11z m233
-79 c21 -50 44 -93 52 -96 26 -10 3 -18 -42 -15 -28 3 -42 7 -35 12 7 4 9 16
5 29 -5 17 -14 21 -45 21 -30 0 -39 -4 -43 -22 -4 -13 -1 -26 6 -30 7 -5 -2
-8 -21 -8 -31 0 -32 1 -18 23 13 19 51 109 69 160 13 37 35 15 72 -74z m203
80 c-15 -8 -18 -24 -18 -89 l0 -80 39 0 c29 0 41 5 44 18 3 10 5 6 6 -10 0
-16 -4 -28 -11 -29 -7 0 -42 -2 -76 -4 -57 -4 -63 -2 -56 13 4 9 9 50 12 90 4
63 2 75 -14 87 -17 13 -13 14 36 14 42 0 51 -2 38 -10z m450 -21 c2 -16 -1
-28 -7 -28 -6 0 -11 7 -11 15 0 19 -43 37 -67 28 -38 -13 -53 -36 -53 -78 0
-65 26 -90 89 -89 37 0 48 -3 41 -10 -6 -6 -36 -11 -66 -11 -50 0 -59 3 -85
33 -47 53 -35 138 25 162 11 5 46 8 76 7 52 -2 55 -4 58 -29z m840 -1 l3 -27
-26 26 c-60 60 -142 -23 -109 -111 11 -27 62 -48 103 -40 28 5 33 4 24 -5 -6
-7 -31 -14 -55 -17 -86 -9 -150 70 -118 147 18 43 54 60 120 57 52 -2 55 -4
58 -30z m222 13 c0 -11 -4 -20 -10 -20 -5 0 -10 5 -10 10 0 6 -16 10 -35 10
-33 0 -35 -2 -35 -35 0 -32 3 -35 29 -35 16 0 32 6 34 13 3 6 5 -4 5 -23 0
-19 -2 -29 -5 -22 -2 6 -18 12 -34 12 -26 0 -29 -3 -29 -35 0 -34 1 -35 40
-35 30 0 40 4 40 16 0 8 4 13 9 10 5 -3 7 -15 4 -26 -5 -17 -14 -20 -72 -20
l-66 0 3 87 c3 74 1 89 -14 100 -15 11 -5 13 64 13 75 0 82 -2 82 -20z m480
-5 c0 -14 -4 -25 -10 -25 -5 0 -10 7 -10 15 0 9 -9 15 -25 15 -25 0 -25 -1
-25 -84 0 -58 4 -86 13 -89 6 -3 -10 -5 -38 -5 -27 0 -44 2 -37 5 8 3 12 31
12 89 0 83 0 84 -25 84 -16 0 -25 -6 -25 -15 0 -8 -4 -15 -10 -15 -5 0 -10 11
-10 25 0 25 0 25 95 25 95 0 95 0 95 -25z m334 -62 c21 -49 45 -94 54 -100 13
-11 7 -13 -39 -13 -34 0 -49 3 -40 9 8 5 11 16 6 30 -9 30 -70 30 -85 0 -16
-28 -6 -34 22 -15 12 9 27 16 32 16 6 0 1 -7 -11 -15 -13 -9 -20 -22 -16 -30
4 -13 1 -14 -21 -5 -14 5 -33 7 -41 4 -16 -7 -21 11 -6 20 5 4 26 47 47 96 20
50 42 90 49 90 6 0 29 -39 49 -87z m201 63 c-11 -17 -14 -35 -9 -60 6 -34 9
-36 44 -36 25 0 40 -5 44 -16 5 -14 9 -13 27 7 11 13 17 18 13 10 -10 -20 -6
-83 6 -95 15 -15 12 -26 -5 -26 -9 0 -19 10 -24 22 -7 19 -14 21 -82 19 l-74
-2 3 87 c3 75 1 90 -14 101 -15 11 -11 13 34 13 l52 0 -15 -24z m305 9 c14
-17 5 -65 -12 -65 -7 0 -2 -9 10 -20 39 -37 22 -84 -36 -98 -50 -13 -108 -10
-105 5 1 6 5 46 9 88 6 67 4 78 -12 90 -17 13 -11 14 57 15 56 0 80 -4 89 -15z
m168 4 c-14 -8 -18 -23 -18 -70 0 -79 11 -99 55 -99 44 0 55 20 55 99 0 47 -4
62 -17 70 -15 8 -10 10 22 11 30 0 36 -3 27 -12 -7 -7 -12 -41 -12 -80 0 -60
-3 -72 -25 -93 -29 -29 -88 -34 -123 -9 -20 13 -22 24 -22 94 0 65 -3 81 -17
89 -14 8 -5 10 37 10 42 0 51 -2 38 -10z m-2181 -66 c-3 -10 -5 -2 -5 17 0 19
2 27 5 18 2 -10 2 -26 0 -35z m-32 -93 c3 -5 1 -10 -4 -10 -6 0 -11 5 -11 10
0 6 2 10 4 10 3 0 8 -4 11 -10z m1475 -70 c0 -5 -2 -10 -4 -10 -3 0 -8 5 -11
10 -3 6 -1 10 4 10 6 0 11 -4 11 -10z m-35 -61 c-5 -21 -10 -27 -15 -19 -5 7
-3 24 3 37 14 31 21 22 12 -18z m483 22 c12 -10 19 -21 15 -25 -3 -3 -1 -6 5
-6 6 0 9 -7 5 -16 -5 -13 -7 -12 -17 4 -6 11 -17 29 -24 41 -16 26 -11 27 16
2z m896 -221 c61 -98 67 -112 56 -129 -8 -14 -109 124 -136 186 -9 21 -29 64
-45 95 -16 31 -29 60 -29 65 0 12 95 -122 154 -217z m-369 201 c3 -5 2 -12 -3
-15 -5 -3 -9 1 -9 9 0 17 3 19 12 6z m-3168 -43 c-3 -8 -6 -5 -6 6 -1 11 2 17
5 13 3 -3 4 -12 1 -19z m1183 12 c0 -5 -2 -10 -4 -10 -3 0 -8 5 -11 10 -3 6
-1 10 4 10 6 0 11 -4 11 -10z m2000 -70 c0 -19 -9 -46 -20 -60 -23 -30 -24
-27 -6 25 8 22 12 54 9 70 -4 23 -2 27 6 15 6 -8 11 -31 11 -50z m-1040 15 c0
-9 7 -29 15 -45 18 -35 3 -40 -19 -8 -18 25 -21 68 -6 68 6 0 10 -7 10 -15z
m771 -51 c3 -32 11 -69 18 -82 7 -13 11 -37 9 -55 l-4 -32 -8 30 c-5 17 -17
41 -27 55 -26 39 -37 90 -25 123 16 42 30 27 37 -39z m-1968 17 c60 -41 108
-105 112 -147 2 -26 -2 -37 -14 -42 -9 -3 -22 -13 -29 -21 -11 -14 -12 -9 -9
28 8 82 -28 148 -77 139 -14 -3 -26 -1 -26 3 0 5 11 9 25 9 l25 0 -32 30 c-42
38 -29 38 25 1z m963 4 c3 -14 3 -46 -1 -70 -5 -37 -13 -50 -41 -68 -27 -18
-34 -29 -34 -54 0 -42 -19 -43 -27 -2 -3 19 -14 34 -25 36 -10 3 -18 10 -18
15 0 6 11 8 24 4 17 -4 33 3 61 27 37 32 39 37 36 85 -2 54 14 72 25 27z m775
-91 c26 -27 28 -34 19 -58 -13 -36 -13 -89 2 -104 9 -9 7 -13 -6 -18 -27 -11
-37 14 -30 79 6 51 4 61 -16 82 -20 21 -21 29 -14 72 8 47 8 47 12 13 2 -22
15 -47 33 -66z m-1937 -34 c7 -61 60 -219 97 -289 32 -61 7 -56 -27 5 -57 100
-128 320 -97 301 6 -4 9 13 7 46 -5 72 11 22 20 -63z m1286 100 c0 -5 -7 -10
-15 -10 -7 0 -18 -8 -24 -17 -5 -10 -12 -15 -16 -11 -8 7 30 48 45 48 6 0 10
-4 10 -10z m1080 -10 c0 -5 -4 -10 -10 -10 -5 0 -10 5 -10 10 0 6 5 10 10 10
6 0 10 -4 10 -10z m-998 -33 c10 -1 14 -5 9 -10 -4 -4 -34 -1 -67 7 l-59 15
50 -5 c28 -4 58 -7 67 -7z m734 -15 c-17 -16 -18 -16 -5 5 7 12 15 20 18 17 3
-2 -3 -12 -13 -22z m601 -69 c27 -49 41 -87 37 -97 -11 -28 -29 -11 -26 24 2
22 -4 40 -17 54 -22 25 -61 87 -61 99 0 25 28 -9 67 -80z m-327 48 c0 -16 -6
-31 -15 -34 -11 -5 -12 -1 -6 16 4 12 6 28 4 35 -3 6 0 12 6 12 6 0 11 -13 11
-29z m-2930 -1 c0 -5 -2 -10 -4 -10 -3 0 -8 5 -11 10 -3 6 -1 10 4 10 6 0 11
-4 11 -10z m1503 -51 c-18 -3 -40 -13 -49 -20 -14 -12 -16 -11 -13 6 4 21 42
34 74 26 16 -4 13 -6 -12 -12z m1177 -74 c0 -65 -6 -75 -28 -53 -15 15 -15 60
0 93 19 42 28 29 28 -40z m-1050 -22 c0 -5 -7 -35 -15 -68 -8 -33 -14 -72 -15
-86 0 -32 -34 -69 -63 -68 -21 1 -21 1 2 8 34 9 47 34 36 67 -12 33 22 154 42
154 7 0 13 -3 13 -7z m927 -25 c-3 -8 -6 -5 -6 6 -1 11 2 17 5 13 3 -3 4 -12
1 -19z m1273 15 c0 -5 -10 -19 -21 -33 l-21 -25 18 33 c18 32 24 38 24 25z
m-215 -63 c-10 -19 -31 -38 -52 -46 -49 -21 -52 -10 -6 19 23 14 46 40 54 59
9 22 15 28 17 16 2 -9 -4 -31 -13 -48z m-155 46 c0 -2 -25 -20 -55 -40 -38
-25 -52 -31 -43 -17 16 25 98 74 98 57z m-900 -46 c0 -5 -4 -10 -10 -10 -5 0
-10 5 -10 10 0 6 5 10 10 10 6 0 10 -4 10 -10z m-6620 -36 c0 -8 -4 -12 -10
-9 -5 3 -10 13 -10 21 0 8 5 12 10 9 6 -3 10 -13 10 -21z m5485 15 c11 -17 -1
-21 -15 -4 -8 9 -8 15 -2 15 6 0 14 -5 17 -11z m1946 -85 c8 -9 8 -14 1 -14
-15 0 -32 34 -31 62 1 21 2 20 9 -5 5 -16 14 -35 21 -43z m1809 26 c0 -5 -2
-10 -4 -10 -3 0 -8 5 -11 10 -3 6 -1 10 4 10 6 0 11 -4 11 -10z m-1624 -46
c-2 -16 -23 -34 -40 -34 -5 0 1 11 14 25 28 29 29 30 26 9z m158 -35 c-3 -5
-10 -6 -16 -3 -7 5 -8 2 -3 -6 5 -8 -6 -25 -31 -49 -22 -20 -69 -68 -106 -106
-36 -39 -99 -101 -139 -140 -49 -46 -38 -32 31 40 104 108 212 230 238 267 13
18 38 16 26 -3z m-204 -14 c0 -7 -140 -145 -147 -145 -5 0 20 29 93 107 35 39
54 52 54 38z m-249 -48 c-8 -8 -11 -7 -11 4 0 20 13 34 18 19 3 -7 -1 -17 -7
-23z m90 -14 c-6 -21 -18 -47 -27 -58 -16 -20 -16 -20 -8 0 4 11 14 39 22 63
18 52 27 49 13 -5z m69 35 c0 -18 -40 -81 -47 -75 -3 3 4 19 16 35 12 17 21
35 21 41 0 6 2 11 5 11 3 0 5 -6 5 -12z m-200 -2 c0 -3 -4 -8 -10 -11 -5 -3
-10 -1 -10 4 0 6 5 11 10 11 6 0 10 -2 10 -4z m710 -6 c12 -8 11 -10 -7 -10
-13 0 -23 5 -23 10 0 13 11 13 30 0z m-666 -77 c-11 -48 -74 -159 -106 -189
l-31 -29 28 42 c36 56 59 98 86 156 24 53 32 60 23 20z m673 -7 c-44 -16 -97
-55 -151 -111 -21 -22 -34 -31 -28 -20 15 29 102 110 137 128 17 9 41 16 55
16 20 0 18 -2 -13 -13z m1378 -4 c-3 -3 -11 0 -18 7 -9 10 -8 11 6 5 10 -3 15
-9 12 -12z m-4918 -9 c33 -43 33 -55 0 -23 -21 19 -37 36 -37 37 0 10 25 0 37
-14z m2727 -54 c-10 -12 -32 -30 -49 -41 -19 -12 -13 -4 15 21 49 44 64 53 34
20z m856 1 c0 -5 -12 -10 -26 -10 -14 0 -34 -5 -46 -11 -11 -6 -22 -8 -25 -5
-7 6 56 34 80 35 9 1 17 -3 17 -9z m-3161 -46 c3 -16 1 -17 -13 -5 -19 16 -21
34 -3 29 6 -3 14 -13 16 -24z m2301 -28 c-5 -15 -10 -42 -10 -61 0 -28 -9 -42
-62 -89 -34 -30 -64 -53 -67 -50 -3 2 20 30 51 62 43 43 58 67 64 97 7 43 23
80 30 72 3 -2 0 -16 -6 -31z m-80 11 c0 -2 -10 -12 -22 -23 l-23 -19 19 23
c18 21 26 27 26 19z m-2870 -11 c0 -3 -4 -8 -10 -11 -5 -3 -10 -1 -10 4 0 6 5
11 10 11 6 0 10 -2 10 -4z m3573 -128 c-5 -129 -19 -170 -84 -240 -44 -47 -42
-38 7 34 39 57 58 132 51 201 -4 43 13 117 26 117 2 0 2 -51 0 -112z m-126 74
c-31 -34 -57 -107 -58 -167 l-2 -60 -6 60 -6 60 -14 -35 c-7 -19 -15 -30 -18
-23 -7 18 21 74 67 131 23 28 44 52 47 52 4 0 -1 -8 -10 -18z m-557 -4 c0 -14
-40 -58 -53 -58 -5 0 1 9 14 21 l24 20 -33 -5 c-19 -3 -58 -20 -87 -38 -57
-34 -68 -51 -16 -24 43 23 48 20 15 -9 -45 -39 -47 -41 -110 -76 -33 -18 -61
-36 -64 -39 -5 -6 -58 -30 -65 -30 -19 0 4 25 53 59 32 21 64 46 71 55 7 9 18
13 24 9 5 -3 7 -2 4 4 -6 10 18 31 107 90 49 33 116 46 116 21z m601 -19 c-5
-13 -10 -19 -10 -12 -1 15 10 45 15 40 3 -2 0 -15 -5 -28z m226 -82 c-31 -40
-66 -82 -78 -93 -12 -10 10 21 50 70 39 49 71 94 71 99 0 6 3 7 7 4 3 -4 -19
-40 -50 -80z m-246 -67 c-6 -101 -10 -122 -34 -162 -44 -76 -108 -121 -185
-131 -44 -5 -72 9 -72 39 0 19 16 18 24 -1 8 -23 76 -19 126 8 70 37 142 162
125 217 -5 16 13 156 20 148 1 -2 -1 -55 -4 -118z m-646 90 c-3 -5 -12 -10
-18 -10 -7 0 -6 4 3 10 19 12 23 12 15 0z m600 -196 c-9 -23 -27 -52 -40 -64
-24 -23 -24 -22 5 31 25 46 30 66 31 134 l2 80 8 -70 c7 -54 5 -79 -6 -111z
m-2348 110 c12 -3 27 -20 34 -37 6 -18 23 -42 37 -53 13 -12 23 -27 21 -33 -3
-7 -19 1 -39 18 -35 31 -61 41 -42 19 13 -17 27 -157 14 -143 -13 15 -42 92
-42 114 0 12 -12 25 -30 33 -42 18 -37 31 9 23 24 -4 42 -2 45 4 11 17 -12 49
-36 54 -13 2 -16 5 -8 6 8 0 25 -2 37 -5z m1630 -77 c-14 -19 -41 -47 -58 -63
-18 -16 -51 -46 -72 -67 -22 -21 -42 -36 -44 -33 -11 10 21 47 80 94 35 27 74
63 88 79 33 41 38 32 6 -10z m-697 -12 c0 -3 -9 -5 -20 -5 -11 0 -20 7 -20 15
0 13 4 14 20 5 11 -6 20 -13 20 -15z m511 -5 c46 -25 11 -58 -146 -141 -55
-28 -104 -56 -109 -60 -13 -12 -29 -11 -22 0 4 5 -21 -7 -54 -26 -54 -32 -58
-37 -42 -49 16 -12 16 -14 -4 -41 -21 -29 -50 -46 -94 -57 -14 -3 -7 3 16 14
22 10 48 28 59 40 18 19 18 20 -1 20 -11 0 -52 -16 -92 -35 -80 -38 -88 -31
-14 12 26 15 50 32 54 39 4 6 54 42 110 79 104 70 203 141 248 181 14 12 34
24 45 27 11 3 21 5 23 6 2 0 12 -4 23 -9z m214 0 c-3 -5 -20 -19 -38 -30 -32
-22 -32 -22 3 9 37 32 45 37 35 21z m-1390 -14 c29 -19 72 -27 143 -26 34 1
62 -3 62 -8 0 -5 19 -33 41 -62 l42 -52 -28 4 c-23 2 -31 10 -38 37 -11 46
-44 71 -82 64 -35 -6 -79 -49 -71 -69 10 -26 -19 -14 -60 25 -23 21 -55 48
-72 59 -29 21 -31 22 -60 5 -38 -22 -55 -8 -22 17 30 23 116 27 145 6z m-5535
-31 c0 -8 -4 -15 -9 -15 -13 0 -22 16 -14 24 11 11 23 6 23 -9z m7418 -15 c-7
-10 -14 -17 -17 -15 -4 4 18 35 25 35 2 0 -1 -9 -8 -20z m-2952 -32 c4 4 2 -1
-5 -11 -11 -14 -16 -15 -22 -5 -13 20 -10 32 4 19 8 -6 18 -7 23 -3z m2214
-35 c-36 -59 -124 -159 -153 -175 -19 -9 43 63 105 125 10 10 30 36 43 58 14
21 27 39 30 39 3 0 -8 -21 -25 -47z m-1012 3 c3 -13 -1 -17 -14 -14 -11 2 -20
11 -22 22 -3 13 1 17 14 14 11 -2 20 -11 22 -22z m-219 -5 c9 -6 10 -11 2 -15
-14 -9 -51 2 -51 15 0 11 30 12 49 0z m1855 -110 c5 -7 28 -26 53 -41 52 -33
43 -45 -28 -35 -61 9 -109 45 -109 83 0 26 1 26 18 -8 12 -24 28 -39 52 -46
43 -15 47 -11 21 15 -21 21 -41 81 -40 121 0 15 6 5 13 -25 7 -28 16 -57 20
-64z m-1994 68 c0 -6 -4 -7 -10 -4 -5 3 -10 11 -10 16 0 6 5 7 10 4 6 -3 10
-11 10 -16z m135 -157 c-2 -2 -20 4 -39 13 -43 20 -86 69 -86 95 0 14 17 3 64
-43 35 -34 63 -64 61 -65z m495 96 c0 -13 -36 -9 -49 5 -6 8 -8 17 -5 20 8 7
54 -14 54 -25z m-550 12 c0 -5 -7 -10 -15 -10 -8 0 -15 5 -15 10 0 6 7 10 15
10 8 0 15 -4 15 -10z m637 -25 c-16 -14 -33 -22 -39 -19 -6 4 3 14 23 24 46
24 49 23 16 -5z m1148 -17 c17 -7 16 -8 -5 -3 -14 2 -47 5 -75 5 -36 0 -46 3
-35 10 16 10 81 3 115 -12z m-1377 -7 c3 -8 -1 -12 -9 -9 -7 2 -15 10 -17 17
-3 8 1 12 9 9 7 -2 15 -10 17 -17z m-1466 -23 c-6 -6 -15 -8 -19 -4 -4 4 -1
11 7 16 19 12 27 3 12 -12z m-92 2 c0 -5 -4 -10 -10 -10 -5 0 -10 5 -10 10 0
6 5 10 10 10 6 0 10 -4 10 -10z m-3980 -15 c0 -8 -2 -15 -4 -15 -2 0 -6 7 -10
15 -3 8 -1 15 4 15 6 0 10 -7 10 -15z m8830 -21 c0 -8 -4 -12 -10 -9 -5 3 -10
10 -10 16 0 5 5 9 10 9 6 0 10 -7 10 -16z m-1898 -44 c21 -6 40 -16 44 -21 4
-8 0 -7 -14 0 -38 20 -152 13 -209 -13 -54 -26 -133 -96 -133 -120 0 -7 -7
-29 -15 -47 l-16 -34 7 35 c28 148 185 242 336 200z m-2989 -19 c-3 -12 -11
-17 -19 -14 -11 4 -12 9 -3 19 16 20 28 17 22 -5z m2932 -30 c-79 -16 -155
-52 -186 -87 -9 -11 -26 -37 -38 -59 -14 -25 -19 -31 -15 -15 24 98 156 179
289 178 17 0 -6 -7 -50 -17z m-6550 -11 c3 -5 1 -10 -4 -10 -6 0 -11 5 -11 10
0 6 2 10 4 10 3 0 8 -4 11 -10z m3865 -30 c0 -5 -4 -10 -9 -10 -6 0 -13 5 -16
10 -3 6 1 10 9 10 9 0 16 -4 16 -10z m2306 -57 c-18 -38 -46 -103 -61 -146
-15 -42 -42 -101 -61 -129 -18 -29 -31 -55 -28 -57 2 -2 36 18 76 45 65 44
128 79 103 56 -17 -15 -266 -176 -326 -210 -58 -33 -101 -44 -65 -17 11 8 18
16 15 17 -2 2 -13 8 -24 14 -11 6 -24 26 -29 45 -6 19 -13 36 -16 39 -4 3 -10
17 -13 32 -8 31 10 54 61 75 30 13 82 9 68 -5 -3 -3 3 -11 14 -19 22 -16 26
-53 8 -71 -15 -15 -28 -15 -28 -1 0 17 -27 39 -47 39 -16 -1 -16 -2 -2 -13 9
-7 13 -21 10 -35 l-6 -23 -22 21 -23 21 0 -26 c0 -47 17 -65 61 -65 22 0 50 5
62 11 77 41 149 128 180 219 22 66 113 250 122 250 3 0 -10 -30 -29 -67z
m-736 34 c0 -15 -10 -28 -35 -47 l-20 -15 20 24 20 23 -35 -7 c-19 -4 -62 -18
-94 -31 -96 -39 -98 -26 -3 19 90 43 147 56 147 34z m73 -47 c-8 -28 -71 -80
-143 -117 -33 -18 -60 -30 -60 -28 0 1 37 30 83 63 45 33 91 69 101 81 24 26
25 26 19 1z m617 16 c0 -9 -112 -216 -116 -216 -7 0 24 70 62 140 l36 65 -37
-35 c-21 -19 -50 -53 -66 -74 -29 -39 -38 -42 -19 -6 11 20 -29 1 -216 -101
-74 -41 -84 -44 -84 -31 0 4 26 22 58 40 31 18 109 65 172 104 181 112 210
127 210 114z m380 -11 c0 -8 -9 -15 -21 -15 -11 0 -30 -5 -41 -11 -16 -8 -19
-8 -13 1 6 9 57 37 73 40 1 0 2 -7 2 -15z m-2630 -53 c0 -13 -12 -22 -22 -16
-10 6 -1 24 13 24 5 0 9 -4 9 -8z m1305 -32 c-28 -12 -47 -12 -40 0 3 6 18 10
33 9 24 0 25 -1 7 -9z m-1200 -21 c4 -6 5 -13 2 -16 -8 -7 -47 7 -47 18 0 13
37 11 45 -2z m-246 -12 c-2 -1 -12 -9 -21 -16 -15 -12 -18 -11 -18 3 0 10 8
16 22 16 12 0 19 -1 17 -3z m436 -7 c-3 -5 -11 -10 -16 -10 -6 0 -7 5 -4 10 3
6 11 10 16 10 6 0 7 -4 4 -10z m-590 -10 c3 -5 1 -10 -4 -10 -6 0 -11 5 -11
10 0 6 2 10 4 10 3 0 8 -4 11 -10z m-55 -16 c0 -8 -5 -12 -10 -9 -6 4 -8 11
-5 16 9 14 15 11 15 -7z m-3253 -56 c-3 -8 -6 -5 -6 6 -1 11 2 17 5 13 3 -3 4
-12 1 -19z m3813 12 c0 -5 -8 -10 -17 -10 -15 0 -16 2 -3 10 19 12 20 12 20 0z
m-225 -10 c3 -5 1 -10 -4 -10 -6 0 -11 5 -11 10 0 6 2 10 4 10 3 0 8 -4 11
-10z m1764 -142 c-1 -31 -1 -31 -8 -8 -5 14 -6 28 -4 33 9 15 13 6 12 -25z
m-8 -96 l42 -57 -37 34 c-20 19 -36 39 -36 44 0 4 -7 15 -15 23 -8 9 -15 27
-14 42 l1 27 8 -28 c5 -16 28 -54 51 -85z m-1546 48 c3 -5 -1 -10 -9 -10 -9 0
-16 5 -16 10 0 6 4 10 9 10 6 0 13 -4 16 -10z m152 -17 c-8 -7 -37 9 -31 19 3
5 12 4 20 -3 8 -6 13 -14 11 -16z m1310 -6 c17 -9 42 -31 54 -49 l22 -33 -34
32 c-37 34 -95 63 -129 63 -12 0 -19 4 -16 9 7 11 61 0 103 -22z m178 -47 c27
-17 38 -19 55 -10 11 6 20 8 20 6 0 -3 -12 -12 -27 -20 -31 -15 -31 -15 -94
47 -22 21 -39 43 -39 50 0 7 11 -2 25 -20 14 -17 41 -41 60 -53z m3040 70 c3
-5 1 -10 -4 -10 -6 0 -11 5 -11 10 0 6 2 10 4 10 3 0 8 -4 11 -10z m-5451 -16
c25 -9 19 -24 -9 -24 -16 0 -25 6 -25 15 0 16 9 19 34 9z m865 -59 l0 -20 -9
20 c-5 11 -9 29 -9 40 l0 20 9 -20 c5 -11 9 -29 9 -40z m1249 38 c-15 -2 -42
-2 -60 0 -18 2 -6 4 27 4 33 0 48 -2 33 -4z m-1328 -13 c0 -5 -4 -10 -10 -10
-5 0 -10 5 -10 10 0 6 5 10 10 10 6 0 10 -4 10 -10z m1210 2 c-29 -13 -112
-97 -136 -137 -13 -22 -30 -61 -39 -85 -19 -57 -36 -90 -46 -90 -11 0 46 164
70 203 38 61 108 117 146 116 15 0 16 -2 5 -7z m-2240 -22 c-19 -13 -30 -13
-30 0 0 6 10 10 23 10 18 0 19 -2 7 -10z m1910 0 c0 -5 -4 -10 -10 -10 -5 0
-10 5 -10 10 0 6 5 10 10 10 6 0 10 -4 10 -10z m-1099 -91 c7 -4 4 -9 -6 -13
-12 -4 -20 4 -31 30 -8 19 -12 40 -8 46 4 6 13 -4 21 -23 8 -18 19 -36 24 -40z
m1652 55 c47 -16 83 -44 56 -44 -8 1 -25 7 -39 15 -14 8 -50 14 -80 15 -59 0
-86 -12 -170 -78 -38 -29 -35 -25 16 26 81 78 134 95 217 66z m-183 -8 c0 -3
-4 -8 -10 -11 -5 -3 -10 -1 -10 4 0 6 5 11 10 11 6 0 10 -2 10 -4z m-212 -29
c-15 -12 -43 -54 -61 -92 -19 -39 -43 -77 -53 -85 -17 -14 -18 -13 -6 1 14 19
72 136 72 146 0 4 -17 -9 -37 -28 -21 -18 -32 -27 -25 -19 21 25 13 29 -25 14
-36 -14 -37 -14 -18 2 24 19 155 84 170 84 5 -1 -2 -11 -17 -23z m-512 -24
c-10 -10 -19 5 -10 18 6 11 8 11 12 0 2 -7 1 -15 -2 -18z m879 7 c14 -6 2 -9
-40 -9 -42 0 -54 3 -40 9 11 5 29 9 40 9 11 0 29 -4 40 -9z m-1352 -24 c6 -16
-2 -28 -14 -20 -12 7 -11 34 0 34 5 0 11 -6 14 -14z m77 -56 c0 -5 -5 -10 -11
-10 -5 0 -7 5 -4 10 3 6 8 10 11 10 2 0 4 -4 4 -10z m1245 1 c-11 -4 -33 -11
-50 -15 l-30 -6 25 15 c14 8 36 14 50 14 23 0 23 -1 5 -8z m-5755 -11 c0 -5
-2 -10 -4 -10 -3 0 -8 5 -11 10 -3 6 -1 10 4 10 6 0 11 -4 11 -10z m4990 -30
c0 -5 -4 -10 -10 -10 -5 0 -10 5 -10 10 0 6 5 10 10 10 6 0 10 -4 10 -10z
m141 -19 c20 -16 22 -22 12 -42 -11 -24 -12 -24 -12 -2 -1 12 -5 24 -10 27
-15 9 -71 -15 -71 -30 0 -24 29 -73 49 -84 24 -12 86 -13 128 -1 45 13 33 -14
-13 -29 -64 -22 -138 8 -172 68 -27 49 -27 60 0 89 26 28 58 29 89 4z m-196
-62 c17 -32 15 -49 -2 -27 -13 16 -26 58 -19 58 3 0 13 -14 21 -31z m-5375
-19 c0 -5 -2 -10 -4 -10 -3 0 -8 5 -11 10 -3 6 -1 10 4 10 6 0 11 -4 11 -10z
m3937 -62 c-3 -8 -6 -5 -6 6 -1 11 2 17 5 13 3 -3 4 -12 1 -19z m5228 -208 c3
-5 1 -10 -4 -10 -6 0 -11 5 -11 10 0 6 2 10 4 10 3 0 8 -4 11 -10z m-378 -154
c-10 -25 -37 -19 -37 7 0 13 3 27 7 31 11 11 36 -21 30 -38z m485 -208 c-8 -8
-9 -4 -5 13 4 13 8 18 11 10 2 -7 -1 -18 -6 -23z m-622 2 c0 -5 -2 -10 -4 -10
-3 0 -8 5 -11 10 -3 6 -1 10 4 10 6 0 11 -4 11 -10z m67 -22 c-3 -8 -6 -5 -6
6 -1 11 2 17 5 13 3 -3 4 -12 1 -19z m643 -4 c0 -8 -4 -12 -10 -9 -5 3 -10 10
-10 16 0 5 5 9 10 9 6 0 10 -7 10 -16z m-4308 -24 c32 0 78 -53 78 -92 0 -83
-77 -133 -163 -106 -105 33 -94 181 14 201 13 2 30 3 37 1 8 -2 23 -4 34 -4z
m771 -10 c4 -3 5 -14 1 -24 -6 -15 -8 -15 -21 4 -17 23 -55 26 -73 5 -17 -21
-6 -43 27 -50 72 -16 90 -34 79 -81 -9 -34 -66 -58 -113 -47 -19 4 -34 11 -34
16 1 4 1 17 2 30 l0 22 9 -22 c11 -26 56 -41 79 -26 9 6 17 20 19 31 3 18 -4
23 -43 33 -56 14 -80 44 -66 82 15 39 102 56 134 27z m575 4 c6 -2 12 -15 12
-30 l0 -27 -25 27 c-32 34 -77 35 -110 1 -56 -55 -16 -160 58 -153 26 2 33 8
35 30 2 19 -2 28 -15 31 -10 3 2 5 27 6 l46 1 -4 -35 c-3 -27 -9 -36 -28 -40
-13 -3 -35 -7 -49 -10 -39 -8 -102 13 -124 42 -29 36 -28 94 2 129 31 36 108
49 175 28z m-3279 -21 c-1 -17 -3 -21 -6 -10 -3 11 -14 17 -34 17 l-29 0 0
-84 c0 -72 3 -85 18 -89 9 -3 -8 -5 -38 -5 -30 0 -49 2 -42 5 8 3 12 31 12 89
0 82 0 84 -25 84 -13 0 -29 -8 -34 -17 -9 -15 -10 -14 -11 10 l0 27 95 0 95 0
-1 -27z m161 18 c0 -5 -7 -11 -15 -15 -9 -3 -15 -18 -15 -36 0 -29 1 -30 50
-30 l50 0 0 35 c0 19 -4 35 -10 35 -5 0 -10 5 -10 10 0 6 24 10 53 10 45 -1
50 -2 35 -14 -15 -11 -18 -29 -18 -94 0 -68 3 -81 18 -85 9 -3 -8 -5 -38 -5
-30 0 -49 2 -42 5 7 3 12 23 12 49 l0 45 -47 -3 c-47 -3 -48 -4 -51 -38 -3
-24 2 -38 14 -47 15 -11 10 -13 -37 -12 -30 1 -46 3 -36 6 14 4 17 17 17 89 0
68 -3 84 -15 84 -8 0 -15 5 -15 10 0 6 23 10 50 10 28 0 50 -4 50 -9z m360
-18 c-1 -24 -2 -25 -11 -10 -6 11 -22 17 -44 17 -33 0 -35 -2 -35 -35 0 -32 2
-35 30 -35 17 0 30 5 30 10 0 6 5 10 10 10 6 0 10 -13 10 -30 0 -16 -4 -30
-10 -30 -5 0 -10 5 -10 10 0 6 -14 10 -31 10 -29 0 -30 -2 -27 -37 3 -34 6
-38 32 -41 22 -3 34 3 48 20 l18 23 0 -27 0 -28 -82 0 c-64 0 -79 3 -70 12 7
7 12 42 12 86 0 60 -4 78 -17 88 -16 11 -6 13 65 14 l82 0 0 -27z m282 14 c-8
-9 -7 -28 2 -67 l13 -55 32 68 c17 37 35 67 40 67 5 0 19 -27 31 -60 12 -33
26 -62 30 -65 3 -2 12 18 19 46 10 39 10 53 1 64 -11 13 -7 15 25 15 36 0 37
-1 22 -17 -8 -10 -26 -55 -39 -101 -13 -46 -27 -84 -33 -84 -11 -1 -26 24 -54
92 l-19 45 -33 -73 c-18 -40 -37 -71 -43 -69 -6 2 -20 42 -31 89 -11 47 -26
93 -34 102 -12 14 -9 16 34 16 37 0 45 -3 37 -13z m378 4 c0 -5 -7 -11 -15
-15 -24 -9 -21 -151 3 -165 13 -8 4 -10 -38 -10 -30 1 -47 3 -37 6 14 4 17 17
17 85 0 65 -3 83 -17 94 -16 12 -11 13 35 14 28 0 52 -4 52 -9z m208 -18 c4
-26 -13 -31 -22 -7 -4 10 -16 14 -38 12 -27 -2 -33 -7 -33 -28 0 -20 6 -25 39
-32 51 -11 66 -24 66 -58 0 -36 -41 -70 -86 -70 -51 0 -64 9 -64 44 l0 31 13
-25 c10 -20 20 -25 52 -25 36 0 40 3 43 27 3 23 -1 28 -25 33 -55 11 -78 29
-81 62 -4 43 28 65 88 61 38 -3 45 -6 48 -25z m288 4 c40 -35 38 -98 -5 -140
-29 -29 -37 -32 -109 -35 l-77 -4 3 92 c3 69 0 95 -10 101 -7 5 25 9 79 9 82
0 95 -3 119 -23z m510 -49 l37 -73 36 73 c35 72 36 72 76 72 32 -1 36 -3 23
-11 -15 -8 -18 -24 -18 -89 0 -65 3 -81 18 -89 13 -8 4 -10 -38 -11 -38 0 -50
3 -40 10 10 6 15 30 17 75 1 36 -1 64 -5 61 -4 -2 -23 -36 -42 -75 -18 -39
-37 -71 -42 -71 -4 0 -26 35 -47 78 l-40 77 -1 -72 c0 -60 3 -72 18 -76 9 -3
-3 -5 -28 -6 -35 0 -41 2 -27 10 14 8 17 24 17 89 0 65 -3 81 -17 89 -14 8 -9
10 24 11 l43 0 36 -72z m765 -15 c22 -49 47 -94 56 -100 14 -11 8 -13 -38 -13
-34 0 -49 3 -40 9 8 5 11 16 6 30 -5 17 -14 21 -50 21 -34 0 -44 -4 -48 -20
-3 -12 1 -24 11 -30 13 -7 7 -9 -25 -10 -42 0 -42 1 -25 18 10 10 34 55 53
100 19 45 40 82 47 82 7 0 31 -39 53 -87z m583 1 c22 -48 46 -93 54 -100 11
-12 6 -14 -40 -14 -33 0 -48 3 -39 9 8 5 11 16 6 30 -6 19 -13 22 -48 19 -32
-2 -43 -8 -45 -22 -2 -10 2 -22 10 -27 8 -6 -1 -9 -27 -9 -22 0 -35 4 -28 8
11 7 35 56 77 157 8 19 21 35 28 35 7 0 31 -39 52 -86z m-6554 -4 c0 -5 -2
-10 -4 -10 -3 0 -8 5 -11 10 -3 6 -1 10 4 10 6 0 11 -4 11 -10z m2640 -40 c0
-17 -7 -20 -40 -20 -27 0 -40 4 -40 13 0 21 11 27 47 27 26 0 33 -4 33 -20z
m4248 8 c-5 -15 -88 -24 -88 -10 0 16 13 22 53 22 26 0 37 -4 35 -12z m-6498
-419 c0 -6 -4 -7 -10 -4 -5 3 -10 11 -10 16 0 6 5 7 10 4 6 -3 10 -11 10 -16z
m6935 -29 c3 -5 1 -10 -4 -10 -6 0 -11 5 -11 10 0 6 2 10 4 10 3 0 8 -4 11
-10z m-6359 -117 c-10 -10 -19 5 -10 18 6 11 8 11 12 0 2 -7 1 -15 -2 -18z
m-939 -45 c-3 -8 -6 -5 -6 6 -1 11 2 17 5 13 3 -3 4 -12 1 -19z m7020 -10 c-3
-8 -6 -5 -6 6 -1 11 2 17 5 13 3 -3 4 -12 1 -19z m-4197 -20 c0 -17 -3 -18
-14 -8 -8 6 -12 18 -9 26 7 19 23 7 23 -18z m4725 -8 c3 -5 1 -10 -4 -10 -6 0
-11 5 -11 10 0 6 2 10 4 10 3 0 8 -4 11 -10z"/>
<path d="M4628 9187 c-42 -12 -46 -18 -23 -37 8 -7 15 -17 15 -22 0 -6 20 -39
45 -75 25 -35 45 -69 45 -75 0 -9 4 -8 13 0 8 9 12 49 13 117 l1 105 -36 -1
c-20 -1 -53 -6 -73 -12z"/>
<path d="M4574 9078 c-5 -8 -2 -9 9 -5 9 3 19 2 22 -3 3 -4 -1 -11 -7 -13 -7
-3 -3 -6 10 -6 20 -1 21 1 10 19 -14 22 -33 26 -44 8z"/>
<path d="M4435 9000 l-20 -9 20 0 c11 0 27 4 35 9 13 9 13 10 0 9 -8 0 -24 -4
-35 -9z"/>
<path d="M4374 8975 c-18 -13 -18 -14 4 -8 12 3 25 9 28 14 8 14 -10 11 -32
-6z"/>
<path d="M4540 8971 c-23 -6 -26 -12 -21 -41 1 -10 33 -2 42 12 3 5 16 11 29
13 13 2 28 9 34 15 12 12 -43 12 -84 1z"/>
<path d="M4413 8948 c-24 -5 -43 -13 -43 -17 0 -4 -22 -6 -48 -4 -45 3 -51 1
-102 -46 -30 -27 -51 -53 -47 -57 4 -5 11 -3 15 3 12 19 165 63 225 64 44 1
57 5 53 15 -3 8 0 11 10 7 10 -4 14 2 14 21 0 29 -7 30 -77 14z"/>
<path d="M4353 8853 c9 -2 25 -2 35 0 9 3 1 5 -18 5 -19 0 -27 -2 -17 -5z"/>
<path d="M4487 8751 c-64 -8 -60 -25 8 -29 50 -3 55 -1 55 18 0 11 -3 19 -7
18 -5 0 -29 -4 -56 -7z"/>
<path d="M4250 8743 c-103 -18 -240 -81 -240 -111 0 -7 -4 -10 -10 -7 -5 3
-49 -21 -97 -53 -49 -33 -99 -63 -112 -67 -27 -8 -121 -64 -121 -71 0 -3 8 -1
18 4 79 42 180 75 264 87 33 5 49 13 53 25 3 10 26 37 50 59 25 23 45 46 45
52 0 7 9 9 21 6 11 -3 53 3 92 13 40 10 103 24 140 30 89 16 84 35 -9 36 -38
1 -80 0 -94 -3z"/>
<path d="M4050 8720 c-9 -6 -10 -10 -3 -10 6 0 15 5 18 10 8 12 4 12 -15 0z"/>
<path d="M3999 8689 l-24 -20 28 17 c15 9 27 18 27 20 0 8 -8 4 -31 -17z"/>
<path d="M4407 8529 c-10 -6 -50 -22 -90 -36 -79 -27 -114 -49 -51 -32 56 16
133 47 158 64 23 17 10 20 -17 4z"/>
<path d="M4520 8494 c0 -8 4 -23 9 -33 5 -9 6 -23 2 -29 -5 -9 -12 -5 -21 13
-7 14 -16 25 -20 25 -3 0 -23 -18 -44 -39 l-38 -39 23 -40 c24 -41 307 -402
315 -402 5 0 -1 179 -7 200 -2 8 -12 23 -21 33 -9 11 -33 47 -54 81 -21 33
-53 79 -71 102 -54 68 -37 61 32 -12 70 -74 73 -61 10 41 -52 84 -51 82 -32
66 23 -18 21 -2 -3 29 -11 14 -20 19 -20 12 0 -9 -5 -10 -19 -2 -28 14 -41 13
-41 -6z"/>
<path d="M4190 8278 c-19 -16 -26 -26 -15 -20 18 9 64 53 54 52 -2 -1 -20 -15
-39 -32z"/>
<path d="M3395 8199 c-60 -6 -94 -14 -105 -25 -14 -15 -12 -16 15 -11 17 3 64
11 105 18 41 7 82 16 90 20 18 10 24 10 -105 -2z"/>
<path d="M4030 8185 c-14 -8 -20 -14 -14 -15 5 0 19 7 30 15 24 18 16 19 -16
0z"/>
<path d="M4840 8183 c0 -5 22 -39 48 -74 27 -35 72 -100 102 -144 99 -149 259
-372 277 -386 13 -11 13 -8 -3 16 -72 108 -84 126 -84 132 0 14 -109 177 -201
298 -97 129 -139 177 -139 158z"/>
<path d="M4471 8121 c-10 -7 -12 -25 -7 -82 4 -41 6 -90 6 -108 0 -35 -24 -83
-38 -78 -5 1 -31 -10 -59 -26 -38 -20 -50 -32 -46 -45 2 -10 -5 -26 -16 -36
-12 -11 -21 -25 -21 -31 0 -7 -6 -15 -14 -18 -8 -3 -22 -29 -31 -58 -17 -49
-16 -112 1 -175 4 -14 -4 -31 -22 -53 -19 -23 -24 -35 -15 -40 6 -4 11 -16 10
-27 -4 -40 1 -71 16 -90 13 -17 14 -13 10 46 -4 57 -3 60 5 27 6 -21 15 -47
20 -58 12 -22 35 -26 27 -4 -4 8 -2 17 3 20 4 3 13 -10 20 -29 17 -53 72 -116
121 -137 24 -11 52 -27 61 -36 17 -15 18 -15 18 5 0 27 8 28 26 5 18 -24 17
-85 -1 -109 -15 -19 -15 -19 -9 1 5 18 4 18 -6 2 -6 -9 -8 -22 -4 -29 4 -7 3
-8 -4 -4 -7 4 -21 -10 -34 -34 -20 -36 -102 -100 -127 -100 -21 0 -156 -123
-203 -186 -29 -38 -70 -87 -91 -109 -20 -22 -56 -71 -79 -110 -23 -38 -47 -73
-53 -77 -6 -5 -6 -8 3 -8 6 0 12 -12 12 -26 0 -21 36 -62 170 -195 94 -93 175
-169 180 -169 6 0 10 8 10 18 1 15 2 15 13 1 10 -13 42 -17 163 -23 150 -6
151 -6 162 16 l11 23 0 -22 c1 -24 4 -25 105 -43 36 -6 63 -6 70 -1 12 10 50
-11 40 -22 -3 -3 4 -8 16 -12 14 -5 28 -1 42 12 12 10 18 12 14 5 -4 -7 -1
-15 8 -18 9 -3 14 -10 11 -15 -3 -4 12 -17 34 -28 l39 -20 11 37 11 37 -4 -42
c-3 -28 1 -46 10 -54 8 -7 16 -10 17 -8 2 2 11 47 20 99 22 121 54 259 77 331
16 49 16 62 5 105 l-14 49 0 -40 c-1 -36 -34 -189 -63 -290 l-12 -40 -11 85
-11 85 -15 -65 -16 -65 -13 63 c-12 59 -23 77 -33 50 -2 -7 -11 0 -19 17 -9
17 -25 39 -37 49 -12 11 -21 23 -21 28 0 5 -12 20 -27 33 -23 20 -25 24 -10
25 10 0 35 -9 56 -19 51 -27 69 -15 46 30 -10 19 -29 46 -43 61 -31 34 -22 48
18 25 16 -10 31 -13 34 -8 3 5 15 7 26 4 28 -7 26 20 -3 36 -59 32 -97 147
-64 196 8 11 17 29 20 40 6 16 3 15 -13 -5 -11 -14 -20 -30 -20 -36 0 -6 -7
-17 -15 -24 -12 -10 -14 -24 -9 -60 7 -56 -1 -65 -66 -65 -25 -1 -54 -4 -65
-9 -16 -6 -15 -3 5 13 14 11 39 23 56 27 29 5 31 9 30 43 0 27 8 47 31 76 42
52 49 86 29 129 -11 24 -13 41 -7 63 7 22 5 35 -5 44 -10 11 -11 28 -5 73 5
33 6 67 4 76 -3 10 11 33 34 56 54 55 73 85 73 115 0 32 57 108 87 115 14 4
20 11 16 18 -4 6 -8 16 -9 21 -2 14 -77 132 -172 271 -92 136 -160 217 -163
194 0 -8 -2 -73 -4 -145 -1 -71 -3 -161 -4 -199 -1 -49 -4 -67 -12 -59 -6 6
-11 66 -13 141 -2 91 -6 135 -16 147 -10 12 -10 19 -2 27 17 17 15 120 -3 144
-8 10 -15 25 -15 33 0 17 -85 124 -147 182 -51 50 -80 64 -102 50z m119 -909
c0 -13 -3 -12 -15 4 -19 25 -19 40 0 24 8 -7 15 -20 15 -28z m84 -59 c29 -24
46 -46 46 -59 0 -12 11 -32 25 -45 13 -13 25 -28 25 -34 0 -5 11 -34 25 -64
14 -29 27 -69 29 -88 l5 -34 -26 16 c-26 17 -26 17 -19 -9 5 -19 2 -28 -9 -32
-24 -10 -54 23 -50 54 1 15 -2 33 -7 40 -8 9 -5 12 11 12 11 0 21 4 21 9 0 9
-60 111 -66 111 -1 0 -10 -24 -20 -52 -15 -48 -86 -158 -101 -158 -3 0 6 15
19 33 33 42 78 138 84 179 5 27 -1 43 -30 85 -57 84 -41 99 38 36z m-434 -543
c0 -5 -4 -10 -10 -10 -5 0 -10 5 -10 10 0 6 5 10 10 10 6 0 10 -4 10 -10z
m494 -141 c20 0 21 -1 1 -9 -11 -5 -37 -9 -57 -9 -34 -1 -40 -5 -71 -58 -18
-32 -43 -62 -55 -68 -12 -5 -22 -13 -22 -18 0 -4 5 -5 10 -2 12 7 12 3 4 -19
-6 -16 -27 -24 -21 -8 1 4 -2 8 -8 9 -14 4 -26 -47 -20 -83 3 -20 14 -35 30
-42 36 -17 34 -56 -4 -72 -31 -12 -65 -45 -74 -70 -4 -11 -6 -9 -6 5 -1 11 11
33 25 49 22 23 24 30 13 37 -8 5 -17 9 -21 9 -5 0 -8 5 -8 11 0 6 -9 22 -20
36 -31 40 -26 74 18 116 22 21 54 46 72 55 19 9 44 35 57 57 13 22 26 45 30
51 15 21 49 34 77 29 16 -3 38 -5 50 -6z m-34 -219 c0 -5 -4 -10 -10 -10 -5 0
-10 5 -10 10 0 6 5 10 10 10 6 0 10 -4 10 -10z m232 -77 c29 -28 48 -56 48
-69 0 -12 4 -24 8 -26 5 -1 12 -15 16 -30 5 -21 3 -26 -7 -22 -8 3 -14 11 -14
18 0 14 -70 120 -102 154 -42 44 4 22 51 -25z m-114 1 c33 -19 50 -39 68 -77
13 -29 24 -62 24 -74 0 -12 5 -23 10 -25 6 -2 13 -21 15 -43 l5 -40 -14 40
c-8 22 -15 32 -15 23 -1 -10 -5 -18 -11 -18 -5 0 -10 -7 -10 -16 0 -38 -18 1
-25 53 -9 74 -27 108 -84 161 -54 50 -35 58 37 16z m-448 -125 c0 -6 -7 -8
-16 -5 -8 3 -25 1 -37 -6 -20 -10 -21 -10 -8 5 15 19 61 23 61 6z m720 -90 c0
-11 -4 -18 -10 -14 -5 3 -7 12 -3 20 7 21 13 19 13 -6z"/>
<path d="M4495 6140 c3 -5 15 -10 26 -10 10 0 19 5 19 10 0 6 -12 10 -26 10
-14 0 -23 -4 -19 -10z"/>
<path d="M3118 8043 c7 -3 16 -2 19 1 4 3 -2 6 -13 5 -11 0 -14 -3 -6 -6z"/>
<path d="M3440 7728 c-14 -6 -38 -14 -55 -18 -25 -6 -27 -8 -12 -15 17 -7 82
19 93 38 6 9 5 8 -26 -5z"/>
<path d="M3270 7641 c0 -12 5 -21 10 -21 6 0 10 6 10 14 0 8 -4 18 -10 21 -5
3 -10 -3 -10 -14z"/>
<path d="M5300 7521 c0 -6 4 -13 10 -16 6 -3 7 1 4 9 -7 18 -14 21 -14 7z"/>
<path d="M1674 7389 c-18 -20 -18 -20 11 -14 71 16 105 26 105 30 0 3 -22 5
-48 5 -37 0 -54 -5 -68 -21z"/>
<path d="M3986 7355 c-3 -8 2 -19 11 -23 12 -7 15 -18 10 -46 -4 -27 0 -46 15
-71 18 -31 24 -35 63 -35 59 0 82 -11 132 -59 53 -51 71 -86 74 -139 2 -22 6
-39 10 -37 13 9 19 87 9 125 -11 41 -68 100 -98 100 -29 1 -89 33 -132 73 -31
29 -42 47 -43 72 -1 18 -5 31 -9 28 -5 -2 -8 3 -8 11 0 20 -26 21 -34 1z"/>
<path d="M2224 7114 c3 -9 6 -20 6 -25 0 -5 18 0 40 11 22 11 40 23 40 25 0 3
-21 5 -46 5 -38 0 -45 -3 -40 -16z"/>
<path d="M4420 7056 c22 -30 32 -56 32 -80 0 -45 12 -53 32 -24 33 47 8 101
-61 137 -35 18 -36 13 -3 -33z"/>
<path d="M2358 7083 c-37 -4 -48 -18 -30 -38 5 -6 24 -37 42 -70 28 -51 30
-57 11 -40 -12 11 -30 32 -39 47 -19 32 -32 39 -62 31 -16 -4 -21 -12 -18 -34
3 -28 -28 -69 -53 -69 -17 0 -9 -16 110 -196 106 -160 226 -376 215 -386 -2
-3 2 -11 11 -18 8 -7 15 -18 15 -25 0 -11 92 -133 109 -145 4 -3 10 -12 13
-20 3 -8 36 -55 73 -105 66 -89 67 -90 118 -97 65 -8 187 -10 187 -3 0 3 -7
18 -16 33 -14 22 -11 21 10 -5 25 -30 56 -44 56 -26 0 4 -15 23 -34 43 -64 65
-344 510 -322 510 4 0 -11 28 -33 63 -59 95 -179 309 -244 437 -32 63 -64 115
-70 116 -7 0 -29 -1 -49 -3z m29 -363 c75 -105 259 -384 288 -435 139 -249
103 -227 -66 40 -45 72 -126 196 -181 277 -108 161 -117 178 -97 178 8 0 33
-27 56 -60z"/>
<path d="M3403 7003 c-9 -3 -8 -11 3 -29 22 -33 46 -32 41 3 -3 25 -19 35 -44
26z"/>
<path d="M3293 6941 c-27 -21 -61 -53 -76 -71 -33 -39 -47 -35 -16 4 12 15 19
29 16 32 -3 3 -26 -30 -52 -73 -26 -43 -56 -89 -66 -102 -21 -26 -25 -51 -9
-51 6 0 20 21 30 46 22 50 60 108 66 101 3 -3 -4 -20 -14 -38 -26 -44 -54
-134 -50 -156 2 -10 18 14 40 58 21 41 49 88 63 104 25 29 25 29 -4 -25 -16
-30 -32 -72 -36 -93 -4 -27 -20 -52 -51 -84 -49 -48 -53 -74 -15 -83 15 -3 28
-16 34 -33 12 -37 4 -44 -27 -23 -35 22 -39 21 -58 -23 -25 -52 -23 -68 13
-98 27 -23 30 -31 24 -60 -4 -22 -2 -40 7 -50 10 -13 9 -18 -7 -29 -10 -8 -27
-14 -36 -14 -10 0 -21 -4 -24 -10 -7 -12 -55 -14 -55 -2 0 4 -10 13 -22 21
l-22 14 19 -29 c10 -16 29 -45 42 -65 13 -19 64 -70 113 -113 l89 -77 147 -5
c81 -3 151 -7 154 -9 4 -3 10 -18 13 -34 8 -39 108 -145 149 -158 32 -11 32
-11 -20 -12 -51 -1 -112 20 -112 38 0 5 -42 23 -92 40 -117 38 -174 53 -162
42 116 -102 179 -143 323 -205 102 -44 185 -68 289 -81 l52 -7 0 51 c0 44 -3
53 -22 61 l-23 9 23 0 c18 1 22 7 22 36 0 29 -5 36 -35 51 -22 10 -35 23 -35
36 0 19 7 19 58 1 16 -6 16 47 1 81 -12 26 -72 56 -112 56 -18 0 -19 2 -7 10
8 5 46 10 84 10 60 0 67 2 56 15 -7 8 -10 26 -8 40 4 16 -1 30 -14 42 -11 10
-25 27 -30 38 -8 14 -2 12 20 -9 19 -17 37 -26 46 -23 11 4 16 1 16 -12 0 -23
84 -83 118 -84 15 -1 53 0 85 1 l59 2 -33 28 c-18 15 -86 80 -150 146 -100
102 -121 119 -151 121 -29 3 -39 -2 -57 -26 -24 -33 -87 -66 -114 -61 -28 6
-15 23 28 37 43 15 99 68 110 103 5 18 -8 37 -77 109 -46 48 -86 87 -90 85 -8
-2 -33 39 -30 48 1 3 -3 5 -8 5 -14 0 -90 97 -84 107 3 4 1 8 -3 8 -5 0 -49
61 -98 136 -87 131 -91 135 -122 132 -17 -2 -29 0 -27 4 3 4 14 8 25 8 22 0
23 4 9 31 -15 28 -32 24 -87 -20z m-4 -254 c-35 -29 -49 -58 -49 -102 0 -33
23 -105 34 -105 2 0 32 16 65 36 44 26 66 34 83 29 58 -18 62 -47 18 -130 -32
-61 -37 -84 -19 -102 9 -9 8 -18 -5 -37 -31 -48 -14 -55 69 -31 11 3 29 -1 40
-10 18 -15 18 -16 2 -11 -11 3 -38 0 -62 -9 -39 -13 -80 -13 -93 -1 -2 3 -6
24 -9 48 -4 34 2 57 26 110 36 78 37 89 12 112 -17 16 -24 16 -57 4 -20 -7
-40 -22 -44 -33 -15 -39 -30 -116 -30 -148 0 -38 -11 -55 -57 -85 -35 -24 -48
-28 -37 -10 5 7 2 9 -8 5 -11 -4 -14 -1 -11 12 3 10 12 18 21 17 36 -3 48 114
22 220 -18 76 0 153 49 204 21 22 44 40 52 40 9 -1 4 -9 -12 -23z m-122 -133
c-9 -9 -28 6 -21 18 4 6 10 6 17 -1 6 -6 8 -13 4 -17z m441 -316 c7 -7 12 -27
12 -45 0 -27 4 -33 21 -33 18 0 20 -2 8 -16 -8 -10 -23 -14 -41 -12 -15 3 -28
0 -28 -5 0 -6 -2 -8 -4 -6 -2 2 0 26 4 54 6 40 4 52 -9 62 -14 11 -14 12 5 13
11 0 25 -5 32 -12z m262 -82 c0 -11 -19 -15 -25 -6 -3 5 1 10 9 10 9 0 16 -2
16 -4z m-90 -110 c0 -3 -4 -8 -10 -11 -5 -3 -10 -1 -10 4 0 6 5 11 10 11 6 0
10 -2 10 -4z m-93 -98 c-3 -8 -6 -5 -6 6 -1 11 2 17 5 13 3 -3 4 -12 1 -19z
m-87 -24 c0 -8 -4 -12 -10 -9 -5 3 -10 10 -10 16 0 5 5 9 10 9 6 0 10 -7 10
-16z m240 -120 c0 -8 -4 -12 -10 -9 -5 3 -10 10 -10 16 0 5 5 9 10 9 6 0 10
-7 10 -16z"/>
<path d="M3236 6445 c4 -8 8 -15 10 -15 2 0 4 7 4 15 0 8 -4 15 -10 15 -5 0
-7 -7 -4 -15z"/>
<path d="M4407 6958 c-6 -19 4 -49 14 -42 12 7 12 41 0 48 -5 4 -11 0 -14 -6z"/>
<path d="M4165 6739 c-11 -17 1 -21 15 -4 8 9 8 15 2 15 -6 0 -14 -5 -17 -11z"/>
<path d="M4053 6660 c-33 -29 -43 -45 -43 -69 0 -17 4 -31 9 -31 14 0 88 126
79 135 -2 2 -22 -14 -45 -35z"/>
<path d="M5020 6574 c0 -6 9 -37 20 -69 11 -32 20 -68 20 -81 0 -13 5 -26 10
-29 15 -10 12 21 -11 99 -19 65 -39 106 -39 80z"/>
<path d="M5080 6514 c0 -3 7 -37 16 -77 18 -79 40 -119 29 -52 -11 65 -45 164
-45 129z"/>
<path d="M2668 6078 c44 -81 98 -158 110 -158 16 0 14 3 -61 108 -63 87 -78
103 -49 50z"/>
<path d="M4232 5883 c-2 -39 3 -46 48 -89 28 -26 83 -66 122 -89 104 -61 279
-147 286 -141 3 4 12 0 21 -8 21 -19 116 -44 166 -44 30 0 35 2 22 9 -21 12
-23 44 -2 35 33 -12 7 105 -28 123 -12 6 -14 9 -4 7 15 -5 16 -3 6 15 -6 11
-13 18 -16 15 -10 -10 -32 14 -27 28 7 19 -61 75 -125 103 -72 32 -193 63
-246 63 -29 0 -47 -6 -60 -20 -18 -19 -17 -21 30 -62 98 -87 271 -195 303
-189 6 1 12 -2 12 -7 0 -6 18 -17 41 -26 41 -17 46 -38 6 -29 -19 4 -17 2 8
-16 17 -12 24 -21 15 -21 -14 0 -47 16 -163 78 -44 24 -102 70 -208 165 -43
38 -92 78 -110 89 -19 11 -37 25 -40 31 -4 5 -16 7 -27 4 -12 -2 -23 0 -25 6
-2 7 -4 -7 -5 -30z m153 -103 c3 -5 1 -10 -4 -10 -6 0 -11 5 -11 10 0 6 2 10
4 10 3 0 8 -4 11 -10z m255 -49 c0 -6 -4 -13 -10 -16 -5 -3 -10 1 -10 9 0 9 5
16 10 16 6 0 10 -4 10 -9z"/>
<path d="M2710 5585 l0 -285 53 0 c58 0 270 18 304 25 21 5 19 10 -39 92 -119
172 -221 328 -221 340 0 7 -4 10 -9 7 -7 -5 -12 10 -9 29 1 5 -2 6 -7 3 -4 -2
-19 13 -32 35 -14 21 -28 39 -32 39 -5 0 -8 -128 -8 -285z"/>
<path d="M4230 5646 l0 -133 31 -7 c17 -3 42 -6 55 -6 30 0 31 -14 2 -27 -18
-8 -9 -12 57 -22 100 -17 119 -24 80 -31 -25 -4 -15 -10 70 -39 55 -19 133
-49 174 -68 69 -31 75 -32 92 -17 10 9 16 21 12 27 -3 6 -1 7 5 3 7 -4 24 11
42 36 l32 43 -24 3 c-39 6 -42 20 -6 27 54 12 53 16 -12 42 -56 23 -66 24
-100 13 -20 -7 -45 -10 -56 -7 -17 4 -17 5 2 6 21 1 55 30 38 32 -38 3 -77 18
-198 80 -77 38 -156 83 -175 98 -20 16 -55 40 -78 55 l-43 26 0 -134z m55 14
c-3 -5 -10 -10 -16 -10 -5 0 -9 5 -9 10 0 6 7 10 16 10 8 0 12 -4 9 -10z m150
-61 c5 -5 -1 -9 -17 -9 -33 0 -58 9 -58 22 0 11 60 1 75 -13z m45 -9 c0 -5 -5
-10 -11 -10 -5 0 -7 5 -4 10 3 6 8 10 11 10 2 0 4 -4 4 -10z m198 -178 c2 -7
-2 -10 -12 -6 -9 3 -16 11 -16 16 0 13 23 5 28 -10z"/>
<path d="M4230 5316 c0 -63 -3 -122 -7 -132 -6 -16 4 -17 138 -11 79 3 172 13
207 22 70 17 162 54 162 64 0 26 -277 130 -410 155 -45 9 -84 16 -86 16 -2 0
-4 -51 -4 -114z"/>
<path d="M5059 5218 c13 -21 25 -37 27 -35 1 1 -1 18 -5 37 -4 26 -11 35 -27
36 -20 0 -20 -1 5 -38z"/>
<path d="M5100 5160 c0 -5 5 -10 11 -10 5 0 7 5 4 10 -3 6 -8 10 -11 10 -2 0
-4 -4 -4 -10z"/>
<path d="M3480 8755 c-43 -31 -37 -31 26 -1 32 17 42 25 28 25 -11 1 -35 -10
-54 -24z"/>
<path d="M4673 4234 c-22 -22 -25 -32 -20 -71 6 -53 41 -98 57 -73 6 10 10 11
10 3 0 -19 17 -16 40 7 30 30 27 99 -5 134 -30 33 -49 33 -82 0z"/>
<path d="M7477 4196 c-4 -10 -5 -21 -2 -24 9 -9 17 6 13 25 -3 17 -4 17 -11
-1z"/>
<path d="M4817 3073 c-4 -3 -7 -11 -7 -17 0 -6 5 -5 12 2 6 6 9 14 7 17 -3 3
-9 2 -12 -2z"/>
<path d="M5345 2830 c3 -5 11 -10 16 -10 6 0 7 5 4 10 -3 6 -11 10 -16 10 -6
0 -7 -4 -4 -10z"/>
<path d="M5285 2690 c-3 -6 -6 -58 -6 -116 1 -89 3 -109 18 -119 9 -7 23 -11
30 -8 7 3 13 -2 13 -12 0 -9 -4 -13 -10 -10 -6 3 -7 -1 -4 -9 3 -9 9 -14 13
-13 14 4 92 -95 87 -110 -4 -9 -2 -11 6 -7 8 5 9 2 5 -9 -4 -10 -2 -16 6 -14
7 1 11 -3 10 -10 -1 -6 4 -14 12 -17 11 -4 12 0 4 22 -6 15 -13 29 -17 32 -9
7 -31 45 -42 76 -16 41 6 27 45 -31 21 -30 39 -55 41 -55 1 0 15 13 32 28 l30
28 -28 31 c-16 17 -32 28 -36 25 -4 -4 -4 -2 -1 5 4 6 0 18 -8 26 -8 9 -15 22
-15 29 0 7 -21 39 -48 71 -26 32 -57 73 -69 90 -13 18 -27 37 -33 44 -5 7 -10
17 -10 22 0 15 -18 23 -25 11z"/>
<path d="M7240 2555 c-11 -13 -10 -14 4 -9 9 3 16 10 16 15 0 13 -6 11 -20 -6z"/>
<path d="M6781 2517 c-52 -39 -161 -146 -161 -159 0 -31 153 92 197 159 23 35
13 35 -36 0z"/>
<path d="M7196 2525 c-11 -8 -15 -15 -9 -15 6 0 16 7 23 15 16 19 11 19 -14 0z"/>
<path d="M7038 2493 c-1 -5 -32 -26 -68 -47 -36 -22 -67 -42 -70 -45 -3 -4
-22 -15 -43 -26 -54 -28 -56 -37 -5 -19 48 17 70 29 148 87 75 56 76 57 58 57
-9 0 -18 -3 -20 -7z"/>
<path d="M5300 2340 c6 -11 13 -20 16 -20 2 0 0 9 -6 20 -6 11 -13 20 -16 20
-2 0 0 -9 6 -20z"/>
<path d="M5695 2316 c22 -20 55 -41 73 -48 17 -7 32 -16 32 -21 0 -22 100 3
190 46 105 51 107 54 17 31 -45 -11 -89 -14 -162 -11 -129 7 -149 10 -171 26
-11 7 -1 -3 21 -23z"/>
<path d="M5358 2263 c45 -103 107 -201 119 -190 8 9 -39 96 -51 94 -6 -1 -11
5 -11 13 -1 14 -53 100 -61 100 -2 0 0 -8 4 -17z"/>
<path d="M5470 2210 c-13 -8 -13 -10 2 -10 9 0 20 5 23 10 8 13 -5 13 -25 0z"/>
<path d="M5605 2130 c-4 -6 7 -10 25 -10 18 0 29 4 25 10 -3 6 -15 10 -25 10
-10 0 -22 -4 -25 -10z"/>
<path d="M5525 2079 c-4 -6 -5 -12 -2 -15 2 -3 7 2 10 11 7 17 1 20 -8 4z"/>
<path d="M5526 2033 c-6 -14 -5 -15 5 -6 7 7 10 15 7 18 -3 3 -9 -2 -12 -12z"/>
<path d="M5653 1983 c-45 -3 -53 -7 -53 -24 0 -10 6 -19 13 -19 27 0 117 31
117 40 0 6 -6 9 -12 8 -7 -1 -37 -3 -65 -5z"/>
<path d="M5785 1974 c-16 -9 -50 -25 -75 -35 -25 -10 -36 -18 -25 -19 22 0
154 48 170 61 16 16 -39 10 -70 -7z"/>
<path d="M5443 1974 c-7 -3 -10 -11 -7 -18 3 -7 -7 -21 -21 -30 -15 -10 -25
-20 -22 -22 9 -9 86 36 97 56 9 17 8 20 -12 19 -13 0 -28 -3 -35 -5z"/>
<path d="M5503 1945 c-13 -19 -23 -36 -23 -38 0 -1 29 -2 64 -2 47 0 62 3 59
13 -3 6 -10 12 -15 12 -6 0 -8 11 -6 25 5 22 2 25 -26 25 -24 0 -36 -8 -53
-35z"/>
<path d="M5460 1869 c-53 -9 -93 -29 -57 -29 20 0 128 28 135 35 7 6 -8 5 -78
-6z"/>
<path d="M5830 1870 c-13 -9 -13 -10 0 -9 8 0 24 4 35 9 l20 9 -20 0 c-11 0
-27 -4 -35 -9z"/>
<path d="M2530 4253 c-27 -10 -40 -36 -40 -83 0 -58 22 -90 60 -90 53 0 82 59
60 125 -15 45 -42 62 -80 48z"/>
<path d="M3803 4180 c-11 -29 -10 -30 17 -30 27 0 28 1 17 30 -6 17 -14 30
-17 30 -3 0 -11 -13 -17 -30z"/>
<path d="M6341 4186 c-13 -33 -10 -39 17 -34 17 3 17 6 6 33 l-12 30 -11 -29z"/>
<path d="M6607 4133 c-4 -3 -7 -15 -7 -25 0 -14 8 -18 40 -18 28 0 40 4 40 15
0 24 -56 46 -73 28z"/>
<path d="M6830 4237 c0 -8 11 -17 25 -20 20 -3 25 -1 23 12 -4 21 -48 28 -48
8z"/>
<path d="M6835 4134 c-7 -41 3 -58 28 -48 23 8 33 50 17 69 -21 25 -37 17 -45
-21z"/>
<path d="M6995 2730 c-3 -5 -12 -7 -20 -4 -8 3 -31 -4 -51 -17 -39 -24 -129
-99 -119 -99 8 0 49 21 55 29 3 3 23 12 45 20 42 15 114 61 115 74 0 10 -18 9
-25 -3z"/>
<path d="M5860 2724 c19 -21 37 -41 38 -44 2 -3 2 5 0 18 -2 13 -18 32 -38 44
l-35 22 35 -40z"/>
<path d="M5149 771 c-20 -16 -24 -29 -24 -71 0 -42 4 -55 24 -71 33 -27 66
-24 90 7 30 38 28 98 -4 129 -29 30 -55 32 -86 6z"/>
<path d="M4847 783 c-4 -3 -7 -42 -7 -85 l0 -78 38 0 c62 0 97 59 72 120 -15
35 -83 64 -103 43z"/>
<path d="M6171 722 c-17 -32 -13 -42 15 -42 22 0 24 3 19 23 -11 35 -22 41
-34 19z"/>
<path d="M6752 715 c-16 -35 -16 -35 17 -35 28 0 29 1 18 30 -14 37 -20 37
-35 5z"/>
</g>
</svg>
